<svg width="16" height="16" viewBox="0 0 16 16" fill="none" xmlns="http://www.w3.org/2000/svg">
<g clip-path="url(#clip0_6_10480)">
<path d="M9.85026 12.1558C9.85026 13.0699 9.18408 13.8312 8.31177 13.9798V16H13.9903C15.0985 16 16.0001 15.0983 16.0001 13.9902V8.31165H13.3827V7.99996C13.3827 7.32339 12.8325 6.77295 12.1559 6.77295C11.4793 6.77295 10.9291 7.32339 10.9291 7.99996V8.31165H8.31177V10.3318C9.18408 10.4804 9.85026 11.2417 9.85026 12.1558Z" fill="#42A969"/>
<path d="M12.1558 6.14961C13.0697 6.14961 13.8313 6.81579 13.9798 7.68831H16V2.00976C16 0.90161 15.0984 0 13.9902 0H8.31169V2.61714H8C7.32343 2.61714 6.77319 3.16758 6.77319 3.84415C6.77319 4.52072 7.32343 5.07116 8 5.07116H8.31169V7.68831H10.3318C10.4806 6.81579 11.242 6.14961 12.1558 6.14961Z" fill="#FF6681"/>
<path d="M6.14981 3.84415C6.14981 2.93008 6.81599 2.16873 7.68831 2.02015V0H2.00976C0.90161 0 0 0.90161 0 2.00976V7.6883H2.61735V7.99999C2.61735 8.67656 3.16758 9.22701 3.84415 9.22701C4.52072 9.22701 5.07096 8.67656 5.07096 7.99999V7.6883H7.68831V5.66815C6.81599 5.51958 6.14981 4.75823 6.14981 3.84415Z" fill="#6A5AE0"/>
<path d="M3.84415 9.85047C2.93028 9.85047 2.16873 9.18429 2.02015 8.31177H0V13.9903C0 15.0985 0.90161 16.0001 2.00976 16.0001H7.68831V13.3829H7.99999C8.67656 13.3829 9.2268 12.8325 9.2268 12.1559C9.2268 11.4793 8.67656 10.9289 7.99999 10.9289H7.68831V8.31177H5.66815C5.51937 9.18429 4.75802 9.85047 3.84415 9.85047Z" fill="#FB9730"/>
</g>
<defs>
<clipPath id="clip0_6_10480">
<rect width="16" height="16" fill="white"/>
</clipPath>
</defs>
</svg>
