<svg width="13" height="12" viewBox="0 0 13 12" fill="none" xmlns="http://www.w3.org/2000/svg">
<path d="M12.8901 5.26233C12.8887 4.45415 12.5746 3.67787 12.0136 3.0961C11.4526 2.51434 10.6883 2.17223 9.88069 2.14145C9.66529 1.53225 9.26632 1.00479 8.73873 0.631734C8.21113 0.258672 7.58086 0.0583496 6.93469 0.0583496C6.28852 0.0583496 5.65824 0.258672 5.13065 0.631734C4.60305 1.00479 4.20409 1.53225 3.98869 2.14145C3.3479 2.1642 2.72967 2.38376 2.21808 2.77028C1.70648 3.1568 1.32636 3.69152 1.1294 4.30171C0.932442 4.9119 0.928212 5.56795 1.11728 6.18063C1.30635 6.79331 1.67955 7.33289 2.18611 7.72598C2.10251 8.00796 2.0598 8.30048 2.05928 8.5946C2.06132 9.42301 2.39183 10.2168 2.97833 10.8019C3.56483 11.3869 4.35943 11.7155 5.18784 11.7155C5.81661 11.7178 6.43098 11.5273 6.94814 11.1697C7.46263 11.5157 8.06921 11.6992 8.68922 11.6963C9.17157 11.6956 9.6472 11.5832 10.0788 11.3678C10.5104 11.1524 10.8861 10.8399 11.1766 10.4548C11.4671 10.0698 11.6644 9.62261 11.7529 9.14847C11.8415 8.67432 11.819 8.1861 11.6871 7.72213C12.0614 7.43055 12.3643 7.05745 12.5728 6.63121C12.7812 6.20497 12.8898 5.73681 12.8901 5.26233ZM9.431 3.18303C9.42928 3.78043 9.21354 4.35744 8.8229 4.80942C8.43226 5.26141 7.89259 5.55844 7.30174 5.64667C7.2818 5.51952 7.27152 5.39104 7.27099 5.26233C7.27178 4.66528 7.4867 4.08832 7.87671 3.63625C8.26671 3.18418 8.80593 2.887 9.39641 2.79868C9.41781 2.92572 9.42937 3.05421 9.431 3.18303ZM6.9443 10.3703C6.70653 10.14 6.51707 9.86456 6.38697 9.56018C6.25688 9.25579 6.18876 8.92853 6.18662 8.59751C6.18447 8.2665 6.24833 7.93838 6.37447 7.63233C6.5006 7.32629 6.68648 7.04846 6.92124 6.81508C7.15994 7.04485 7.35025 7.32006 7.48094 7.62452C7.61164 7.92897 7.68007 8.2565 7.68222 8.58781C7.68437 8.91912 7.62019 9.24752 7.49346 9.55364C7.36672 9.85976 7.18 10.1374 6.9443 10.3703ZM4.46143 2.79868C5.05192 2.887 5.59114 3.18418 5.98114 3.63625C6.37115 4.08832 6.58607 4.66528 6.58686 5.26233C6.58633 5.39104 6.57605 5.51952 6.55611 5.64667C6.22928 5.60234 5.9147 5.49273 5.63108 5.32436C5.34746 5.156 5.1006 4.93231 4.90518 4.66661C4.70976 4.40091 4.56977 4.09863 4.49354 3.77773C4.41731 3.45683 4.40639 3.12388 4.46143 2.79868ZM6.32166 6.38077C6.11388 6.794 5.79546 7.14143 5.40188 7.38437C5.00829 7.62731 4.55499 7.75621 4.09246 7.75673C3.69089 7.75949 3.29484 7.66312 2.93943 7.47615C3.14633 7.06193 3.46443 6.71347 3.85814 6.46978C4.25184 6.22609 4.70561 6.09679 5.16863 6.09636C5.57041 6.09572 5.96626 6.19336 6.32166 6.38077ZM7.51697 6.38077C7.8115 6.22622 8.13404 6.13234 8.46551 6.10466C8.79697 6.07699 9.13062 6.1161 9.4467 6.21966C9.76278 6.32323 10.0549 6.48916 10.3057 6.70762C10.5565 6.92609 10.7609 7.19265 10.9069 7.49153C10.6121 7.64235 10.2901 7.73278 9.9599 7.7575C9.62968 7.78222 9.29785 7.74073 8.98388 7.63548C8.6699 7.53022 8.38012 7.36332 8.13152 7.14456C7.88292 6.9258 7.68052 6.65959 7.53619 6.36156M6.93277 0.684789C7.42187 0.682901 7.90083 0.824184 8.3106 1.09122C8.72037 1.35825 9.04305 1.73937 9.23883 2.18758C8.74138 2.2729 8.27191 2.47717 7.87039 2.78299C7.46888 3.08881 7.14721 3.48713 6.93277 3.94403C6.72068 3.48911 6.40213 3.09198 6.00407 2.78624C5.606 2.4805 5.14014 2.27515 4.64592 2.18758C4.83959 1.74178 5.1591 1.36216 5.56529 1.09523C5.97148 0.828306 6.44672 0.685665 6.93277 0.684789ZM1.6096 5.26233C1.61065 4.64774 1.83821 4.05511 2.24876 3.59776C2.65931 3.14041 3.22404 2.85044 3.83495 2.78331C3.81868 2.91081 3.8097 3.03913 3.80805 3.16765C3.80859 3.60202 3.89981 4.03149 4.07585 4.42858C4.2519 4.82568 4.5089 5.18165 4.8304 5.47372C4.32976 5.53153 3.85053 5.70957 3.43359 5.99267C3.01665 6.27576 2.67437 6.6555 2.43594 7.0995C2.17574 6.86612 1.96767 6.58052 1.82529 6.26132C1.6829 5.94211 1.60941 5.59648 1.6096 5.24696M2.68961 8.57922C2.69006 8.40617 2.70809 8.23361 2.74341 8.0642C3.19274 8.28126 3.68753 8.38756 4.18636 8.37418C4.68519 8.36081 5.17357 8.22816 5.61062 7.98733C5.51474 8.48134 5.54019 8.99124 5.68479 9.47325C5.82939 9.95525 6.08882 10.395 6.44081 10.7546C6.06214 10.9769 5.63146 11.095 5.1924 11.0972C4.75334 11.0994 4.32151 10.9854 3.94068 10.7669C3.55985 10.5484 3.24355 10.2331 3.02385 9.85295C2.80414 9.47281 2.68883 9.04135 2.68961 8.60228M11.1798 8.57922C11.1811 9.0164 11.0675 9.44624 10.8503 9.82568C10.6332 10.2051 10.3201 10.5208 9.94252 10.7411C9.56492 10.9615 9.13605 11.0787 8.69888 11.0811C8.2617 11.0834 7.83159 10.9708 7.45163 10.7546C8.00401 10.1716 8.30972 9.39771 8.30488 8.5946C8.30548 8.39332 8.28617 8.19249 8.24722 7.99502C8.711 8.25009 9.23226 8.38239 9.76154 8.37936C10.2346 8.38149 10.7017 8.27359 11.126 8.0642C11.1613 8.22841 11.1794 8.39587 11.1798 8.56385M9.07356 5.46988C9.39163 5.17635 9.64483 4.81958 9.81692 4.42245C9.98901 4.02532 10.0762 3.59661 10.0729 3.16381C10.0725 3.03536 10.0648 2.90704 10.0498 2.77947C10.5278 2.83037 10.9809 3.01854 11.3544 3.32127C11.7279 3.624 12.0057 4.02835 12.1545 4.48551C12.3032 4.94267 12.3164 5.43311 12.1926 5.89763C12.0687 6.36215 11.8131 6.7809 11.4565 7.10334C11.2193 6.65999 10.879 6.28017 10.4643 5.99588C10.0496 5.7116 9.57261 5.53119 9.07356 5.46988Z" fill="#1A3668"/>
</svg>
