<svg width="30" height="32" viewBox="0 0 30 32" fill="none" xmlns="http://www.w3.org/2000/svg">
<path d="M20.4274 23.2783L26.0383 22.1763C26.2181 22.1406 26.3915 22.1241 26.5625 22.1241C27.3673 22.1241 28.093 22.4837 28.6542 23.0462C29.1822 23.5755 29.5636 24.2936 29.7116 25.0499C29.7575 25.2872 29.7817 25.5257 29.7817 25.7629V31.25C29.7817 31.6645 29.4463 32 29.0317 32H17.7186C17.3041 32 16.9686 31.6646 16.9686 31.25V26.8649C16.9686 25.9096 17.3436 25.1239 17.9482 24.5193C18.5833 23.8842 19.4734 23.4658 20.4274 23.2783ZM7.46763 0H22.3153C23.0844 0 23.7808 0.313763 24.2859 0.817565C24.791 1.32265 25.1035 2.02032 25.1035 2.78816V5.9296C25.1035 6.69744 24.7897 7.39511 24.2859 7.9002C23.7808 8.40528 23.0844 8.71776 22.3153 8.71776H19.1879C18.9787 8.71776 18.7887 8.7573 18.6254 8.83766C18.4583 8.91801 18.3091 9.04045 18.1803 9.20244L17.0719 10.5927C16.8002 10.932 16.475 11.1947 16.1051 11.372C15.7327 11.5518 15.3246 11.6449 14.8922 11.6449C14.4598 11.6449 14.0529 11.5531 13.6792 11.372C13.3094 11.1934 12.9829 10.9319 12.7125 10.5927L11.6041 9.20244C11.4753 9.04046 11.3248 8.91801 11.159 8.83766C10.9957 8.75985 10.8069 8.71776 10.5965 8.71776H7.46906C6.69995 8.71776 6.00356 8.404 5.49847 7.9002C4.99338 7.39511 4.68091 6.69744 4.68091 5.9296V2.78816C4.68091 2.02032 4.99467 1.32265 5.49847 0.817565C6.00356 0.312476 6.69852 0 7.46763 0ZM4.59523 12.9535C5.46638 12.0823 6.6704 11.5441 7.99949 11.5441C9.32858 11.5441 10.5313 12.0823 11.4038 12.9535C12.2749 13.8246 12.8144 15.0286 12.8144 16.3577C12.8144 16.4279 12.8118 16.5159 12.8055 16.6217L12.8042 16.637C12.7978 16.7365 12.7902 16.8271 12.7812 16.91C12.7494 17.1868 12.5631 17.4342 12.2838 17.5311L10.7125 18.0808L11.3221 18.9188C11.5555 19.2236 11.5186 19.6624 11.229 19.9251C10.7941 20.3205 10.2865 20.6356 9.73038 20.8498C9.18829 21.059 8.60543 21.1725 7.99958 21.1725C6.67056 21.1725 5.46653 20.6343 4.59532 19.7631C3.72417 18.892 3.18467 17.688 3.18467 16.3589C3.18467 15.0299 3.72281 13.8247 4.59523 12.9535ZM3.74449 22.1762L9.35535 23.2782C10.3094 23.4657 11.1984 23.8841 11.8335 24.5193C12.4381 25.1238 12.8131 25.9095 12.8131 26.8648V31.2499C12.8131 31.6644 12.4777 31.9999 12.0631 31.9999H0.749976C0.335463 31.9999 0 31.6645 0 31.2499V25.7628C0 25.5256 0.0242337 25.2871 0.0701488 25.0498C0.219377 24.2935 0.599465 23.5767 1.12751 23.0461C1.68742 22.4836 2.41444 22.124 3.21924 22.124C3.39015 22.124 3.56465 22.1405 3.74449 22.1762ZM21.7845 11.5442C23.1135 11.5442 24.3176 12.0824 25.1888 12.9536C26.0599 13.8247 26.5994 15.0288 26.5994 16.3578C26.5994 17.6869 26.0612 18.8909 25.1888 19.7621C24.3176 20.6332 23.1136 21.1715 21.7845 21.1715C21.1787 21.1715 20.5958 21.0567 20.0537 20.8488C19.4976 20.6345 18.9913 20.3195 18.5551 19.9241C18.2656 19.6614 18.2286 19.2239 18.462 18.9178L19.0716 18.0798L17.5003 17.5301C17.2197 17.4319 17.0347 17.1857 17.0041 16.9089C16.9952 16.826 16.985 16.7342 16.9799 16.636L16.9786 16.6207C16.9723 16.5148 16.9697 16.4255 16.9697 16.3567C16.9697 15.0277 17.5079 13.8236 18.3804 12.9524C19.2515 12.0813 20.4554 11.5442 21.7845 11.5442Z" fill="#42A969"/>
</svg>
