<svg width="61" height="52" viewBox="0 0 61 52" fill="none" xmlns="http://www.w3.org/2000/svg">
<g clip-path="url(#clip0_7197_2178)">
<path d="M8.6966 12.4249C9.57877 12.1107 10.481 12.3996 11.3782 12.3945C11.7742 12.1158 12.1125 11.766 12.4634 11.4391C11.694 11.2491 10.9371 10.9982 10.2354 10.6256C10.4058 10.575 10.7441 10.471 10.9146 10.4204C9.67901 9.98447 8.52618 9.34331 7.4385 8.62106C7.96981 8.52982 8.50112 8.43606 9.03493 8.36256C8.35325 7.96215 7.5588 7.86585 6.90469 8.37017C6.38842 7.59722 5.70674 6.65449 6.10773 5.67881C6.53378 5.16436 7.2355 5.04271 7.8445 4.88052C10.7166 4.31539 13.6037 3.70717 16.3128 2.56423C15.8291 2.288 15.3956 1.94334 14.9595 1.60122C14.8542 1.52773 14.6412 1.38328 14.536 1.30725C12.9846 1.00821 11.4058 1.48465 9.877 1.74821C7.22548 2.20183 4.55892 2.91395 2.25576 4.36354C1.24577 4.98189 0.356085 5.91449 0.105469 7.11825C0.273382 7.69099 0.486406 8.26626 0.842281 8.7503C3.19306 10.4787 5.90473 11.6495 8.6966 12.4249Z" fill="#6A92AB"/>
<path d="M49.6016 2.14095C49.1931 2.30568 48.7746 2.44253 48.3535 2.57177C49.9399 2.79225 51.3634 3.60574 52.9348 3.90732C55.2154 4.56875 57.6539 4.95649 59.6338 6.35792C59.7941 6.22108 59.9169 5.97525 60.1626 6.0234C60.3831 6.98895 60.4658 8.01025 60.2854 8.99353C60.1751 9.5764 59.5736 9.83743 59.1451 10.1567C57.1401 11.4898 54.837 12.212 52.5814 12.9773C52.6691 13.028 52.8446 13.1269 52.9348 13.175C52.619 13.2967 52.3057 13.4158 51.9975 13.5425C52.0576 15.1315 51.6441 16.6773 51.4862 18.2511C51.193 21.0312 50.8296 23.8366 51.1228 26.6369C51.3208 28.2816 51.3008 29.9517 51.6742 31.571C51.817 31.6319 52.1002 31.756 52.2431 31.8143C52.2255 32.159 52.208 32.5062 52.198 32.861C52.9097 32.8331 53.4561 32.382 53.9648 31.9258C53.9247 32.3161 53.8871 32.7114 53.8545 33.1093C54.7517 32.2274 55.0525 30.7905 56.1602 30.162L56.2279 30.1215C57.4434 26.7205 58.4709 23.2511 59.2754 19.7311C60.1676 15.4685 61.165 11.1603 60.9746 6.77354C60.9319 6.14505 60.7415 5.51149 60.2954 5.06039C58.0073 2.83533 54.7918 2.33862 51.9022 1.35534C51.5965 1.29198 51.2882 1.23623 50.9825 1.18555C50.5339 1.515 50.0978 1.87233 49.6041 2.13335L49.6016 2.14095Z" fill="#658CA5"/>
<path d="M12.8562 7.73216C16.8886 7.39257 20.9511 7.66373 24.9961 7.4686C24.8908 6.79702 24.778 6.12799 24.6627 5.46908C24.4297 5.06107 24.1891 4.66826 23.9585 4.26532C23.5851 4.30333 23.2142 4.34642 22.8433 4.39964C21.5476 4.57703 20.1391 4.97237 18.886 4.40217C17.9838 3.85224 17.2796 3.01594 16.3097 2.56738C13.6005 3.71032 10.7134 4.31854 7.84138 4.88368C7.23238 5.0484 6.53066 5.16751 6.10461 5.68196C5.70362 6.65764 6.38279 7.60038 6.90157 8.37332C7.55568 7.86647 8.34762 7.96531 9.03181 8.36572C10.8964 8.1427 12.771 8.02866 14.6456 7.9425C14.0466 7.89181 13.4477 7.81325 12.8537 7.73216H12.8562Z" fill="#52788F"/>
<path d="M40.7375 5.80888C40.6473 5.77594 40.5596 5.74299 40.4719 5.71005C39.2313 5.35525 38.5973 6.78963 37.9883 7.66901C41.4543 7.75518 44.9253 7.43079 48.3914 7.61072C51.1657 7.95285 53.9425 8.28736 56.7118 8.6827C57.8622 8.16826 58.8671 7.36237 59.6365 6.36135C57.6541 4.95738 55.2156 4.56964 52.9375 3.91074C51.3662 3.60916 49.9427 2.79567 48.3563 2.5752C46.5644 2.99841 45.2937 4.46574 43.8226 5.47943C42.9555 6.27772 41.7601 6.29799 40.7375 5.81395V5.80888Z" fill="#4E748F"/>
<path d="M40.7373 5.8088C40.6446 5.76571 40.5569 5.7353 40.4717 5.70996C40.5619 5.74291 40.6471 5.77839 40.7373 5.8088Z" fill="#4E748F"/>
<path d="M25.0817 8.0056C25.2095 8.02334 25.4651 8.06135 25.593 8.07655C25.7007 7.58745 25.811 7.10594 25.9188 6.62444C26.5979 8.39587 28.1994 9.68833 28.5101 11.6093C27.217 11.7005 25.8837 11.3888 24.6306 11.8272C26.3799 11.959 28.1267 12.1111 29.8785 12.2276C30.267 12.1693 30.6579 12.1161 31.0439 12.0578C30.3446 11.888 29.4048 12.1415 28.8961 11.5383C29.1768 10.2408 29.6329 8.9534 29.5101 7.60519C29.5502 6.64725 29.1968 5.30917 30.2695 4.80232C30.1041 4.77951 29.7757 4.73896 29.6103 4.71616C29.4474 4.55903 29.287 4.40191 29.1266 4.24986C28.8259 5.27622 28.6831 6.33553 28.5853 7.39991C28.5051 7.50382 28.3397 7.70656 28.262 7.80793C28.2219 8.1171 28.1843 8.43135 28.1492 8.74813C27.846 8.08162 27.5277 7.42272 27.1969 6.77396C27.257 6.50279 27.3197 6.2367 27.3824 5.97314C26.8711 5.86923 26.4275 5.593 26.0566 5.23568C25.3624 5.06081 25.0165 4.35883 24.5654 3.86719C24.6005 4.39684 24.6231 4.9341 24.6682 5.46882C24.781 6.13026 24.8962 6.79676 25.0015 7.46834C25.0241 7.60012 25.0642 7.87128 25.0842 8.0056H25.0817Z" fill="#40382F"/>
<path d="M34.1615 11.6321C34.6627 10.1851 35.6176 8.95342 36.6827 7.88904C36.6476 7.74205 36.5825 7.45315 36.5524 7.30616C35.7529 7.15158 34.9234 7.09329 34.1665 6.77904C33.5525 6.35076 33.1866 5.60316 32.4648 5.33199C31.7631 5.04816 31.0113 4.90624 30.2669 4.7998C29.1943 5.30665 29.5477 6.64473 29.5076 7.60267C29.6304 8.95088 29.1742 10.2383 28.8936 11.5358C29.4023 12.139 30.3421 11.8855 31.0413 12.0553C30.6554 12.1136 30.2644 12.1668 29.876 12.2251C34.6226 12.6711 39.4119 12.5698 44.1335 11.9185C48.4191 11.3457 52.7998 10.6412 56.7095 8.68225C53.9401 8.28438 51.1633 7.95239 48.389 7.61027C44.9205 7.43034 41.4494 7.75472 37.9859 7.66856C36.8055 9.0776 35.585 10.4714 34.159 11.6321H34.1615Z" fill="#543E32"/>
<path d="M27.3798 5.97324C27.3171 6.2368 27.2545 6.50543 27.1943 6.77406C27.5251 7.42282 27.8434 8.08172 28.1467 8.74823C28.1843 8.43145 28.2194 8.11974 28.2595 7.80802C28.2344 7.24542 28.1993 6.68789 28.2043 6.13289C27.9286 6.07714 27.653 6.02392 27.3773 5.9707L27.3798 5.97324Z" fill="#5F5345"/>
<path d="M56.7124 8.6822C52.8028 10.6437 48.4245 11.3457 44.1365 11.9184C39.4149 12.5697 34.6256 12.6711 29.8789 12.2251C28.1271 12.111 26.3803 11.959 24.631 11.8247C20.0447 11.5611 15.3883 11.594 10.9123 10.4182C10.7419 10.4663 10.4035 10.5702 10.2331 10.6234C10.9348 10.996 11.6917 11.2469 12.4611 11.4369C12.1077 11.7613 11.7694 12.1136 11.3759 12.3923C10.4812 12.3974 9.57651 12.111 8.69434 12.4227C9.79955 12.7699 10.9248 13.0386 12.0401 13.3452C14.6941 14.1815 17.4784 14.5642 20.2578 14.516C23.7614 14.7035 27.27 14.7644 30.7786 14.6833C38.0691 14.6681 45.4723 14.8784 52.5848 12.9777C54.8378 12.2124 57.1435 11.4927 59.1484 10.1571C59.577 9.83781 60.1784 9.57679 60.2887 8.99391C60.4717 8.01063 60.389 6.98933 60.1659 6.02379C59.9203 5.97564 59.7975 6.21892 59.6371 6.35831C58.8677 7.36187 57.8627 8.16522 56.7124 8.67967V8.6822Z" fill="#769DB4"/>
<path d="M28.5122 11.6089C28.199 9.68792 26.6 8.39545 25.9209 6.62402C25.8131 7.10299 25.7028 7.58703 25.5951 8.07614C25.4673 8.0584 25.2116 8.02039 25.0838 8.00518C21.6153 7.76696 18.1292 7.90128 14.6507 7.94183C12.7735 8.02799 10.9014 8.1395 9.03686 8.36504C8.50304 8.43854 7.97174 8.5323 7.44043 8.62354C8.5281 9.34579 9.68094 9.98696 10.9165 10.4228C15.39 11.5987 20.0489 11.5633 24.6352 11.8293C25.8883 11.3884 27.2216 11.7026 28.5148 11.6114L28.5122 11.6089Z" fill="#554033"/>
<path d="M0.446395 9.35376C0.576716 9.14848 0.709542 8.95081 0.842369 8.75314C0.486494 8.26657 0.27347 7.6913 0.105557 7.12109C-0.0698745 8.60362 -0.0222574 10.1166 0.215828 11.5915C0.303544 11.4445 0.473963 11.1505 0.559172 11.001C0.546642 10.4485 0.496518 9.90115 0.446395 9.35376Z" fill="#486676"/>
<path d="M12.8564 7.73231C13.4504 7.81341 14.0469 7.88943 14.6484 7.94265C18.1244 7.9021 21.613 7.76779 25.0815 8.00601C25.0615 7.87169 25.0214 7.60053 24.9988 7.46875C20.9539 7.66389 16.8914 7.39526 12.859 7.73231H12.8564Z" fill="#668696"/>
<path d="M26.5122 51.2096C30.3943 51.7063 34.3465 51.5745 38.2235 51.0651C35.6372 51.131 33.0709 50.7712 30.497 50.576C28.7628 50.3961 27.021 50.0058 25.4972 49.1188C22.8106 47.5501 20.5701 45.2719 18.8684 42.6641C17.3597 40.2667 16.1167 37.7198 14.8511 35.1907C13.4877 32.5094 12.9188 29.5064 12.4627 26.554C12.0216 22.1672 11.8913 17.7526 12.0391 13.3481C10.9239 13.0414 9.79863 12.7728 8.69342 12.4256C5.90155 11.6527 3.18988 10.4793 0.839102 8.75098C0.708782 8.94865 0.575955 9.14885 0.443129 9.35159C0.493252 9.89899 0.545881 10.4464 0.555906 10.9988C0.470696 11.1484 0.300277 11.4423 0.212562 11.5893L0.1875 11.6324C0.548387 14.344 1.11478 17.0202 1.75636 19.6761C3.43799 26.6199 5.6384 33.5155 9.24477 39.7067C11.0191 42.6692 12.6381 45.7635 14.9012 48.3864C15.5102 49.1163 16.1417 49.9627 17.1342 50.1376C19.6779 50.7103 22.2417 51.2324 24.8356 51.5264C25.3569 51.2653 25.9283 51.1158 26.5097 51.2096H26.5122Z" fill="#466A87"/>
<path d="M53.8547 33.1144C53.8898 32.714 53.9249 32.3212 53.965 31.9309C53.4562 32.3845 52.9074 32.8356 52.1981 32.866C52.2107 32.5113 52.2257 32.1641 52.2432 31.8194C52.1004 31.7586 51.8172 31.6344 51.6743 31.5761C51.3009 29.9542 51.321 28.2841 51.123 26.642C50.8298 23.8416 51.1932 21.0362 51.4864 18.2562C51.6468 16.6849 52.0578 15.1365 51.9976 13.5476C52.3084 13.4208 52.6192 13.2992 52.9349 13.1801C52.8472 13.1319 52.6718 13.0331 52.5816 12.9824C45.4691 14.8831 38.0684 14.6728 30.7754 14.688C27.2668 14.7691 23.7607 14.7082 20.2546 14.5207C17.4752 14.5689 14.6909 14.1862 12.0369 13.3499C11.889 17.7544 12.0193 22.169 12.4604 26.5558C12.914 29.5082 13.4829 32.5112 14.8488 35.1925C16.1144 37.7216 17.3549 40.2685 18.8662 42.6659C20.5678 45.2762 22.8084 47.5519 25.495 49.1206C27.0187 50.0076 28.7605 50.3979 30.4948 50.5778C33.0661 50.773 35.6349 51.1328 38.2213 51.0669C39.8427 50.9098 41.4141 50.403 43.0506 50.4258C45.0405 50.0887 46.0756 48.1602 47.2309 46.708C51.0628 41.7333 54.2582 36.1986 56.1554 30.1696C55.0476 30.7956 54.7494 32.2325 53.8497 33.1169L53.8547 33.1144ZM16.959 18.6819C18.3323 18.1523 20.1593 19.2471 20.0365 20.8284C20.1643 22.3084 18.9839 23.7631 17.4401 23.5629C14.9741 23.4514 15.0242 19.5638 16.9565 18.6819H16.959ZM21.0164 26.2846C20.6731 27.9598 18.5028 28.3678 17.1169 27.9116C16.2322 27.6531 16.0492 26.4164 16.6056 25.7676C17.0592 25.2152 17.7459 24.9364 18.41 24.7463C19.4752 24.3231 21.1643 24.9237 21.0164 26.2846ZM36.507 24.2877C35.081 26.642 32.3894 28.2461 29.6376 28.16C26.327 28.0941 23.3722 25.6131 22.2019 22.5745C22.6881 22.4858 23.0915 22.7392 23.3271 23.1574C24.6003 25.0631 26.4598 26.7332 28.7655 27.1437C31.199 27.6734 33.7678 26.4772 35.2389 24.5081C35.8554 23.8036 36.274 22.8558 37.1637 22.4554C37.2739 23.1472 36.8679 23.7377 36.5095 24.2851L36.507 24.2877ZM44.1308 25.7372C42.8577 26.571 41.2086 26.5152 39.8077 26.0844C39.1535 25.8614 38.3541 25.385 38.4769 24.5664C38.4117 23.644 39.2588 23.0079 40.0407 22.7722C40.8502 22.5492 41.7073 22.5492 42.5419 22.5644C41.9153 22.2805 41.2362 22.1994 40.577 22.0677C40.374 21.6571 40.8151 21.3099 41.0457 21.0388C40.344 20.5699 39.6648 19.9541 39.4768 19.0899C39.0307 18.3398 39.3716 17.2932 39.968 16.7077C41.5219 15.3241 43.998 16.875 44.1057 18.7858C44.3112 19.8071 43.8225 20.9019 42.8652 21.3277C43.1007 21.3682 43.5794 21.4468 43.815 21.4848C43.5368 21.9004 43.2461 22.3109 42.9504 22.719C43.5469 22.9851 44.2486 23.1624 44.6796 23.6997C45.0656 24.3916 44.7849 25.3191 44.1283 25.7372H44.1308Z" fill="#547D9A"/>
<path d="M44.1084 18.7865C44.0006 16.8757 41.5245 15.3247 39.9707 16.7084C40.7476 16.6856 41.522 16.7312 42.2989 16.7997C41.6924 17.1671 40.6674 17.3395 40.6774 18.2467C40.5847 19.0146 41.2138 19.5164 41.7501 19.932C42.3165 19.6456 42.9179 19.453 43.5445 19.3567C43.3064 19.8306 43.2613 20.6162 42.6147 20.6973C41.2839 21.0825 40.4619 19.7216 39.4795 19.0931C39.6675 19.9573 40.3466 20.5731 41.0483 21.042C41.6398 21.227 42.2563 21.2751 42.8703 21.3283C43.8252 20.9026 44.3139 19.8078 44.1109 18.7865H44.1084ZM42.8929 18.7029C42.4017 18.8296 41.6699 18.974 41.3767 18.4292C41.2238 17.2482 43.2011 17.5903 42.8929 18.7029Z" fill="#252123"/>
<path d="M42.6126 20.695C43.2567 20.6139 43.3043 19.8308 43.5424 19.3544C42.9158 19.4482 42.3143 19.6408 41.7479 19.9297C41.2141 19.5166 40.5826 19.0123 40.6753 18.2444C40.6628 17.3397 41.6903 17.1674 42.2968 16.7974C41.5199 16.7289 40.7455 16.6833 39.9686 16.7061C39.3721 17.2915 39.0313 18.3382 39.4774 19.0883C40.4598 19.7168 41.2818 21.0777 42.6126 20.6925V20.695Z" fill="#362C30"/>
<path d="M41.3766 18.4318C41.6698 18.9742 42.3991 18.8323 42.8928 18.7055C43.2036 17.593 41.2237 17.2509 41.3766 18.4318Z" fill="#FFFFFD"/>
<path d="M20.0369 20.8312C20.1597 19.2499 18.3302 18.1551 16.9593 18.6847C15.0271 19.5666 14.9744 23.4542 17.443 23.5657C18.9868 23.7659 20.1672 22.3112 20.0394 20.8312H20.0369ZM16.007 21.6853C16.0721 21.3127 16.4355 21.1075 16.6586 20.8363C16.6185 20.5094 16.6586 20.1977 16.7764 19.9088C17.1222 19.592 17.6385 19.7643 18.052 19.7111C18.0169 19.2549 18.8139 19.1485 19.0494 19.4475C20.5531 20.6133 19.29 23.5175 17.4154 23.1602C16.616 23.1779 16.1824 22.3619 16.0095 21.6853H16.007Z" fill="#161619"/>
<path d="M19.0497 19.4457C18.8142 19.1466 18.0172 19.2531 18.0523 19.7092C18.0347 20.0818 18.1626 20.4923 18.0047 20.8471C17.6488 21.2703 17.0373 21.1487 16.6614 20.8344C16.4408 21.1056 16.0749 21.3083 16.0098 21.6834C16.1827 22.36 16.6188 23.1761 17.4157 23.1583C19.2928 23.5156 20.5534 20.6114 19.0497 19.4457Z" fill="#2C2629"/>
<path d="M18.0014 20.8488C18.1618 20.4915 18.0315 20.0835 18.049 19.7109C17.633 19.7667 17.1193 19.5918 16.7734 19.9086C16.6556 20.2 16.618 20.5092 16.6556 20.8361C17.0341 21.1504 17.6456 21.2695 17.9989 20.8488H18.0014Z" fill="#FDFFFF"/>
<path d="M43.8179 21.4855C43.5823 21.4449 43.1036 21.3664 42.868 21.3284C42.254 21.2726 41.6375 21.2245 41.046 21.042C40.8155 21.3132 40.3744 21.6603 40.5774 22.0709C41.2365 22.2027 41.9157 22.2838 42.5422 22.5676C42.645 22.6056 42.853 22.6816 42.9532 22.7197C43.249 22.3116 43.5397 21.9036 43.8179 21.4855Z" fill="#4E82A9"/>
<path d="M35.2363 24.5111C33.7677 26.4802 31.1963 27.6764 28.7629 27.1467C26.4572 26.7362 24.5976 25.0661 23.3245 23.1604C23.0889 22.7397 22.6854 22.4888 22.1992 22.5775C23.3696 25.6161 26.3244 28.0971 29.635 28.163C32.3868 28.2491 35.0784 26.645 36.5044 24.2907C36.8628 23.7407 37.2688 23.1528 37.1585 22.4609C36.2688 22.8613 35.8503 23.8092 35.2338 24.5137L35.2363 24.5111Z" fill="#2C1815"/>
<path d="M42.9554 22.7195C42.8526 22.6815 42.6446 22.6055 42.5444 22.5675C41.7098 22.5497 40.8527 22.5497 40.0432 22.7753C39.2613 23.011 38.4142 23.6471 38.4794 24.5695C38.3566 25.3881 39.1561 25.862 39.8102 26.0875C41.2111 26.5183 42.8602 26.5741 44.1333 25.7403C44.7899 25.3196 45.0706 24.3947 44.6847 23.7028C44.2561 23.1655 43.5544 22.9907 42.9554 22.7221V22.7195Z" fill="#E5937F"/>
<path d="M18.4105 24.7496C17.7464 24.9396 17.0597 25.2184 16.6061 25.7709C16.0497 26.4196 16.2327 27.6563 17.1173 27.9148C18.5033 28.371 20.6736 27.963 21.0169 26.2879C21.1648 24.9295 19.4756 24.3264 18.4105 24.7496Z" fill="#E6987C"/>
<path d="M26.513 51.2092C25.929 51.1154 25.3601 51.265 24.8389 51.526C28.3074 51.972 31.8135 52.1038 35.3046 51.9163C37.9185 51.673 40.5926 51.4018 43.0537 50.4236C41.4171 50.4008 39.8433 50.9076 38.2243 51.0648C34.3472 51.5741 30.395 51.7059 26.513 51.2092Z" fill="#476072"/>
<path d="M39.8233 7.68102L21.0245 7.73677L11.4385 4.11535L17.7966 2.01953H23.9367H42.1741L49.5196 2.83302L48.3568 5.97294L39.8233 7.68102Z" fill="#4E748F"/>
<path d="M39.8225 7.68141L36.1259 6.02148L33.2939 12.2278L37.1785 11.5892" fill="#543E32"/>
<path d="M11.9844 1.19337C11.9844 1.19337 30.6377 -1.59936 51.9025 1.36316L50.677 2.57453L48.3563 3.37281H14.4981" fill="#6A92AB"/>
</g>
<defs>
<clipPath id="clip0_7197_2178">
<rect width="61" height="52" fill="white"/>
</clipPath>
</defs>
</svg>
