<svg width="69" height="48" viewBox="0 0 69 48" fill="none" xmlns="http://www.w3.org/2000/svg">
<g clip-path="url(#clip0_7197_1954)">
<path d="M56.4442 1.85218C56.4442 1.85218 28.3048 -2.17504 14.6905 1.64411C1.07634 5.46326 12.6916 3.48768 12.6916 3.48768L14.6905 5.95547H57.6149" fill="#F0D088"/>
<path d="M14.7203 4.75879L56.0688 4.78787V9.93377L15.1433 10.5132L13.9346 9.93377" fill="#9E5B2C"/>
<path d="M56.0682 4.78548C58.6962 5.01816 61.2726 5.62448 63.8423 6.18829C64.3326 6.30911 64.8563 6.73644 64.6571 7.30473C64.3572 7.81037 63.6834 7.86854 63.1663 8.03187C60.4578 8.61581 57.6866 8.8127 54.9311 9.01182C50.584 9.27359 46.2415 9.58011 41.8854 9.68526C41.637 9.69645 41.3908 9.70764 41.149 9.7233C39.7701 9.80608 38.3935 9.82622 37.0146 9.86202C31.5573 9.97836 26.0955 9.98954 20.6493 9.62038C20.4658 9.60696 20.1009 9.58011 19.9174 9.56669C19.0914 9.51746 18.2676 9.49957 17.4416 9.44139C14.6458 9.19529 11.8254 9.32058 9.04301 8.91786C7.6507 8.80823 6.24943 8.66056 4.90189 8.28245C4.19678 8.08109 3.91921 7.33158 3.56778 6.76777C4.72953 6.14355 6.03678 5.89968 7.31941 5.64909C9.40116 5.28441 11.4941 4.95552 13.6027 4.80338C13.9743 4.781 14.3459 4.76758 14.7152 4.75863C14.6996 3.7205 14.6727 2.68238 14.6884 1.64648C11.2255 2.15212 7.77157 2.73383 4.38257 3.61087C3.17605 3.96885 1.80389 4.35367 1.07639 5.46787C0.527973 6.54403 0.333228 7.7701 0.254883 8.96708C0.319798 8.83507 0.451866 8.57778 0.516781 8.44578C1.16817 8.64266 1.81508 8.8664 2.4396 9.1483C4.00875 9.8553 5.71668 10.1797 7.41119 10.4325C10.5092 10.8174 13.6139 11.1216 16.7186 11.3946C19.3063 11.1127 21.8917 11.6139 24.4793 11.6161C29.2136 11.9741 33.9614 11.7906 38.7001 11.8734C45.7803 11.9069 52.8807 11.5512 59.8848 10.4661C62.9828 10.0567 65.8569 8.68293 68.9818 8.41222C69.1542 6.69617 67.8268 5.45668 66.5173 4.60425C63.5424 2.63539 59.8624 2.41166 56.4398 1.85232C56.2921 2.82557 56.1555 3.80328 56.0637 4.78324L56.0682 4.78548Z" fill="#F0D088"/>
<path d="M11.2459 7.37694C11.9824 6.7751 12.7054 6.15759 13.4262 5.53561C13.3545 5.44611 13.2158 5.26265 13.1441 5.17092C13.2605 5.07919 13.4911 4.89573 13.6053 4.80176C11.4966 4.9539 9.40369 5.28279 7.32194 5.64747C6.03931 5.89806 4.73206 6.14193 3.57031 6.76615C3.92175 7.32772 4.20155 8.07723 4.90442 8.28083C6.25197 8.65894 7.65547 8.80661 9.04554 8.91624C9.88944 8.61419 10.7624 8.41954 11.6511 8.30992C11.5145 7.99892 11.3802 7.6857 11.2437 7.37694H11.2459Z" fill="#B56932"/>
<path d="M14.7198 4.75879C14.3482 4.76774 13.9766 4.78116 13.6073 4.80354C13.4931 4.89527 13.2626 5.07873 13.1462 5.1727C13.2178 5.26443 13.3566 5.44789 13.4282 5.53739C12.7074 6.15937 11.9844 6.77464 11.248 7.37872C11.3845 7.68747 11.5188 8.0007 11.6554 8.31169C10.7667 8.42132 9.8937 8.61373 9.0498 8.91801C11.8322 9.32074 14.6526 9.19544 17.4484 9.44155C16.6583 9.37443 15.8748 9.2469 15.0936 9.11714C14.8541 7.67629 14.7287 6.21978 14.722 4.76103L14.7198 4.75879Z" fill="#9E5B2C"/>
<path d="M55.4756 7.07201C57.0716 7.11004 58.6676 6.96238 60.2636 7.08096C61.2373 7.13242 62.2334 7.1973 63.1893 6.9579C63.44 6.73193 63.628 6.44555 63.8406 6.18602C61.2709 5.62445 58.6945 5.01589 56.0665 4.7832L55.9121 4.80781C55.8091 5.56851 55.639 6.31802 55.4756 7.07201Z" fill="#B96A30"/>
<path d="M60.2658 7.08077C58.6698 6.96443 57.0738 7.10985 55.4778 7.07182C55.4442 7.20606 55.3793 7.4723 55.3457 7.60655C57.1074 7.70499 58.8936 7.18816 60.6284 7.69828C61.4522 7.94438 62.4617 7.43203 63.1691 8.02717C63.6839 7.86384 64.3577 7.80343 64.6599 7.30003C64.8591 6.73174 64.3353 6.30441 63.8451 6.18359C63.6324 6.44313 63.4444 6.72951 63.1937 6.95548C62.2379 7.19487 61.2418 7.12999 60.268 7.07853L60.2658 7.08077Z" fill="#C47B39"/>
<path d="M60.6282 7.70092C58.8934 7.19081 57.1094 7.70539 55.3455 7.60919C55.2335 8.0052 55.1082 8.39673 54.9918 8.79274L54.9336 9.012C57.6891 8.81288 60.4581 8.61599 63.1688 8.03205C62.4615 7.43468 61.4519 7.94703 60.6282 7.70316V7.70092Z" fill="#B5652C"/>
<path d="M51.3414 44.2991C49.8259 43.0797 47.8136 43.8762 46.1482 44.2722C40.3886 45.4692 34.0941 45.5811 28.6928 42.9544C26.1029 41.8044 24.0301 39.8109 22.1028 37.7839C20.3725 35.9269 19.0451 33.6963 18.2818 31.271C18.0669 30.5618 17.8184 29.8615 17.5118 29.188C16.2112 29.273 14.8928 29.0515 13.7601 28.3826C13.1669 28.0112 12.3387 27.7203 12.1753 26.9619C12.726 25.7313 14.2571 25.5881 15.3181 24.9841C15.289 24.3867 15.2644 23.7893 15.2397 23.1942C14.5884 23.1047 13.9549 22.8832 13.4221 22.4939C11.7724 20.921 13.149 17.8268 15.2532 17.4643C15.7412 16.7059 15.8374 15.8042 15.9046 14.9272C15.9381 14.2649 16.1776 13.455 15.5352 12.9986C14.6667 13.3566 13.8877 13.9114 13.2654 14.614C12.7663 15.0704 12.3768 15.8176 11.6179 15.8311C11.5329 14.1822 13.2005 13.1642 14.3802 12.2961C14.4563 12.1887 14.613 11.9806 14.6891 11.8732C15.374 11.7412 16.0612 11.6204 16.7216 11.3922C13.6169 11.1192 10.5121 10.8149 7.41414 10.4301C5.71964 10.1773 4.01171 9.85289 2.44256 9.14589C1.81804 8.86174 1.17113 8.63801 0.519741 8.44336C0.454826 8.57536 0.322758 8.83266 0.257843 8.96466C-0.368921 14.7818 0.195167 20.6883 1.42855 26.3936C2.55449 31.262 4.35195 36.0432 7.20597 40.1734C8.95419 42.7396 11.3225 44.7823 13.6191 46.8407C13.8586 47.0644 14.1653 47.2098 14.4988 47.2367C16.7708 47.5365 19.072 47.5432 21.3552 47.7311C31.9005 48.1764 42.4794 48.1025 53.0023 47.2255C52.7426 46.1247 52.3867 44.9076 51.3436 44.2968L51.3414 44.2991Z" fill="#E59C45"/>
<path d="M38.7048 11.874C33.966 11.7912 29.2182 11.9747 24.4839 11.6167C21.8963 11.6144 19.3109 11.1155 16.7232 11.3952C16.0629 11.6212 15.3757 11.7442 14.6907 11.8762C14.6146 11.9836 14.4579 12.1917 14.3818 12.2991C14.9952 12.1402 15.6264 12.1246 16.2509 12.2073C16.2375 12.3662 16.2039 12.6884 16.1905 12.845C16.0271 12.8853 15.7025 12.9658 15.5391 13.0038C16.1793 13.4603 15.9398 14.2702 15.9085 14.9324C15.8413 15.8072 15.745 16.7111 15.2571 17.4696C15.7965 17.5345 16.392 17.6061 16.7904 18.02C17.7641 18.9507 17.7776 20.5191 17.2493 21.6825C16.8464 22.4633 16.0114 22.8638 15.2436 23.1994C15.2683 23.7946 15.2929 24.3919 15.322 24.9893C16.5016 25.3383 17.8738 25.8126 18.3663 27.0611C18.702 27.8934 17.9163 28.5534 17.5157 29.191C17.8223 29.8645 18.0686 30.5648 18.2857 31.274C19.0468 33.6993 20.3764 35.9299 22.1067 37.7869C24.034 39.8139 26.1068 41.8074 28.6967 42.9574C34.0958 45.5841 40.3903 45.4722 46.1521 44.2752C47.8175 43.8792 49.8298 43.0827 51.3452 44.3021C52.3884 44.9128 52.7443 46.13 53.0039 47.2307C53.4695 47.0965 53.9844 47.0294 54.3649 46.705C56.4198 45.0449 58.5911 43.4541 60.1759 41.3085C63.8313 36.6459 65.9488 30.972 67.2001 25.2287C68.532 19.7248 68.6797 14.042 68.9909 8.41504C65.866 8.68576 62.9919 10.0595 59.8939 10.4689C52.8898 11.554 45.7894 11.9098 38.7092 11.8762L38.7048 11.874ZM42.7384 23.9377C41.9617 26.0945 40.2672 27.8486 38.313 28.9986C35.2934 30.6789 31.544 30.8198 28.3139 29.6877C25.5069 28.6943 23.2774 26.363 22.1783 23.6335L22.3373 23.3851L22.6014 23.1838C23.4095 23.931 23.79 25.0273 24.5377 25.8395C28.0386 30.4529 35.8105 30.9742 39.7546 26.6606C40.7753 25.6739 41.4088 24.3942 42.2012 23.2397C42.678 23.2419 42.8571 23.4746 42.7384 23.9355V23.9377ZM49.7045 17.8029C51.7996 17.4315 53.0465 19.9463 52.8025 21.7161C52.5898 23.1949 50.6312 23.6267 49.4918 22.9332C47.5309 21.9666 47.6675 18.5614 49.7045 17.8029ZM52.507 27.9225C51.4236 28.5444 50.1342 29.0523 48.8718 28.7234C47.9495 28.4885 47.3474 27.3318 47.7637 26.4659C48.0212 25.7478 48.7442 25.3674 49.4291 25.1593C50.5237 24.7767 51.8243 24.9222 52.6794 25.7478C53.3419 26.2556 53.2748 27.5421 52.507 27.9225Z" fill="#ECBB62"/>
<path d="M11.6195 15.8339C12.3783 15.8205 12.7678 15.0732 13.267 14.6168C13.8893 13.9165 14.6705 13.3594 15.5367 13.0014C15.7002 12.9634 16.0247 12.8851 16.1881 12.8426C16.2016 12.6837 16.2351 12.3615 16.2486 12.2049C15.624 12.1221 14.9928 12.14 14.3795 12.2967C13.1998 13.1647 11.5344 14.1805 11.6172 15.8317L11.6195 15.8339Z" fill="#2C2A24"/>
<path d="M13.4236 22.4963C13.3699 21.9974 13.2781 21.5007 13.1819 21.0108C13.4281 20.7602 13.6765 20.5118 13.9273 20.2657C13.9228 19.7847 13.8131 19.2902 13.9429 18.8204C14.2944 18.3684 14.8987 18.5497 15.3397 18.7466C15.5501 18.5362 15.765 18.3326 15.9844 18.1358C16.3313 18.5452 16.7208 18.9323 16.985 19.4088C17.1819 20.1449 17.1752 20.919 17.2469 21.6797C17.7751 20.5141 17.7617 18.9479 16.788 18.0172C16.3895 17.6033 15.7941 17.5317 15.2546 17.4668C13.1505 17.8292 11.7739 20.9213 13.4236 22.4963Z" fill="#25221C"/>
<path d="M49.4921 22.9327C50.6293 23.6285 52.5901 23.1945 52.8028 21.7156C53.049 19.9459 51.8022 17.4311 49.7048 17.8025C47.6656 18.561 47.529 21.9662 49.4921 22.9327ZM50.2107 19.1292C50.5576 18.957 51.0232 18.8943 51.2986 19.2322C51.9119 19.7647 51.4485 20.8498 50.6919 20.946C49.9421 20.7849 49.6578 19.6483 50.2084 19.1292H50.2107Z" fill="#2D2930"/>
<path d="M15.9822 18.1357C15.7629 18.3326 15.548 18.5362 15.3375 18.7465C15.4002 19.0821 15.4248 19.42 15.4114 19.7601C15.0734 20.2433 14.4534 20.2567 13.9251 20.2657C13.6744 20.5118 13.4259 20.7601 13.1797 21.0107C13.2782 21.5007 13.3677 21.9974 13.4214 22.4963C13.9542 22.8856 14.5854 23.1071 15.2391 23.1966C16.0068 22.861 16.8418 22.4605 17.2447 21.6797C17.1731 20.919 17.1798 20.1449 16.9828 19.4088C16.7187 18.9322 16.3269 18.5452 15.9822 18.1357Z" fill="#2D272A"/>
<path d="M15.4114 19.7606C15.4248 19.4205 15.4002 19.0804 15.3375 18.7471C14.8966 18.5502 14.2922 18.369 13.9407 18.8209C13.8087 19.2908 13.9184 19.7874 13.9251 20.2662C14.4534 20.2573 15.0734 20.2439 15.4114 19.7606Z" fill="#FFFDFB"/>
<path d="M50.6944 20.9461C51.451 20.8499 51.9143 19.7648 51.301 19.2323C51.0257 18.8945 50.5578 18.9571 50.2131 19.1294C49.6624 19.6485 49.9467 20.785 50.6966 20.9461H50.6944Z" fill="#FFFFF9"/>
<path d="M42.2016 23.2434C41.4069 24.3979 40.7735 25.6754 39.755 26.6643C35.8086 30.9779 28.039 30.4589 24.538 25.8432C23.7904 25.0311 23.4076 23.9348 22.6018 23.1875L22.3376 23.3889L22.1787 23.6372C23.2778 26.3668 25.5073 28.6981 28.3143 29.6915C31.5444 30.8236 35.2937 30.6804 38.3134 29.0024C40.2676 27.8524 41.9621 26.0983 42.7388 23.9415C42.8552 23.4806 42.6784 23.2479 42.2016 23.2457V23.2434Z" fill="#212118"/>
<path d="M12.1768 26.9619C12.3402 27.7204 13.1706 28.0112 13.7616 28.3826C14.8942 29.0516 16.2127 29.2708 17.5132 29.1881C17.9139 28.5504 18.6996 27.8904 18.3638 27.0581C17.8691 25.8097 16.497 25.3354 15.3195 24.9863C14.2585 25.5882 12.7274 25.7336 12.1768 26.9641V26.9619Z" fill="#E2A081"/>
<path d="M52.6798 25.7496C51.8248 24.924 50.5242 24.7786 49.4296 25.1611C48.7447 25.3692 48.0217 25.7496 47.7642 26.4678C47.3479 27.3359 47.95 28.4903 48.8723 28.7252C50.1325 29.0519 51.4241 28.5463 52.5075 27.9243C53.2753 27.5462 53.3424 26.2574 52.6798 25.7496Z" fill="#E2997D"/>
</g>
<defs>
<clipPath id="clip0_7197_1954">
<rect width="69" height="48" fill="white"/>
</clipPath>
</defs>
</svg>
