<svg width="12" height="12" viewBox="0 0 12 12" fill="none" xmlns="http://www.w3.org/2000/svg">
<path fill-rule="evenodd" clip-rule="evenodd" d="M10.4655 6.30084C10.915 6.97524 11.1399 7.31244 11.1399 7.31244C11.2774 7.47313 11.0219 7.72866 10.3739 8.07903C10.3934 8.2745 10.5251 8.6196 10.3512 8.75132C9.79957 9.16966 10.6679 9.22867 9.98556 9.59116V10.3778C9.81011 11.6259 7.65782 10.2914 7.05302 11.3383L6.67 12L1.85226 11.0011C2.30327 9.64863 2.70843 9.00364 1.97502 7.58849C-2.437 -0.545375 9.52243 -2.7466 10.0857 3.9736C10.1942 4.83083 9.89652 5.50317 10.4655 6.30084ZM6.24639 8.22233H4.94976C4.97663 8.51052 5.14102 8.91253 5.42289 8.91253H5.77379C6.05566 8.91253 6.21952 8.51052 6.24639 8.22233ZM6.50877 7.53477H4.68737C4.49558 7.53477 4.39495 7.76923 4.533 7.90779C4.61203 7.98682 4.70528 7.97154 4.81856 7.97154H6.50873C6.56879 7.97154 6.62306 7.94678 6.6631 7.90779C6.80166 7.7687 6.70107 7.53477 6.50877 7.53477ZM6.50877 6.84774H4.68737C4.49558 6.84774 4.39495 7.0822 4.533 7.22076C4.57199 7.26027 4.62678 7.28451 4.68737 7.28451H6.50931C6.56937 7.28451 6.62364 7.25975 6.66368 7.22023C6.80171 7.08167 6.70107 6.84774 6.50877 6.84774ZM5.7238 4.40411V5.19495C5.7238 5.26397 5.66796 5.32034 5.59841 5.32034H5.30073C5.17533 5.32034 5.10737 5.47418 5.19904 5.56586C5.22539 5.59168 5.26122 5.60801 5.30073 5.60801H5.59841C5.66743 5.60801 5.7238 5.66386 5.7238 5.73341V6.59694H6.55889C6.62317 6.12487 6.76596 5.77449 7.03097 5.39094L7.04361 5.3746C7.29283 5.10379 7.46195 4.7687 7.52834 4.40411H7.01517C7.01517 4.5648 7.0315 4.73762 6.89925 4.85512C6.65004 5.10433 6.22591 4.92414 6.22591 4.5764V4.40412L5.7238 4.40411ZM5.47302 4.40406H4.84394C4.77491 4.40406 4.71854 4.34821 4.71854 4.27866V3.98098C4.71854 3.94147 4.70221 3.90511 4.67586 3.8793C4.58419 3.78762 4.43034 3.85506 4.43034 3.98098V4.27866C4.43034 4.34768 4.37449 4.40406 4.30495 4.40406H3.66796C3.73487 4.76865 3.90347 5.10321 4.15268 5.37455L4.1648 5.39036C4.42981 5.77076 4.57365 6.12851 4.6374 6.59741H5.47249V5.85874C5.3118 5.85874 5.13898 5.87507 5.02148 5.74283C4.77227 5.49361 4.95246 5.06948 5.3002 5.06948H5.47248L5.47302 4.40406ZM5.99726 3.23599C6.08893 3.14432 6.02149 2.99047 5.89557 2.99047H5.59789C5.52887 2.99047 5.4725 2.93463 5.4725 2.86508V2.08847C4.40347 2.15591 3.58055 3.0732 3.63842 4.15333H4.17951C4.17951 3.97893 4.15949 3.83774 4.29542 3.70232C4.44979 3.54796 4.69848 3.54796 4.85285 3.70285C4.98509 3.82034 4.96876 3.99262 4.96876 4.15332H5.47298V3.40358C5.47298 3.33456 5.52883 3.27819 5.59837 3.27819H5.89605C5.93557 3.27819 5.97144 3.26181 5.99726 3.23599ZM7.55784 4.1538C7.6158 3.07372 6.79283 2.15638 5.72376 2.08894V2.74015C5.89816 2.74015 6.03935 2.72013 6.17477 2.85606C6.32914 3.01043 6.32914 3.25912 6.17424 3.41349C6.05675 3.54574 5.88447 3.5294 5.72377 3.5294V4.15427H6.35127C6.42029 4.15427 6.47667 4.21012 6.47667 4.27966V4.57734C6.47667 4.70274 6.63051 4.77071 6.72219 4.67903C6.748 4.65269 6.76434 4.61686 6.76434 4.57734V4.27861C6.76434 4.20959 6.82018 4.15322 6.88973 4.15322H7.5578L7.55784 4.1538ZM8.12212 3.14854L8.74594 2.89406C8.81022 2.86824 8.84077 2.79501 8.81496 2.73126C8.78914 2.66699 8.71591 2.63643 8.65216 2.66224L8.02835 2.91672C7.96407 2.94254 7.93351 3.01577 7.95932 3.07952C7.98514 3.1438 8.05785 3.17488 8.12212 3.14854ZM5.72384 1.37084V0.697493C5.72384 0.628473 5.668 0.572098 5.59845 0.572098C5.52943 0.572098 5.47305 0.628473 5.47305 0.697493V1.37084C5.47305 1.43986 5.5289 1.49623 5.59845 1.49623C5.66747 1.49623 5.72384 1.44038 5.72384 1.37084ZM7.29019 1.9525L7.62581 1.37084C7.66058 1.3113 7.64004 1.23438 7.5805 1.20013C7.52044 1.16536 7.44457 1.18591 7.4098 1.24544L7.07418 1.82711C7.0394 1.88665 7.05995 1.96304 7.11949 1.99781C7.17903 2.03258 7.25542 2.01256 7.29019 1.9525ZM4.1227 1.82816L3.78708 1.24649C3.75283 1.18696 3.67644 1.16641 3.6169 1.20066C3.55737 1.2349 3.53682 1.3113 3.57106 1.37083L3.90668 1.9525C3.94093 2.01203 4.01733 2.03258 4.07686 1.99833C4.1364 1.96409 4.15694 1.88769 4.1227 1.82816ZM3.16854 2.91667L2.54472 2.66219C2.48045 2.63638 2.40774 2.66694 2.38192 2.73121C2.35611 2.79549 2.38667 2.8682 2.45095 2.89401L3.07476 3.14849C3.13904 3.17431 3.21174 3.14375 3.23756 3.07947C3.26338 3.01572 3.23282 2.94249 3.16854 2.91667Z" fill="#6A5AE0"/>
</svg>
