<svg width="12" height="12" viewBox="0 0 12 12" fill="none" xmlns="http://www.w3.org/2000/svg">
<path d="M10.0733 0.342773H7.42641C7.41732 0.342773 7.4086 0.346386 7.40217 0.352815C7.39574 0.359245 7.39213 0.367965 7.39213 0.377059V1.24792C7.39213 1.25701 7.39574 1.26573 7.40217 1.27216C7.4086 1.27859 7.41732 1.2822 7.42641 1.2822H8.47898L7.30984 2.45134C6.8896 2.12422 6.39964 1.89832 5.87797 1.79119C5.35631 1.68405 4.81697 1.69856 4.30182 1.83358C3.78666 1.9686 3.30955 2.2205 2.9075 2.56974C2.50545 2.91898 2.18928 3.35617 1.98352 3.84737C1.77776 4.33857 1.68795 4.87057 1.72106 5.40209C1.75417 5.93362 1.9093 6.45036 2.17442 6.91223C2.43955 7.3741 2.80753 7.76867 3.24981 8.06532C3.69209 8.36197 4.19677 8.55272 4.7247 8.62277V9.65134H3.67898C3.67045 9.6513 3.66222 9.65444 3.65588 9.66015C3.64954 9.66585 3.64555 9.67371 3.6447 9.6822V10.6251C3.6447 10.6342 3.64831 10.6429 3.65474 10.6493C3.66117 10.6557 3.66989 10.6593 3.67898 10.6593H4.7247V11.6571C4.72415 11.6617 4.72465 11.6664 4.72618 11.6708C4.72771 11.6752 4.73022 11.6792 4.73352 11.6825C4.73682 11.6858 4.74083 11.6883 4.74524 11.6899C4.74965 11.6914 4.75435 11.6919 4.75898 11.6913H5.69841C5.70305 11.6919 5.70775 11.6914 5.71216 11.6899C5.71657 11.6883 5.72058 11.6858 5.72388 11.6825C5.72718 11.6792 5.72969 11.6752 5.73121 11.6708C5.73274 11.6664 5.73325 11.6617 5.7327 11.6571V10.6491H6.76127C6.77036 10.6491 6.77908 10.6454 6.78551 10.639C6.79194 10.6326 6.79555 10.6239 6.79555 10.6148V9.67192C6.7947 9.66343 6.79072 9.65557 6.78438 9.64986C6.77804 9.64415 6.7698 9.64102 6.76127 9.64106H5.7327V8.61249C6.31167 8.51725 6.85698 8.27661 7.31756 7.9131C7.77814 7.54959 8.13891 7.07511 8.36607 6.53411C8.59322 5.99312 8.67933 5.40332 8.61633 4.81996C8.55332 4.23661 8.34327 3.67879 8.00584 3.19877L9.15784 2.04334V3.02734C9.15784 3.03644 9.16145 3.04516 9.16788 3.05159C9.17431 3.05802 9.18303 3.06163 9.19213 3.06163H10.0733C10.0824 3.06163 10.0911 3.05802 10.0975 3.05159C10.1039 3.04516 10.1076 3.03644 10.1076 3.02734V0.377059C10.1068 0.368225 10.1029 0.359946 10.0967 0.353676C10.0904 0.347406 10.0821 0.343546 10.0733 0.342773ZM5.17041 7.74163C4.66522 7.74163 4.17138 7.59182 3.75133 7.31115C3.33128 7.03049 3.00389 6.63156 2.81056 6.16483C2.61723 5.69809 2.56665 5.18451 2.66521 4.68903C2.76376 4.19354 3.00704 3.73841 3.36426 3.38119C3.72148 3.02397 4.17661 2.7807 4.6721 2.68214C5.16758 2.58358 5.68116 2.63416 6.14789 2.82749C6.61463 3.02082 7.01355 3.34821 7.29422 3.76826C7.57489 4.18831 7.7247 4.68216 7.7247 5.18735C7.7247 5.86478 7.45559 6.51448 6.97656 6.9935C6.49754 7.47252 5.84785 7.74163 5.17041 7.74163Z" fill="#EF412A"/>
<path d="M6.73035 4.1416H3.64464C3.63611 4.14156 3.62787 4.1447 3.62153 4.1504C3.61519 4.15611 3.6112 4.16397 3.61035 4.17246V4.91989C3.6112 4.92837 3.61519 4.93624 3.62153 4.94194C3.62787 4.94765 3.63611 4.95079 3.64464 4.95075H6.73035C6.73888 4.95079 6.74712 4.94765 6.75346 4.94194C6.7598 4.93624 6.76378 4.92837 6.76464 4.91989V4.17246C6.76378 4.16397 6.7598 4.15611 6.75346 4.1504C6.74712 4.1447 6.73888 4.14156 6.73035 4.1416Z" fill="#EF412A"/>
<path d="M6.73035 5.47876H3.64464C3.63611 5.47872 3.62787 5.48186 3.62153 5.48756C3.61519 5.49327 3.6112 5.50113 3.61035 5.50962V6.26047C3.6112 6.26896 3.61519 6.27682 3.62153 6.28253C3.62787 6.28824 3.63611 6.29137 3.64464 6.29133H6.73035C6.73888 6.29137 6.74712 6.28824 6.75346 6.28253C6.7598 6.27682 6.76378 6.26896 6.76464 6.26047V5.50962C6.76378 5.50113 6.7598 5.49327 6.75346 5.48756C6.74712 5.48186 6.73888 5.47872 6.73035 5.47876Z" fill="#EF412A"/>
</svg>
