<svg width="57" height="57" viewBox="0 0 57 57" fill="none" xmlns="http://www.w3.org/2000/svg">
<path d="M3.6408 18.3444C5.09887 18.3444 6.28087 17.1624 6.28087 15.7043C6.28087 14.2463 5.09887 13.0643 3.6408 13.0643C2.18273 13.0643 1.00073 14.2463 1.00073 15.7043C1.00073 17.1624 2.18273 18.3444 3.6408 18.3444Z" fill="#F24125"/>
<path d="M3.64078 19.0214C1.81172 19.0214 0.32373 17.5334 0.32373 15.7043C0.32373 13.8753 1.81172 12.3873 3.64078 12.3873C5.46983 12.3873 6.95782 13.8753 6.95782 15.7043C6.95782 17.5334 5.46969 19.0214 3.64078 19.0214ZM3.64078 13.7412C2.55829 13.7412 1.67768 14.6218 1.67768 15.7043C1.67768 16.7868 2.55829 17.6674 3.64078 17.6674C4.72326 17.6674 5.60387 16.7868 5.60387 15.7043C5.60387 14.6218 4.72312 13.7412 3.64078 13.7412Z" fill="#333333"/>
<path d="M24.9045 30.4862L24.8274 34.1514L21.7864 31.6926C22.6705 31.0129 23.7455 30.5823 24.9045 30.4862Z" fill="#20505B"/>
<path d="M53.1724 17.2121C54.9135 17.2121 56.323 18.6229 56.323 20.3627C56.323 22.1026 54.9135 23.5134 53.1724 23.5134V17.2121Z" fill="#20505B"/>
<path d="M49.2513 17.1349C49.889 15.5968 51.4041 14.5164 53.1724 14.5164V17.2121V23.5134V26.4013C51.3567 26.4013 49.8078 25.2613 49.2012 23.6582C49.0252 23.1911 48.9291 22.6861 48.9291 22.1567V18.761C48.9291 18.1856 49.0442 17.6359 49.2513 17.1349Z" fill="#CCCCCC"/>
<path d="M49.2514 17.1349C49.0442 17.6359 48.9291 18.1856 48.9291 18.761V22.1567C48.9291 22.6861 49.0253 23.1912 49.2013 23.6583C48.435 24.7076 47.3112 25.4807 46.0087 25.7975V14.9266C47.341 15.2502 48.4837 16.0504 49.2514 17.1349Z" fill="#20505B"/>
<path d="M46.0087 25.7975V29.3516C43.665 29.3516 41.7654 27.452 41.7654 25.1083V15.8094C41.7654 13.4657 43.665 11.5661 46.0087 11.5661V14.9266V25.7975Z" fill="#CCCCCC"/>
<path d="M37.6548 29.4274C37.5668 29.0889 37.5208 28.7328 37.5208 28.3673V22.3882V18.3372V12.5504C37.5208 10.2067 39.4203 8.30579 41.7654 8.30579V15.8094V25.1083V32.6119C39.7873 32.6119 38.1246 31.258 37.6548 29.4274Z" fill="#CCCCCC"/>
<path d="M37.6547 29.4274L31.9072 29.9054L24.9045 30.4862C23.7456 30.5824 22.6705 31.0129 21.7864 31.6926C20.8562 32.4061 20.1386 33.3945 19.7595 34.5576L19.2748 36.0428L16.1458 45.6356C15.8222 46.6321 15.194 47.4661 14.3884 48.051C13.5801 48.6359 12.5944 48.9731 11.5478 48.9731C8.26041 48.9731 5.93161 45.7642 6.95114 42.6379L8.85073 36.8065C9.67394 34.2881 9.36794 31.5504 8.03972 29.3272C7.75674 28.8534 7.42773 28.4025 7.05269 27.9828C7.05133 27.9814 7.05133 27.9801 7.04998 27.9801C7.00801 27.9313 6.96333 27.8826 6.91594 27.8352C6.91323 27.8311 6.91052 27.8284 6.90917 27.8271C6.90917 27.8257 6.90917 27.8257 6.90781 27.8244C5.99525 26.8509 5.25599 25.7122 4.74826 24.4517C4.48289 23.7936 4.27844 23.1045 4.14575 22.3882H37.5207V28.3673C37.5207 28.7329 37.5667 29.089 37.6547 29.4274Z" fill="#44CC27"/>
<path d="M13.2145 31.3785L8.03972 29.3272C7.75674 28.8534 7.42773 28.4025 7.05269 27.9828C7.05133 27.9814 7.05133 27.9801 7.04998 27.9801C7.00801 27.9313 6.96333 27.8826 6.91594 27.8352C6.91323 27.8311 6.91052 27.8284 6.90917 27.8271C6.90917 27.8257 6.90917 27.8257 6.90781 27.8244C5.99525 26.8509 5.25599 25.7122 4.74826 24.4517C4.48289 23.7936 4.27844 23.1045 4.14575 22.3882H13.6302C13.6302 22.3882 13.4948 25.2221 16.7443 26.3052C16.7443 26.3052 12.9356 28.1926 13.2145 31.3785Z" fill="#F24125"/>
<path opacity="0.25" d="M13.2958 48.6454C12.7501 48.858 12.1598 48.9731 11.5478 48.9731C8.26041 48.9731 5.93161 45.7642 6.95114 42.6379L8.85073 36.8065C9.84859 33.7506 9.18651 30.3739 7.05269 27.9828C7.05133 27.9814 7.05133 27.9801 7.04998 27.9801C7.008 27.9313 6.96332 27.8826 6.91594 27.8352C6.91323 27.8311 6.91052 27.8284 6.90917 27.8271C6.90917 27.8257 6.90917 27.8257 6.90781 27.8244C5.99525 26.8509 5.25599 25.7122 4.74826 24.4517C4.48289 23.7936 4.27844 23.1045 4.14575 22.3882H7.65384C7.78653 23.1045 7.99097 23.7936 8.25635 24.4517C8.76408 25.7122 9.50334 26.8509 10.4159 27.8244C10.4173 27.8257 10.4173 27.8257 10.4173 27.8271C10.4186 27.8284 10.4213 27.8311 10.424 27.8352C10.4714 27.8826 10.5161 27.9313 10.5581 27.9801C10.5594 27.9801 10.5594 27.9814 10.5608 27.9828C12.6946 30.3739 13.3567 33.7506 12.3575 36.8065L10.4592 42.6379C9.63467 45.1685 11.0022 47.7518 13.2958 48.6454Z" fill="black"/>
<path d="M37.5207 18.3372V22.3882H4.14583H2.70251C1.58415 22.3882 0.677002 21.4811 0.677002 20.3627C0.677002 19.8036 0.903112 19.2972 1.27003 18.9303C1.63695 18.5633 2.14333 18.3372 2.70251 18.3372H37.5207Z" fill="#20505B"/>
<path d="M37.5207 12.5504V18.3372H2.70251C17.9629 2.06949 37.5207 12.5504 37.5207 12.5504Z" fill="#44CC27"/>
<path d="M37.5207 19.0142C37.1469 19.0142 36.8438 18.7111 36.8438 18.3372V12.5505C36.8438 9.83673 39.0516 7.62885 41.7654 7.62885C42.1392 7.62885 42.4423 7.93199 42.4423 8.30582V15.8094C42.4423 16.1832 42.1392 16.4864 41.7654 16.4864C41.3915 16.4864 41.0884 16.1832 41.0884 15.8094V9.04724C39.4437 9.36434 38.1977 10.8146 38.1977 12.5505V18.3372C38.1977 18.7111 37.8946 19.0142 37.5207 19.0142Z" fill="#333333"/>
<path d="M41.7654 33.2889C39.5173 33.2889 37.5571 31.7702 36.999 29.5958C36.8961 29.2 36.8438 28.786 36.8438 28.3673V22.3883C36.8438 22.0145 37.1469 21.7113 37.5207 21.7113C37.8946 21.7113 38.1977 22.0145 38.1977 22.3883V28.3673C38.1977 28.6712 38.2355 28.9705 38.3101 29.2571C38.6576 30.6114 39.7539 31.6141 41.0885 31.8707V25.1084C41.0885 24.7345 41.3917 24.4314 41.7655 24.4314C42.1393 24.4314 42.4425 24.7345 42.4425 25.1084V32.612C42.4423 32.9858 42.1392 33.2889 41.7654 33.2889Z" fill="#333333"/>
<path d="M46.0086 30.0286C43.2956 30.0286 41.0884 27.8214 41.0884 25.1084V15.8094C41.0884 13.0964 43.2956 10.8892 46.0086 10.8892C46.3825 10.8892 46.6856 11.1923 46.6856 11.5661V29.3516C46.6856 29.7255 46.3825 30.0286 46.0086 30.0286ZM45.3317 12.3076C43.6877 12.6247 42.4423 14.0743 42.4423 15.8094V25.1084C42.4423 26.8434 43.6878 28.293 45.3317 28.6102V12.3076Z" fill="#333333"/>
<path d="M53.1724 27.0784C51.1383 27.0784 49.288 25.8002 48.5682 23.8979C48.3585 23.3412 48.2523 22.7556 48.2523 22.1567V18.761C48.2523 18.1099 48.378 17.4759 48.6259 16.8763C49.3909 15.0313 51.1755 13.8394 53.1726 13.8394C53.5464 13.8394 53.8496 14.1426 53.8496 14.5164V26.4014C53.8494 26.7752 53.5463 27.0784 53.1724 27.0784ZM52.4955 15.2574C51.3317 15.4803 50.343 16.27 49.8768 17.3942C49.6973 17.8283 49.6061 18.2884 49.6061 18.761V22.1567C49.6061 22.592 49.683 23.0169 49.8348 23.4197C50.275 24.5832 51.2997 25.4248 52.4955 25.6589V15.2574Z" fill="#333333"/>
<path d="M25.4546 23.0653H2.70249C1.21233 23.0653 0 21.8529 0 20.3628C0 19.6407 0.28108 18.962 0.791249 18.4517C1.30142 17.9414 1.98029 17.6603 2.70249 17.6603H20.5805C20.9543 17.6603 21.2574 17.9634 21.2574 18.3373C21.2574 18.7111 20.9543 19.0142 20.5805 19.0142H2.70249C2.34193 19.0142 2.00317 19.1545 1.74876 19.409C1.49422 19.6636 1.35395 20.0023 1.35395 20.3628C1.35395 21.1064 1.9589 21.7113 2.70249 21.7113H25.4546C25.8284 21.7113 26.1315 22.0145 26.1315 22.3883C26.1315 22.7621 25.8285 23.0653 25.4546 23.0653Z" fill="#333333"/>
<path d="M37.5207 23.0653H27.8018C27.4279 23.0653 27.1248 22.7621 27.1248 22.3883C27.1248 22.0145 27.4279 21.7113 27.8018 21.7113H36.8437V19.0142H23.5593C23.1855 19.0142 22.8823 18.7111 22.8823 18.3373C22.8823 17.9634 23.1855 17.6603 23.5593 17.6603H37.5207C37.8945 17.6603 38.1977 17.9634 38.1977 18.3373V22.3883C38.1977 22.7621 37.8945 23.0653 37.5207 23.0653Z" fill="#333333"/>
<path d="M49.2527 17.8133C49.0666 17.8133 48.8981 17.7382 48.7758 17.6167C48.7478 17.589 48.7219 17.5587 48.6988 17.5259C48.01 16.553 46.9979 15.8636 45.8488 15.5844C45.4854 15.4961 45.2624 15.1301 45.3507 14.7667C45.439 14.4035 45.8052 14.1807 46.1684 14.2686C47.6293 14.6235 48.9159 15.4969 49.7933 16.7289C49.8789 16.8423 49.9296 16.9835 49.9296 17.1361C49.9296 17.5101 49.6265 17.8133 49.2527 17.8133Z" fill="#333333"/>
<path d="M46.0081 26.4746C45.7031 26.4746 45.4262 26.267 45.3509 25.9575C45.2625 25.5942 45.4855 25.2281 45.8487 25.1397C46.972 24.8665 47.9685 24.1986 48.6545 23.2591C48.6761 23.2296 48.6998 23.2022 48.7252 23.177C48.8476 23.0553 49.0163 22.98 49.2026 22.98C49.5764 22.98 49.8796 23.2832 49.8796 23.657C49.8796 23.8129 49.8266 23.9566 49.738 24.0713C48.8637 25.2616 47.5968 26.1081 46.1687 26.4554C46.1149 26.4684 46.061 26.4746 46.0081 26.4746Z" fill="#333333"/>
<path d="M53.1723 24.1903C52.7985 24.1903 52.4954 23.8872 52.4954 23.5134C52.4954 23.1395 52.7985 22.8364 53.1723 22.8364C54.5363 22.8364 55.646 21.7267 55.646 20.3627C55.646 18.9987 54.5363 17.889 53.1723 17.889C52.7985 17.889 52.4954 17.5859 52.4954 17.2121C52.4954 16.8382 52.7985 16.5351 53.1723 16.5351C55.2829 16.5351 57 18.2522 57 20.3627C57 22.4733 55.2829 24.1903 53.1723 24.1903Z" fill="#333333"/>
<path d="M7.0503 28.6571C6.86007 28.6571 6.67106 28.5774 6.53701 28.422C6.5056 28.3856 6.4723 28.349 6.43682 28.3136C6.17267 28.049 6.17294 27.6203 6.4375 27.3562C6.70206 27.092 7.13072 27.0922 7.39488 27.3569C7.4508 27.4129 7.50726 27.4738 7.56277 27.5383C7.80675 27.8215 7.77493 28.249 7.49182 28.4931C7.36401 28.6032 7.20681 28.6571 7.0503 28.6571Z" fill="#333333"/>
<path d="M11.5479 49.6501C9.76172 49.6501 8.13562 48.821 7.08672 47.3757C6.03754 45.9301 5.75362 44.1267 6.30765 42.4281L8.20711 36.5969C9.13674 33.7501 8.50078 30.6222 6.54771 28.4336L6.4115 28.2861C6.40473 28.2786 6.3981 28.2712 6.39173 28.2636C5.41296 27.2137 4.64879 26.0164 4.12048 24.7047C3.83344 23.9931 3.61803 23.2552 3.4802 22.5117C3.41209 22.1441 3.65486 21.7909 4.02245 21.7226C4.39019 21.6549 4.7433 21.8973 4.81154 22.2649C4.93285 22.9197 5.12281 23.5702 5.37627 24.1985C5.84596 25.3645 6.5274 26.4286 7.40192 27.3614C7.41085 27.3711 7.41952 27.3808 7.42791 27.3908L7.55058 27.5239C9.83091 30.0791 10.5729 33.7134 9.49431 37.0166L7.59486 42.8475C7.17689 44.1293 7.39109 45.4899 8.18247 46.5804C8.97372 47.6707 10.2004 48.296 11.5479 48.296C12.4291 48.296 13.2741 48.0217 13.9916 47.5024C14.7072 46.9829 15.2298 46.2648 15.5021 45.4264L19.116 34.3474C19.531 33.0743 20.312 31.9704 21.3744 31.1554C22.3815 30.3813 23.583 29.9165 24.8488 29.8114L37.5987 28.7526C37.9909 28.7212 38.3324 29.0347 38.3324 29.4273C38.3324 29.7868 38.0528 30.0809 37.6989 30.1029L24.9605 31.1608C23.9547 31.2442 22.9997 31.6137 22.199 32.2292C21.3538 32.8776 20.7331 33.7551 20.4032 34.7673L16.7895 45.8455C16.4286 46.9571 15.7358 47.9094 14.7862 48.5987C13.8356 49.2868 12.716 49.6501 11.5479 49.6501Z" fill="#333333"/>
<path d="M24.539 36.7198H19.2748C18.901 36.7198 18.5972 36.4167 18.5972 36.0428C18.5972 35.669 18.8996 35.3659 19.2735 35.3659H24.539C27.8238 35.3659 30.6399 33.0234 31.2393 29.7944C31.2924 29.4732 31.5711 29.2277 31.9072 29.2277C32.281 29.2277 32.5842 29.5302 32.5842 29.904C32.5842 29.945 32.5804 29.9874 32.5729 30.0278C31.8598 33.9054 28.481 36.7198 24.539 36.7198Z" fill="#333333"/>
<path d="M24.8276 34.8284C24.6752 34.8284 24.5245 34.7772 24.4017 34.6778L21.3608 32.219C21.0701 31.984 21.0248 31.5576 21.2599 31.2669C21.4951 30.9761 21.9213 30.9311 22.212 31.1661L24.1796 32.7569L24.2276 30.4719C24.2355 30.0982 24.5396 29.8025 24.9187 29.8093C25.2925 29.8171 25.5892 30.1266 25.5813 30.5003L25.5041 34.1655C25.4986 34.4237 25.3468 34.6563 25.1124 34.7651C25.0216 34.8076 24.9242 34.8284 24.8276 34.8284Z" fill="#333333"/>
<path d="M2.70238 19.0142C2.53638 19.0142 2.36998 18.9535 2.23933 18.8309C1.96664 18.5751 1.95297 18.1467 2.20873 17.874C5.76407 14.0838 9.85192 11.4112 14.3585 9.93053C20.6768 7.85546 26.7199 8.51389 30.6769 9.4316C34.96 10.425 37.7248 11.8917 37.8404 11.9536C38.1699 12.1303 38.294 12.5405 38.1173 12.8701C37.9406 13.1995 37.5306 13.3237 37.2011 13.1471C37.1684 13.1298 34.4445 11.6899 30.3295 10.7409C26.5507 9.86933 20.7859 9.24448 14.781 11.2166C10.4923 12.6257 6.59458 15.1772 3.19617 18.8001C3.06307 18.9424 2.88286 19.0142 2.70238 19.0142Z" fill="#333333"/>
<path d="M17.6224 12.5232C17.3106 12.5232 17.0302 12.3066 16.9614 11.9895C16.8822 11.6241 17.1143 11.2638 17.4797 11.1844C19.2963 10.7906 21.2012 10.591 23.1415 10.591C24.9845 10.591 26.8844 10.7707 28.7881 11.125C29.1557 11.1934 29.3981 11.5469 29.3296 11.9145C29.2613 12.282 28.908 12.5243 28.5401 12.4561C26.718 12.1169 24.9015 11.945 23.1414 11.945C21.2975 11.945 19.489 12.1342 17.7663 12.5078C17.7181 12.5182 17.6698 12.5232 17.6224 12.5232Z" fill="white"/>
<path d="M34.5116 19.0142C34.1377 19.0142 33.8346 18.7111 33.8346 18.3372V8.83927C33.8346 8.46544 34.1377 8.16229 34.5116 8.16229C34.8854 8.16229 35.1885 8.46544 35.1885 8.83927V18.3372C35.1885 18.7111 34.8854 19.0142 34.5116 19.0142Z" fill="#333333"/>
<path d="M30.7204 19.0142C30.3466 19.0142 30.0435 18.7111 30.0435 18.3373V15.7895C30.0435 15.4157 30.3466 15.1125 30.7204 15.1125C31.0943 15.1125 31.3974 15.4157 31.3974 15.7895V18.3373C31.3974 18.7111 31.0943 19.0142 30.7204 19.0142Z" fill="#333333"/>
<path d="M30.7204 14.3002C30.3466 14.3002 30.0435 13.997 30.0435 13.6232V8.02689C30.0435 7.65306 30.3466 7.34991 30.7204 7.34991C31.0943 7.34991 31.3974 7.65306 31.3974 8.02689V13.6232C31.3974 13.997 31.0943 14.3002 30.7204 14.3002Z" fill="#333333"/>
<path d="M34.5108 32.4183C34.137 32.4183 33.8339 32.1152 33.8339 31.7414V22.3883C33.8339 22.0145 34.137 21.7113 34.5108 21.7113C34.8847 21.7113 35.1878 22.0145 35.1878 22.3883V31.7414C35.1878 32.1152 34.8847 32.4183 34.5108 32.4183Z" fill="#333333"/>
<path d="M30.7198 30.0963C30.346 30.0963 30.0428 29.7932 30.0428 29.4194V22.3883C30.0428 22.0145 30.346 21.7113 30.7198 21.7113C31.0936 21.7113 31.3968 22.0145 31.3968 22.3883V29.4194C31.3968 29.7932 31.0936 30.0963 30.7198 30.0963Z" fill="#333333"/>
<path d="M14.3072 18.3372H2.70251C6.51389 14.274 10.5933 11.8802 14.5699 10.5737C14.5699 10.5737 15.5258 13.1719 18.2337 13.8489C18.2337 13.8489 13.7657 15.5142 14.3072 18.3372Z" fill="#F24125"/>
<path opacity="0.25" d="M10.1655 12.4826C10.1655 12.4826 7.80827 15.9204 8.07906 18.3372H2.70251L10.1655 12.4826Z" fill="black"/>
<path d="M14.3072 19.0142H2.70246C2.43262 19.0142 2.1885 18.8539 2.08127 18.6062C1.97404 18.3586 2.02413 18.0709 2.20868 17.874C5.76402 14.0838 9.85187 11.4112 14.3585 9.93053C14.705 9.81625 15.0792 9.99768 15.2051 10.3398C15.2128 10.3603 16.0853 12.6139 18.3979 13.1921C18.6856 13.264 18.893 13.5148 18.9095 13.811C18.9261 14.1071 18.748 14.3795 18.47 14.4831C18.4644 14.4852 17.8157 14.7306 17.0743 15.1778C16.7538 15.3707 16.3378 15.2678 16.1449 14.9477C15.9518 14.6275 16.0549 14.2115 16.3749 14.0184C16.4436 13.9771 16.5114 13.9371 16.5782 13.899C15.3186 13.1624 14.5804 12.0798 14.217 11.4096C10.6112 12.6891 7.28979 14.787 4.31867 17.6602H13.5909C13.6213 17.1989 13.7554 16.7448 13.9925 16.3032C14.1695 15.9738 14.5797 15.85 14.9093 16.027C15.2387 16.2038 15.3623 16.6142 15.1855 16.9437C14.9592 17.3651 14.8894 17.7791 14.9721 18.2098C15.0102 18.408 14.9578 18.613 14.829 18.7686C14.7004 18.924 14.5091 19.0142 14.3072 19.0142Z" fill="#333333"/>
<path d="M44.2296 26.3052C43.8558 26.3052 43.5526 26.0021 43.5526 25.6283V19.1293C43.5526 18.7555 43.8558 18.4523 44.2296 18.4523C44.6034 18.4523 44.9066 18.7555 44.9066 19.1293V25.6283C44.9066 26.0021 44.6034 26.3052 44.2296 26.3052Z" fill="white"/>
<path d="M44.2296 16.9628C43.8558 16.9628 43.5526 16.6597 43.5526 16.2859V15.0673C43.5526 14.6935 43.8558 14.3903 44.2296 14.3903C44.6034 14.3903 44.9066 14.6935 44.9066 15.0673V16.2859C44.9066 16.6598 44.6034 16.9628 44.2296 16.9628Z" fill="white"/>
<path d="M51.3364 24.0035C50.9626 24.0035 50.6594 23.7003 50.6594 23.3265V17.6399C50.6594 17.2661 50.9626 16.963 51.3364 16.963C51.7102 16.963 52.0134 17.2661 52.0134 17.6399V23.3265C52.0134 23.7003 51.7102 24.0035 51.3364 24.0035Z" fill="white"/>
<path d="M39.8969 29.5547C39.5231 29.5547 39.22 29.2516 39.22 28.8778V16.0152C39.22 15.6414 39.5231 15.3383 39.8969 15.3383C40.2708 15.3383 40.5739 15.6414 40.5739 16.0152V28.8778C40.5739 29.2516 40.2708 29.5547 39.8969 29.5547Z" fill="white"/>
<path d="M39.8969 13.8489C39.5231 13.8489 39.22 13.5457 39.22 13.1719V11.818C39.22 11.4441 39.5231 11.141 39.8969 11.141C40.2708 11.141 40.5739 11.4441 40.5739 11.818V13.1719C40.5739 13.5459 40.2708 13.8489 39.8969 13.8489Z" fill="white"/>
<path d="M13.2146 32.0555C13.1304 32.0555 13.0457 32.0398 12.9652 32.0078L7.79037 29.9566C7.44281 29.8187 7.27275 29.4254 7.41045 29.0779C7.54828 28.7303 7.94201 28.5602 8.28917 28.6979L12.572 30.3955C12.7437 29.2489 13.3666 28.1447 14.4089 27.1559C14.7202 26.8608 15.0346 26.6083 15.3201 26.4003C14.2238 25.7485 13.6489 24.8931 13.3492 24.2138C12.9247 23.2517 12.9496 22.4447 12.9539 22.3559C12.9718 21.9825 13.2871 21.6927 13.6625 21.7121C14.0345 21.7298 14.322 22.0448 14.3065 22.4163C14.3033 22.5178 14.264 24.765 16.9582 25.6629C17.2185 25.7497 17.4006 25.9848 17.4195 26.2584C17.4385 26.532 17.2905 26.79 17.0448 26.9118C17.0119 26.9283 13.6542 28.6386 13.8888 31.3195C13.9093 31.5533 13.8072 31.7812 13.6189 31.9213C13.5004 32.0098 13.3581 32.0555 13.2146 32.0555Z" fill="#333333"/>
</svg>
