<svg width="16" height="16" viewBox="0 0 16 16" fill="none" xmlns="http://www.w3.org/2000/svg">
<g clip-path="url(#clip0_6_10510)">
<path d="M3.70145 9.46368C3.74528 9.45984 3.74624 9.49368 3.75473 9.51738C3.84756 9.7775 3.96473 10.0283 4.10468 10.2664C4.14189 10.3344 4.18305 10.4002 4.22796 10.4634C4.26699 10.5148 4.24878 10.5382 4.20508 10.5712C3.80322 10.875 3.40181 11.1798 3.00085 11.4857C2.51608 11.8543 2.03139 12.2233 1.54679 12.5925C1.49543 12.632 1.4731 12.6261 1.43722 12.5747C0.995846 11.941 0.647984 11.2471 0.404337 10.5142C0.373245 10.4206 0.373382 10.4194 0.470904 10.3909C1.53579 10.0853 2.60072 9.77965 3.6657 9.47395L3.70145 9.46368Z" fill="#D39206"/>
<path d="M2.75037e-05 8.03972C0.00262991 7.84792 2.75044e-05 7.69489 0.0137244 7.54213C0.0181074 7.49131 0.0375569 7.47637 0.0874135 7.48103C0.712082 7.53848 1.33684 7.59506 1.96169 7.65077C2.43871 7.69361 2.91582 7.73608 3.39302 7.77819C3.49232 7.78695 3.49656 7.78846 3.49465 7.88779C3.48848 8.21741 3.51108 8.54444 3.57683 8.86803C3.59792 8.97161 3.59669 8.97229 3.49095 9.00271C3.10077 9.11496 2.71041 9.22693 2.31987 9.33863L0.345874 9.90514C0.236299 9.93651 0.236299 9.93665 0.210274 9.82581C0.0704294 9.22547 -0.00161612 8.61732 2.75037e-05 8.03972Z" fill="#407936"/>
<path d="M6.96924 12.4515C6.9476 12.5661 6.92336 12.694 6.89925 12.8214L6.35603 15.7076C6.3333 15.8286 6.33316 15.8283 6.21222 15.8005C5.48832 15.634 4.79112 15.3674 4.1407 15.0086C4.03113 14.9485 4.03113 14.9483 4.0955 14.8442C4.67132 13.9126 5.24691 12.9804 5.82227 12.0476C5.85665 11.9917 5.88473 11.9778 5.94664 12.0107C6.24797 12.171 6.56751 12.2865 6.89747 12.3735C6.93144 12.3831 6.9739 12.3849 6.96924 12.4515Z" fill="#DC097B"/>
<path d="M7.99887 15.9991C7.63316 16.0062 7.26992 15.9739 6.9075 15.929C6.84367 15.921 6.82778 15.8991 6.83902 15.8375C7.01552 14.91 7.19116 13.9822 7.36593 13.0543C7.39812 12.884 7.43141 12.7138 7.46072 12.5431C7.46921 12.4934 7.48989 12.4804 7.53852 12.4854C7.8882 12.5221 8.24101 12.517 8.58948 12.4701C8.66344 12.4601 8.66056 12.5076 8.66864 12.5502C8.74329 12.9475 8.81671 13.3439 8.89135 13.7407C9.02038 14.4265 9.14972 15.1123 9.27939 15.798C9.29856 15.8998 9.29856 15.8991 9.19816 15.9132C8.80054 15.9695 8.40128 16.0069 7.99887 15.9991Z" fill="#EC6A06"/>
<path d="M3.47772 7.28312L2.48456 7.19434C2.153 7.16475 1.82145 7.13525 1.48989 7.10584C1.10848 7.07132 0.727114 7.03634 0.345793 7.0009C0.280048 6.99487 0.214166 6.98898 0.148284 6.98391C0.0667874 6.97761 0.0636371 6.975 0.0752794 6.89335C0.121808 6.56372 0.188592 6.23726 0.275254 5.91585C0.390802 5.491 0.540352 5.07614 0.722457 4.6753C0.747659 4.6194 0.768204 4.61324 0.822307 4.64036C1.82346 5.1417 2.82534 5.64129 3.82795 6.13916C3.87082 6.16053 3.87712 6.17916 3.85877 6.22136C3.71849 6.54116 3.61829 6.87707 3.56045 7.22147C3.55127 7.27723 3.52511 7.29641 3.47772 7.28312Z" fill="#0075BA"/>
<path d="M10.8525 4.50842C10.8405 4.49951 10.8275 4.49033 10.8152 4.48102C10.5412 4.26039 10.2419 4.0733 9.92354 3.9237C9.88574 3.90602 9.87396 3.88986 9.8908 3.84643C10.2957 2.79736 10.6993 1.74788 11.1016 0.697994C11.1208 0.647988 11.1394 0.637439 11.1902 0.659907C11.9099 0.976503 12.5799 1.39549 13.1797 1.90388C13.2164 1.93498 13.2107 1.95279 13.1819 1.98416C12.423 2.81165 11.6645 3.63951 10.9064 4.46773C10.8916 4.48321 10.8803 4.50527 10.8525 4.50842Z" fill="#D6A600"/>
<path d="M3.59482 14.6752C3.57825 14.6646 3.56264 14.6551 3.54757 14.645C2.90499 14.2125 2.32761 13.6903 1.833 13.0941C1.79766 13.0518 1.79492 13.0296 1.84286 12.9933C2.73379 12.3184 3.62359 11.6421 4.51224 10.9644C4.55648 10.9306 4.57936 10.9309 4.61634 10.9736C4.84194 11.2345 5.09861 11.4667 5.38062 11.6652C5.43075 11.7005 5.43623 11.7255 5.40377 11.7777C4.86859 12.64 4.33464 13.5031 3.80192 14.367C3.74549 14.4583 3.68901 14.5497 3.63249 14.641C3.62345 14.655 3.61592 14.6728 3.59482 14.6752Z" fill="#F5A20B"/>
<path d="M2.47014 2.22485C2.49754 2.22937 2.50945 2.25102 2.52493 2.26719C2.77431 2.53991 3.02345 2.81291 3.27237 3.08618C3.77185 3.63419 4.27179 4.18174 4.77218 4.72883C4.81971 4.78062 4.82053 4.80952 4.77081 4.85967C4.53023 5.10358 4.3198 5.37551 4.14404 5.66962C4.12075 5.70839 4.10213 5.71743 4.05857 5.69565C3.05285 5.19331 2.04645 4.69189 1.03937 4.19137C0.991841 4.16781 0.988417 4.14781 1.01335 4.10356C1.39579 3.42199 1.8747 2.79927 2.43522 2.25472C2.44645 2.24376 2.45919 2.23417 2.47014 2.22485Z" fill="#54B431"/>
<path d="M14.2686 12.9646C14.2565 12.981 14.2462 12.9959 14.2349 13.0102C13.7461 13.6169 13.1729 14.1504 12.5328 14.5945C12.4817 14.63 12.4643 14.6161 12.4362 14.5705C12.1236 14.0611 11.8099 13.5525 11.4951 13.0447C11.2218 12.6022 10.9483 12.1599 10.6745 11.7179C10.6459 11.672 10.6457 11.6478 10.692 11.6137C10.9717 11.4081 11.2253 11.1691 11.4471 10.9021C11.4808 10.861 11.501 10.8646 11.5395 10.8938C12.4329 11.5697 13.3269 12.2444 14.2214 12.918C14.2383 12.9311 14.2592 12.9416 14.2686 12.9646Z" fill="#FABD00"/>
<path d="M7.78354 1.74996C7.78354 2.29522 7.78354 2.84058 7.78354 3.38603C7.78354 3.4944 7.77929 3.49645 7.67396 3.5033C7.35712 3.52457 7.04355 3.58048 6.73888 3.67004C6.64437 3.69744 6.643 3.69744 6.60848 3.60784C6.21137 2.58489 5.81457 1.56195 5.41809 0.539002C5.37919 0.438717 5.38015 0.438169 5.48068 0.404878C6.09807 0.198298 6.73884 0.0697071 7.38811 0.0220952C7.48139 0.0153821 7.57439 0.00908005 7.6678 0.00222998C7.77313 -0.00557911 7.7834 0.00222998 7.7834 0.106899C7.78368 0.65454 7.78372 1.20223 7.78354 1.74996Z" fill="#023067"/>
<path d="M9.83443 15.789C9.78293 15.7931 9.78265 15.7565 9.77676 15.7257C9.72581 15.4566 9.67495 15.1875 9.62418 14.9183C9.47032 14.0996 9.31668 13.2809 9.16328 12.4621C9.14561 12.3683 9.1489 12.3616 9.23834 12.336C9.55267 12.2472 9.85594 12.1231 10.1423 11.9661C10.1992 11.9345 10.2277 11.9436 10.2615 11.9985C10.8427 12.9433 11.4254 13.8872 12.0096 14.8302C12.0436 14.885 12.0361 14.9098 11.9822 14.9409C11.3243 15.3193 10.6158 15.6018 9.87798 15.7798C9.86182 15.7825 9.84621 15.7863 9.83443 15.789Z" fill="#970A31"/>
<path d="M11.9386 5.7722C11.9159 5.77028 11.9092 5.75453 11.9014 5.74124C11.7225 5.43319 11.5073 5.14774 11.2604 4.89101C11.222 4.85141 11.252 4.83196 11.2741 4.80743C11.562 4.4927 11.85 4.178 12.1381 3.86336C12.6038 3.35526 13.0687 2.84685 13.533 2.33812C13.5795 2.28688 13.6031 2.2914 13.6488 2.3373C14.1819 2.87059 14.638 3.47572 15.0039 4.13517C15.0522 4.22244 15.0518 4.22203 14.9607 4.26737L12.0036 5.74137C11.9812 5.75247 11.9585 5.76288 11.9386 5.7722Z" fill="#1B973A"/>
<path d="M12.5358 7.32845C12.4775 7.34736 12.4571 7.31311 12.446 7.24831C12.3913 6.92567 12.3059 6.61097 12.1779 6.3093C12.1505 6.24436 12.1695 6.21696 12.2272 6.18832C12.8649 5.87203 13.5019 5.55455 14.1383 5.23589C14.4914 5.05971 14.8452 4.88489 15.1971 4.70624C15.2562 4.67624 15.2832 4.68391 15.3102 4.74501C15.6166 5.43389 15.8241 6.16265 15.9266 6.90964C15.9392 7.00143 15.936 7.00732 15.8444 7.01622C15.4381 7.05596 15.0316 7.09363 14.6254 7.13199C14.1168 7.18003 13.6083 7.22803 13.0998 7.27598C12.9163 7.29365 12.7318 7.31037 12.5358 7.32845Z" fill="#C50E28"/>
<path d="M16 8.02718C15.9996 8.6344 15.9287 9.23952 15.7888 9.83039C15.7663 9.92629 15.7657 9.92629 15.6707 9.89889C14.6247 9.5984 13.5788 9.29773 12.5328 8.99688C12.3865 8.95482 12.4047 8.9703 12.4311 8.83247C12.4888 8.53657 12.5136 8.23522 12.5052 7.93388C12.5032 7.86428 12.5202 7.83305 12.5967 7.82633C13.0604 7.78523 13.5235 7.73961 13.9867 7.69591C14.5499 7.64257 15.1131 7.5895 15.6763 7.53671C15.7585 7.5289 15.8407 7.52425 15.9218 7.51466C15.9701 7.5089 15.986 7.52835 15.9903 7.57425C16.0016 7.72002 15.9967 7.8662 16 8.02718Z" fill="#E83418"/>
<path d="M8.48057 0.0115502C9.19967 0.0535256 9.90969 0.193415 10.591 0.42735C10.6447 0.445708 10.6552 0.469957 10.6347 0.523251C10.2338 1.56172 9.8341 2.6007 9.43552 3.64017C9.41538 3.69264 9.3921 3.71114 9.3343 3.69292C9.01849 3.59291 8.69215 3.52992 8.36182 3.50523C8.29457 3.50016 8.28649 3.46413 8.28662 3.40933C8.28758 3.0375 8.28662 2.66554 8.28662 2.29359C8.28662 1.57953 8.28662 0.86539 8.28662 0.151155C8.28758 -0.0247552 8.28553 0.00565916 8.48057 0.0115502Z" fill="#E4011E"/>
<path d="M6.162 3.84693C6.16501 3.89201 6.12981 3.89708 6.10488 3.90872C5.88742 4.00972 5.67854 4.12825 5.4803 4.26314C5.40497 4.31466 5.3306 4.36781 5.25869 4.42398C5.22116 4.45317 5.19746 4.45604 5.16281 4.41755C4.4114 3.59143 3.65912 2.76681 2.90598 1.94371C2.86256 1.89617 2.85996 1.87027 2.91296 1.82671C3.49169 1.34978 4.13398 0.955776 4.82135 0.65603C4.91092 0.616847 4.91188 0.617259 4.94763 0.709461C5.34375 1.73067 5.73995 2.75197 6.13625 3.77336C6.14556 3.79885 6.15419 3.82488 6.162 3.84693Z" fill="#004C88"/>
<path d="M14.5667 12.5484C14.5551 12.5408 14.5415 12.5327 14.529 12.5234C13.6292 11.8447 12.7295 11.1661 11.8298 10.4877C11.7976 10.4634 11.7853 10.4448 11.8109 10.4055C11.9936 10.1213 12.1418 9.81632 12.2522 9.497C12.269 9.44864 12.2916 9.44877 12.3334 9.46083C13.0251 9.66085 13.717 9.86005 14.4092 10.0584C14.7945 10.1693 15.1795 10.2816 15.5656 10.39C15.6193 10.405 15.6272 10.4238 15.6108 10.4738C15.3743 11.1967 15.0361 11.8822 14.6064 12.5097C14.5964 12.5238 14.5898 12.5425 14.5667 12.5484Z" fill="#00A6D9"/>
</g>
<defs>
<clipPath id="clip0_6_10510">
<rect width="16" height="16" fill="white"/>
</clipPath>
</defs>
</svg>
