<svg width="12" height="12" viewBox="0 0 12 12" fill="none" xmlns="http://www.w3.org/2000/svg">
<path d="M4.6422 4.21362L0.815918 2.00562V9.15076L4.6422 10.3028V4.21362Z" fill="#C22033"/>
<path d="M5.06384 4.22733V10.3062L8.91413 9.15076V2.00562L5.06384 4.22733Z" fill="#C22033"/>
<path d="M11.1224 9.02405H11.0093L11.4653 10.6046L11.9144 9.02405H11.8013H11.9144V2.66748H11.8013H11.6916H11.5716H11.3453H11.2356H11.1224H11.0093V9.02405H11.1224Z" fill="#C22033"/>
<path d="M9.73371 2.31081L9.32572 1.98853V9.34281L5.07429 10.7177H4.87543H4.83771H4.64229L0.411429 9.53481V1.98853L0 2.31081V9.82281L4.62171 11.1017H4.83771H4.87543H5.09486L9.35657 9.74738L9.73371 9.63767V2.31081Z" fill="#C22033"/>
<path d="M11.9144 1.82391C11.9144 1.70388 11.8667 1.58877 11.7819 1.50389C11.697 1.41902 11.5819 1.37134 11.4618 1.37134C11.3418 1.37134 11.2267 1.41902 11.1418 1.50389C11.057 1.58877 11.0093 1.70388 11.0093 1.82391V2.31077H11.9144V1.82391Z" fill="#C22033"/>
</svg>
