<svg width="12" height="12" viewBox="0 0 12 12" fill="none" xmlns="http://www.w3.org/2000/svg">
<path fill-rule="evenodd" clip-rule="evenodd" d="M5.16139 11.3874H6.83763L6.79051 11.608C6.74338 11.837 6.54019 12.0012 6.30396 12H5.69563C5.46246 11.9976 5.26295 11.834 5.21643 11.6074L5.16139 11.3874ZM8.18119 8.56277H3.8188C3.60277 8.56277 3.42712 8.73667 3.42712 8.95055C3.42712 9.16504 3.60277 9.33833 3.8188 9.33833H8.18119C8.39722 9.33833 8.57287 9.16504 8.57287 8.95055C8.57287 8.73667 8.39722 8.56277 8.18119 8.56277ZM10 3.96096C10.0006 5.00128 9.5869 5.99988 8.84821 6.74023C8.42959 7.14679 8.17746 7.69209 8.13829 8.27134H3.86161C3.82244 7.69209 3.57029 7.14679 3.15169 6.74023C2.21532 5.80047 1.81385 4.46026 2.08131 3.16663C2.34813 1.87365 3.249 0.797009 4.48278 0.295847C5.71658 -0.204633 7.12114 -0.0640561 8.22819 0.671509C9.33591 1.40707 10 2.64065 10 3.96096ZM9.1585 3.54047C9.1585 3.30901 9.08567 3.08362 8.94981 2.89517C8.84087 2.7437 8.69583 2.62192 8.52692 2.54011C8.58261 2.24807 8.48897 1.94815 8.2766 1.73789C8.06423 1.52825 7.76129 1.43616 7.46631 1.4913C7.36594 1.19744 7.10706 0.984771 6.79678 0.941138C6.4865 0.89812 6.17867 1.03142 5.99996 1.28651C5.82126 1.03143 5.51342 0.898126 5.20314 0.941138C4.89285 0.984763 4.63399 1.19743 4.53362 1.4913C4.23925 1.43616 3.93692 1.52826 3.72516 1.73729C3.51279 1.94633 3.41855 2.24563 3.47301 2.53647C3.3041 2.61826 3.15906 2.74065 3.05012 2.89213C2.73126 3.33445 2.78268 3.93974 3.17069 4.32388C3.25575 4.40628 3.35246 4.47596 3.45893 4.52989C3.38794 4.7377 3.40569 4.96492 3.50728 5.15942C3.60459 5.34785 3.7735 5.48963 3.9773 5.55386C3.93568 5.78229 4.00606 6.01738 4.1664 6.18642C4.32674 6.35608 4.55869 6.44089 4.79187 6.41425C4.8341 6.67902 5.03115 6.89351 5.29248 6.96076C5.55442 7.02802 5.83165 6.93531 5.99812 6.72447C6.16581 6.93472 6.44304 7.02741 6.70437 6.96016C6.96631 6.8929 7.16337 6.67902 7.2062 6.41425C7.43938 6.4403 7.67071 6.35547 7.83106 6.18581C7.99079 6.01615 8.06118 5.78228 8.01955 5.55386C8.22335 5.48964 8.39226 5.34786 8.48957 5.15942C8.59116 4.96492 8.60891 4.7377 8.53792 4.52989C8.64379 4.47596 8.74111 4.40628 8.82616 4.32388C9.03792 4.11667 9.15727 3.83494 9.1585 3.54047ZM5.85239 1.75359V6.31183C5.85668 6.52389 5.68654 6.69839 5.47295 6.70202C5.25875 6.70626 5.08249 6.53782 5.07882 6.32636C5.20306 6.25789 5.30526 6.1567 5.3732 6.03311C5.39645 5.99857 5.4038 5.95616 5.394 5.91617C5.38421 5.87618 5.35729 5.84225 5.32056 5.82286C5.28385 5.80347 5.24039 5.80044 5.20122 5.81438C5.16206 5.82831 5.13023 5.858 5.11493 5.89617C5.00538 6.11733 4.7361 6.20881 4.51334 6.10097C4.28996 5.99312 4.19694 5.72651 4.30649 5.50537C4.32485 5.46296 4.32179 5.41388 4.29792 5.37329C4.27405 5.3333 4.23243 5.30664 4.18592 5.3024C4.02864 5.28725 3.88727 5.20182 3.80098 5.07094C3.7153 4.94007 3.69388 4.77769 3.74406 4.62923C3.97356 4.67589 4.21225 4.65104 4.42706 4.55774C4.49622 4.52259 4.5262 4.44019 4.49499 4.36991C4.46378 4.29902 4.38238 4.26448 4.30955 4.29115C4.05313 4.40324 3.75631 4.37961 3.5213 4.22813C3.2863 4.07666 3.14432 3.81794 3.14369 3.54043C3.14369 3.36896 3.19877 3.20234 3.30037 3.0642C3.40073 2.92423 3.54272 2.81942 3.70612 2.76307C3.77956 2.73338 3.81505 2.65037 3.78629 2.57706C3.71285 2.37045 3.75814 2.1402 3.9044 1.9754C4.05006 1.8112 4.27467 1.73667 4.49132 1.78151C4.49682 1.95782 4.55864 2.12748 4.66818 2.26684C4.7202 2.33106 4.81506 2.34136 4.87994 2.28986C4.94481 2.23896 4.95522 2.14505 4.9032 2.08082C4.79548 1.94631 4.75999 1.76878 4.80834 1.60398C4.85668 1.43978 4.98276 1.30831 5.14615 1.25195C5.31017 1.19561 5.49071 1.22166 5.63209 1.32103C5.77285 1.421 5.85608 1.58217 5.85547 1.75364L5.85239 1.75359ZM4.63513 3.3047C4.59718 3.46283 4.60147 3.62885 4.64798 3.78518C4.65655 3.82517 4.68164 3.85971 4.71714 3.88092C4.75263 3.90152 4.79547 3.90636 4.83525 3.89425C4.87442 3.88213 4.90747 3.85426 4.92522 3.8173C4.94236 3.78034 4.94358 3.73792 4.92828 3.69975C4.92828 3.69975 4.74836 3.1508 5.3983 3.02175C5.43869 3.01569 5.47419 2.99509 5.49805 2.96177C5.52131 2.92905 5.52988 2.88845 5.52192 2.84907C5.51396 2.80969 5.4901 2.77515 5.45582 2.75394C5.42094 2.73274 5.37932 2.72668 5.34015 2.73698C5.11799 2.76909 4.91419 2.87876 4.7667 3.0472C4.5776 2.9757 4.37013 2.96601 4.1749 3.01933C4.09718 3.04235 4.05312 3.12294 4.07698 3.19989C4.10024 3.27623 4.18164 3.31986 4.25937 3.29683C4.38299 3.26472 4.51396 3.26957 4.63513 3.31077V3.3047ZM5.5158 4.95213C5.43808 4.89578 5.34689 4.85821 5.2508 4.84488C5.2759 4.78308 5.29793 4.71946 5.31812 4.65402C5.33404 4.5801 5.29058 4.50618 5.21776 4.48436C5.14493 4.46194 5.06659 4.4989 5.03783 4.56858C4.99805 4.78974 4.8628 4.98242 4.66818 5.09754C4.63207 5.1145 4.60392 5.1448 4.58984 5.18236C4.57638 5.21993 4.57822 5.26113 4.59535 5.29688C4.63085 5.37201 4.72081 5.40412 4.79671 5.36898C4.90626 5.31627 5.00295 5.24053 5.08007 5.14722C5.17003 5.12601 5.26428 5.14358 5.34017 5.19508C5.40504 5.23447 5.4895 5.21871 5.5354 5.15812C5.58069 5.09754 5.57212 5.01332 5.51582 4.96242L5.5158 4.95213ZM8.71051 3.06412C8.94979 3.39192 8.91186 3.84391 8.62116 4.12809C8.3788 4.36863 8.01161 4.43649 7.69826 4.29896C7.62543 4.2723 7.54404 4.30683 7.51282 4.37772C7.48161 4.44801 7.5116 4.53041 7.58076 4.56555C7.79557 4.65825 8.03424 4.6837 8.26375 4.63704C8.31394 4.78488 8.29252 4.94787 8.20684 5.07875C8.12055 5.20963 7.97918 5.29505 7.82189 5.31021C7.77538 5.31445 7.73315 5.34111 7.70928 5.3811C7.68542 5.42169 7.68297 5.47077 7.70133 5.51318C7.78456 5.72949 7.68664 5.97368 7.4755 6.07364C7.26435 6.17362 7.011 6.09667 6.89287 5.89612C6.87696 5.85795 6.84574 5.82826 6.80657 5.81432C6.76741 5.80039 6.72396 5.80342 6.68723 5.82281C6.65051 5.8422 6.62359 5.87613 6.61379 5.91612C6.60339 5.9561 6.61135 5.99852 6.6346 6.03305C6.70009 6.15545 6.79984 6.25724 6.92102 6.32631C6.91734 6.53777 6.74109 6.7062 6.52689 6.70197C6.3133 6.69833 6.14317 6.52384 6.14745 6.31177V1.75354C6.14561 1.58085 6.22823 1.41847 6.36961 1.3185C6.51098 1.21792 6.69274 1.19187 6.85738 1.24822C7.0214 1.30517 7.14747 1.43726 7.19519 1.60267C7.24293 1.76869 7.20621 1.94683 7.09666 2.08073C7.04464 2.14495 7.05504 2.23886 7.11992 2.28977C7.18479 2.34127 7.27964 2.33097 7.33167 2.26674C7.44 2.12981 7.5018 1.96259 7.50854 1.7893C7.72397 1.74446 7.94674 1.81717 8.09301 1.98016C8.23928 2.14255 8.2864 2.37036 8.21663 2.57698C8.20133 2.61394 8.20194 2.65575 8.21847 2.69271C8.23499 2.72967 8.2662 2.75754 8.30476 2.77087C8.46695 2.82479 8.60892 2.92719 8.71051 3.06412ZM7.44121 4.87271C7.39286 4.80849 7.30106 4.79576 7.23619 4.84302C7.16091 4.89513 7.06667 4.9127 6.97732 4.89149C6.90021 4.79697 6.8029 4.72062 6.69274 4.66792C6.61991 4.63277 6.53179 4.66246 6.4969 4.73457C6.4614 4.80667 6.49139 4.89331 6.56422 4.92845C6.76006 5.04358 6.89654 5.23626 6.93998 5.45741C6.951 5.49437 6.97609 5.52527 7.01036 5.54345C7.04463 5.56223 7.08441 5.56587 7.12175 5.55496C7.15908 5.54284 7.19029 5.51679 7.20804 5.48165C7.22579 5.44651 7.22885 5.40591 7.216 5.36895C7.1958 5.30412 7.17315 5.2405 7.14684 5.17809C7.2417 5.16657 7.33228 5.13143 7.41 5.07569C7.47487 5.02782 7.48895 4.93754 7.44121 4.87271ZM7.99445 3.66272C7.9767 3.58517 7.89898 3.53609 7.82064 3.55245C7.67009 3.57608 7.51648 3.54397 7.38979 3.46096C7.46323 3.31675 7.49873 3.1568 7.49322 2.99563C7.49383 2.95503 7.47792 2.91565 7.44793 2.88717C7.41856 2.85869 7.37816 2.84415 7.33716 2.84658C7.29615 2.849 7.2576 2.86839 7.23189 2.89989C7.20558 2.9314 7.19395 2.9726 7.20007 3.01259C7.20007 3.01259 7.24413 3.58942 6.58134 3.56336C6.50545 3.5676 6.44486 3.62758 6.4418 3.70272C6.43813 3.77785 6.49321 3.84328 6.56849 3.85359C6.78943 3.87661 7.01157 3.82147 7.19518 3.69848C7.39285 3.83844 7.63887 3.89478 7.87817 3.85359C7.92163 3.84753 7.96018 3.82269 7.98283 3.78573C8.00547 3.74877 8.00975 3.70332 7.99445 3.66272ZM3.86895 10.0381C3.87018 10.6216 4.34815 11.0948 4.93751 11.096H7.0623C7.65165 11.0948 8.12963 10.6216 8.13085 10.0381V9.62849H3.86889L3.86895 10.0381Z" fill="#FF6681"/>
</svg>
