<svg width="80" height="97" viewBox="0 0 80 97" fill="none" xmlns="http://www.w3.org/2000/svg">
<g clip-path="url(#clip0_7197_1757)">
<path d="M32.8871 47.184C30.1794 40.5493 27.2761 32.7912 27.6534 23.7939C30.2921 24.5221 32.6548 27.9342 34.4538 32.271C36.2529 36.6078 37.5527 41.8485 38.7766 47.1008C39.7889 51.4537 44.2842 71.7692 40.8149 74.2219C38.9077 63.7591 36.3012 55.5478 32.8871 47.184Z" fill="url(#paint0_linear_7197_1757)"/>
<path d="M37.4654 72.0096C34.638 48.1249 29.4019 31.1337 20.9842 18.5371L19.8799 19.7716C28.0676 32.026 33.1726 48.6566 35.9494 72.1067L37.4631 72.0096H37.4654Z" fill="url(#paint1_linear_7197_1757)"/>
<path d="M5.88068 2.20525C4.76261 3.15999 3.17291 3.69631 2.87384 5.13883C2.57477 6.58135 3.62843 8.28046 5.09389 8.30358C3.99192 8.70582 2.86004 9.12424 1.99732 9.92179C1.13461 10.7193 0.605478 12 1.02188 13.1004C1.43828 14.2008 3.03028 14.7672 3.86539 13.9442C2.67599 14.7649 1.4912 15.6664 0.729709 16.8986C-0.0317794 18.1307 -0.294044 19.7697 0.419132 21.0319C1.13231 22.2941 2.99117 22.8698 4.11385 21.9566C3.75956 23.7829 5.82547 25.0983 7.60841 25.5976C13.9143 27.3638 20.8781 26.12 26.5099 22.7704C32.144 19.4184 36.476 14.0829 39.1768 8.0909C39.5495 7.26331 39.8969 6.30856 39.5518 5.46709C39.0595 4.26731 37.3594 4.01302 36.2206 4.62331C35.0818 5.23592 34.3824 6.41721 33.7383 7.54071C35.2175 5.19431 32.8365 1.62732 30.0919 1.96021C28.1272 2.19831 26.6479 3.90437 25.7967 5.69827C26.312 4.11011 25.4309 2.19369 23.8918 1.56028C22.3528 0.924554 20.3881 1.66431 19.6427 3.15768C20.533 1.37303 11.2755 -2.40664 5.88298 2.20756L5.88068 2.20525Z" fill="url(#paint2_linear_7197_1757)"/>
<path opacity="0.11" d="M4.23852 20.6899C4.29144 21.3095 4.48238 21.8851 4.80906 22.4168C4.99771 22.7427 5.22086 23.0386 5.47623 23.3068C6.1572 24.0257 7.02681 24.5667 7.93784 24.9412C9.84041 25.7225 11.9822 25.9329 14.0136 25.7457C17.8786 25.392 21.6239 23.7506 24.9068 21.7348C27.189 20.3339 29.2733 18.6741 31.1207 16.7276C33.2993 14.4321 34.9189 11.8476 36.4212 9.07811C36.6236 8.70593 36.3315 8.5626 35.9979 8.47706C35.754 8.41465 34.7119 8.14649 34.5324 8.47013C33.0186 11.1725 31.3714 13.7293 29.2273 15.9809C28.1759 17.0859 27.0234 18.1285 25.8225 19.0694L23.9636 20.4171C22.7351 21.2794 21.4238 21.9891 20.0342 22.5485C18.4422 23.2929 16.8986 23.9656 15.1915 24.3864C14.7452 24.5089 14.292 24.606 13.8365 24.6776C12.8795 24.9296 11.9178 24.8695 10.947 24.4996C9.93703 24.6799 9.06512 24.4858 8.33354 23.9194C7.92403 23.6952 7.58125 23.3923 7.30518 23.0109C6.93019 22.7242 6.64262 22.3682 6.44707 21.9452C6.1618 21.4366 5.85812 20.9396 5.53374 20.4564C5.27378 20.0426 4.08898 19.9779 4.23392 20.6945L4.23852 20.6899Z" fill="#D15615"/>
<path opacity="0.11" d="M4.39495 19.6747C4.62271 20.6756 4.91948 21.5402 5.66487 22.2869C6.36884 22.992 7.21315 23.5491 8.13568 23.9213C10.0659 24.7027 12.2376 24.9269 14.2989 24.7373C18.1639 24.3836 21.9138 22.7423 25.1967 20.7265C27.4789 19.3256 29.5632 17.6658 31.4105 15.7193C32.4734 14.6027 33.4419 13.4099 34.3162 12.1407C35.2111 10.8415 36.0117 9.48457 36.7157 8.06979C36.925 7.68604 36.6052 7.54965 36.2693 7.46643C36.0255 7.40401 34.9166 7.1243 34.7372 7.45256C33.9987 8.79798 33.2717 10.148 32.3952 11.4102C31.5233 12.6632 30.5363 13.863 29.4827 14.9657C28.4267 16.0707 27.2718 17.1133 26.0686 18.0518L24.2052 19.3972C22.9721 20.2572 21.6607 20.9669 20.2666 21.5263C18.6723 22.2707 17.124 22.9457 15.4147 23.3619C14.9661 23.4844 14.5129 23.5815 14.055 23.6531C13.1095 23.9028 12.1594 23.845 11.2 23.4798C10.2039 23.6554 9.34348 23.4636 8.6211 22.9064C8.2139 22.6845 7.87111 22.3817 7.59505 21.9979C7.22235 21.709 6.93708 21.3553 6.74154 20.9345C6.45626 20.426 6.15489 19.9289 5.83281 19.4435C5.57975 19.0366 4.22931 18.928 4.39956 19.67L4.39495 19.6747Z" fill="#D15615"/>
<path opacity="0.11" d="M4.3167 20.4559C4.38802 21.0754 4.59507 21.6441 4.93555 22.1666C5.27374 22.7098 5.70164 23.1722 6.21927 23.549C7.05208 24.2818 8.04822 24.6679 9.08578 25.0007C11.0482 25.6318 13.2981 25.7821 15.3272 25.5001C17.0757 25.2573 18.8149 24.728 20.4529 24.0876C22.5832 23.2531 24.6284 22.2336 26.5379 20.9598C29.0708 19.2723 31.3622 17.201 33.2855 14.8338C34.79 12.9798 35.9472 10.9847 37.0722 8.89495C37.3 8.46959 36.8905 8.36094 36.5293 8.27772C36.1405 8.19912 35.7471 8.14826 35.3514 8.12283C35.119 8.06966 34.9074 8.10434 34.7141 8.22455C33.6674 10.2866 32.4159 12.2053 30.9573 13.9854L29.4297 15.7122C27.5985 17.6818 25.4589 19.3486 23.1791 20.7541C20.7658 22.2429 18.1776 23.4588 15.41 24.1315C14.7337 24.3095 14.0481 24.4482 13.3556 24.55C12.4285 24.691 11.4991 24.721 10.565 24.6378L11.6187 24.7372C11.1586 24.6586 10.6962 24.5823 10.2361 24.5037C10.5765 24.5893 10.9147 24.6748 11.2552 24.7603C10.9331 24.6563 10.6134 24.5523 10.2913 24.4482C9.51829 24.1847 8.86722 23.7362 8.33579 23.1028C7.76295 22.7745 7.32814 22.3284 7.03367 21.762C6.71849 21.2349 6.36881 20.731 5.98231 20.2525C5.75225 19.9358 5.1311 19.9381 4.78141 19.9566C4.44323 19.975 4.23158 20.0906 4.3167 20.4559Z" fill="#D15615"/>
<path opacity="0.11" d="M4.45237 21.0569C4.63642 22.051 4.88258 22.7838 5.58425 23.5652C6.30663 24.3696 7.31428 25.0285 8.31503 25.4307C9.50212 25.9093 10.7927 26.1034 12.0489 26.2976C13.2198 26.4802 14.3839 26.545 15.5687 26.434C19.8179 26.0387 24.0141 24.1893 27.534 21.8429C30.0738 20.1507 32.333 18.0817 34.2701 15.7192C35.8252 13.8212 36.9985 11.7453 38.1488 9.59078C38.3812 9.15618 36.5177 8.98511 36.4993 8.9828C36.0829 8.92731 35.0338 8.6291 34.7486 9.13306C34.0423 10.4877 33.244 11.7846 32.3537 13.0237C31.4196 14.1541 30.4856 15.2846 29.5516 16.415C27.7341 18.3938 25.5739 20.0606 23.2986 21.4684C22.3347 22.0972 21.3293 22.652 20.2826 23.1306C19.084 23.7247 17.8417 24.1916 16.5511 24.5315C15.5779 24.9013 14.5749 25.1556 13.5419 25.2897C12.6148 25.4307 11.6831 25.4608 10.749 25.3799C11.2252 25.4353 11.7015 25.4885 12.1754 25.544C11.713 25.4654 11.2529 25.3891 10.7904 25.3105C11.2552 25.4169 11.7199 25.5255 12.1823 25.6318C10.9331 25.2319 9.88862 24.8251 8.93388 23.8287C8.70842 23.5744 8.48527 23.3178 8.25981 23.0635C7.84111 22.3584 7.35799 21.7042 6.81045 21.0939C6.61491 20.8489 4.34424 20.4813 4.44777 21.0523L4.45237 21.0569Z" fill="#D15615"/>
<path opacity="0.11" d="M4.46118 20.2502C4.67283 21.2419 4.9259 22.0187 5.63677 22.7977C6.35685 23.586 7.3875 24.2333 8.36295 24.6263C9.54544 25.1025 10.8292 25.2967 12.0784 25.4909C13.2425 25.6712 14.4019 25.7313 15.5752 25.6226C19.8129 25.2296 24.0206 23.3664 27.5267 21.0292C30.0481 19.3463 32.3602 17.2796 34.2559 14.9032C35.7903 12.9798 36.9935 10.9432 38.1553 8.78171C38.3877 8.34711 36.5449 8.18066 36.5288 8.17835C36.1147 8.12287 35.0818 7.83159 34.8011 8.33324C33.9775 10.0277 32.933 11.5766 31.6631 12.9752C30.6417 14.5772 29.4155 15.9966 27.9845 17.2334C26.3028 18.7568 24.3841 20.1831 22.3964 21.2766C20.0797 22.5503 17.5882 23.6993 14.9909 24.231C14.5262 24.3165 14.0638 24.402 13.599 24.4876C12.6696 24.6286 11.7379 24.6586 10.8016 24.5777L12.2095 24.7372C11.7471 24.6586 11.287 24.5824 10.8246 24.5038C11.2824 24.6101 11.7402 24.7141 12.198 24.8205C10.9557 24.4228 9.90433 24.0137 8.95419 23.0243C8.72874 22.7677 8.50328 22.5134 8.27783 22.2568C7.85912 21.5586 7.3829 20.9021 6.84687 20.2895C6.64902 20.0375 4.34385 19.6954 4.46348 20.2502H4.46118Z" fill="#D15615"/>
<path opacity="0.11" d="M4.18736 19.4741C4.45883 20.4843 4.80622 21.3697 5.5263 22.1464C6.21647 22.8908 7.10449 23.3716 8.01091 23.7854C9.73404 24.5737 11.724 24.6708 13.5806 24.5021C15.5085 24.3287 17.3719 23.7993 19.1802 23.1173C21.6878 22.1718 24.0206 20.8888 26.1923 19.3215C27.7889 18.1703 29.282 16.915 30.6439 15.4817C32.8272 13.1862 34.4422 10.597 35.9536 7.8299C36.1147 7.53631 35.9605 7.33751 35.6753 7.24735C35.4544 7.18031 34.7895 7.01849 34.6354 7.29821C33.89 8.65519 33.1584 10.0214 32.2796 11.2975C31.4123 12.5551 30.4277 13.7572 29.3717 14.8622C28.8219 15.3962 28.272 15.9302 27.7222 16.4642C26.5604 17.3704 25.3986 18.2766 24.2368 19.1828C22.6448 20.2462 20.9516 21.1339 19.1894 21.8759C17.9126 22.4123 16.6104 22.8931 15.2669 23.226C14.8206 23.3508 14.3697 23.4479 13.9119 23.5173C12.872 23.7854 11.8253 23.7091 10.7739 23.293C9.66962 23.4826 8.71258 23.2745 7.90278 22.6666C7.60601 22.5024 7.33684 22.3013 7.09528 22.0609C6.18886 21.2749 5.57231 20.082 4.96496 19.0603C4.88214 18.9216 4.48874 18.9146 4.36681 18.977C4.19657 19.0626 4.13445 19.2822 4.18506 19.4741H4.18736Z" fill="#D15615"/>
<path opacity="0.11" d="M3.92521 20.475C4.02184 21.1153 4.25419 21.7048 4.61999 22.2388C4.82474 22.5578 5.05479 22.856 5.31016 23.1381C6.00033 23.8709 6.87684 24.3725 7.78557 24.7724C9.55701 25.5561 11.5769 25.6856 13.4795 25.5122C17.6688 25.1331 21.7661 23.2606 25.2377 20.9489C27.1679 19.6635 28.9554 18.1748 30.5543 16.4918C32.7352 14.1986 34.3548 11.6095 35.8686 8.84466C36.0412 8.52795 35.8525 8.34533 35.5534 8.25748C35.3257 8.19044 34.5665 7.99857 34.4009 8.29216C32.8848 11.0015 31.2445 13.5745 29.0934 15.833C28.0421 16.9357 26.8918 17.9806 25.6932 18.9168C24.4739 19.7329 23.2569 20.5489 22.0376 21.365C21.0461 21.9429 20.0177 22.4422 18.9502 22.8607C17.678 23.3993 16.3759 23.8824 15.0347 24.2153C14.5884 24.3402 14.1374 24.4373 13.6819 24.5066C12.6651 24.7701 11.6413 24.7008 10.6107 24.2962C9.5317 24.4812 8.59537 24.2777 7.80627 23.6836C7.5095 23.5195 7.24033 23.3184 7.00107 23.078C6.07395 22.2735 5.40908 21.0852 4.73731 20.0681C4.64529 19.9271 4.24499 19.9178 4.11616 19.9802C3.94362 20.0658 3.8769 20.2808 3.92981 20.475H3.92521Z" fill="#D15615"/>
<path opacity="0.11" d="M4.25647 21.5844C4.28177 22.1993 4.45662 22.7703 4.781 23.295C4.95354 23.6372 5.17899 23.9331 5.45966 24.1827C6.18434 24.8716 6.98724 25.4403 7.91667 25.8125C9.88826 26.6031 12.1267 26.8528 14.2294 26.6609C16.1573 26.4852 18.0162 25.9512 19.8244 25.2716C22.408 24.303 24.8144 22.9991 27.0505 21.3879C29.2199 19.8251 31.1869 18.0128 32.8755 15.9299C34.3778 14.0782 35.5258 12.0762 36.6508 9.99106C36.8693 9.58882 36.5128 9.4663 36.1631 9.38077C35.9077 9.31835 34.6953 9.00627 34.5021 9.34378C32.9722 12.03 31.2974 14.5798 29.1624 16.8315C26.7882 19.3304 23.9931 21.4225 20.9425 23.0061C19.974 23.5586 18.9525 23.9932 17.8804 24.3122C17.0131 24.7376 16.109 25.052 15.1704 25.2531C14.7241 25.3756 14.2708 25.4727 13.8153 25.5444C12.8997 25.7894 11.9749 25.7385 11.0454 25.3895C10.0815 25.5628 9.2487 25.3756 8.54933 24.8323C8.14213 24.6127 7.80394 24.3099 7.53248 23.9261C7.16439 23.6372 6.88372 23.2835 6.68817 22.8651C6.4029 22.3472 6.08772 21.8479 5.74263 21.3671C5.54478 21.0665 4.99955 21.0596 4.67747 21.0827C4.33929 21.1058 4.20125 21.2469 4.25877 21.5867L4.25647 21.5844Z" fill="#D15615"/>
<path opacity="0.11" d="M4.55516 19.425C4.64028 20.0353 4.84733 20.6017 5.17401 21.1218C5.5053 21.6674 5.9309 22.1251 6.45083 22.495C7.33425 23.1908 8.29589 23.6254 9.36105 23.9513C11.4339 24.5894 13.7781 24.7974 15.9223 24.4992C18.4115 24.1525 20.9145 23.2925 23.1691 22.2037C25.2281 21.2096 27.1882 20.0353 28.9941 18.6251C31.389 16.7526 33.5676 14.501 35.2701 11.972C36.2616 10.4994 36.9357 9.29039 37.7823 7.72766C38.0146 7.29999 36.418 7.1636 36.3789 7.15666C35.9625 7.10118 35.1389 6.87001 34.8767 7.34622C32.9695 10.83 30.9542 13.678 28.0854 16.2672C26.3991 17.7883 24.4781 19.2123 22.4881 20.3034C20.1507 21.5841 17.6569 22.71 15.032 23.244C14.5672 23.3295 14.1025 23.415 13.6378 23.5006C12.7084 23.6416 11.7743 23.6693 10.838 23.5884C11.2429 23.63 11.6455 23.6716 12.0504 23.7132C11.588 23.6346 11.1279 23.5584 10.6655 23.4798C11.0589 23.5745 11.4523 23.667 11.8457 23.7618C10.631 23.3711 9.48068 22.9365 8.56735 21.9656C7.80126 21.1495 7.24913 20.1578 6.59807 19.2516C6.3404 18.891 5.49149 18.921 5.1142 18.9326C4.75071 18.9418 4.44933 19.0066 4.55286 19.425H4.55516Z" fill="#D15615"/>
<path opacity="0.11" d="M4.00082 21.2304C4.06523 21.8615 4.27228 22.444 4.62197 22.9711C4.84053 23.2762 5.06598 23.5744 5.30294 23.8657C5.98161 24.5939 6.85582 25.1164 7.76225 25.5024C9.5981 26.2815 11.6755 26.4549 13.6402 26.2745C17.5121 25.9209 21.2275 24.2795 24.515 22.2614C26.7972 20.8605 28.8815 19.2007 30.7311 17.2542C32.9098 14.961 34.5294 12.3741 36.034 9.607C36.2226 9.26025 35.9833 9.10074 35.6659 9.01289C35.4289 8.94816 34.5363 8.71699 34.3614 9.02676C32.8339 11.7245 31.1705 14.2882 29.0287 16.5445C26.1783 19.5428 22.7183 21.9747 18.9154 23.586C17.6432 24.1246 16.3457 24.6101 15.0044 24.943C14.5604 25.0678 14.1095 25.1649 13.6517 25.2343C12.6671 25.4932 11.6732 25.4285 10.6748 25.0424C9.63031 25.2273 8.72849 25.0285 7.9693 24.446C7.67483 24.2818 7.41026 24.0807 7.1733 23.8403C6.26918 23.0451 5.63192 21.836 4.98086 20.8397C4.87963 20.6848 4.36431 20.6779 4.21937 20.738C4.01462 20.8235 3.9502 21.0015 4.00082 21.2304Z" fill="#D15615"/>
<path opacity="0.11" d="M4.58123 19.0506C4.83659 20.0423 5.14717 20.9416 5.92016 21.6605C6.65404 22.3471 7.45924 22.9227 8.39558 23.2949C10.3741 24.0809 12.6102 24.3306 14.7198 24.1364C18.5825 23.7827 22.3439 22.1437 25.6268 20.1278C27.9067 18.7269 29.9887 17.0671 31.8361 15.1206C32.8989 14.0041 33.8675 12.8112 34.744 11.5421C35.6412 10.2406 36.4441 8.88361 37.1504 7.46883C37.3689 7.06659 37.0055 6.94407 36.6604 6.86085C36.4096 6.80074 35.1834 6.49328 34.9994 6.83311C34.2724 8.17853 33.5569 9.52858 32.6873 10.7908C31.82 12.0484 30.8307 13.2458 29.7748 14.3462C28.7165 15.4512 27.5593 16.4938 26.3515 17.4301C25.7281 17.8785 25.1069 18.327 24.4835 18.7755C23.2481 19.6331 21.9367 20.3428 20.5426 20.9069C18.9483 21.6536 17.4 22.3286 15.6884 22.7424C15.2398 22.8649 14.7843 22.962 14.3241 23.0314C13.4039 23.2764 12.4768 23.2209 11.5428 22.8719C10.5765 23.0406 9.74141 22.8534 9.03743 22.3101C8.62793 22.0882 8.28515 21.7853 8.00908 21.4016C7.63639 21.1103 7.34882 20.7566 7.14406 20.3382C6.84729 19.825 6.52981 19.3257 6.19163 18.8379C5.98458 18.5212 5.35882 18.5281 5.02984 18.5489C4.70316 18.5674 4.48691 18.6946 4.57893 19.0506H4.58123Z" fill="#D15615"/>
<path opacity="0.11" d="M3.95243 19.9773C4.2446 21.0222 4.58279 21.903 5.35578 22.719C5.855 23.2461 6.49916 23.7015 7.15482 24.0113C9.29435 25.0215 11.5098 25.2689 13.8564 24.9521C18.1907 24.3696 22.3593 22.3653 25.8769 19.8247C27.4689 18.6758 28.9573 17.4113 30.3147 15.9826C32.4979 13.6871 34.1152 11.0957 35.6313 8.32853C35.7785 8.05805 35.6612 7.84075 35.392 7.75059C35.1758 7.67893 34.6121 7.54947 34.4649 7.81532C33.7103 9.17693 32.9534 10.527 32.0838 11.8215C31.0117 13.412 29.7211 14.8545 28.3523 16.1884C27.577 17.0021 26.7212 17.7211 25.7848 18.3475C24.9474 19.1012 24.041 19.7554 23.0656 20.3056C21.4483 21.2996 19.7389 22.1966 17.9514 22.8415C16.8011 23.2576 15.6209 23.6553 14.4246 23.9142L11.8687 24.2702C10.8334 24.1176 9.80048 23.965 8.76522 23.8125C8.23149 23.5143 7.69776 23.2183 7.16403 22.9201C6.73382 22.6289 6.36343 22.2775 6.05515 21.866C5.46621 21.1632 5.0245 20.3218 4.53908 19.545C4.46316 19.4248 4.20779 19.4086 4.09967 19.4757C3.96163 19.5589 3.91102 19.8201 3.95473 19.975L3.95243 19.9773Z" fill="#D15615"/>
<path opacity="0.11" d="M23.7605 3.66856C23.7122 5.44628 23.6638 7.22399 23.6155 9.00171C23.604 9.3947 23.9261 9.4525 24.2597 9.51722C24.4575 9.55652 25.058 9.67673 25.0488 9.27912C25.0097 7.46441 24.9683 5.64971 24.9292 3.83269C24.9223 3.48131 24.729 3.41658 24.3977 3.37035C24.1539 3.33567 23.7697 3.31024 23.7582 3.66625L23.7605 3.66856Z" fill="#F8ECCE"/>
<path opacity="0.11" d="M23.977 2.65556C23.9195 4.43096 23.862 6.20637 23.8068 7.98409C23.7884 8.58514 25.3229 8.81168 25.316 8.27305C25.2953 6.46066 25.2746 4.64827 25.2539 2.83587C25.2493 2.46831 24.9985 2.41283 24.6672 2.36659C24.4234 2.33192 23.9885 2.28568 23.9747 2.65556H23.977Z" fill="#F8ECCE"/>
<path opacity="0.11" d="M23.9817 3.42764C23.915 5.19842 23.8483 6.9692 23.7816 8.73767C23.7655 9.17921 24.3084 9.23007 24.6328 9.29249C24.81 9.32716 25.6336 9.53291 25.629 9.09368C25.6106 7.27898 25.5921 5.46658 25.5714 3.65188C25.5645 3.06701 24.0025 2.85433 23.9794 3.42533L23.9817 3.42764Z" fill="#F8ECCE"/>
<path opacity="0.11" d="M24.0601 4.17257C23.9957 5.93642 23.9289 7.69796 23.8645 9.4618C23.8461 9.96345 24.771 10.0259 25.0746 10.0837C25.1989 10.1068 26.4412 10.4374 26.4274 9.9542C26.3744 8.13256 26.3192 6.31092 26.2663 4.48697C26.2525 4.01307 25.5462 3.99688 25.2173 3.95065C25.0171 3.92291 24.0785 3.70792 24.0601 4.17257Z" fill="#F8ECCE"/>
<path opacity="0.11" d="M24.1038 3.37065C24.044 5.1345 23.9819 6.89835 23.9221 8.66219C23.906 9.15921 24.8055 9.22163 25.1115 9.27942C25.2403 9.30485 26.4573 9.62618 26.4435 9.14534C26.3929 7.3237 26.3423 5.50206 26.2917 3.68274C26.2779 3.21114 25.5785 3.19496 25.2495 3.14873C25.0494 3.12099 24.1176 2.90831 24.1015 3.37297L24.1038 3.37065Z" fill="#F8ECCE"/>
<path opacity="0.11" d="M23.7352 2.66101C23.6754 4.46647 23.6156 6.27193 23.5557 8.0797C23.5488 8.32243 23.9676 8.38947 24.1355 8.36173C24.4001 8.3178 24.4323 8.10281 24.43 7.86239C24.4231 6.04075 24.4162 4.21911 24.4093 2.39516C24.4093 2.19635 24.1355 2.09001 23.9676 2.1455C23.7398 2.22178 23.7398 2.44602 23.7329 2.6587L23.7352 2.66101Z" fill="#F8ECCE"/>
<path opacity="0.11" d="M23.5903 3.4863C23.5259 5.28945 23.4615 7.09491 23.3971 8.89805C23.3832 9.26099 23.6225 9.35578 23.9745 9.37196C24.3219 9.38814 24.4369 9.24019 24.4346 8.89112C24.4231 7.06717 24.4139 5.24553 24.4024 3.42158C24.4024 3.0517 23.6041 3.04245 23.588 3.4863H23.5903Z" fill="#F8ECCE"/>
<path opacity="0.11" d="M23.8227 4.56071C23.7398 6.33149 23.6593 8.10227 23.5765 9.87305C23.5489 10.4903 25.2444 10.7353 25.2421 10.1967C25.2375 8.3843 25.2306 6.57422 25.226 4.76183C25.226 4.37577 24.9085 4.32954 24.5773 4.28099C24.3334 4.24631 23.8388 4.17003 23.8204 4.5584L23.8227 4.56071Z" fill="#F8ECCE"/>
<path opacity="0.11" d="M24.1863 2.38086C24.1311 4.14933 24.0759 5.9178 24.0207 7.68627C24.0069 8.15555 24.704 8.20641 25.0238 8.26651C25.1779 8.29657 26.1786 8.55548 26.1694 8.09545C26.1303 6.27843 26.0935 4.46141 26.0544 2.64209C26.0452 2.20055 25.5046 2.17743 25.1733 2.1312C24.957 2.10114 24.2002 1.94163 24.1863 2.37855V2.38086Z" fill="#F8ECCE"/>
<path opacity="0.11" d="M23.517 4.21669C23.4848 6.02446 23.4503 7.82991 23.4181 9.63768C23.4112 10.0399 23.7563 10.1093 24.1197 10.1347C24.4855 10.1601 24.6673 10.0607 24.6535 9.66542C24.5868 7.83454 24.52 6.00365 24.4533 4.17276C24.4395 3.80751 23.5262 3.75203 23.517 4.219V4.21669Z" fill="#F8ECCE"/>
<path opacity="0.11" d="M24.2551 2.03671C24.1884 3.8098 24.1216 5.5829 24.0549 7.35599C24.0319 7.9686 25.709 8.21133 25.709 7.67038C25.7067 5.8603 25.7021 4.04791 25.6998 2.23783C25.6998 1.66452 24.2758 1.46803 24.2528 2.03671H24.2551Z" fill="#F8ECCE"/>
<path opacity="0.11" d="M23.4896 3.16648C23.4252 4.97194 23.3585 6.77739 23.2941 8.58516C23.2872 8.78166 23.5494 8.89494 23.7174 8.84177C23.9359 8.77473 23.9589 8.54124 23.9589 8.33319C23.9635 6.51386 23.9658 4.69453 23.9704 2.8752C23.9704 2.72032 23.8416 2.58392 23.6737 2.64634C23.4896 2.71569 23.4942 3.00697 23.4896 3.16648Z" fill="#F8ECCE"/>
<path opacity="0.11" d="M5.35819 9.22767C7.33208 9.45421 8.59509 10.328 9.89031 11.7035C10.0928 11.9185 11.0337 12.041 11.3006 11.9324C11.5973 11.8122 11.5812 11.5417 11.3972 11.336C10.4793 10.3049 9.47851 9.48889 8.15798 9.02192C7.23315 8.69366 6.39344 8.57576 5.4272 8.4648C5.14653 8.43243 4.74854 8.40932 4.71403 8.78381C4.67952 9.16525 5.07522 9.1953 5.35589 9.22767H5.35819Z" fill="#F8ECCE"/>
<path opacity="0.11" d="M5.62515 8.22001C7.54153 8.43962 8.81144 9.34813 10.0699 10.6843C10.3045 10.786 10.5507 10.8531 10.806 10.8831C11.0591 10.934 11.3122 10.9478 11.5675 10.9247C11.8896 10.8091 11.8482 10.5364 11.6618 10.326C10.8612 9.41979 10.0238 8.71241 8.88966 8.2177C7.8475 7.76229 6.81685 7.58428 5.68957 7.45714C5.4135 7.42477 4.93038 7.37392 4.89357 7.76922C4.85676 8.17377 5.34448 8.18764 5.62055 8.22001H5.62515Z" fill="#F8ECCE"/>
<path opacity="0.11" d="M5.75687 9.02203L6.80593 9.13993L5.91791 8.96192C7.67094 9.4497 8.65328 9.98139 9.914 11.3014C10.2706 11.6736 11.0091 11.7198 11.4922 11.7452C11.7038 11.8007 11.8971 11.7684 12.0719 11.6528C12.1709 11.5487 12.1893 11.4308 12.1271 11.3014C11.2828 10.3351 10.4132 9.56991 9.21002 9.04052C8.09885 8.55275 7.02218 8.39324 5.82588 8.26147C5.56132 8.23142 4.90796 8.12739 4.86885 8.55737C4.82974 8.99429 5.4923 8.99429 5.75687 9.02434V9.02203Z" fill="#F8ECCE"/>
<path opacity="0.11" d="M6.16099 9.82665L7.27907 9.94686C6.87417 9.87519 6.47157 9.80353 6.06667 9.73418C6.68782 9.86132 7.28597 10.0601 7.86111 10.3306C8.70082 10.7513 9.4186 11.32 10.0098 12.039C10.2123 12.2239 10.4539 12.3256 10.7368 12.3441C11.2176 12.4481 11.7031 12.5291 12.1908 12.5799C12.2391 12.5845 13.4515 12.6608 13.0328 12.1684C12.5957 11.6529 12.1724 11.1929 11.6248 10.7906C11.1394 10.4346 10.6264 10.1387 10.0766 9.896C8.83886 9.35043 7.56204 9.20711 6.23231 9.06378C5.99765 9.03835 4.9762 8.84416 4.93019 9.32732C4.88418 9.81509 5.92634 9.80122 6.16099 9.82665Z" fill="#F8ECCE"/>
<path opacity="0.11" d="M6.18211 9.02196C6.5548 9.06126 6.92749 9.10287 7.30249 9.14217C6.89759 9.07051 6.49268 9.00116 6.08778 8.92949C6.71354 9.05664 7.31859 9.25545 7.89603 9.52823C8.74034 9.94665 9.45812 10.5176 10.0517 11.2389C10.2518 11.4238 10.4911 11.5232 10.7717 11.5417C11.248 11.6458 11.7288 11.7221 12.2142 11.7752C12.2648 11.7798 13.4657 11.8492 13.0493 11.3614C12.6099 10.8459 12.1843 10.3859 11.6368 9.98364C11.1536 9.62763 10.6406 9.33173 10.0931 9.089C8.85767 8.54112 7.58085 8.40242 6.25113 8.25909C6.01877 8.23366 4.98351 8.03948 4.9398 8.52263C4.89609 9.01271 5.94745 8.99653 6.18211 9.02196Z" fill="#F8ECCE"/>
<path opacity="0.11" d="M5.10342 7.99094C6.33883 8.06723 7.45921 8.46716 8.46686 9.19073C9.02819 9.58141 9.52052 10.0461 9.94612 10.5847C10.1003 10.7535 10.6961 10.8228 10.894 10.7188C11.0964 10.6101 11.1194 10.2795 10.9768 10.12C10.5236 9.60915 10.0865 9.12831 9.52512 8.72838C9.07421 8.40705 8.59109 8.16201 8.08726 7.94008C7.12792 7.52166 6.21 7.35522 5.17244 7.22807C4.6134 7.15872 4.55359 7.9239 5.10342 7.99094Z" fill="#F8ECCE"/>
<path opacity="0.11" d="M5.02676 9.01125C7.13868 9.26323 8.4155 10.1024 9.77974 11.5796C9.94768 11.7599 10.6355 11.8408 10.8518 11.7368C11.0796 11.6258 11.0934 11.3114 10.9392 11.138C10.5251 10.5925 10.0374 10.1255 9.47146 9.74175C8.91012 9.33951 8.30277 9.02281 7.65171 8.79395C6.7936 8.44488 6.0045 8.35934 5.09578 8.25069C4.81741 8.21833 4.61266 8.28306 4.58505 8.5882C4.55514 8.90491 4.75069 8.9812 5.02676 9.01356V9.01125Z" fill="#F8ECCE"/>
<path opacity="0.11" d="M5.51937 10.1365C7.39663 10.3491 8.61364 11.253 9.87435 12.5823C10.1297 12.6886 10.392 12.7579 10.668 12.7926C10.882 12.8412 11.0983 12.8597 11.3168 12.8481C11.464 12.8273 11.9771 12.684 11.724 12.3973C10.8751 11.4333 10.0308 10.6681 8.82299 10.1388C7.77163 9.67873 6.72717 9.50073 5.59069 9.37127C5.31462 9.33891 4.80159 9.27418 4.76478 9.67873C4.72567 10.0879 5.2456 10.1018 5.52167 10.1341L5.51937 10.1365Z" fill="#F8ECCE"/>
<path opacity="0.11" d="M6.06695 7.99819C6.43504 8.03749 6.80313 8.0791 7.17123 8.1184C6.81924 8.05367 6.46725 7.98894 6.11526 7.92421C6.74792 8.05367 7.35527 8.25479 7.93962 8.5322C8.78853 8.94369 9.51781 9.51699 10.1298 10.2521C10.5301 10.6682 11.4572 10.7006 11.9886 10.7376C12.0645 10.7422 13.1021 10.7515 12.7179 10.3076C11.8759 9.33668 10.9649 8.56687 9.78237 8.04211C8.59988 7.51966 7.40818 7.37634 6.13827 7.23763C5.88981 7.20989 5.0409 7.05732 4.99949 7.51966C4.95808 7.98663 5.82079 7.97276 6.06925 8.0005L6.06695 7.99819Z" fill="#F8ECCE"/>
<path opacity="0.11" d="M5.00198 9.7573C7.10009 10 8.36311 10.8068 9.73195 12.2655C9.91829 12.4643 10.7189 12.573 10.9628 12.4666C11.2204 12.3534 11.2296 12.0598 11.0594 11.8702C10.1161 10.8207 9.1246 10.0601 7.79717 9.55387C6.88154 9.2048 6.03723 9.10771 5.07329 8.99675C4.79262 8.96438 4.53726 9.00137 4.50735 9.32964C4.47745 9.66484 4.72361 9.72725 5.00198 9.75962V9.7573Z" fill="#F8ECCE"/>
<path opacity="0.11" d="M5.90836 7.60564C7.70741 7.80907 8.96122 8.63667 10.1736 9.90812C10.5072 10.2595 11.1629 10.308 11.6253 10.3265C11.8254 10.3774 12.0026 10.3427 12.159 10.2248C12.251 10.1185 12.2694 10.0029 12.2142 9.87344C11.2733 8.80311 10.215 7.86918 8.83239 7.40683C7.88225 7.09013 6.97122 6.95142 5.97278 6.84046C5.70361 6.81041 5.10776 6.72487 5.07095 7.1433C5.03415 7.57096 5.63459 7.57328 5.90606 7.60333L5.90836 7.60564Z" fill="#F8ECCE"/>
<path opacity="0.11" d="M4.76254 8.48565C6.02785 8.56193 7.18044 8.96649 8.21799 9.6993C8.77933 10.09 9.26935 10.5546 9.69266 11.0933C9.82149 11.2343 10.3115 11.3198 10.4703 11.2042C10.6267 11.0886 10.6888 10.7581 10.5531 10.6055C9.81459 9.77097 9.07841 9.1075 8.07536 8.59661C7.0125 8.05567 5.99104 7.8661 4.82925 7.72509C4.41975 7.67423 4.35534 8.4371 4.76024 8.48796L4.76254 8.48565Z" fill="#F8ECCE"/>
<path opacity="0.11" d="M4.11803 15.2414C5.36264 15.5974 6.57964 15.9072 7.85646 16.1291C8.71227 16.277 9.57728 16.3279 10.4423 16.4019C11.2015 16.4666 12.0136 16.4481 12.7751 16.4157C13.1685 16.3949 13.5619 16.3649 13.9553 16.3233C14.91 16.2955 15.8463 16.1337 16.762 15.8378C17.0242 15.7777 17.0219 15.3893 16.8609 15.2414C16.6147 15.0148 15.9683 14.9848 15.66 15.0426C13.8816 15.5211 12.0757 15.5997 10.2421 15.2784C8.35798 15.4587 6.53823 15.2229 4.7829 14.5733C4.53214 14.5039 4.03291 14.4115 3.86037 14.6727C3.68783 14.9339 3.87877 15.1697 4.12033 15.2391L4.11803 15.2414Z" fill="#F8ECCE"/>
<path opacity="0.11" d="M4.35122 14.2311C5.57973 14.5848 6.78293 14.8969 8.04594 15.1119C8.91785 15.2598 9.80127 15.313 10.6824 15.3893C11.4508 15.4563 12.2675 15.4355 13.0382 15.4055C13.4339 15.3893 13.8296 15.3592 14.2253 15.3153C15.1754 15.2876 16.1071 15.1281 17.0182 14.8322C17.2919 14.7697 17.2827 14.386 17.1125 14.2334C16.8525 14.0023 16.1669 13.9722 15.8426 14.03C14.0803 14.5016 12.2905 14.5779 10.473 14.2635C8.61418 14.4438 6.81743 14.2126 5.0851 13.5653C4.82974 13.4937 4.23619 13.3827 4.05445 13.6578C3.8635 13.9445 4.10276 14.1548 4.35352 14.2288L4.35122 14.2311Z" fill="#F8ECCE"/>
<path opacity="0.11" d="M4.40783 15.0257C5.02669 15.2037 5.64554 15.4002 6.2713 15.5573C7.45149 15.8556 8.68459 15.9896 9.89239 16.1006C11.0404 16.2069 12.1562 16.2347 13.3064 16.2185C13.7136 16.2185 14.1185 16.1884 14.5234 16.133C15.4621 16.1099 16.38 15.9457 17.2749 15.6429C17.5832 15.5689 17.5924 15.2152 17.3715 15.0441C17.0449 14.7945 16.2236 14.7251 15.8325 14.7968C13.9759 15.2268 12.0894 15.414 10.1754 15.3562C8.50285 15.2268 6.87174 14.9008 5.28205 14.3761C5.01749 14.3044 4.23759 14.1518 4.03744 14.4477C3.81429 14.7806 4.14557 14.9494 4.40783 15.0257Z" fill="#F8ECCE"/>
<path opacity="0.11" d="M4.28615 15.7221C5.04073 15.9371 5.79302 16.1752 6.55911 16.3463C7.85433 16.6375 9.17026 16.797 10.4885 16.9219C11.5053 17.019 12.345 17.0606 13.3527 17.0652C14.0222 17.0976 14.6916 17.0721 15.3588 16.9866C16.2652 16.9704 17.1486 16.8017 18.0044 16.478C18.3748 16.3809 18.4416 16.0896 18.1011 15.8816C17.7583 15.7614 17.4086 15.6782 17.0474 15.6296C16.6908 15.5603 16.3319 15.5302 15.9684 15.5348C14.9723 15.7845 13.9646 15.9417 12.9432 16.0087C10.6863 16.3046 8.44327 16.0642 6.21172 15.2898C5.69409 15.1534 4.86589 14.9315 4.33906 15.1164C4.07679 15.2089 3.90655 15.6111 4.28385 15.7198L4.28615 15.7221Z" fill="#F8ECCE"/>
<path opacity="0.11" d="M4.29787 14.9147C5.05706 15.1297 5.81165 15.3678 6.58004 15.5412C7.87756 15.8325 9.19348 15.9897 10.514 16.1168C11.5286 16.2139 12.366 16.2532 13.3736 16.2578C14.0431 16.2902 14.7102 16.2648 15.3751 16.1792C16.2838 16.1631 17.1673 15.9943 18.0254 15.673C18.3935 15.5782 18.4533 15.28 18.122 15.0742C17.7861 14.9563 17.441 14.8731 17.0867 14.8269C16.7347 14.7598 16.3828 14.7298 16.0262 14.7367C15.0277 14.9864 14.0155 15.1436 12.9917 15.2083C10.7303 15.5019 8.48031 15.2615 6.24415 14.4871C5.72192 14.3507 4.88682 14.1287 4.35538 14.3137C4.09082 14.4061 3.92288 14.8084 4.30017 14.917L4.29787 14.9147Z" fill="#F8ECCE"/>
<path opacity="0.11" d="M3.96389 14.0155C6.07581 14.6258 8.11642 15.0719 10.3204 15.1875C11.6455 15.2545 12.966 15.1968 14.2796 15.0118C14.9353 14.9309 15.5818 14.7853 16.2144 14.5749C16.3801 14.5356 16.3962 14.1565 16.3387 14.0455C16.2466 13.8675 15.9269 13.7843 15.7336 13.8213C13.555 14.4547 11.3625 14.5633 9.15627 14.1472C7.51827 14.1565 5.93088 13.8837 4.3941 13.3266C4.16864 13.2641 3.94779 13.2433 3.82125 13.4606C3.72463 13.6248 3.75454 13.9554 3.96389 14.0155Z" fill="#F8ECCE"/>
<path opacity="0.11" d="M3.86322 15.0309C5.91073 15.6204 7.93983 16.1035 10.0771 16.1914C11.1261 16.233 12.1614 16.2145 13.2081 16.1197C14.5586 15.9972 14.6414 15.9602 16.192 15.5996C16.3967 15.551 16.4082 15.1257 16.2909 15.0032C16.1 14.8044 15.6605 14.8113 15.4167 14.8575C13.3048 15.4609 11.1813 15.5626 9.04411 15.1604C7.42911 15.1696 5.86702 14.8991 4.35325 14.3489C4.12089 14.2842 3.83792 14.2449 3.69528 14.4738C3.57795 14.6633 3.64697 14.9685 3.86552 15.0332L3.86322 15.0309Z" fill="#F8ECCE"/>
<path opacity="0.11" d="M4.23071 16.1444C5.45001 16.4981 6.64631 16.8079 7.90012 17.0205C8.78124 17.1708 9.67616 17.2193 10.5665 17.3026C11.3418 17.3742 12.1677 17.3511 12.9453 17.3234C13.3456 17.3141 13.7459 17.2864 14.1439 17.2355C15.0871 17.2101 16.0119 17.0483 16.9138 16.7478C17.2082 16.6784 17.199 16.3132 17.0104 16.1513C16.7297 15.9086 15.9636 15.8601 15.6162 15.9248C13.8793 16.3941 12.1125 16.4773 10.3203 16.1744C8.48217 16.3594 6.70613 16.1305 4.9922 15.4879C4.73454 15.4162 4.10878 15.296 3.92014 15.5734C3.72229 15.8693 3.97765 16.0727 4.23071 16.1467V16.1444Z" fill="#F8ECCE"/>
<path opacity="0.11" d="M4.31439 13.9046C5.89718 14.3554 7.39485 14.7345 9.03286 14.9634C10.7031 15.1992 12.3779 15.2824 14.0619 15.213C15.3318 15.2177 16.5695 15.0235 17.7727 14.6305C18.1086 14.5473 18.1362 14.2167 17.867 14.0317C17.5841 13.9208 17.2896 13.8491 16.9882 13.8098C16.6892 13.752 16.3878 13.7312 16.0841 13.7474C15.0811 13.9948 14.0665 14.152 13.0381 14.2144C10.5673 14.5241 8.11263 14.2375 5.67633 13.3567C5.36345 13.2735 4.56285 13.1302 4.27988 13.3544C4.12114 13.4792 4.01762 13.8191 4.31209 13.9023L4.31439 13.9046Z" fill="#F8ECCE"/>
<path opacity="0.11" d="M3.82393 15.7773C5.07314 16.1957 6.35225 16.4962 7.65668 16.6789C8.42046 16.8268 9.19116 16.91 9.97335 16.9285C10.7486 16.9979 11.5285 17.0094 12.3084 16.9632C13.7003 16.9563 15.0645 16.7575 16.3988 16.3691C16.6335 16.3159 16.6381 15.9067 16.4978 15.7727C16.2792 15.56 15.734 15.5461 15.4579 15.597C13.6566 16.0894 11.8253 16.1634 9.96415 15.8212C8.03397 15.9946 6.16591 15.7519 4.35996 15.0976C4.1207 15.0329 3.78022 14.9751 3.62608 15.2155C3.49265 15.4236 3.59387 15.7126 3.82163 15.7773H3.82393Z" fill="#F8ECCE"/>
<path opacity="0.11" d="M4.58583 13.6134C5.82583 13.9671 7.04283 14.2838 8.31505 14.4942C9.21227 14.6421 10.121 14.6976 11.0274 14.7785C11.8096 14.8479 12.6378 14.8294 13.4246 14.7993C13.8272 14.7901 14.2275 14.76 14.6255 14.7115C15.571 14.6861 16.4959 14.5242 17.4 14.226C17.6945 14.159 17.683 13.7891 17.4943 13.6273C17.2114 13.3846 16.4499 13.3429 16.1025 13.4054C14.354 13.8723 12.5803 13.9532 10.779 13.6481C8.927 13.8284 7.13716 13.5972 5.40943 12.9569C5.14716 12.8852 4.43169 12.7488 4.23844 13.0378C4.02679 13.3568 4.32816 13.5371 4.58583 13.6111V13.6134Z" fill="#F8ECCE"/>
<path opacity="0.11" d="M3.67688 14.5123C5.70828 15.0994 7.67987 15.5895 9.8171 15.6681C10.8547 15.7051 11.8784 15.6843 12.9091 15.5895C14.2089 15.4693 14.1882 15.4393 15.6698 15.0948C16.1368 14.9862 15.978 14.214 15.4443 14.3227C13.5417 14.859 11.6184 15.0185 9.67907 14.8058C7.73739 14.829 5.84402 14.4984 3.99896 13.8141C3.79421 13.7586 3.68608 13.7702 3.58946 13.9621C3.53195 14.08 3.49744 14.4614 3.67458 14.5123H3.67688Z" fill="#F8ECCE"/>
<g style="mix-blend-mode:multiply" opacity="0.52">
<path d="M18.7385 11.3135C17.3651 11.6048 15.9548 11.9099 14.7815 12.689C13.6105 13.468 12.7179 14.8389 12.9204 16.2351C14.5054 17.502 16.6473 18.0383 18.6396 17.6707C20.6319 17.3032 22.4424 16.0363 23.4777 14.2864C23.6042 14.0737 23.7215 13.8448 23.7261 13.5975C23.7376 13.0496 23.2177 12.652 22.73 12.4046C21.2967 11.6764 19.6518 11.3736 18.0552 11.5446" fill="#D15615"/>
</g>
<path d="M45.9912 86.2059C48.8186 62.3212 54.0547 45.33 62.4725 32.7334L63.5768 33.9679C55.389 46.2223 50.2841 62.8529 47.5073 86.303L45.9935 86.2059H45.9912Z" fill="url(#paint3_linear_7197_1757)"/>
<path d="M60.2734 33.2587C62.0104 35.8502 65.2841 36.7379 68.1736 35.9473C71.0631 35.1566 73.5684 32.9212 75.4549 30.272C77.3414 27.6227 78.6826 24.5551 80.0031 21.5151C78.4709 21.1615 76.7455 21.855 75.7011 23.2466C76.1359 21.4088 75.6596 19.2543 74.2655 18.3018C72.8691 17.3494 70.6214 18.1331 70.159 19.964C70.3154 18.7133 70.228 17.2778 69.3791 16.5126C68.4244 15.6526 67.3546 16.4548 66.9451 17.5066C66.7403 14.9799 64.1522 13.3085 62.7995 16.0202C62.8271 15.5833 62.7811 14.825 62.8248 14.4736C58.2673 17.6638 57.3977 28.9566 60.278 33.2564L60.2734 33.2587Z" fill="url(#paint4_linear_7197_1757)"/>
<path opacity="0.11" d="M66.0287 23.9834C64.6484 26.4755 63.4613 29.0577 62.4697 31.73C62.3156 32.1045 63.1185 32.3149 63.2841 31.9635C64.5195 29.4622 65.6606 26.917 66.7028 24.3279C66.8385 24.0089 66.1461 23.7499 66.0287 23.9811V23.9834Z" fill="#E2A192"/>
<path opacity="0.11" d="M66.3079 23.2948C64.9229 25.7706 63.7312 28.3389 62.7328 30.9951C62.5763 31.3696 63.4368 31.6262 63.607 31.2679C64.847 28.7735 65.9927 26.2399 67.0441 23.66C67.1844 23.3317 66.4229 23.0682 66.3079 23.2948Z" fill="#E2A192"/>
<path opacity="0.11" d="M66.1214 23.9542C64.7917 26.4092 63.6414 28.9429 62.6659 31.5598C62.5095 31.9389 63.5103 32.251 63.6897 31.8788C64.9849 29.4122 66.1053 26.8693 67.0485 24.2454C67.2004 23.8617 66.2985 23.5959 66.1214 23.9542Z" fill="#E2A192"/>
<path opacity="0.11" d="M66.1874 24.5364C64.8094 26.9683 63.6453 29.502 62.6975 32.135C62.541 32.5188 63.8547 32.9511 64.0502 32.5604C65.4144 30.1238 66.5532 27.5832 67.4643 24.9409C67.6184 24.5526 66.383 24.1549 66.1851 24.5364H66.1874Z" fill="#E2A192"/>
<path opacity="0.11" d="M66.3101 23.9696C64.9413 26.4062 63.7749 28.9375 62.8109 31.566C62.6522 31.9474 63.9865 32.389 64.1844 31.996C65.5463 29.5571 66.6828 27.0165 67.5961 24.3765C67.7503 23.9881 66.5057 23.5882 66.3101 23.972V23.9696Z" fill="#E2A192"/>
<path opacity="0.11" d="M66.0701 23.1011C64.8531 25.6186 63.6798 28.1569 62.5503 30.716C62.4789 30.8732 62.4352 31.0072 62.5756 31.1274C62.6745 31.213 62.9299 31.2523 62.9989 31.1113C64.347 28.6146 65.5019 26.0301 66.4658 23.36C66.5717 23.0965 66.1875 22.8492 66.0678 23.1011H66.0701Z" fill="#E2A192"/>
<path opacity="0.11" d="M65.7962 23.7802C64.5861 26.2999 63.4312 28.8452 62.3292 31.4135C62.2533 31.5869 62.2165 31.7024 62.3707 31.8296C62.4696 31.9105 62.7664 31.9799 62.8423 31.8296C64.1927 29.3352 65.3269 26.7438 66.2448 24.0576C66.3506 23.7825 65.9135 23.5328 65.7985 23.7825L65.7962 23.7802Z" fill="#E2A192"/>
<path opacity="0.11" d="M65.8794 24.7329C64.5013 27.1648 63.3419 29.6961 62.394 32.3269C62.2399 32.706 63.1187 32.9695 63.2912 32.6089C64.5428 30.1215 65.6838 27.5832 66.7168 24.9964C66.8755 24.6196 66.0565 24.3838 65.8794 24.7305V24.7329Z" fill="#E2A192"/>
<path opacity="0.11" d="M66.4756 23.2692C65.109 25.708 63.9358 28.2371 62.9511 30.8562C62.7924 31.2354 63.9772 31.6191 64.1658 31.233C65.4886 28.778 66.632 26.2397 67.5937 23.6205C67.7501 23.2368 66.6619 22.8993 66.4733 23.2692H66.4756Z" fill="#E2A192"/>
<path opacity="0.11" d="M65.764 24.3264C64.4458 26.8438 63.2702 29.4283 62.2372 32.0776C62.1038 32.3943 62.7733 32.6324 62.8837 32.3989C64.1674 29.8722 65.3108 27.2854 66.3161 24.6361C66.4381 24.3379 65.8813 24.0883 65.764 24.3264Z" fill="#E2A192"/>
<path opacity="0.11" d="M66.5008 23.0036C65.155 25.4517 63.9863 27.9807 62.9925 30.593C62.8337 30.9698 63.7815 31.2587 63.9564 30.8912C65.224 28.4107 66.3651 25.8724 67.3819 23.2787C67.5407 22.9018 66.6803 22.6522 66.5008 23.0036Z" fill="#E2A192"/>
<path opacity="0.11" d="M65.7993 23.4133C64.5961 25.9377 63.4297 28.4759 62.2979 31.0327C62.2403 31.1622 62.1736 31.3286 62.2979 31.4373C62.3968 31.5228 62.5808 31.5251 62.6429 31.398C64.9665 26.6635 64.113 28.6031 66.034 23.7554C66.0754 23.6514 66.1766 23.4572 66.0708 23.3601C65.9765 23.2745 65.8522 23.3046 65.7993 23.4133Z" fill="#E2A192"/>
<path opacity="0.11" d="M75.788 23.3685C74.4376 25.1971 73.0894 27.0234 71.4008 28.5607C70.8211 29.06 70.239 29.5616 69.6593 30.061C67.8786 31.455 65.9669 32.6386 63.9194 33.6118C63.3833 33.8938 64.1494 34.4394 64.4853 34.2753C66.634 33.2327 68.6286 32.1554 70.5266 30.6667C71.7344 29.7281 72.8502 28.6878 73.8716 27.5458C74.8793 26.4177 75.7834 25.211 76.5817 23.9257C76.89 23.4726 75.9927 23.0934 75.7903 23.3662L75.788 23.3685Z" fill="#E2A192"/>
<path opacity="0.11" d="M76.0225 22.6176C74.7134 24.4831 73.3814 26.2863 71.6859 27.8259C71.1038 28.3252 70.5218 28.8245 69.9398 29.3262C68.1545 30.7179 66.2381 31.9015 64.1883 32.877C63.6201 33.1752 64.4805 33.7185 64.8141 33.5567C65.5457 33.203 66.3164 32.8678 67.0295 32.4794C68.7159 31.5593 70.2779 30.4543 71.7388 29.2106C72.9075 28.2143 73.9635 27.1393 74.9366 25.9511C75.9788 24.6773 75.751 24.9247 76.8461 23.1862C77.1405 22.7193 76.218 22.3402 76.0225 22.6199V22.6176Z" fill="#E2A192"/>
<path opacity="0.11" d="M75.9877 23.2206C75.125 24.4551 74.1979 25.6364 73.204 26.7668C72.4425 27.6337 71.6189 28.4289 70.7286 29.1571C68.7041 30.9048 66.4841 32.2225 64.1352 33.4777C63.5071 33.8129 64.5631 34.3562 64.8875 34.2013C66.3644 33.5794 67.7701 32.8281 69.109 31.9474C70.3835 31.1013 71.5867 30.1581 72.7117 29.1201C73.8275 28.0775 74.8443 26.9425 75.7623 25.7219C76.1948 25.1139 76.6112 24.4921 77.0069 23.8586C77.1564 23.6321 77.092 23.4957 76.8573 23.3709C76.7101 23.2946 76.135 23.0195 75.9854 23.2206H75.9877Z" fill="#E2A192"/>
<path opacity="0.11" d="M75.9103 23.9218C75.0936 25.1586 74.1642 26.3006 73.1174 27.3501C72.1719 28.5314 71.0998 29.5809 69.9035 30.5033C68.0723 31.9227 66.1053 33.0577 64.067 34.1512C63.7518 34.3199 64.1843 34.6043 64.3017 34.6575C64.5915 34.7915 65.0769 35.0019 65.3921 34.8563C66.8507 34.2783 68.2356 33.5525 69.5423 32.6809C70.8169 31.8325 72.0201 30.8917 73.1496 29.856C73.757 29.3151 74.3229 28.7325 74.8452 28.113C75.8735 27.0033 76.7569 25.7874 77.4954 24.4627C77.7094 24.1299 76.2025 23.5219 75.9103 23.9172V23.9218Z" fill="#E2A192"/>
<path opacity="0.11" d="M76.0507 23.3247C75.234 24.5615 74.3023 25.7034 73.2578 26.753C72.3123 27.9343 71.2379 28.9861 70.037 29.9062C68.2012 31.3256 66.2296 32.4583 64.1867 33.5494C63.8669 33.7205 64.3132 34.0048 64.4259 34.058C64.7181 34.1921 65.2127 34.4071 65.5302 34.2615C66.9888 33.6835 68.3737 32.9576 69.6804 32.0861C70.9549 31.2377 72.1558 30.2968 73.2854 29.2612C73.8951 28.7202 74.4587 28.14 74.9809 27.5158C76.0093 26.4062 76.8927 25.1902 77.6312 23.8679C77.8451 23.535 76.3429 22.9317 76.0507 23.327V23.3247Z" fill="#E2A192"/>
<path opacity="0.11" d="M75.8635 22.4514C74.5545 24.3239 73.2201 26.1941 71.5085 27.729C70.3329 28.6491 69.1596 29.5715 67.984 30.4916C66.6888 31.3446 65.3292 32.0797 63.9097 32.7016C63.5048 32.9004 63.9304 33.4552 64.2893 33.2911C65.7502 32.7154 67.1328 31.9896 68.4373 31.118C69.1159 30.6881 69.7624 30.2165 70.3766 29.7056C71.5798 28.767 72.6864 27.7267 73.6964 26.5824C74.7109 25.452 75.5897 24.2245 76.3328 22.8998C76.4317 22.7427 76.4593 22.5901 76.3236 22.4606C76.2132 22.3566 75.9601 22.315 75.8635 22.4537V22.4514Z" fill="#E2A192"/>
<path opacity="0.11" d="M75.6223 23.1867C74.8148 24.4581 73.9038 25.651 72.8892 26.7652C72.1277 27.6321 71.2995 28.4273 70.4069 29.1509C69.581 29.8999 68.6976 30.5772 67.759 31.1806C66.4568 32.0406 65.0972 32.7965 63.6801 33.4484C63.2383 33.6726 63.7606 34.2205 64.1126 34.0518C65.5596 33.4461 66.9354 32.7087 68.2421 31.8371C69.2428 31.1945 70.1838 30.4778 71.0672 29.6849C71.9621 28.9683 72.788 28.1754 73.5426 27.3062C74.5733 26.2035 75.4544 24.9898 76.1837 23.6652C76.2941 23.4895 76.3033 23.3531 76.1514 23.219C76.0387 23.1196 75.7281 23.0364 75.6246 23.1867H75.6223Z" fill="#E2A192"/>
<path opacity="0.11" d="M75.6541 24.0278C74.8098 25.2738 73.8896 26.4597 72.8912 27.5855C72.1297 28.4501 71.3061 29.2476 70.418 29.9758C68.3981 31.7258 66.185 33.0458 63.8338 34.2918C63.2564 34.597 64.1467 35.1402 64.4757 34.9807C65.2073 34.627 65.9779 34.2918 66.6934 33.9034C68.3797 32.9857 69.9418 31.8784 71.405 30.6347C72.5737 29.6383 73.6296 28.5634 74.6051 27.3751C75.6334 26.1245 75.4586 26.3025 76.5514 24.6242C76.8642 24.1433 75.852 23.7573 75.6541 24.0278Z" fill="#E2A192"/>
<path opacity="0.11" d="M76.3121 22.4739C74.5039 24.9382 72.6266 27.2985 70.1949 29.164C68.3521 30.5788 66.3759 31.7093 64.3261 32.7934C64.0317 32.9483 64.4067 33.2327 64.5263 33.2882C64.8001 33.4176 65.2188 33.5864 65.5109 33.4523C66.9626 32.8674 68.3406 32.1392 69.6451 31.27C70.9196 30.4239 72.1205 29.4807 73.2477 28.4428C74.3635 27.4002 75.3804 26.2674 76.2983 25.0445C76.7837 24.4181 77.2185 23.7546 77.6004 23.0542C77.8144 22.7236 76.48 22.2404 76.3098 22.4716L76.3121 22.4739Z" fill="#E2A192"/>
<path opacity="0.11" d="M75.5831 23.762C74.2235 25.586 72.8707 27.4169 71.1821 28.9542C70.6024 29.4535 70.0226 29.9528 69.4429 30.4522C67.63 31.8461 65.6976 33.039 63.6478 34.0284C63.1623 34.2827 63.8042 34.8213 64.147 34.6526C66.2911 33.5961 68.3087 32.4957 70.1952 31.0162C71.403 30.0754 72.5165 29.0374 73.5402 27.8977C74.5456 26.7673 75.452 25.5629 76.2595 24.2822C76.5494 23.8614 75.7948 23.48 75.5854 23.7644L75.5831 23.762Z" fill="#E2A192"/>
<path opacity="0.11" d="M76.3605 22.2081C75.5047 23.4472 74.5799 24.6331 73.5837 25.7612C72.8245 26.6281 71.9963 27.4233 71.1014 28.1469C69.0654 29.8922 66.8361 31.2053 64.4735 32.449C63.8684 32.768 64.8485 33.3113 65.1751 33.1541C65.909 32.8004 66.6889 32.4698 67.4067 32.0814C69.0953 31.1683 70.6597 30.0587 72.1206 28.8127C73.2892 27.8186 74.3452 26.7414 75.3206 25.5531C76.3352 24.3187 76.1949 24.4458 77.2807 22.8045C77.428 22.5803 77.3682 22.46 77.1542 22.326C77.0185 22.2404 76.4962 22.0162 76.3582 22.2034L76.3605 22.2081Z" fill="#E2A192"/>
<path opacity="0.11" d="M75.6548 22.8123C73.8327 25.2997 72.0797 27.5768 69.5721 29.4816C68.9486 29.9301 68.3275 30.3786 67.704 30.8248C66.4088 31.6778 65.0515 32.4129 63.632 33.0325C63.2984 33.1966 63.5607 33.7606 63.9219 33.5965C65.3827 33.0209 66.7654 32.295 68.0721 31.4235C69.3443 30.5797 70.5406 29.6365 71.6587 28.5963C73.3841 26.9827 74.7208 25.1772 76.0436 23.2307C76.2598 22.9117 75.8802 22.5049 75.6548 22.8123Z" fill="#E2A192"/>
<path opacity="0.11" d="M75.5324 21.5269C75.6359 21.3651 75.744 21.2079 75.8476 21.046C75.9603 20.8773 75.8223 20.69 75.6014 20.5375C75.6405 20.4034 75.6014 20.2855 75.4496 20.1606C75.3 20.0404 74.8238 19.8116 74.6582 20.0196C74.5592 20.1445 74.4672 20.2624 74.3729 20.3803C74.3637 20.3595 74.3499 20.3386 74.3338 20.3178C74.2119 20.1722 73.991 20.1814 73.8875 20.3225C73.8047 20.4311 73.7218 20.5421 73.639 20.6507C73.5907 20.6715 73.547 20.7085 73.5148 20.7524C71.1107 23.901 68.7779 27.1028 66.5165 30.3554C66.3991 30.5195 66.337 30.7507 66.4819 30.9032C66.4911 30.9125 66.5049 30.9171 66.5141 30.9263C66.4129 31.1044 66.4037 31.2893 66.5809 31.428C66.5832 31.428 66.5878 31.4326 66.5901 31.4349C66.5556 31.4881 66.5211 31.539 66.4865 31.5921C66.3324 31.8187 66.3209 32.0082 66.5418 32.1747C66.5487 32.1793 66.5602 32.1862 66.5694 32.1932C66.5763 32.2972 66.643 32.392 66.7879 32.4821C66.949 32.5839 67.5563 32.9121 67.7312 32.674C67.7864 32.6047 67.837 32.5307 67.8922 32.4613C68.2235 32.6023 68.633 32.7988 68.886 32.4636C71.3568 29.4029 73.6137 26.1942 75.6612 22.833C75.7325 22.7243 75.6865 22.6018 75.5761 22.4816C75.6635 22.3429 75.7509 22.2042 75.8361 22.0632C75.9465 21.8967 75.7831 21.6956 75.5324 21.5292V21.5269Z" fill="#D12834"/>
<path opacity="0.11" d="M65.4811 18.5376C64.593 19.8668 63.7027 21.1961 62.8147 22.523C62.6606 22.7542 62.6445 22.9576 62.8952 23.1148C63.0494 23.2119 63.5739 23.4639 63.7234 23.2304C64.5792 21.8965 65.435 20.565 66.2886 19.2311C66.4381 18.9999 66.4726 18.8266 66.2425 18.6463C66.1022 18.5353 65.6237 18.318 65.4788 18.5353L65.4811 18.5376Z" fill="#D12834"/>
<path opacity="0.11" d="M65.9072 17.6177C65.0008 18.94 64.0944 20.2647 63.1879 21.587C63.0246 21.8274 63.0269 22.0262 63.2846 22.1834C63.441 22.2805 64.0023 22.5533 64.1588 22.3152C65.0261 20.9859 65.8934 19.659 66.7607 18.3297C66.9172 18.0916 66.9379 17.9206 66.7032 17.7402C66.5583 17.6293 66.0567 17.3981 65.9072 17.6177Z" fill="#D12834"/>
<path opacity="0.11" d="M65.6123 18.4653C64.7726 19.7553 63.9329 21.0475 63.0955 22.3398C62.8677 22.6912 63.0426 22.8622 63.3992 23.0241C63.7304 23.1743 64.1399 23.3616 64.3677 22.9963C65.1982 21.6532 66.031 20.3078 66.8615 18.9647C67.0594 18.6457 66.5693 18.4469 66.3738 18.3683C66.054 18.2411 65.8148 18.1556 65.6123 18.4653Z" fill="#D12834"/>
<path opacity="0.11" d="M65.6656 19.2055C64.7937 20.5533 63.9218 21.8987 63.0475 23.2464C62.7715 23.6718 64.5498 24.4601 64.8857 23.9284C65.73 22.5876 66.5766 21.2491 67.4209 19.9083C67.651 19.5431 66.8435 19.2772 66.6801 19.2102C66.3627 19.083 65.9025 18.8403 65.6656 19.2055Z" fill="#D12834"/>
<path opacity="0.11" d="M65.8729 18.4524C64.9918 19.7955 64.1107 21.1386 63.2273 22.4817C62.9512 22.9025 64.7272 23.6931 65.0631 23.1591C65.9074 21.8183 66.7517 20.4775 67.5937 19.1367C67.8744 18.6882 66.2019 17.9438 65.8706 18.4501L65.8729 18.4524Z" fill="#D12834"/>
<path opacity="0.11" d="M65.5849 17.3886C64.6762 18.7225 63.7651 20.0587 62.8564 21.3925C62.7276 21.5798 62.6954 21.7925 62.861 21.9497C62.9967 22.0791 63.3096 22.1277 63.4247 21.9497L66.0082 17.925C66.114 17.7585 66.206 17.5412 66.0611 17.3794C65.9369 17.2407 65.6907 17.2314 65.5872 17.384L65.5849 17.3886Z" fill="#D12834"/>
<path opacity="0.11" d="M65.1664 18.279C64.2899 19.629 63.4111 20.9791 62.5345 22.3291C62.4057 22.5256 62.3643 22.7429 62.5621 22.8955C62.7071 23.0064 63.0752 23.1266 63.1971 22.9232C64.023 21.5662 64.8489 20.2116 65.6748 18.8546C65.7898 18.665 65.8681 18.4755 65.707 18.2998C65.5828 18.168 65.2791 18.1056 65.1664 18.279Z" fill="#D12834"/>
<path opacity="0.11" d="M65.3204 19.3692C64.4393 20.7031 63.5582 22.0369 62.677 23.3731C62.5091 23.6274 62.5183 23.8146 62.7898 23.9765C62.9462 24.0712 63.5582 24.3741 63.7169 24.129C64.5773 22.7975 65.4377 21.4659 66.2981 20.1344C66.4569 19.887 66.4799 19.7044 66.2107 19.5333C66.0589 19.4362 65.4791 19.1311 65.3204 19.3715V19.3692Z" fill="#D12834"/>
<path opacity="0.11" d="M66.1419 17.5388C65.2424 18.8727 64.3429 20.2065 63.4457 21.5381C63.2133 21.8825 63.9633 22.1253 64.1174 22.183C64.4487 22.3056 64.8214 22.4789 65.0446 22.1276C65.8958 20.7914 66.747 19.4529 67.5982 18.1167C67.8144 17.7769 67.1864 17.5527 67.0069 17.481C66.678 17.3515 66.3674 17.2082 66.1419 17.5388Z" fill="#D12834"/>
<path opacity="0.11" d="M65.1063 19.0067C64.2344 20.3613 63.3625 21.7137 62.4906 23.0684C62.3456 23.2926 62.3295 23.4868 62.5504 23.6463C62.6976 23.7526 63.1508 23.9283 63.2843 23.7087C64.1148 22.354 64.943 21.0017 65.7735 19.647C65.9023 19.439 65.9713 19.2494 65.7643 19.076C65.6285 18.9627 65.2351 18.8009 65.104 19.0043L65.1063 19.0067Z" fill="#D12834"/>
<path opacity="0.11" d="M66.2962 17.074C65.3852 18.3963 64.4742 19.7209 63.5631 21.0432C63.3883 21.2975 63.4136 21.4894 63.6851 21.6489C63.8461 21.7436 64.4696 22.0511 64.6306 21.8038C65.5002 20.4745 66.3675 19.1453 67.2371 17.8183C67.3936 17.5779 67.4189 17.3884 67.1566 17.2196C67.0002 17.1202 66.4572 16.8382 66.2962 17.0716V17.074Z" fill="#D12834"/>
<path opacity="0.11" d="M65.2237 17.8209C64.3173 19.1548 63.4108 20.491 62.5067 21.8249C62.3986 21.9844 62.3342 22.2248 62.4768 22.3704C62.6079 22.5068 62.8449 22.4953 62.9438 22.3404C63.8042 20.9973 64.6624 19.6541 65.5228 18.311C65.6102 18.1746 65.7298 17.9227 65.6079 17.777C65.4883 17.636 65.3111 17.6892 65.2237 17.8186V17.8209Z" fill="#D12834"/>
<path d="M59.7737 54.8503C63.1946 51.1446 66.8687 46.8101 66.4684 41.7705C63.1785 42.1704 60.2085 44.0707 57.9355 46.4934C55.6626 48.916 54.0039 51.845 52.4418 54.7832C51.1466 57.2175 45.3974 68.5773 49.6995 69.9643C52.1519 64.111 55.4624 59.5222 59.7737 54.8503Z" fill="url(#paint5_linear_7197_1757)"/>
<path d="M44.4609 16.3462C44.2262 19.3098 44.148 22.5347 45.8573 24.9597C47.7691 27.6713 51.5835 28.5868 54.7605 27.6598C57.9376 26.7351 60.489 24.2685 62.2305 21.4435C63.972 18.6186 65.0073 15.4215 66.0609 12.2706C66.8592 9.88028 67.5977 6.98831 65.9965 5.04646C64.2619 2.94048 60.206 3.89522 59.5825 6.55602C60.5879 4.92163 59.3226 2.41572 57.4154 2.26777C55.5082 2.11982 53.8748 4.39918 54.6179 6.16996C54.5466 4.38531 54.4753 2.60065 54.404 0.81369C53.233 0.349033 51.8802 1.24367 51.3764 2.40878C50.9324 3.43981 50.9393 4.80373 51.0405 5.9018C51.1625 5.08345 50.753 3.77501 50.6885 2.95435C45.2431 2.54055 44.76 12.5942 44.4609 16.3439V16.3462Z" fill="url(#paint6_linear_7197_1757)"/>
<path opacity="0.11" d="M50.0143 15.5413C49.1217 18.2484 48.4361 21.0086 47.9599 23.8196C47.8771 24.2149 48.7053 24.2727 48.8042 23.8959C49.5542 21.2074 50.1984 18.4934 50.7413 15.754C50.8149 15.4142 50.0879 15.2917 50.0143 15.5413Z" fill="#E2A192"/>
<path opacity="0.11" d="M50.1596 14.813C49.2601 17.5062 48.5653 20.2502 48.0799 23.0497C47.9948 23.4473 48.8897 23.5374 48.9909 23.1514C49.7432 20.4698 50.3989 17.7628 50.9533 15.0326C51.0315 14.6835 50.2332 14.5679 50.1619 14.813H50.1596Z" fill="#E2A192"/>
<path opacity="0.11" d="M50.0978 15.4949C49.2489 18.1557 48.5886 20.8628 48.117 23.616C48.0342 24.0183 49.0763 24.1362 49.1822 23.7386C49.9966 21.0731 50.6223 18.3615 51.0617 15.6082C51.1399 15.2037 50.2036 15.1112 50.0955 15.4949H50.0978Z" fill="#E2A192"/>
<path opacity="0.11" d="M50.2725 16.0545C49.3706 18.7037 48.6989 21.4108 48.2595 24.1733C48.1766 24.5802 49.5478 24.7582 49.6674 24.3374C50.5554 21.6882 51.1996 18.9788 51.6022 16.2117C51.6804 15.8002 50.3921 15.6407 50.2725 16.0545Z" fill="#E2A192"/>
<path opacity="0.11" d="M50.2888 15.4764C49.3962 18.1279 48.7221 20.8349 48.2643 23.5951C48.1815 23.9997 49.571 24.1823 49.693 23.7593C50.5764 21.1077 51.2205 18.3984 51.6277 15.6336C51.706 15.2221 50.4107 15.0649 50.2888 15.4764Z" fill="#E2A192"/>
<path opacity="0.11" d="M49.8906 14.6676C49.1636 17.37 48.4826 20.0839 47.85 22.8095C47.8086 22.9782 47.7901 23.1169 47.9512 23.2094C48.0639 23.2741 48.3216 23.2672 48.3653 23.1146C49.2234 20.4076 49.8791 17.652 50.3277 14.8479C50.3829 14.5682 49.9596 14.3994 49.8883 14.6699L49.8906 14.6676Z" fill="#E2A192"/>
<path opacity="0.11" d="M49.748 15.3861C49.0279 18.0885 48.3676 20.8048 47.7626 23.5349C47.7189 23.7176 47.7051 23.8401 47.8799 23.9372C47.9926 23.9973 48.2963 24.0089 48.3423 23.847C49.205 21.1423 49.8377 18.3844 50.238 15.5734C50.2909 15.2821 49.8147 15.1203 49.748 15.3884V15.3861Z" fill="#E2A192"/>
<path opacity="0.11" d="M50.006 16.3069C49.1064 18.9538 48.4347 21.6608 47.9953 24.4234C47.9147 24.8233 48.8281 24.9181 48.9293 24.532C49.6954 21.8527 50.3441 19.1457 50.8779 16.4109C50.9653 16.011 50.1141 15.9347 50.006 16.3069Z" fill="#E2A192"/>
<path opacity="0.11" d="M50.3206 14.758C49.4326 17.4095 48.7493 20.1165 48.2708 22.8721C48.1857 23.2744 49.4211 23.4269 49.5361 23.0154C50.3781 20.3546 51.0292 17.6476 51.487 14.892C51.5698 14.4852 50.4379 14.358 50.3206 14.758Z" fill="#E2A192"/>
<path opacity="0.11" d="M49.8173 15.9295C48.9914 18.6504 48.3174 21.4106 47.7951 24.2055C47.7238 24.543 48.4232 24.6493 48.4899 24.3997C49.2813 21.6765 49.9232 18.9209 50.4178 16.1283C50.4822 15.8116 49.8887 15.6706 49.8196 15.9295H49.8173Z" fill="#E2A192"/>
<path opacity="0.11" d="M50.2951 14.4924C49.4301 17.1485 48.7514 19.8533 48.2591 22.6065C48.174 23.0065 49.1586 23.1105 49.2622 22.7175C50.0444 20.0428 50.6954 17.3358 51.2107 14.5964C51.2959 14.1965 50.4032 14.1132 50.2951 14.4924Z" fill="#E2A192"/>
<path opacity="0.11" d="M49.6838 15.0256C48.9729 17.7303 48.2988 20.4443 47.6616 23.1675C47.6294 23.3062 47.5949 23.4819 47.7352 23.5651C47.8479 23.6322 48.0297 23.5975 48.0688 23.4634C49.4698 18.3753 48.9913 20.442 49.9782 15.3192C49.999 15.2106 50.0634 14.9979 49.9414 14.9239C49.8333 14.8569 49.716 14.91 49.6861 15.0279L49.6838 15.0256Z" fill="#E2A192"/>
<path opacity="0.11" d="M62.5875 9.78946C61.8628 11.3522 61.0898 12.8895 60.2685 14.4014C59.6266 15.5433 58.9111 16.6391 58.1243 17.684C57.3859 18.7659 56.5715 19.79 55.6811 20.754C53.9695 22.6427 52.1015 24.3649 50.077 25.9207C49.4765 26.4131 50.5693 26.9055 50.9489 26.6165C51.6851 26.0548 52.4488 25.5046 53.1597 24.9105C54.8299 23.5119 56.3506 21.9653 57.7563 20.2986C58.8835 18.9647 59.8981 17.5707 60.8137 16.082C61.9571 14.2233 62.8428 12.3069 63.7124 10.3004C63.8298 10.0299 63.7722 9.83338 63.487 9.73629C63.2937 9.66925 62.714 9.52823 62.5875 9.78946Z" fill="#E2A192"/>
<path opacity="0.11" d="M62.6886 8.78702C62.0444 10.3775 61.299 11.9171 60.4547 13.4105C59.8128 14.5548 59.0974 15.6482 58.3083 16.6931C56.0077 19.8833 53.2884 22.4401 50.2425 24.9321C50.0745 25.0685 49.9825 25.3482 50.1758 25.517C50.3368 25.658 51.0109 25.7713 51.1926 25.6326C52.2923 24.7957 53.3643 23.9751 54.395 23.0573C56.01 21.6217 57.5445 20.0405 58.8604 18.3183C59.9187 16.9358 60.8849 15.4933 61.7591 13.9861C62.9255 11.9795 63.0566 11.4131 63.8526 9.30022C63.9585 9.01819 63.9171 8.83556 63.6157 8.73616C63.4293 8.67374 62.8059 8.51886 62.6863 8.78702H62.6886Z" fill="#E2A192"/>
<path opacity="0.11" d="M62.7923 9.55383C62.0768 11.1166 61.3061 12.6515 60.4779 14.1588C59.6083 15.673 58.6398 17.1224 57.5746 18.5048C55.4259 21.2812 52.8677 23.5744 50.1852 25.8076C49.9574 25.9971 50.2243 26.2514 50.3692 26.33C50.5602 26.434 51.2435 26.5704 51.4367 26.4248C52.8884 25.329 54.3377 24.2472 55.6537 22.985C57.2203 21.4823 58.6306 19.8156 59.9074 18.0633C60.9358 16.6508 61.8353 15.1806 62.6405 13.6294C63.4388 12.0921 63.4342 12.0251 64.2233 10.1086C64.3544 9.78731 64.2463 9.63242 63.9196 9.53302C63.7171 9.47292 62.9304 9.26717 62.7923 9.55383Z" fill="#E2A192"/>
<path opacity="0.11" d="M62.8589 10.4534C61.8398 12.7628 60.6481 14.9821 59.2838 17.1089C58.5753 18.2139 57.7908 19.2588 56.9327 20.2482C54.9795 22.6131 52.741 24.6058 50.3944 26.5638C50.0447 26.8574 50.6475 27.1025 50.8108 27.1441C51.2042 27.2389 51.8714 27.3891 52.228 27.1302C53.6635 26.0807 55.083 25.0404 56.3736 23.806C57.9403 22.3057 59.3528 20.6366 60.632 18.8866C61.4211 17.8093 62.1503 16.6951 62.8083 15.53C63.0361 15.1254 63.25 14.7139 63.4525 14.2932C64.0874 13.172 64.5958 11.993 64.9754 10.7563C65.1365 10.3378 64.1104 10.2546 63.9701 10.2361C63.5905 10.1807 63.0568 10.035 62.8589 10.4534Z" fill="#E2A192"/>
<path opacity="0.11" d="M62.8954 9.66926C61.874 11.9787 60.6823 14.1956 59.318 16.3247C58.6072 17.4297 57.8204 18.4746 56.96 19.464C54.9999 21.8289 52.7545 23.8216 50.401 25.7797C50.0467 26.0756 50.6633 26.3206 50.8243 26.3599C51.22 26.4547 51.901 26.6096 52.2599 26.346C53.6955 25.2965 55.1149 24.2562 56.4055 23.0195C57.9722 21.5192 59.3825 19.8501 60.6616 18.1001C61.4484 17.0205 62.18 15.9086 62.8379 14.7435C63.0657 14.3389 63.2796 13.9251 63.4821 13.5067C64.117 12.3855 64.6255 11.2066 65.0051 9.96979C65.1661 9.55136 64.1423 9.47045 64.002 9.45196C63.6201 9.39879 63.0933 9.25315 62.8954 9.67157V9.66926Z" fill="#E2A192"/>
<path opacity="0.11" d="M62.4498 8.61564C61.7895 10.2269 61.0395 11.7966 60.1975 13.32C59.3785 14.8365 58.4031 16.2443 57.2735 17.5435C56.2866 18.9583 55.1616 20.2482 53.8986 21.418C52.6356 22.6363 51.2874 23.7551 49.8588 24.7723C49.401 25.1237 50.0658 25.7178 50.4753 25.4196C51.9155 24.37 53.3303 23.3298 54.6187 22.093C55.8702 20.8932 57.0895 19.5455 58.1362 18.1769C58.9437 17.1205 59.6891 16.0409 60.3747 14.9035C60.8509 14.18 61.2696 13.4217 61.6285 12.6311C62.2473 11.4937 62.7512 10.3055 63.1354 9.06412C63.2182 8.8445 63.2228 8.64569 63.0203 8.51624C62.857 8.41221 62.5349 8.42377 62.4498 8.61795V8.61564Z" fill="#E2A192"/>
<path opacity="0.11" d="M62.3184 9.59818C61.6719 11.1956 60.9265 12.7444 60.0776 14.2424C59.4358 15.3821 58.7203 16.4709 57.9335 17.5112C56.7211 19.2681 55.3315 20.8817 53.7672 22.3497C52.5041 23.5795 51.1629 24.7169 49.7458 25.7641C49.2488 26.1594 50.0333 26.7188 50.4313 26.4183C51.8508 25.3503 53.2518 24.2892 54.5355 23.0524C55.5087 22.1139 56.4105 21.1059 57.2824 20.0749C58.4097 18.741 59.422 17.3494 60.3422 15.863C60.8253 15.1463 61.2486 14.3973 61.6144 13.6136C62.2471 12.4878 62.7509 11.3042 63.1259 10.0628C63.2133 9.83397 63.2156 9.62592 62.9809 9.51033C62.8061 9.4248 62.4173 9.37625 62.3184 9.59818Z" fill="#E2A192"/>
<path opacity="0.11" d="M62.5598 10.6454C61.8742 12.2197 61.1127 13.7593 60.2753 15.2573C59.4034 16.7691 58.4371 18.2186 57.3743 19.6033C55.267 22.3335 52.7731 24.6082 50.1275 26.7905C49.9572 26.9315 49.8606 27.202 50.0585 27.3753C50.2218 27.5187 50.9189 27.6389 51.1006 27.4979C52.2003 26.6587 53.2747 25.8427 54.3076 24.9249C55.9226 23.487 57.4548 21.9081 58.7707 20.1859C59.829 18.8035 60.7952 17.3609 61.6717 15.856C62.8013 13.9165 63.0107 13.2114 63.8228 11.1748C63.9401 10.8789 63.8734 10.7055 63.5628 10.6061C63.3696 10.5437 62.6863 10.368 62.5575 10.6431L62.5598 10.6454Z" fill="#E2A192"/>
<path opacity="0.11" d="M63.0223 8.53684C62.0054 10.9272 60.7838 13.2019 59.3529 15.361C58.6374 16.4637 57.8483 17.5086 56.9833 18.4957C55.0117 20.856 52.7617 22.8441 50.3991 24.7975C50.0724 25.068 50.6038 25.3269 50.7694 25.3708C51.1421 25.4656 51.715 25.5812 52.0463 25.3361C53.4726 24.282 54.8852 23.2394 56.1689 22.0073C57.7356 20.5046 59.1458 18.8379 60.4226 17.0856C61.451 15.6754 62.3482 14.2029 63.1534 12.654C64.0184 10.9896 63.9126 11.1422 64.7776 8.96219C64.964 8.4906 63.1764 8.2132 63.02 8.54146L63.0223 8.53684Z" fill="#E2A192"/>
<path opacity="0.11" d="M62.4054 10.331C61.6853 11.8961 60.9123 13.4357 60.0887 14.9499C59.4445 16.0919 58.7314 17.1853 57.9423 18.2302C57.2038 19.3121 56.3894 20.3339 55.5014 21.2979C53.7598 23.1958 51.8711 24.9319 49.8397 26.5062C49.299 26.9523 50.2285 27.4702 50.615 27.1696C52.0091 26.0901 53.3756 25.0059 54.664 23.7968C55.6647 22.856 56.5412 21.8619 57.42 20.8193C58.545 19.4855 59.5596 18.0915 60.4775 16.6027C61.6232 14.7418 62.5043 12.8323 63.3647 10.8211C63.4751 10.5645 63.4337 10.3773 63.1807 10.2617C62.9989 10.1785 62.5181 10.0929 62.4031 10.331H62.4054Z" fill="#E2A192"/>
<path opacity="0.11" d="M63.0156 8.19278C62.3139 9.76244 61.5478 11.2997 60.715 12.8047C59.8454 14.3212 58.8746 15.7683 57.8025 17.1484C55.6768 19.8762 53.1553 22.144 50.4982 24.3309C50.321 24.4766 50.2198 24.7355 50.4315 24.9158C50.604 25.0614 51.3586 25.1863 51.5495 25.0429C52.9966 23.9449 54.4414 22.8607 55.755 21.6008C57.3217 20.0982 58.7342 18.4337 60.011 16.6791C61.0394 15.2667 61.9389 13.7964 62.7464 12.2452C63.5516 10.6987 63.5263 10.6594 64.3131 8.72216C64.435 8.42164 64.3545 8.25057 64.0416 8.15348C63.8438 8.09106 63.1444 7.91306 63.0133 8.19278H63.0156Z" fill="#E2A192"/>
<path opacity="0.11" d="M62.2976 9.12194C61.5591 10.7101 60.7746 12.2728 59.9418 13.8124C59.1182 15.3289 58.1381 16.7368 57.0039 18.0336C56.0101 19.4438 54.8828 20.736 53.6198 21.9104C52.3568 23.1264 51.011 24.2406 49.5846 25.2578C49.2073 25.5491 49.672 26.194 50.0815 25.8958C51.5194 24.8463 52.9388 23.8083 54.2272 22.5716C55.4764 21.3741 56.698 20.0217 57.7401 18.6509C58.543 17.5944 59.2884 16.5102 59.9786 15.3752C61.1151 13.5003 62.0031 11.5677 62.8796 9.55423C62.9624 9.36467 62.9693 9.13118 62.7922 9.00866C62.6265 8.8977 62.3804 8.94624 62.2953 9.11962L62.2976 9.12194Z" fill="#E2A192"/>
<path opacity="0.11" d="M57.7979 7.35597C54.4091 13.9328 55.6238 11.3645 52.7297 18.0569C52.617 18.3159 52.6262 18.51 52.9046 18.6303C53.0771 18.7019 53.6338 18.8707 53.7535 18.6164C55.4352 15.0679 57.0686 11.494 58.6491 7.89692C58.7572 7.6565 58.7664 7.46694 58.5249 7.33054C58.3592 7.23807 57.9129 7.12942 57.7979 7.35597Z" fill="#D12834"/>
<path opacity="0.11" d="M58.051 6.37327C54.6508 12.9224 55.8563 10.4049 52.9323 17.0673C52.8149 17.3332 52.8357 17.525 53.1232 17.6429C53.2981 17.7146 53.8893 17.8949 54.0112 17.636C56.3923 12.5941 56.6868 11.9515 58.9345 6.92346C59.0449 6.6761 59.0495 6.49348 58.801 6.35477C58.6331 6.2623 58.1707 6.14672 58.051 6.37558V6.37327Z" fill="#D12834"/>
<path opacity="0.11" d="M58.0115 7.09487C56.0928 10.6202 54.3858 14.245 52.8927 17.9738C52.6903 18.4408 54.1143 18.739 54.2638 18.4246C56.0721 14.8715 57.7078 11.2375 59.171 7.52716C59.3642 7.06944 58.1679 6.78509 58.0115 7.09718V7.09487Z" fill="#D12834"/>
<path opacity="0.11" d="M58.2275 7.80365C56.2629 11.3129 54.542 14.9399 53.0651 18.6849C52.8902 19.0872 53.8058 19.2143 53.9623 19.2467C54.3235 19.3184 54.8066 19.4779 55.0044 19.0756C56.861 15.6057 58.4829 12.0272 59.8678 8.34228C60.068 7.86144 58.3863 7.49388 58.2252 7.80365H58.2275Z" fill="#D12834"/>
<path opacity="0.11" d="M58.2989 7.02723C56.3273 10.5364 54.5973 14.1612 53.1111 17.9039C52.9363 18.3038 53.845 18.431 54.0014 18.461C54.3626 18.5327 54.8388 18.6876 55.0367 18.2876C56.8863 14.8154 58.5082 11.2369 59.9001 7.55431C60.0979 7.07347 58.4599 6.71977 58.3012 7.02723H58.2989Z" fill="#D12834"/>
<path opacity="0.11" d="M57.6597 6.21121C55.8745 9.75508 54.1744 13.3359 52.5571 16.9607C52.4604 17.1711 52.465 17.3815 52.656 17.5109C52.8193 17.6196 53.1345 17.6149 53.2265 17.4231C55.0371 13.9208 56.6705 10.3353 58.1221 6.66662C58.1957 6.49555 58.2579 6.25513 58.0968 6.12105C57.9496 6.00084 57.7356 6.0517 57.6597 6.21121Z" fill="#D12834"/>
<path opacity="0.11" d="M57.4199 7.1617C55.6876 10.7218 54.0196 14.3142 52.4208 17.939C52.3195 18.1609 52.3241 18.3782 52.5496 18.4938C52.7221 18.5839 53.104 18.6394 53.2098 18.4221C55.0112 14.9222 56.6055 11.3274 57.9881 7.64023C58.0686 7.44142 58.1193 7.23337 57.9375 7.09004C57.7903 6.97445 57.5073 6.9837 57.4222 7.1617H57.4199Z" fill="#D12834"/>
<path opacity="0.11" d="M57.6894 8.17619C54.5974 14.4803 55.4878 12.5361 52.7363 18.9072C52.6143 19.1892 52.6466 19.3673 52.9502 19.4875C53.1274 19.5568 53.7853 19.7649 53.9119 19.4967C55.6948 15.9991 57.2845 12.4159 58.6809 8.74719C58.7868 8.49058 58.8029 8.29871 58.5222 8.17388C58.352 8.09759 57.8136 7.92421 57.6894 8.17388V8.17619Z" fill="#D12834"/>
<path opacity="0.11" d="M58.3862 6.08653C56.4008 9.58879 54.6593 13.209 53.1616 16.9493C52.9546 17.4186 54.5903 17.7561 54.7444 17.4394C56.5803 13.8932 58.239 10.2638 59.7206 6.5535C59.9207 6.08653 58.545 5.77907 58.3839 6.08653H58.3862Z" fill="#D12834"/>
<path opacity="0.11" d="M57.5005 7.88507C55.6462 11.3943 53.9737 14.989 52.4852 18.6716C52.3771 18.9212 52.4001 19.1108 52.6486 19.2333C52.8211 19.3165 53.2973 19.4113 53.4055 19.1778C55.1079 15.6293 56.716 12.0369 58.2275 8.40289C58.3218 8.18559 58.3586 7.97754 58.1354 7.84346C57.9744 7.74636 57.604 7.6747 57.5005 7.88738V7.88507Z" fill="#D12834"/>
<path opacity="0.11" d="M58.3611 5.76974C54.9332 12.3281 56.1526 9.78752 53.2147 16.4592C53.0905 16.7412 53.1296 16.9215 53.4287 17.0371C53.6058 17.1064 54.2569 17.3076 54.3834 17.0417C56.9485 11.6485 56.9255 11.7109 59.3181 6.32918C59.4332 6.06795 59.4263 5.89688 59.1663 5.75818C58.9961 5.66802 58.4853 5.53163 58.3611 5.76974Z" fill="#D12834"/>
<path opacity="0.11" d="M57.3746 6.70407C55.5985 10.2479 53.903 13.8311 52.2857 17.4513C52.2006 17.6339 52.1822 17.872 52.3547 17.9968C52.5135 18.1124 52.7527 18.0639 52.8356 17.8951C54.6461 14.3906 56.2795 10.8051 57.7289 7.13636C57.791 6.99303 57.8715 6.71794 57.7289 6.59773C57.5862 6.47521 57.4367 6.56999 57.3723 6.70407H57.3746Z" fill="#D12834"/>
<path opacity="0.11" d="M48.3814 6.44942C47.7557 7.92199 47.1299 9.39456 46.5041 10.8671C46.396 11.1237 46.4167 11.3248 46.6928 11.4335C46.863 11.5005 47.4244 11.6508 47.5279 11.3919C48.1191 9.92163 48.7127 8.45138 49.3039 6.98112C49.4075 6.72452 49.4098 6.54882 49.1521 6.41474C48.9934 6.33152 48.4849 6.209 48.3814 6.44942Z" fill="#D12834"/>
<path opacity="0.11" d="M48.6257 5.46477C47.9815 6.93502 47.3374 8.40528 46.6932 9.87554C46.5759 10.1414 46.6173 10.3379 46.9003 10.4442C47.0728 10.509 47.6755 10.6731 47.7837 10.4095C48.3887 8.9416 48.9938 7.47366 49.5988 6.00571C49.7069 5.74217 49.6977 5.57111 49.4332 5.43703C49.2698 5.3538 48.7361 5.22204 48.628 5.46708L48.6257 5.46477Z" fill="#D12834"/>
<path opacity="0.11" d="M48.4937 6.35465C47.9094 7.78099 47.325 9.20732 46.7407 10.6337C46.5819 11.022 46.7867 11.1561 47.1663 11.2486C47.5206 11.3341 47.9577 11.4404 48.1118 11.0382C48.6777 9.56102 49.246 8.08613 49.8119 6.60894C49.9454 6.25756 49.43 6.15584 49.2207 6.11654C48.8825 6.05182 48.6317 6.01252 48.4914 6.35696L48.4937 6.35465Z" fill="#D12834"/>
<path opacity="0.11" d="M48.6848 7.07125C48.0775 8.55769 47.4724 10.0464 46.8651 11.5329C46.6741 12.0022 48.5675 12.4414 48.7975 11.8565C49.3796 10.3816 49.9593 8.90676 50.5414 7.43188C50.7001 7.02964 49.8581 6.91867 49.6833 6.88631C49.3474 6.82158 48.8505 6.66901 48.6848 7.07356V7.07125Z" fill="#D12834"/>
<path opacity="0.11" d="M48.7498 6.29242C48.1333 7.77886 47.5167 9.26299 46.9025 10.7494C46.7092 11.2141 48.6026 11.6579 48.8327 11.0708C49.4124 9.59588 49.9922 8.11869 50.5719 6.6438C50.7652 6.15141 48.9822 5.73298 48.7498 6.29242Z" fill="#D12834"/>
<path opacity="0.11" d="M48.2685 5.30034C47.622 6.78216 46.9779 8.26398 46.3337 9.74579C46.244 9.95385 46.2486 10.1688 46.4418 10.2937C46.6006 10.3954 46.9157 10.3838 46.994 10.1896C47.5898 8.71014 48.188 7.23063 48.7838 5.75113C48.8574 5.5685 48.9057 5.33733 48.7355 5.20556C48.5883 5.09229 48.3444 5.12928 48.2708 5.30034H48.2685Z" fill="#D12834"/>
<path opacity="0.11" d="M48.0202 6.25496C47.4105 7.74603 46.7986 9.23709 46.1889 10.7282C46.0992 10.9455 46.0992 11.1674 46.3224 11.2783C46.4857 11.3593 46.8676 11.4078 46.9527 11.1859C47.5118 9.69944 48.0708 8.21068 48.6298 6.72424C48.7081 6.51619 48.7495 6.31507 48.5585 6.17405C48.4136 6.06771 48.1007 6.0654 48.0248 6.25496H48.0202Z" fill="#D12834"/>
<path opacity="0.11" d="M48.377 7.29786C47.7605 8.77505 47.1416 10.2499 46.5251 11.7271C46.4078 12.0068 46.4515 12.1895 46.7482 12.3004C46.9208 12.3629 47.5787 12.5478 47.6869 12.2773C48.285 10.8071 48.8809 9.3368 49.479 7.86655C49.5894 7.59376 49.5756 7.41114 49.2812 7.29093C49.1155 7.22389 48.4875 7.03432 48.377 7.29786Z" fill="#D12834"/>
<path opacity="0.11" d="M48.8413 5.34459C48.2063 6.82409 47.5714 8.30128 46.9364 9.78079C46.7731 10.1645 47.553 10.2616 47.7163 10.2871C48.0637 10.3448 48.4617 10.4443 48.6158 10.0582C49.2025 8.58563 49.7914 7.11075 50.3781 5.63818C50.5276 5.26368 49.8696 5.16196 49.6787 5.12497C49.3313 5.05793 48.9977 4.97702 48.8413 5.34459Z" fill="#D12834"/>
<path opacity="0.11" d="M48.0983 6.97902C47.4933 8.4724 46.8905 9.96577 46.2855 11.4591C46.1865 11.7065 46.2049 11.8984 46.4534 12.0163C46.6167 12.0926 47.0976 12.1804 47.1873 11.94C47.7509 10.4535 48.3146 8.96942 48.8782 7.48298C48.9656 7.25412 48.9978 7.05531 48.7632 6.92354C48.609 6.83801 48.1926 6.75247 48.1006 6.97902H48.0983Z" fill="#D12834"/>
<path opacity="0.11" d="M48.9086 4.85906C48.2599 6.32932 47.6111 7.80189 46.9624 9.27214C46.8381 9.55417 46.8979 9.73911 47.1947 9.84545C47.3696 9.90787 48.039 10.0928 48.1518 9.82002C48.7591 8.35208 49.3642 6.88413 49.9715 5.41387C50.0819 5.14802 50.0704 4.95846 49.7829 4.84057C49.6126 4.77121 49.0237 4.59783 48.9109 4.85906H48.9086Z" fill="#D12834"/>
<path opacity="0.11" d="M47.9922 5.79283C47.3503 7.27465 46.7084 8.75646 46.0666 10.2383C45.9907 10.4163 45.9723 10.6636 46.1402 10.7815C46.2943 10.8902 46.5267 10.8347 46.5934 10.6636C47.1893 9.18182 47.7828 7.70231 48.3786 6.2205C48.4385 6.07024 48.5098 5.79976 48.3625 5.68187C48.2199 5.56397 48.0543 5.65181 47.9922 5.79514V5.79283Z" fill="#D12834"/>
<g style="mix-blend-mode:multiply">
<path d="M50.6085 29.5762C51.722 29.4768 52.5732 28.3116 53.0195 27.0864C53.1645 26.6911 53.245 26.1432 52.9459 25.9028C52.8493 25.8242 52.7273 25.7988 52.6123 25.7734C52.2373 25.6971 51.8439 25.6208 51.4804 25.7595C51.0226 25.9352 50.666 26.4345 50.1875 26.4969C49.801 26.5478 49.4329 26.2935 49.1362 25.993C48.8417 25.6925 48.584 25.3318 48.2504 25.0937C48.1009 24.9874 47.9284 24.9065 47.7558 24.9342C46.7229 25.1076 47.0541 27.5048 47.5994 28.0943C48.2849 28.8364 49.6906 29.6571 50.6108 29.5738L50.6085 29.5762Z" fill="#739D69"/>
</g>
<path style="mix-blend-mode:multiply" d="M49.782 31.448C48.94 52.5194 47.4377 73.5654 45.2821 94.542C44.424 95.0922 43.5751 93.8161 43.3496 92.8174C40.3957 79.673 40.0115 65.9506 42.2269 52.6604C43.6073 44.3752 45.9815 36.2911 48.3465 28.2347C48.4592 27.8487 48.6409 27.5736 49.0389 27.458C49.4852 28.5491 49.8326 30.1026 49.7797 31.4457L49.782 31.448Z" fill="url(#paint7_linear_7197_1757)"/>
<path d="M40.4834 41.8584C40.2671 43.472 41.5094 44.8567 42.3422 46.253C43.6927 48.5139 44.4104 58.3318 40.3108 55.7865C36.5448 53.4471 38.6498 44.6394 40.4811 41.8607L40.4834 41.8584Z" fill="url(#paint8_linear_7197_1757)"/>
<path style="mix-blend-mode:multiply" d="M51.8964 67.2667C55.3818 64.7469 59.4262 63.1518 63.2865 61.2585C65.7481 60.0518 68.196 58.6763 70.0295 56.6328C71.8631 54.5892 73.0087 51.7527 72.4451 49.0596C67.4023 50.8119 62.4445 52.8092 57.5926 55.04C53.5804 56.8848 49.3244 59.2196 47.6634 63.3275C46.4372 66.3628 46.7086 69.879 46.4717 73.083C47.9187 70.8106 49.7109 68.8456 51.8964 67.269V67.2667Z" fill="url(#paint9_linear_7197_1757)"/>
<path d="M28.2763 54.1863C24.6851 48.5365 20.8294 41.9296 21.2504 34.25C24.7036 34.858 27.8208 37.7569 30.2065 41.4487C32.5922 45.1405 34.3337 49.6068 35.9717 54.0823C37.3291 57.7926 43.3658 75.1074 38.8498 77.2204C36.2754 68.2994 32.8016 61.3064 28.274 54.1863H28.2763Z" fill="url(#paint10_linear_7197_1757)"/>
<path style="mix-blend-mode:multiply" d="M34.6127 72.0953C32.6066 69.675 30.2807 68.1423 28.063 66.323C26.6481 65.1625 25.2402 63.8425 24.1842 61.8775C23.1306 59.9125 20.9197 58.0331 21.2441 55.4463C24.1451 57.1292 26.9955 59.048 29.7861 61.1909C32.0936 62.9617 34.5414 65.2064 35.4961 69.1525C36.2024 72.0699 36.0459 75.4473 36.1817 78.5242C35.3489 76.342 35.8688 73.6095 34.6127 72.093V72.0953Z" fill="url(#paint11_linear_7197_1757)"/>
<path opacity="0.11" d="M29.4111 63.7687C37.8358 63.556 46.2628 63.3179 54.6875 63.0728C54.936 63.0659 55.1844 62.8995 55.0901 62.5989C54.9981 62.3077 54.5035 62.2406 54.2481 62.2475C45.8579 62.4602 37.4677 62.7006 29.0776 62.9757C28.8429 62.9827 28.6796 63.237 28.7532 63.4704C28.8383 63.7363 29.1673 63.7756 29.4134 63.7687H29.4111Z" fill="#952732"/>
<path opacity="0.11" d="M29.6981 62.7629C38.1136 62.5433 46.5291 62.3075 54.9423 62.0624C55.193 62.0555 55.453 61.9006 55.3541 61.5908C55.2597 61.2949 54.7329 61.2279 54.4752 61.2348C46.092 61.4452 37.711 61.6833 29.3323 61.9653C29.0931 61.9723 28.9136 62.2104 28.9941 62.4577C29.0839 62.7282 29.4496 62.7675 29.6981 62.7629Z" fill="#952732"/>
<path opacity="0.11" d="M29.7998 63.547C38.2406 63.3598 46.6768 63.1217 55.1153 62.8674C55.3798 62.8605 55.7134 62.7703 55.5938 62.4074C55.488 62.086 54.7771 62.0121 54.5102 62.019C46.1177 62.2178 37.7276 62.4744 29.3374 62.7356C29.0866 62.7426 28.8474 62.9275 28.9486 63.2188C29.0498 63.5124 29.5421 63.554 29.7998 63.5493V63.547Z" fill="#952732"/>
<path opacity="0.11" d="M30.4372 64.37C38.9677 64.1989 47.4936 63.9724 56.0195 63.6765C56.3807 63.6649 56.3393 63.2396 56.1299 63.0824C55.7319 62.7842 54.9106 62.7541 54.4344 62.7657C46.2007 62.9645 37.9692 63.2072 29.7401 63.517C29.4686 63.5262 29.0936 63.591 29.2271 63.9793C29.3444 64.3168 30.1611 64.3746 30.4349 64.37H30.4372Z" fill="#952732"/>
<path opacity="0.11" d="M30.4738 63.5629C38.9997 63.3872 47.5256 63.1607 56.0492 62.8671C56.4058 62.8555 56.3644 62.4278 56.1573 62.2706C55.7662 61.9747 54.961 61.9516 54.4917 61.9632C46.2534 62.1597 38.0173 62.4047 29.7836 62.7122C29.5121 62.7214 29.1417 62.7908 29.2752 63.1768C29.3925 63.512 30.1977 63.5698 30.4715 63.5629H30.4738Z" fill="#952732"/>
<path opacity="0.11" d="M28.9872 62.525C37.4027 62.3308 45.8182 62.1089 54.2313 61.8269C54.4476 61.8199 54.5718 61.524 54.5212 61.3322C54.4591 61.0917 54.2336 61.0386 54.0013 61.0455C45.6134 61.2929 37.2255 61.5194 28.84 61.7644C28.6513 61.7691 28.5869 62.1413 28.6145 62.2753C28.6605 62.488 28.7732 62.5296 28.9872 62.525Z" fill="#952732"/>
<path opacity="0.11" d="M28.9462 63.5464C37.3548 63.343 45.7611 63.1141 54.1674 62.8436C54.3974 62.8367 54.5585 62.5847 54.4918 62.3558C54.4182 62.0992 54.1122 62.0415 53.8706 62.0484C45.4919 62.2865 37.1156 62.52 28.7369 62.7766C28.5298 62.7835 28.4355 63.1164 28.4792 63.2829C28.539 63.514 28.7162 63.5533 28.9439 63.5487L28.9462 63.5464Z" fill="#952732"/>
<path opacity="0.11" d="M29.6014 64.6795C37.9916 64.4552 46.3841 64.2217 54.7742 63.9767C55.0342 63.9698 55.3356 63.8519 55.2228 63.5097C55.1216 63.1976 54.4936 63.1283 54.2313 63.1352C45.8802 63.3387 37.5338 63.5791 29.185 63.8727C28.9388 63.8819 28.7272 64.0853 28.8169 64.3581C28.9112 64.6425 29.346 64.6841 29.5991 64.6771L29.6014 64.6795Z" fill="#952732"/>
<path opacity="0.11" d="M30.3467 62.5461C38.8588 62.3473 47.3686 62.1139 55.8784 61.8434C56.2028 61.8341 56.1476 61.3903 55.9866 61.247C55.6737 60.9672 54.949 60.9765 54.5602 60.9857C46.2966 61.1753 38.0375 61.4203 29.7785 61.7162C29.5185 61.7255 29.2148 61.8526 29.3345 62.1901C29.4449 62.5045 30.0822 62.5508 30.349 62.5438L30.3467 62.5461Z" fill="#952732"/>
<path opacity="0.11" d="M29.008 64.2938C37.4534 64.0973 45.8965 63.8615 54.3419 63.6095C54.5835 63.6026 54.7905 63.3968 54.7077 63.131C54.6226 62.8559 54.2177 62.7935 53.9692 62.7981C45.5606 63.0177 37.1543 63.2581 28.7481 63.5124C28.5272 63.5193 28.4053 63.8176 28.4605 64.0117C28.5318 64.2591 28.7734 64.2984 29.008 64.2915V64.2938Z" fill="#952732"/>
<path opacity="0.11" d="M30.0896 62.1601C38.4867 61.9359 46.8838 61.7001 55.2808 61.4597C55.5385 61.4527 55.8261 61.3187 55.7179 60.9904C55.6167 60.6829 55.0186 60.6205 54.7563 60.6275C46.3937 60.8286 38.0358 61.069 29.6755 61.3556C29.4316 61.3649 29.22 61.5753 29.312 61.8434C29.4086 62.1254 29.8365 62.1647 30.0896 62.1578V62.1601Z" fill="#952732"/>
<path opacity="0.11" d="M28.5065 63.0178C36.9588 62.8236 45.4111 62.6017 53.8611 62.3173C54.0613 62.3104 54.1533 61.9752 54.1188 61.8157C54.0705 61.5937 53.9186 61.5406 53.6955 61.5452C45.3421 61.7902 36.9864 62.0168 28.6308 62.2595C28.3087 62.2688 28.1914 63.0224 28.5065 63.0154V63.0178Z" fill="#952732"/>
<path opacity="0.11" d="M29.402 61.806C37.4379 61.5333 45.4738 61.2397 53.5074 60.9415C53.7535 60.9322 54.0043 60.8305 53.91 60.6271C53.8203 60.4375 53.321 60.3843 53.068 60.3936C45.0666 60.6664 37.0652 60.9599 29.0684 61.2813C28.8361 61.2905 28.6681 61.4523 28.7441 61.6095C28.8269 61.7829 29.1605 61.8153 29.4043 61.8084L29.402 61.806Z" fill="#E2A192"/>
<path opacity="0.11" d="M29.689 61.1378C37.7157 60.8581 45.7401 60.5692 53.7644 60.271C54.0129 60.2617 54.2775 60.1669 54.1762 59.9566C54.0819 59.7624 53.5528 59.7115 53.2974 59.7208C45.3029 59.9912 37.3131 60.2825 29.3232 60.6085C29.0862 60.6177 28.9022 60.768 28.985 60.9344C29.0724 61.1124 29.4428 61.1448 29.689 61.1355V61.1378Z" fill="#E2A192"/>
<path opacity="0.11" d="M29.7907 61.6585C37.9324 61.4042 46.0695 61.1083 54.2066 60.7962C54.4942 60.7846 54.4597 60.491 54.3147 60.4009C54.041 60.2298 53.4083 60.2367 53.0655 60.2483C45.1493 60.5026 37.2399 60.8054 29.3283 61.1198C29.0798 61.1291 28.8359 61.2423 28.9395 61.4411C29.0384 61.633 29.5353 61.6677 29.7907 61.6608V61.6585Z" fill="#E2A192"/>
<path opacity="0.11" d="M30.7224 62.1963C38.7675 61.9606 46.8057 61.6739 54.8416 61.341C55.1982 61.3271 55.166 61.052 54.952 60.9457C54.5609 60.7515 53.7258 60.7215 53.2588 60.7353C45.315 60.9989 37.3734 61.2971 29.4364 61.6438C29.1213 61.6577 29.1765 61.9467 29.3375 62.0415C29.6458 62.2195 30.3475 62.2079 30.7248 62.1963H30.7224Z" fill="#E2A192"/>
<path opacity="0.11" d="M30.7571 61.6605C38.7999 61.4224 46.8358 61.1357 54.8716 60.8028C55.2259 60.789 55.1914 60.5139 54.9798 60.4075C54.5956 60.2157 53.7766 60.1879 53.3165 60.2041C45.368 60.4653 37.4241 60.7635 29.4826 61.1126C29.1697 61.1265 29.2249 61.4178 29.3836 61.5102C29.6896 61.6882 30.3821 61.6744 30.7571 61.6628V61.6605Z" fill="#E2A192"/>
<path opacity="0.11" d="M28.9782 60.9805C37.0049 60.7193 45.0316 60.4396 53.0536 60.1136C53.2676 60.1044 53.3941 59.9148 53.3435 59.7854C53.2814 59.6282 53.0559 59.5866 52.8236 59.5935C44.8268 59.8917 36.8277 60.176 28.8309 60.4743C28.6423 60.4812 28.5756 60.7216 28.6055 60.8141C28.6515 60.9528 28.7642 60.9875 28.9782 60.9805Z" fill="#E2A192"/>
<path opacity="0.11" d="M28.9365 61.6582C36.9563 61.39 44.9738 61.1057 52.9889 60.789C53.2167 60.7797 53.38 60.6202 53.3133 60.4653C53.242 60.2966 52.9337 60.2527 52.6922 60.2619C44.7046 60.5532 36.7147 60.8421 28.7271 61.1496C28.5201 61.1565 28.4258 61.3715 28.4695 61.4848C28.5293 61.6351 28.7064 61.6674 28.9342 61.6605L28.9365 61.6582Z" fill="#E2A192"/>
<path opacity="0.11" d="M29.5931 62.4117C37.5945 62.132 45.5982 61.8453 53.5972 61.5425C53.8526 61.5332 54.1586 61.4616 54.0459 61.2327C53.9446 61.0293 53.3143 60.9761 53.0543 60.9854C45.092 61.2443 37.1321 61.5402 29.1767 61.8777C28.9351 61.8869 28.7166 62.0164 28.8086 62.2013C28.9029 62.3863 29.34 62.4233 29.5908 62.414L29.5931 62.4117Z" fill="#E2A192"/>
<path opacity="0.11" d="M30.3381 60.9926C38.4615 60.7337 46.5825 60.4424 54.7012 60.1234C55.0233 60.1119 54.9749 59.8252 54.8093 59.7281C54.501 59.5455 53.7671 59.5432 53.3829 59.5547C45.5081 59.809 37.6356 60.1003 29.7676 60.4424C29.5099 60.454 29.204 60.5303 29.3236 60.7568C29.4317 60.9626 30.0736 61.0019 30.3381 60.9926Z" fill="#E2A192"/>
<path opacity="0.11" d="M28.9992 62.1532C37.0558 61.892 45.1101 61.5984 53.1621 61.2956C53.4014 61.2863 53.6107 61.1592 53.5279 60.9765C53.4451 60.7962 53.0356 60.7477 52.7894 60.7569C44.7696 61.0367 36.7545 61.3302 28.737 61.6354C28.5184 61.6446 28.3919 61.8342 28.4494 61.9683C28.5207 62.1301 28.7623 62.1625 28.9969 62.1532H28.9992Z" fill="#E2A192"/>
<path opacity="0.11" d="M30.0826 60.7359C38.0909 60.4539 46.0992 60.1695 54.1052 59.869C54.3605 59.8598 54.6527 59.7788 54.54 59.5569C54.4387 59.3558 53.8383 59.3072 53.5806 59.3165C45.6069 59.5754 37.6354 59.869 29.6685 60.2042C29.427 60.2134 29.213 60.3452 29.305 60.5278C29.3993 60.7128 29.8318 60.7451 30.0826 60.7382V60.7359Z" fill="#E2A192"/>
<path opacity="0.11" d="M28.6015 61.3047C36.6305 61.0458 44.6572 60.7638 52.6816 60.4378C52.8817 60.4286 52.9738 60.2136 52.9393 60.105C52.8909 59.9616 52.7368 59.9177 52.5159 59.927C44.5169 60.2252 36.5178 60.5095 28.5187 60.8077C28.2771 60.817 28.1828 61.3186 28.6015 61.3047Z" fill="#E2A192"/>
<path d="M59.3715 60.803C59.3715 60.803 40.2492 59.4576 25.6797 61.3578L28.8959 64.0972L50.8226 64.3839L57.6875 64.0972" fill="#39384A"/>
<path d="M65.3393 61.9637C65.1253 62.2827 64.8861 62.6457 64.4605 62.6572C61.6929 63.1334 58.8793 63.2513 56.1002 63.6212C53.7421 63.5518 51.384 63.6212 49.0283 63.6143C47.3764 63.6929 45.72 63.575 44.0728 63.7137C43.3689 63.7507 42.6695 63.6906 41.9678 63.6397C41.227 63.5935 40.4839 63.6235 39.7455 63.6328C38.6711 63.6258 37.599 63.6096 36.527 63.5865C36.0047 63.5426 35.4963 63.464 34.981 63.4016C33.8905 63.3045 32.8023 63.2629 31.7142 63.2005C31.6567 63.1982 31.5991 63.1958 31.5439 63.1935C31.2886 63.2074 31.0424 63.1935 30.8031 63.1635C28.2242 63.0618 25.6361 62.9762 23.0962 62.4885C22.8363 62.6017 22.5786 62.7219 22.3232 62.8421C23.041 66.2658 23.1514 69.775 23.5586 73.2426C24.2833 78.793 25.5486 84.3736 28.2081 89.3368C28.965 90.8672 30.3729 92.0901 30.5478 93.8701C32.5194 95.1277 34.6796 96.131 37.0032 96.4893C40.4678 97.0326 43.9992 97.125 47.4915 96.8499C47.8435 96.7297 48.1977 96.598 48.5497 96.4685C46.7001 96.1541 44.8297 95.8328 43.0606 95.2017C41.181 94.2978 39.8053 92.6241 38.6596 90.9227C37.4104 89.0456 36.7685 86.8448 36.4579 84.6302C35.5469 78.5457 34.7624 72.4312 34.5531 66.2774C34.5853 65.7295 34.4219 64.6545 35.2685 64.7447C38.5952 64.7031 41.9264 64.6777 45.2553 64.8187C47.6364 65.0082 50.0267 65.0868 52.417 65.0475C55.5757 64.9805 58.7229 65.3457 61.8815 65.318C63.5172 65.3735 64.7757 63.8917 66.4459 64.1205C67.0164 64.1483 66.9543 64.858 67.0831 65.2648C67.1222 64.0789 67.304 62.8907 67.1705 61.7071C66.7725 61.3557 66.2273 61.2679 65.7396 61.1176C63.9244 60.6483 62.1024 60.1582 60.2274 60.0195C59.9353 60.2761 59.65 60.535 59.367 60.8009C61.3777 60.9835 63.462 61.1315 65.3347 61.9637H65.3393ZM26.8899 79.4311C27.2856 79.1167 27.6123 79.838 27.2649 80.0807C26.8669 80.3835 26.5356 79.6646 26.8899 79.4311ZM27.3477 81.1996C27.9136 80.9661 28.2104 81.5278 28.399 81.9532C27.9274 82.0064 27.021 81.8977 27.3477 81.1996ZM27.7066 79.0681C27.5179 78.7514 27.9182 78.4417 28.2058 78.4047C29.0271 78.3515 28.1345 79.4519 27.7066 79.0681ZM29.6598 81.1649C29.2388 81.2967 29.0938 81.1556 29.2319 80.7418C29.646 80.6031 29.7886 80.7441 29.6598 81.1649ZM28.896 78.3885C29.6022 77.8869 30.4696 78.0348 31.2702 78.1504C30.6789 78.7977 29.5309 79.2045 28.896 78.3885ZM31.3737 80.6702C30.8307 80.8759 30.7433 80.009 31.2449 79.9374C31.7648 79.7524 31.8384 80.5777 31.3737 80.6702ZM30.0969 82.441C30.8722 82.2098 31.6198 81.4538 32.4526 81.9046C31.8338 82.5658 30.9251 82.6166 30.0969 82.441ZM32.616 78.8485C32.3698 79.0797 31.8706 78.7237 32.0639 78.4278C32.3008 78.192 32.7977 78.5434 32.616 78.8485ZM30.9711 76.3865C28.9903 76.0282 28.8891 72.9351 30.5317 72.059C31.6912 71.4395 33.5385 72.0567 33.7387 73.4784C34.2218 75.0897 32.593 76.8073 30.9711 76.3889V76.3865Z" fill="#E38F92"/>
<path d="M25.6795 61.3571C25.974 61.3039 26.2685 61.2461 26.5629 61.1837L26.4663 60.9017C25.8889 60.5295 25.201 60.5087 24.543 60.5549C23.7424 60.5965 22.9579 60.763 22.1758 60.9317C22.1343 61.0658 22.0469 61.3317 22.0078 61.4657C23.2225 61.2947 24.4579 61.1421 25.6818 61.3548L25.6795 61.3571Z" fill="#C57276"/>
<path d="M23.558 73.2422C23.1508 69.7746 23.0403 66.2654 22.3225 62.8417C22.5779 62.7215 22.8333 62.599 23.0955 62.4881C22.5549 62.4025 22.0396 62.2338 21.568 61.9633C22.9368 61.7529 24.3171 61.6165 25.6791 61.3576C24.4552 61.1449 23.2198 61.2952 22.0051 61.4686C22.0465 61.3345 22.1339 61.0687 22.173 60.9346C21.3126 61.1634 20.1347 61.0779 19.6148 61.9171C19.4468 63.9791 19.9046 66.0296 20.0082 68.0894C20.6615 74.0767 21.1838 80.2629 23.8202 85.7694C25.2788 89.0105 27.5379 91.9556 30.5471 93.8743C30.3699 92.092 28.9643 90.8691 28.2074 89.3411C25.5479 84.3778 24.2803 78.7973 23.558 73.2468V73.2422Z" fill="#E7A1A0"/>
<path d="M56.0996 63.6211C58.8787 63.2512 61.6923 63.1333 64.4599 62.6571C64.8878 62.6432 65.1247 62.2826 65.3387 61.9636C63.466 61.1337 61.3817 60.9834 59.371 60.8008C58.529 61.5567 57.8572 62.4976 56.9071 63.1356C56.6517 63.2928 56.3895 63.4385 56.1295 63.5795L56.0996 63.6211Z" fill="#39384A"/>
<path d="M25.6795 61.3579C24.3175 61.6169 22.9372 61.7533 21.5684 61.9636C22.04 62.2341 22.5553 62.4028 23.0959 62.4884C25.6358 62.9762 28.2239 63.0617 30.8028 63.1634C29.2431 62.9554 27.9547 61.8827 26.5629 61.1846C26.2684 61.247 25.974 61.3025 25.6795 61.3579Z" fill="#45404F"/>
<path d="M31.5433 63.1934C31.6008 63.1957 31.6583 63.198 31.7136 63.2003L31.5824 63.1934C31.5686 63.1934 31.5548 63.1934 31.541 63.1934H31.5433Z" fill="#45404F"/>
<path d="M31.5435 63.1931C31.2974 63.1839 31.0489 63.1723 30.8027 63.1631C31.042 63.1955 31.2905 63.207 31.5435 63.1931Z" fill="#45404F"/>
<path d="M66.4504 64.1197C64.7802 63.8909 63.5218 65.375 61.8861 65.3172C58.7274 65.3449 55.5802 64.9797 52.4215 65.0467C50.0289 65.086 47.641 65.0074 45.2599 64.8179C41.9309 64.6768 38.5997 64.7023 35.2731 64.7439C34.4265 64.6537 34.5898 65.7287 34.5576 66.2766C34.767 72.4304 35.5538 78.5449 36.4625 84.6293C36.7754 86.844 37.4172 89.0447 38.6641 90.9219C39.8075 92.6233 41.1833 94.297 43.0651 95.2009C44.8343 95.8343 46.7046 96.1556 48.5543 96.4677C48.2023 96.5971 47.848 96.7266 47.496 96.8491C50.8134 96.8098 54.2413 96.0192 56.8984 93.9317C61.2189 90.7323 63.5563 85.6095 65.0862 80.5861C66.4182 75.5951 66.7909 70.403 67.0877 65.264C66.9588 64.8572 67.021 64.1475 66.4504 64.1197ZM48.1149 79.6337C47.5811 81.0022 46.1272 81.7744 44.7514 82.0217C42.9271 82.2968 40.7922 82.0078 39.543 80.5075C38.9264 79.7978 38.3306 78.6558 39.1404 77.8583C39.9087 78.7737 40.4632 80.0221 41.6871 80.4081C43.1295 80.8843 44.8136 80.8404 46.118 79.9943C46.8542 79.5967 47.2453 78.8223 47.8043 78.2305C48.4024 78.3854 48.2483 79.1899 48.1149 79.6337ZM54.4621 76.076C52.7459 75.4125 52.9116 72.7032 54.5519 72.0559C55.739 71.4433 57.3586 72.1506 57.6139 73.4961C58.0993 75.2114 56.061 77.0145 54.4621 76.076ZM56.9882 79.4534C56.9698 78.7622 57.4897 78.6189 58.0694 78.6304C57.9521 79.206 57.6093 79.569 56.9882 79.4534ZM59.0012 81.1271C58.6124 81.4345 58.242 80.741 58.6124 80.5006C58.9966 80.1862 59.3624 80.8774 59.0012 81.1271Z" fill="#E6A5A3"/>
<path d="M30.5287 72.0588C28.8861 72.9349 28.9896 76.0303 30.9681 76.3863C32.59 76.8047 34.2188 75.0871 33.7357 73.4758C33.5332 72.0541 31.6858 71.4369 30.5287 72.0565V72.0588Z" fill="#29304B"/>
<path d="M57.6135 73.4939C57.3582 72.1485 55.7386 71.4434 54.5515 72.0537C52.9112 72.701 52.7455 75.4103 54.4618 76.0738C56.0606 77.0123 58.0989 75.2069 57.6135 73.4939Z" fill="#2A324E"/>
<path d="M31.2697 78.15C30.4691 78.0344 29.6018 77.8888 28.8955 78.3881C29.5305 79.2018 30.6784 78.7973 31.2697 78.15Z" fill="#EFCCCC"/>
<path d="M47.8042 78.2286C47.2474 78.8204 46.854 79.5925 46.1179 79.9925C44.8134 80.8386 43.1294 80.8825 41.687 80.4063C40.4608 80.0202 39.9063 78.7719 39.1402 77.8564C38.3281 78.6563 38.9263 79.7983 39.5428 80.5057C40.792 82.006 42.927 82.295 44.7513 82.0199C46.1271 81.7725 47.581 81.0004 48.1147 79.6318C48.2505 79.188 48.4046 78.3835 47.8042 78.2286Z" fill="#282D46"/>
<path d="M28.2052 78.4042C27.9176 78.4412 27.5173 78.751 27.7059 79.0677C28.1338 79.4514 29.0265 78.351 28.2052 78.4042Z" fill="#EBB8BC"/>
<path d="M32.0613 78.4278C31.8703 78.7237 32.3672 79.0797 32.6134 78.8485C32.7951 78.5434 32.2982 78.1897 32.0613 78.4278Z" fill="#EFC8C4"/>
<path d="M56.9878 79.4537C57.6089 79.5693 57.9517 79.2064 58.069 78.6308C57.4893 78.6169 56.9694 78.7625 56.9878 79.4537Z" fill="#EEC1C8"/>
<path d="M26.8897 79.4307C26.5377 79.6642 26.8667 80.3855 27.2647 80.0803C27.6098 79.8353 27.2854 79.1163 26.8897 79.4307Z" fill="#EDBFC8"/>
<path d="M31.3734 80.6699C31.8381 80.5774 31.7645 79.7521 31.2445 79.9371C30.743 80.0087 30.8304 80.8756 31.3734 80.6699Z" fill="#ECBFC6"/>
<path d="M58.6119 80.4984C58.2416 80.7412 58.6119 81.4347 59.0007 81.1249C59.3619 80.8752 58.9961 80.184 58.6119 80.4984Z" fill="#F1CBD1"/>
<path d="M29.2335 80.741C29.0955 81.1548 29.2381 81.2959 29.6614 81.1641C29.7926 80.7433 29.6476 80.6 29.2335 80.741Z" fill="#F0CAD3"/>
<path d="M27.3477 81.1992C27.0211 81.895 27.9275 82.006 28.3991 81.9528C28.2105 81.5298 27.9137 80.9657 27.3477 81.1992Z" fill="#EFC7C8"/>
<path d="M30.0967 82.4407C30.9249 82.6164 31.8336 82.5633 32.4525 81.9044C31.6197 81.4536 30.872 82.2096 30.0967 82.4407Z" fill="#E9ADAF"/>
</g>
<defs>
<linearGradient id="paint0_linear_7197_1757" x1="42.2092" y1="47.0557" x2="27.4559" y2="46.966" gradientUnits="userSpaceOnUse">
<stop stop-color="#F8ECCE"/>
<stop offset="0.97" stop-color="#739D69"/>
</linearGradient>
<linearGradient id="paint1_linear_7197_1757" x1="32.9922" y1="44.6196" x2="25.014" y2="46.1313" gradientUnits="userSpaceOnUse">
<stop stop-color="#619ABE"/>
<stop offset="0.97" stop-color="#739D69"/>
</linearGradient>
<linearGradient id="paint2_linear_7197_1757" x1="0.000428605" y1="13.1998" x2="39.6922" y2="13.1998" gradientUnits="userSpaceOnUse">
<stop offset="0.08" stop-color="#F3DC66"/>
<stop offset="0.76" stop-color="#D15615"/>
<stop offset="1" stop-color="#E29E26"/>
</linearGradient>
<linearGradient id="paint3_linear_7197_1757" x1="50.6177" y1="58.6275" x2="58.5981" y2="60.1396" gradientUnits="userSpaceOnUse">
<stop stop-color="#619ABE"/>
<stop offset="0.97" stop-color="#739D69"/>
</linearGradient>
<linearGradient id="paint4_linear_7197_1757" x1="58.5624" y1="24.042" x2="78.7779" y2="27.8724" gradientUnits="userSpaceOnUse">
<stop stop-color="#E2A192"/>
<stop offset="1" stop-color="#D12834"/>
</linearGradient>
<linearGradient id="paint5_linear_7197_1757" x1="48.1259" y1="55.8674" x2="66.496" y2="55.8674" gradientUnits="userSpaceOnUse">
<stop stop-color="#D3DECC"/>
<stop offset="0.97" stop-color="#739D69"/>
</linearGradient>
<linearGradient id="paint6_linear_7197_1757" x1="44.3344" y1="14.3512" x2="66.9444" y2="14.3512" gradientUnits="userSpaceOnUse">
<stop stop-color="#E2A192"/>
<stop offset="1" stop-color="#D12834"/>
</linearGradient>
<linearGradient id="paint7_linear_7197_1757" x1="40.8075" y1="61.0682" x2="49.7866" y2="61.0682" gradientUnits="userSpaceOnUse">
<stop stop-color="#619ABE"/>
<stop offset="0.97" stop-color="#739D69"/>
</linearGradient>
<linearGradient id="paint8_linear_7197_1757" x1="38.215" y1="49.0294" x2="43.4005" y2="49.0294" gradientUnits="userSpaceOnUse">
<stop stop-color="#D3DECC"/>
<stop offset="0.97" stop-color="#739D69"/>
</linearGradient>
<linearGradient id="paint9_linear_7197_1757" x1="46.4694" y1="61.069" x2="72.5854" y2="61.069" gradientUnits="userSpaceOnUse">
<stop stop-color="#619ABE"/>
<stop offset="0.97" stop-color="#739D69"/>
</linearGradient>
<linearGradient id="paint10_linear_7197_1757" x1="40.5016" y1="55.7375" x2="21.2182" y2="55.7375" gradientUnits="userSpaceOnUse">
<stop stop-color="#D3DECC"/>
<stop offset="0.97" stop-color="#739D69"/>
</linearGradient>
<linearGradient id="paint11_linear_7197_1757" x1="36.184" y1="66.9864" x2="21.2142" y2="66.9864" gradientUnits="userSpaceOnUse">
<stop stop-color="#619ABE"/>
<stop offset="0.97" stop-color="#739D69"/>
</linearGradient>
<clipPath id="clip0_7197_1757">
<rect width="80" height="97" fill="white"/>
</clipPath>
</defs>
</svg>
