<svg width="69" height="80" viewBox="0 0 69 80" fill="none" xmlns="http://www.w3.org/2000/svg">
<g clip-path="url(#clip0_7197_1975)">
<path d="M36.5736 5.86221C36.5964 7.27355 36.6047 8.69316 36.3518 10.088L36.329 10.2264C36.186 11.3361 36.7125 12.6214 35.9414 13.5781C36.0347 13.6855 36.2212 13.9046 36.3145 14.0141C36.3187 13.8818 36.3311 13.6194 36.3373 13.4913C36.47 13.1483 36.6151 12.8094 36.7478 12.4705C36.7063 11.7245 36.6939 10.9744 36.7975 10.2347C36.8701 9.25521 36.9219 8.27162 37.0027 7.29215C37.1437 4.86002 36.9613 2.42789 36.7954 0.00195312L36.5446 0.16933C36.5488 2.06627 36.6814 3.96527 36.5757 5.86221H36.5736Z" fill="#6D8139"/>
<path d="M49.6807 27.3217C50.6549 26.9415 51.2913 26.0116 52.3402 25.774C52.7506 25.4868 52.819 24.9185 53.0325 24.497C52.9496 24.4846 52.7858 24.4577 52.7029 24.4453C51.6458 25.3504 50.7026 26.3774 49.6807 27.3197V27.3217Z" fill="#5D7B42"/>
<path d="M37.2792 28.3051C37.5238 25.5486 37.4284 22.7838 37.4015 20.0231C37.3579 18.5126 37.3787 16.9876 37.0553 15.5039C36.9765 15.8531 36.8915 16.2023 36.8107 16.5495C37.2419 20.3496 37.1921 24.1889 36.8356 27.9931C36.7858 30.9501 36.0002 33.8864 36.4479 36.8455C36.5412 36.8434 36.7319 36.8352 36.8231 36.8331C36.6013 33.9794 37.1506 31.1464 37.2792 28.3031V28.3051Z" fill="#587A47"/>
<path d="M40.1993 11.8612C40.0977 11.9562 39.9982 12.0533 39.9008 12.1525C40.1786 12.3158 40.4605 12.479 40.7424 12.6423C40.1247 12.977 39.2976 13.1836 38.997 13.8883C38.8126 14.2685 39.1981 14.5702 39.3432 14.8884C39.9817 14.657 40.0376 15.6674 39.3764 15.3513C38.6633 15.2004 37.9378 15.2459 37.2227 15.3224C37.8072 15.7356 38.313 16.2481 38.825 16.7523C38.9245 16.837 39.1256 17.0106 39.2251 17.0953C39.8055 17.5354 40.4045 17.9611 41.0222 18.3475C41.642 18.6079 42.3344 18.7484 42.9977 18.5583C43.7149 18.4157 44.0176 17.6057 44.6767 17.3577C45.394 17.5375 46.0967 17.8144 46.7393 18.1905C46.9756 18.6327 46.7683 19.1369 46.731 19.6018C47.1704 19.3869 47.6389 19.2175 48.1364 19.1927C48.3292 19.1927 48.524 19.1968 48.7209 19.2051C49.0837 19.4303 49.4568 19.6452 49.8341 19.856C50.3958 19.5316 51.0426 19.5212 51.6706 19.5688C52.3319 19.5853 52.9952 19.3539 52.9952 18.5852L52.9496 18.3785C51.3639 18.2855 49.8237 17.8723 48.2649 17.6057C48.3229 17.4569 48.4411 17.1573 48.4991 17.0106C49.15 17.2276 49.8216 17.4115 50.514 17.4404C50.0579 16.7172 50.2403 15.81 49.8009 15.0868C49.7491 15 49.6517 14.8244 49.604 14.7396C49.6973 14.7086 49.8838 14.6446 49.9792 14.6136C49.9128 14.5433 49.7822 14.4049 49.7159 14.3367C48.7893 13.1237 47.7508 12.0058 46.7538 10.8569C46.0179 11.1999 45.2012 10.7866 44.428 10.8528C42.8941 10.7412 41.4327 11.607 39.905 11.328C39.8241 11.3611 39.6666 11.4334 39.5857 11.4665C39.7868 11.6008 39.9879 11.731 40.1931 11.8674L40.1993 11.8612ZM41.5964 13.692C41.3332 14.409 40.6989 13.7788 40.2988 13.5432C40.7279 13.2539 41.3684 13.0452 41.5964 13.692Z" fill="#DCDFA6"/>
<path d="M55.8643 14.7722C56.1586 15.1132 56.4468 15.4603 56.7245 15.8178C56.6665 16.1153 56.6105 16.4108 56.5608 16.7125C58.0242 16.2083 59.5001 15.7227 61.0299 15.4624C59.1643 16.4274 57.1743 17.2126 55.1201 17.6796C57.079 17.7623 59.0296 17.5659 60.9802 17.4068C60.9781 17.535 60.9719 17.7912 60.9698 17.9193C59.071 18.1797 57.1474 18.0701 55.2549 18.3677C55.9182 19.0599 57.3257 18.3119 57.6076 19.4484C57.8232 19.5848 58.0367 19.7212 58.2564 19.8596C58.2315 20.1345 58.2066 20.4114 58.1859 20.6924C58.7518 21.2007 59.4856 21.397 60.1945 21.6264C60.4288 21.9033 60.52 22.269 60.6754 22.5935C61.6041 22.4922 62.5472 22.5273 63.4738 22.3724C64.9808 22.1616 66.3386 21.3309 67.4289 20.3018C68.7265 18.7851 69.3691 16.6009 68.7763 14.6565C68.3762 12.6914 66.5956 11.2593 64.7528 10.6766C62.4478 10.1166 59.8712 10.3212 57.8211 11.5776C57.7009 11.3999 57.5848 11.2242 57.4708 11.0527C57.4708 12.2037 56.6561 13.1088 56.1918 14.1048C56.0778 14.3238 55.9741 14.549 55.8622 14.7722H55.8643Z" fill="#D7DC9E"/>
<path d="M36.5739 5.86242C36.5076 6.72617 36.4392 7.58991 36.4102 8.45779V8.83388C36.1987 8.84421 35.7738 8.86487 35.5603 8.8752C35.4691 9.46619 35.8547 9.8464 36.3501 10.0861C36.603 8.69336 36.5947 7.27169 36.5719 5.86035L36.5739 5.86242Z" fill="#AEC171"/>
<path d="M51.3992 13.4216C51.3163 13.1199 51.2313 12.8203 51.1401 12.5268C50.9452 12.5454 50.5535 12.5868 50.3586 12.6074C50.4457 12.4587 50.5348 12.3161 50.6239 12.1714C50.7628 12.2293 51.0406 12.3512 51.1836 12.4132C51.0261 11.1114 50.6509 9.83435 50.6633 8.52013C50.8312 8.74949 50.9141 9.01399 50.9369 9.30122C51.1277 10.9853 51.6625 12.5992 52.1454 14.2171C52.3755 15.1078 52.3693 16.0397 52.6056 16.9282C53.2171 14.3267 53.5405 11.6631 53.7644 8.99746C53.8452 9.05739 54.009 9.1793 54.0898 9.24129C54.0069 10.8799 53.7913 12.5165 53.613 14.151C53.6441 14.2895 53.7084 14.5643 53.7416 14.7027C54.2473 14.149 54.8257 13.6179 55.1179 12.9133C55.348 12.221 55.3978 11.4875 55.5222 10.7725C55.7813 11.1692 56.1316 11.5329 56.2539 12.004C56.2373 12.7046 56.0031 13.4092 56.1896 14.1097C56.654 13.1116 57.4686 12.2086 57.4686 11.0576C57.0395 8.43334 54.9791 6.04873 52.2615 5.69538C49.3118 5.09406 46.3414 7.93741 46.758 10.8572C47.7551 12.0082 48.7936 13.124 49.7202 14.337C50.1866 13.8824 50.7773 13.6055 51.3971 13.4257L51.3992 13.4216Z" fill="#BECA7E"/>
<path d="M32.192 7.04598C31.9537 6.81041 31.7111 6.57484 31.4728 6.34341L31.3028 6.18223C31.8583 5.75242 32.3413 5.23996 32.7206 4.64691C32.7206 5.30195 32.7206 5.99626 32.2356 6.50459C32.4408 6.80628 32.6481 7.11004 32.8554 7.41173C32.7621 7.6039 32.673 7.79608 32.5817 7.99032C32.8035 8.14943 33.0253 8.31061 33.2575 8.46145C33.3529 8.50691 33.5436 8.60403 33.6389 8.65363C33.7819 8.33334 33.9312 8.01098 34.0701 7.68862C33.6534 6.90753 34.1675 5.9322 33.5829 5.22963C33.7467 5.13458 33.9105 5.04159 34.0784 4.95273C34.2131 5.6987 34.5655 6.38267 35.2122 6.81248C35.318 7.55224 35.6164 8.24448 36.4124 8.45525C36.4415 7.58737 36.5099 6.72362 36.5762 5.85988C36.6819 3.96294 36.5492 2.06393 36.5451 0.166992C34.8744 0.218652 33.1601 1.02867 32.2833 2.48341C31.4396 3.76043 31.2613 5.29162 31.2344 6.78562C31.3339 6.90753 31.537 7.1555 31.6365 7.27948C31.821 7.19889 32.0076 7.1245 32.1962 7.04598H32.192Z" fill="#D1D897"/>
<path d="M37.0012 7.29008C37.0696 8.12284 37.1339 8.95352 37.1816 9.78834C37.7164 8.94732 37.8615 7.95133 38.2139 7.03592C38.4585 6.99046 38.7072 6.94293 38.956 6.89747C38.8606 6.58338 38.7528 6.27136 38.6968 5.949C38.8482 5.61012 39.2627 5.86221 39.5384 5.84155C39.6193 5.91594 39.7768 6.07092 39.8577 6.14738C39.9717 6.4408 40.0691 6.74249 40.1769 7.04832C40.72 6.56892 41.0972 5.949 41.2755 5.24643C41.0309 5.0088 40.7925 4.77116 40.5542 4.53353C40.7158 4.47774 41.033 4.37029 41.1926 4.31449C41.1118 4.15538 41.033 3.99834 40.9584 3.84336C40.8381 3.95494 40.5977 4.17398 40.4754 4.28556C40.2992 4.10372 40.1271 3.92395 39.953 3.74624C40.2888 3.47967 40.6288 3.21105 40.9708 2.94655C40.4837 2.45268 39.9199 1.93402 39.9074 1.19012L39.895 1.0992C38.9705 0.477221 37.8988 0.121803 36.7939 0.00195312C36.9598 2.42789 37.1422 4.86002 37.0012 7.29215V7.29008ZM38.643 2.7895C38.8544 2.51261 39.468 2.78744 39.1985 3.12426C38.9871 3.43835 38.3486 3.12839 38.643 2.7895Z" fill="#D0D796"/>
<path d="M39.9523 3.74264C40.1265 3.92035 40.2985 4.10012 40.4747 4.28196C40.597 4.17038 40.8375 3.95134 40.9577 3.83976C41.0323 3.99474 41.1111 4.15385 41.1919 4.31089C41.0302 4.36669 40.7131 4.47414 40.5535 4.52993C40.7919 4.76756 41.0323 5.0052 41.2748 5.24283C41.0966 5.9454 40.7214 6.56532 40.1762 7.04472C40.0684 6.74096 39.971 6.43927 39.857 6.14378C40.0643 7.55511 38.7024 8.48499 38.5345 9.83433C39.2123 9.8178 39.7181 9.35493 40.1866 8.91893C40.2446 8.96025 40.3607 9.04291 40.4187 9.08424C39.7824 9.38386 39.7575 10.1154 39.6248 10.7105C39.5419 10.4439 39.4507 10.1712 39.374 9.90872C39.0278 9.8798 38.6879 9.88599 38.3521 9.93559C38.064 10.2807 37.8442 10.6774 37.6162 11.0618C38.2795 11.161 38.9429 11.2808 39.5917 11.4585C39.6725 11.4254 39.83 11.3531 39.9109 11.3201C40.7732 10.977 41.5381 10.4233 42.0833 9.66902C43.1031 8.48912 42.9912 6.80915 42.8254 5.36682C42.3714 3.71371 41.364 2.12673 39.9067 1.18652C39.9192 1.93042 40.483 2.44908 40.9701 2.94295C40.6281 3.20745 40.2902 3.47608 39.9523 3.74264Z" fill="#C9D18C"/>
<path d="M39.2003 3.12643C39.4677 2.78755 38.8562 2.51272 38.6448 2.79168C38.3525 3.13263 38.9889 3.44052 39.2003 3.12643Z" fill="#9FAA65"/>
<path d="M10.7751 11.561C10.4393 11.6333 10.0994 11.7077 9.76562 11.7759C11.1213 12.7884 11.7825 14.6771 13.5859 15.0614C13.5714 15.2412 13.5569 15.4231 13.5445 15.607C14.1643 15.9686 14.7405 16.4046 15.2132 16.948C15.3665 16.7455 15.5199 16.5472 15.6796 16.3488C14.9665 15.6628 14.1726 15.08 13.416 14.4519C12.933 14.0778 12.8977 13.4393 12.9351 12.8855C13.5859 13.834 14.3011 14.7618 15.4142 15.1978C15.4184 14.7556 15.4246 14.3134 15.4391 13.8733C16.0962 14.2679 16.0444 15.0242 16.0029 15.6896C16.5958 14.9457 17.6923 14.6957 18.0737 13.7968C18.4448 13.5054 18.8075 13.2079 19.1682 12.9041C19.5517 12.8091 19.9953 12.7554 20.2316 12.3917C20.1611 11.8275 19.8232 11.3419 19.5952 10.8336C19.8875 10.7634 20.1839 10.6972 20.4803 10.629C20.64 10.9204 20.7996 11.2118 20.9613 11.5093C21.0545 11.2262 21.1416 10.9431 21.2328 10.66C21.5997 10.6993 21.9625 10.7344 22.3335 10.7799C22.0889 11.6292 21.2349 11.9577 20.557 12.3896C20.7643 12.5425 20.9758 12.6975 21.1893 12.8566C20.0036 13.1459 19.2636 14.1936 18.3246 14.892C18.7412 15.0098 19.1558 15.1234 19.5766 15.235C19.7818 15.1276 19.9911 15.0263 20.2047 14.9292C20.3166 14.987 20.5446 15.0986 20.6586 15.1544C21.1913 15.1358 21.7179 15.0346 22.2382 14.9251C22.4537 15.3073 22.6672 15.6917 22.8828 16.076C23.0507 15.8425 23.2228 15.609 23.3948 15.3755C22.9865 15.0738 22.035 14.8941 22.2402 14.2328C22.6486 14.0902 23.0756 13.9993 23.4985 13.9146C22.9761 13.9063 22.4558 13.8423 21.95 13.7327C21.8236 13.7741 21.5728 13.8588 21.4442 13.9001C22.0371 12.8194 23.3762 12.2553 23.6373 10.9721C24.1473 8.49447 23.1606 5.62426 20.9281 4.29145C18.8967 3.09295 16.2061 3.21073 14.2327 4.47329C13.1341 5.17379 12.4935 6.38469 12.1287 7.59973C12.477 7.71544 12.8273 7.83323 13.1776 7.95308C13.0988 8.61639 12.8148 9.51526 13.6233 9.82522C13.5092 10.2592 13.4222 10.7014 13.4201 11.1498C13.9736 11.5341 14.1829 12.1644 14.2866 12.8008C13.6647 12.7182 13.0449 12.6252 12.4376 12.4805C12.5101 12.7719 12.5868 13.0674 12.6614 13.3629C12.6013 13.3608 12.477 13.3608 12.4148 13.3587C12.4044 12.9331 12.3049 12.5239 12.0893 12.154C11.7639 12.3131 11.4467 12.4743 11.1254 12.6376C11.0052 12.278 10.8891 11.9205 10.771 11.563L10.7751 11.561ZM21.3447 9.80456C22.3211 9.61445 21.3157 10.8873 21.0794 10.0877C21.1457 10.0174 21.2805 9.87688 21.3447 9.80456Z" fill="#B9C77E"/>
<path d="M31.3029 6.18267L31.4728 6.34385C31.6635 6.38518 32.0429 6.46783 32.2336 6.50709C32.7186 5.99876 32.7186 5.30239 32.7186 4.64941C32.3414 5.24247 31.8584 5.75286 31.3008 6.18474L31.3029 6.18267Z" fill="#BCC679"/>
<path d="M31.0332 12.4374C30.687 12.766 30.2558 12.7288 29.8309 12.6524C29.835 12.7536 29.8454 12.954 29.8537 13.0553C30.0568 13.0284 30.262 13.0036 30.4693 12.9809C30.459 13.1896 30.4527 13.4024 30.4465 13.6153C30.0755 13.7062 29.7107 13.7971 29.3438 13.8942C29.5386 14.2538 29.7335 14.6133 29.9324 14.9791C31.0912 14.5266 31.9991 13.6298 33.1205 13.107C33.5662 12.8631 34.0077 13.2681 34.414 13.4148C34.926 13.357 35.1499 12.952 35.1623 12.4664C34.7623 12.6276 34.3663 12.797 33.9725 12.9706C33.8378 12.8735 33.5683 12.6771 33.4335 12.5759C33.8232 12.2907 34.2316 12.0138 34.7104 11.894H35.3468C35.3012 11.5758 35.2556 11.2575 35.2121 10.9435C35.5147 11.0096 35.8194 11.0778 36.1241 11.148C36.1926 10.8401 36.2672 10.5322 36.3314 10.2244L36.3542 10.0859C35.8588 9.84414 35.4733 9.46599 35.5645 8.87501C35.7759 8.86467 36.2008 8.84401 36.4143 8.83368V8.4576C35.6184 8.24889 35.3199 7.55459 35.2142 6.81482C34.5674 6.38501 34.2129 5.70104 34.0803 4.95508C33.9124 5.046 33.7486 5.13692 33.5849 5.23197C34.1694 5.93454 33.6553 6.90988 34.072 7.69097C33.9331 8.01539 33.7839 8.33568 33.6408 8.65597C33.8626 8.85228 33.7548 9.49905 33.3797 9.21803C33.1268 9.05685 33.0252 8.68077 33.2594 8.4638C33.0273 8.31295 32.8055 8.14971 32.5837 7.99266C32.6749 7.79842 32.764 7.60625 32.8573 7.41407C32.65 7.11238 32.4427 6.80862 32.2375 6.50693C32.0468 6.46767 31.6675 6.38502 31.4767 6.34369C31.7151 6.57512 31.9577 6.81069 32.196 7.04626C32.0074 7.12478 31.8229 7.19917 31.6364 7.27976C31.5369 7.15578 31.3337 6.90781 31.2342 6.78589C31.2114 8.06292 31.3544 9.38334 31.9411 10.5405C32.2727 11.1914 32.992 11.5572 33.2491 12.2597C32.0551 12.3403 30.9565 11.7328 29.7645 11.7287C29.7397 11.8155 29.6961 11.989 29.6713 12.0758C30.1356 12.1564 30.5937 12.268 31.0352 12.4354L31.0332 12.4374Z" fill="#C7D085"/>
<path d="M39.1837 7.48695C39.503 6.99309 39.5009 6.40003 39.5403 5.84004C39.2646 5.85864 38.85 5.60861 38.6987 5.9475C38.7547 6.27192 38.8624 6.58188 38.9578 6.89597C38.709 6.94143 38.4603 6.98895 38.2157 7.03441C37.8633 7.95189 37.7182 8.94582 37.1834 9.78684C37.1337 8.95202 37.0715 8.12133 37.0031 7.28858C36.9222 8.26804 36.8704 9.25164 36.7979 10.2311C36.8227 10.601 36.8559 10.9709 36.8973 11.3408C37.7555 10.1154 38.4292 8.77431 39.1837 7.48489V7.48695Z" fill="#C6D186"/>
<path d="M37.6162 11.0637C37.8463 10.6793 38.0661 10.2826 38.3521 9.93748C38.6879 9.88789 39.0279 9.88169 39.374 9.91062C39.4528 10.173 39.5419 10.4458 39.6249 10.7124C39.7575 10.1173 39.7803 9.38369 40.4188 9.08613C40.3607 9.0448 40.2446 8.96215 40.1866 8.92082C39.7181 9.35683 39.2124 9.81763 38.5345 9.83623C38.7024 8.48895 40.0643 7.55701 39.857 6.14567C39.7762 6.06715 39.6186 5.91423 39.5378 5.83984C39.4984 6.39983 39.5005 6.99289 39.1813 7.48675C38.4267 8.77617 37.753 10.1152 36.8949 11.3426C36.8534 10.9727 36.8202 10.6029 36.7954 10.233C36.6938 10.9727 36.7042 11.7208 36.7456 12.4688C37.7613 12.3572 38.7024 11.946 39.5896 11.4625C38.9408 11.2848 38.2775 11.1649 37.6142 11.0657L37.6162 11.0637Z" fill="#8FA44F"/>
<path d="M2.90243 16.6677C4.84679 17.7443 7.13525 17.8744 9.30763 18.0728C10.0207 18.1575 10.8685 17.767 11.4489 18.3435C11.9588 18.2092 12.4771 18.0955 12.987 17.9571C12.1309 17.8558 11.2727 17.8062 10.4187 17.7091C11.3245 17.4074 12.2843 17.5004 13.2254 17.4736C12.9497 17.3806 12.6719 17.2958 12.3962 17.2153C11.1027 17.052 9.83207 16.7483 8.59456 16.3474C8.18413 16.2337 7.83382 15.9754 7.65347 15.587C8.21315 15.5456 8.77076 15.6283 9.2952 15.8287C10.1285 16.1304 10.9991 16.2957 11.8614 16.4941C10.2404 16.054 8.99256 14.8555 7.56227 14.0289C6.81396 13.6032 6.25635 12.9275 5.82519 12.1981C7.01917 12.6548 7.85454 13.6714 8.95524 14.2831C10.2881 15.029 11.6313 15.9072 13.2026 16.0106C12.6056 15.4216 11.8303 15.0373 11.2997 14.3843C10.6073 13.564 9.91706 12.7395 9.30556 11.8571C9.41957 11.8385 9.65173 11.7993 9.76574 11.7786C10.0995 11.7104 10.4394 11.6381 10.7752 11.5637C10.8913 11.9212 11.0095 12.2787 11.1297 12.6382C11.451 12.475 11.7681 12.3117 12.0936 12.1547C11.6479 11.2992 11.2126 10.4334 10.7255 9.59857C9.05474 7.12718 5.52048 5.70138 2.74075 7.15611C1.11353 7.82975 0.0273445 9.50972 0.0128343 11.2558C-0.138486 13.4172 1.06171 15.5518 2.90243 16.6677Z" fill="#C7D18E"/>
<path d="M13.6248 9.8212C12.8143 9.50917 13.1004 8.61236 13.1791 7.94906C12.8288 7.8292 12.4785 7.71349 12.1303 7.5957C11.6742 9.05457 11.8255 10.6023 12.3065 12.0322L12.4163 11.9475C12.7521 11.683 13.0941 11.4226 13.4237 11.1478C13.4258 10.6973 13.5108 10.2551 13.6269 9.82326L13.6248 9.8212Z" fill="#AEBF72"/>
<path d="M33.3756 9.2181C33.7508 9.50119 33.8586 8.85235 33.6368 8.65604C33.5415 8.60645 33.3507 8.50933 33.2554 8.46387C33.0212 8.68084 33.1207 9.05692 33.3756 9.2181Z" fill="#A0A965"/>
<path d="M56.6411 19.9922C56.1 19.1285 55.103 18.771 54.2262 18.3536C54.5682 18.3618 54.9123 18.3722 55.2584 18.3701C57.1489 18.0725 59.0746 18.182 60.9734 17.9217C60.9755 17.7936 60.9817 17.5373 60.9837 17.4092C59.0311 17.5683 57.0826 17.7646 55.1237 17.682C57.1779 17.215 59.1658 16.4298 61.0335 15.4648C59.5037 15.7251 58.0278 16.2107 56.5644 16.7149C56.1104 16.8678 55.6647 17.0311 55.2253 17.2191C54.647 17.4836 54.0292 17.6407 53.4053 17.7419C53.3742 16.5413 53.4633 15.3408 53.6167 14.1485C53.795 12.514 54.0106 10.8774 54.0935 9.23875C54.0126 9.17882 53.8489 9.0569 53.7681 8.99491C53.5442 11.6605 53.2208 14.3241 52.6093 16.9257C52.373 16.0351 52.3771 15.1031 52.1491 14.2146C51.6661 12.5966 51.1313 10.9828 50.9406 9.29867C50.9178 9.01144 50.8349 8.74695 50.667 8.51758C50.6546 9.83386 51.0277 11.1109 51.1873 12.4106C51.0464 12.3507 50.7686 12.2288 50.6276 12.1689C50.5364 12.3115 50.4494 12.4561 50.3623 12.6049C50.5572 12.5863 50.9469 12.545 51.1438 12.5243C51.235 12.8177 51.32 13.1173 51.4029 13.419C51.5874 14.8448 51.6185 16.3616 52.5658 17.5415C52.7088 17.8122 52.8394 18.0891 52.9596 18.3763L53.0052 18.5829C53.4965 18.6222 53.994 18.678 54.4417 18.9032C55.1051 19.395 55.7456 20.0377 56.6452 19.9901L56.6411 19.9922Z" fill="#77923D"/>
<path d="M21.3444 9.80539C21.2781 9.87564 21.1434 10.0162 21.0791 10.0885C21.3154 10.8882 22.3208 9.61735 21.3444 9.80539Z" fill="#9EAD61"/>
<path d="M27.8097 16.7585C28.2243 16.9011 28.6451 17.0457 29.0638 17.1883C28.7446 17.4053 28.4254 17.6243 28.1082 17.8434C27.9383 17.6966 27.7662 17.552 27.6004 17.4053C27.3682 17.9797 27.5859 18.5356 27.8864 19.0377C28.9581 18.7877 30.0588 18.6534 31.1056 18.298C31.8477 18.1037 32.5027 17.7028 33.079 17.2028C33.1163 17.2772 33.1889 17.4239 33.222 17.4962C33.7548 18.5811 33.4169 19.8478 33.5247 21.0132C33.5765 19.8622 33.5392 18.7133 33.5641 17.5644C33.533 17.1429 33.7071 16.7585 33.9786 16.4506C34.3642 15.9939 34.7829 15.5621 35.1125 15.062L35.2224 14.7355C35.3716 14.2974 35.666 13.9379 35.9417 13.5763C36.7128 12.6195 36.1863 11.3343 36.3293 10.2246C36.265 10.5325 36.1904 10.8404 36.122 11.1483C35.8173 11.078 35.5126 11.0098 35.2099 10.9437C35.2535 11.2578 35.297 11.576 35.3447 11.8942H34.7083C34.8596 12.0823 35.013 12.2703 35.1623 12.4666C35.1498 12.9522 34.9259 13.3572 34.4139 13.4151C33.5578 14.2933 32.3079 14.4917 31.2072 14.9132C30.0443 15.467 29.0182 16.2853 27.8118 16.7564L27.8097 16.7585Z" fill="#BAC671"/>
<path d="M19.5763 15.2329C19.1575 15.1213 18.7409 15.0077 18.3242 14.8899C19.2632 14.1915 20.0033 13.1438 21.189 12.8545C20.9775 12.6954 20.764 12.5404 20.5567 12.3875C21.2346 11.9536 22.0886 11.6271 22.3332 10.7778C21.9621 10.7344 21.5994 10.6972 21.2325 10.6579C21.1413 10.941 21.0542 11.2241 20.9609 11.5072C20.7993 11.2097 20.6396 10.9183 20.48 10.627C20.1815 10.6951 19.8872 10.7613 19.5949 10.8315C19.825 11.3399 20.1608 11.8255 20.2313 12.3896C19.995 12.7553 19.5514 12.807 19.1679 12.902C18.8072 13.2058 18.4424 13.5034 18.0734 13.7947C17.6899 14.6915 16.5954 14.9436 16.0026 15.6875C16.0441 15.0201 16.0959 14.2638 15.4388 13.8712C15.4243 14.3113 15.4201 14.7535 15.4139 15.1957C14.3008 14.7577 13.5856 13.8319 12.9347 12.8834C12.8974 13.4372 12.9327 14.0757 13.4156 14.4498C14.1723 15.0779 14.9682 15.6607 15.6792 16.3467C15.9052 16.1669 16.1643 16.0264 16.4607 16.0037C17.52 15.8549 18.6186 15.7433 19.5763 15.2329Z" fill="#95AA59"/>
<path d="M53.4021 17.7396C54.026 17.6383 54.6437 17.4813 55.222 17.2168C55.0811 17.1093 54.795 16.8923 54.6541 16.787C55.0148 16.0906 55.4584 15.4438 55.8646 14.7722C55.9766 14.5511 56.0802 14.3238 56.1942 14.1048C56.0056 13.4043 56.2398 12.6996 56.2585 11.9991C56.1362 11.5301 55.7859 11.1643 55.5268 10.7676C55.4024 11.4825 55.3506 12.214 55.1225 12.9084C54.8303 13.613 54.2519 14.144 53.7462 14.6978C53.713 14.5594 53.6487 14.2846 53.6176 14.1461C53.4642 15.3384 53.373 16.5369 53.4062 17.7396H53.4021Z" fill="#AFBE6E"/>
<path d="M28.43 28.2992C29.1845 29.3282 29.9162 30.3738 30.6127 31.4442C30.8843 31.7831 31.189 32.093 31.4958 32.403C31.2056 31.8244 30.8863 31.2603 30.5858 30.6879C29.9535 29.756 29.2488 28.8757 28.6186 27.9417C27.8288 26.8279 26.9686 25.7596 26.2762 24.5817C25.9487 24.0693 25.5839 23.5816 25.1631 23.1435C24.3775 22.5009 23.7183 21.7198 23.3017 20.792L23.1006 20.8189V21.1185C25.0387 23.3936 26.6328 25.9166 28.4258 28.2992H28.43Z" fill="#406036"/>
<path d="M46.9006 32.8447C45.1345 34.6032 43.1507 36.6118 40.5078 36.7626C41.992 36.651 43.4803 36.6531 44.9687 36.6469C44.324 36.6428 43.6835 36.62 43.0429 36.589C44.1084 35.8369 45.1614 35.064 46.1834 34.254C47.0395 33.6031 47.5805 32.5472 48.6377 32.1711C49.0667 31.4954 49.4772 30.8032 49.8648 30.1006C49.8088 30.1192 49.6969 30.1584 49.643 30.1791C48.7517 31.0945 47.7961 31.9376 46.9006 32.8447Z" fill="#406036"/>
<path d="M13.4215 11.1465C13.0919 11.4213 12.7499 11.6817 12.4141 11.9462C12.4182 12.0805 12.4306 12.345 12.4389 12.4772C13.0463 12.6239 13.6661 12.7149 14.2879 12.7975C14.1864 12.1611 13.9749 11.5308 13.4215 11.1465Z" fill="#A4B868"/>
<path d="M37.2273 15.3201C37.9424 15.2457 38.67 15.1982 39.381 15.349C39.3706 15.2354 39.3561 15.0019 39.3478 14.8861C39.2006 14.5679 38.8151 14.2662 39.0016 13.886C39.3022 13.1834 40.1293 12.9768 40.747 12.64C40.463 12.4767 40.1832 12.3135 39.9054 12.1502C40.0028 12.0511 40.1003 11.9539 40.2039 11.8589C39.9987 11.7225 39.7956 11.5923 39.5966 11.458C38.7094 11.9415 37.7662 12.3528 36.7526 12.4643C36.6199 12.8053 36.4748 13.1421 36.3421 13.4851C36.338 13.6132 36.3256 13.8777 36.3193 14.0079C36.5681 14.4439 36.8127 14.8861 37.0656 15.3242L37.2293 15.3159L37.2273 15.3201ZM37.6335 13.5595C38.0191 13.4872 38.6265 13.9025 38.5601 14.3261C38.1849 14.3716 37.5921 13.9604 37.6335 13.5595Z" fill="#D0D695"/>
<path d="M13.9832 17.6264C14.6838 17.5314 15.3782 17.397 16.0478 17.1697C17.163 16.835 18.2119 16.3267 19.2753 15.8638C19.752 15.6592 20.2081 15.4112 20.6558 15.1529C20.5418 15.0972 20.3138 14.9856 20.2018 14.9277C19.9904 15.0248 19.779 15.1282 19.5738 15.2335C18.614 15.7439 17.5175 15.8555 16.4582 16.0043C16.1639 16.027 15.9048 16.1675 15.6767 16.3473C15.5192 16.5436 15.3637 16.7441 15.2103 16.9466C14.7377 16.4052 14.1615 15.9692 13.5417 15.6055C13.5541 15.4236 13.5686 15.2397 13.5831 15.06C11.7797 14.6756 11.1185 12.7849 9.76281 11.7744C9.6488 11.793 9.41664 11.8323 9.30263 11.8529C9.91206 12.7353 10.6023 13.5598 11.2967 14.3801C11.8295 15.0352 12.6027 15.4195 13.1997 16.0064C11.6284 15.9051 10.2831 15.0269 8.95232 14.2789C7.85162 13.6693 7.01417 12.6526 5.82227 12.1939C6.25342 12.9233 6.81103 13.599 7.55934 14.0247C8.98756 14.8513 10.2354 16.0498 11.8585 16.4899C11.9725 16.5168 12.0844 16.5416 12.1984 16.5705C12.0824 16.5478 11.9704 16.5209 11.8585 16.4899C10.9983 16.2936 10.1276 16.1262 9.29227 15.8245C8.76783 15.6241 8.20815 15.5414 7.65055 15.5828C7.83089 15.9712 8.18328 16.2295 8.59164 16.3432C9.82915 16.7441 11.0998 17.0478 12.3933 17.2111C13.0649 17.1243 13.7427 17.0602 14.4206 17.0437C14.2734 17.2359 14.1283 17.428 13.9832 17.6223V17.6264Z" fill="#829C47"/>
<path d="M11.8564 16.4922C11.9684 16.5232 12.0803 16.55 12.1964 16.5728C12.0824 16.5459 11.9705 16.5191 11.8564 16.4922Z" fill="#829C47"/>
<path d="M22.2377 14.2313C22.0325 14.8925 22.9839 15.0723 23.3923 15.374C23.2182 15.6075 23.0482 15.841 22.8803 16.0745C22.6647 15.6901 22.4512 15.3058 22.2356 14.9235C21.7153 15.033 21.1888 15.1322 20.6561 15.1529C20.2063 15.4112 19.7502 15.6591 19.2755 15.8637C19.2299 15.9815 19.1346 16.2109 19.0869 16.3286C19.5056 16.2687 19.9244 16.2088 20.3451 16.1551C20.2249 16.5435 20.2374 17.1015 19.7606 17.244C18.805 17.8061 17.6774 17.7606 16.6098 17.8371C16.5995 17.9445 16.5787 18.1574 16.5684 18.2648C16.6886 18.364 16.929 18.5645 17.0493 18.6657C17.5136 18.9509 17.8494 19.3683 17.9841 19.9055C17.723 19.7361 17.4618 19.5667 17.2068 19.3972C17.2151 19.7506 17.2172 20.1019 17.2296 20.4573C17.3851 20.5131 17.6981 20.6308 17.8535 20.6866C18.0733 20.821 18.293 20.9615 18.5127 21.104C18.5272 21.0111 18.5583 20.8251 18.5728 20.73C18.6993 20.7714 18.948 20.854 19.0724 20.8953C19.1885 20.9346 19.4248 21.0111 19.5388 21.0503C20.0612 20.9305 20.5815 21.0049 21.0707 21.2115L21.2199 21.1702C21.8376 21.0069 22.4699 20.8933 23.1042 20.8168L23.3052 20.79C24.1095 20.5544 24.9159 20.2982 25.6662 19.9262C25.8424 19.8064 26.0207 19.6927 26.201 19.577C26 19.5522 25.604 19.5026 25.4051 19.4778C25.6559 18.9199 25.7802 18.3206 25.7263 17.709C25.3035 17.4858 24.8412 17.6594 24.4059 17.7193C25.1501 17.1366 26.2031 17.0581 26.7897 16.2604C27.48 16.4258 28.0894 16.1385 28.5931 15.6819C28.4398 15.6261 28.135 15.5165 27.9816 15.4608C27.9671 15.219 27.9547 14.9814 27.9423 14.7437C28.2573 14.5681 28.5745 14.3966 28.8916 14.223C29.016 14.5681 29.1425 14.9132 29.2731 15.2582C29.4368 15.188 29.7664 15.0495 29.9322 14.9793C29.7353 14.6135 29.5384 14.254 29.3435 13.8944C29.7104 13.7973 30.0753 13.7043 30.4463 13.6155C30.4504 13.4006 30.4587 13.1898 30.4691 12.9811C30.2618 13.0059 30.0566 13.0307 29.8535 13.0555C29.8452 12.9542 29.8369 12.7538 29.8307 12.6525C30.2556 12.7311 30.6868 12.7662 31.0329 12.4376C30.5914 12.2703 30.1333 12.1587 29.669 12.0781C29.6938 11.9913 29.7374 11.8177 29.7622 11.7309C28.3983 11.5718 27.0198 11.6462 25.6787 11.9252C24.3334 12.2124 22.8388 12.6071 21.9475 13.7291C22.4553 13.8386 22.9756 13.9048 23.4959 13.911C23.071 13.9957 22.644 14.0866 22.2377 14.2292V14.2313ZM17.7147 18.6244C17.8763 18.4136 18.4878 18.3909 18.4568 18.738C18.2909 18.9426 17.6691 18.9798 17.7147 18.6244Z" fill="#D5DA9B"/>
<path d="M33.4318 12.5784C33.5665 12.6776 33.836 12.8759 33.9707 12.9731C34.3666 12.7995 34.7605 12.6301 35.1605 12.4689C35.0113 12.2746 34.8579 12.0845 34.7066 11.8965C34.2277 12.0163 33.8215 12.2932 33.4297 12.5784H33.4318Z" fill="#94A550"/>
<path d="M31.2073 14.9149C32.308 14.4933 33.5558 14.295 34.414 13.4167C34.0098 13.268 33.5683 12.865 33.1205 13.1089C31.9991 13.6316 31.0912 14.5285 29.9324 14.981C29.7666 15.0513 29.437 15.1897 29.2733 15.26C29.0369 15.386 28.8131 15.5307 28.5954 15.6836C28.0938 16.1402 27.4823 16.4275 26.792 16.2622C26.2075 17.0598 25.1524 17.1383 24.4082 17.721C24.8435 17.6632 25.3058 17.4875 25.7286 17.7107C26.3733 17.2933 27.0843 17.006 27.8119 16.7581C29.0204 16.2869 30.0444 15.4687 31.2073 14.9149Z" fill="#9EB058"/>
<path d="M41.5965 13.6914C41.3664 13.0446 40.7279 13.2533 40.2988 13.5426C40.6989 13.7782 41.3332 14.4084 41.5965 13.6914Z" fill="#C2CA83"/>
<path d="M38.5595 14.3266C38.6258 13.903 38.0185 13.4877 37.6329 13.56C37.5915 13.9609 38.1843 14.3721 38.5595 14.3266Z" fill="#A3AE67"/>
<path d="M52.0646 17.4917C52.189 17.5041 52.4378 17.5309 52.5621 17.5433C51.6128 16.3634 51.5837 14.8467 51.3992 13.4209C50.7795 13.6007 50.1887 13.8776 49.7223 14.3322C49.7886 14.4004 49.9192 14.5388 49.9855 14.6091C49.8902 14.6401 49.7016 14.7041 49.6104 14.7351C49.6601 14.8198 49.7575 14.9955 49.8073 15.0823C51.1008 15.2331 51.4614 16.5618 52.0646 17.4896V17.4917Z" fill="#B0C16C"/>
<path d="M35.4278 15.405C35.5604 15.1157 35.7076 14.8326 35.8568 14.5537C36.0786 15.4009 36.2528 16.2605 36.4538 17.1139C36.5741 16.9259 36.6922 16.7399 36.8104 16.5498C36.8912 16.2027 36.9762 15.8534 37.055 15.5042L37.0633 15.3265C36.8104 14.8884 36.5658 14.4462 36.317 14.0102C36.2237 13.9007 36.0372 13.6817 35.9439 13.5742C35.6682 13.9358 35.3739 14.2975 35.2246 14.7335C35.2764 14.9008 35.378 15.2335 35.4298 15.403L35.4278 15.405Z" fill="#799E66"/>
<path d="M28.8918 14.2227C28.5746 14.3962 28.2575 14.5677 27.9424 14.7434C27.9548 14.981 27.9673 15.2207 27.9818 15.4604C28.1352 15.5162 28.4399 15.6257 28.5933 15.6815C28.8109 15.5286 29.0348 15.384 29.2711 15.2579C29.1426 14.9128 29.0141 14.5677 28.8897 14.2227H28.8918Z" fill="#BBC774"/>
<path d="M35.3986 20.513C35.3032 23.5134 35.183 26.5262 35.382 29.5266C35.3779 28.7269 35.4566 27.9272 35.6349 27.1482C36.0391 27.8632 36.1718 28.6773 36.2837 29.4811C36.4723 28.9873 36.6693 28.4955 36.8351 27.9954C37.1916 24.1912 37.2435 20.3519 36.8102 16.5518C36.6921 16.7419 36.5739 16.9279 36.4537 17.1159C36.2505 16.2625 36.0785 15.4008 35.8567 14.5557C35.7075 14.8346 35.5582 15.1177 35.4276 15.407C35.3343 17.1076 35.4401 18.8103 35.3986 20.5151V20.513Z" fill="#8DAD72"/>
<path d="M35.3989 20.513C35.4404 18.8082 35.3347 17.1055 35.4279 15.4049C35.3761 15.2375 35.2745 14.9048 35.2227 14.7354L35.1129 15.0618C35.1315 15.8223 35.1958 16.5848 35.1833 17.3473C35.1916 18.4982 34.7107 19.5893 34.7605 20.7444C34.7688 23.4204 34.6858 26.0922 34.6962 28.7682C34.6858 31.502 35.5005 34.149 35.6642 36.8684C35.8114 36.8663 36.1037 36.858 36.2529 36.8539C36.1534 34.3867 35.4321 31.9958 35.3803 29.5265C35.1833 26.5261 35.3015 23.5133 35.3968 20.513H35.3989Z" fill="#5D804C"/>
<path d="M39.3457 14.8878C39.3561 15.0014 39.3706 15.2349 39.3789 15.3507C40.0401 15.6668 39.9842 14.6584 39.3457 14.8878Z" fill="#9DA267"/>
<path d="M55.2213 17.217C55.6607 17.029 56.1064 16.8678 56.5604 16.7128C56.6101 16.4111 56.6661 16.1135 56.7241 15.8181C56.4464 15.4606 56.1582 15.1134 55.8639 14.7725C55.4597 15.444 55.014 16.0908 54.6533 16.7872C54.7943 16.8946 55.0803 17.1116 55.2213 17.217Z" fill="#C4CC89"/>
<path d="M34.7619 20.746C34.7101 19.5909 35.191 18.4978 35.1848 17.3489C35.1973 16.5843 35.133 15.8239 35.1143 15.0635C34.7847 15.5635 34.366 15.9954 33.9805 16.4521C34.2852 20.713 34.1007 24.9966 34.3142 29.2657C34.5878 31.7991 34.3577 34.378 34.9755 36.8741C35.1496 36.8741 35.4957 36.8721 35.6678 36.8721C35.504 34.1527 34.6894 31.5057 34.6998 28.7719C34.6873 26.0959 34.7702 23.4241 34.764 20.7481L34.7619 20.746Z" fill="#689056"/>
<path d="M49.8096 15.085C50.249 15.8103 50.0666 16.7174 50.5226 17.4386C51.0346 17.4489 51.5529 17.453 52.0669 17.4923C51.4637 16.5624 51.103 15.2358 49.8096 15.085Z" fill="#CAD18C"/>
<path d="M37.0548 15.5062C37.3803 16.9898 37.3575 18.5148 37.401 20.0254C37.428 22.786 37.5233 25.5509 37.2787 28.3074C37.1502 31.1508 36.6009 33.9838 36.8227 36.8374L37.1771 36.823C37.2766 35.1885 37.4715 33.5622 37.4839 31.9215C37.6104 33.4878 37.3554 35.0665 37.6083 36.6287C37.8384 36.4138 38.0395 36.17 38.0602 35.8414C38.3276 34.4446 38.4706 33.0291 38.6136 31.6157C38.6427 31.0702 38.6945 30.5288 38.7567 29.9894C39.0179 28.0532 39.0904 26.0861 39.5568 24.1829C39.6978 24.2263 39.9817 24.3193 40.1206 24.3627C40.4129 22.3562 41.0244 20.3911 41.0265 18.3474C40.4067 17.961 39.8097 17.5354 39.2293 17.0952C38.8002 19.7567 39.3702 22.4699 38.9287 25.1314C38.9101 22.3397 38.6302 19.5418 38.8292 16.7522C38.3172 16.248 37.8114 15.7355 37.2269 15.3223L37.0631 15.3305L37.0548 15.5082V15.5062Z" fill="#94B675"/>
<path d="M16.5711 18.2664C16.5814 18.1589 16.6022 17.9461 16.6125 17.8386C17.678 17.7601 18.8056 17.8076 19.7633 17.2456C20.2421 17.103 20.2297 16.5451 20.3479 16.1566C19.925 16.2103 19.5083 16.2682 19.0896 16.3302C19.1352 16.2124 19.2306 15.983 19.2783 15.8652C18.2149 16.3281 17.166 16.8364 16.0508 17.1712C16.2145 17.539 16.3762 17.911 16.5731 18.2684L16.5711 18.2664Z" fill="#C1CB81"/>
<path d="M33.9782 16.4523C33.7067 16.7602 33.5325 17.1445 33.5636 17.566C33.5388 18.715 33.5761 19.8639 33.5242 21.0148C33.5077 21.6347 33.4413 22.2526 33.375 22.8704C33.4185 25.4617 33.2921 28.0591 33.5844 30.638C33.8766 32.7106 34.1067 34.7893 34.399 36.8619C34.542 36.864 34.8281 36.8702 34.9732 36.8723C34.3555 34.3761 34.5856 31.7993 34.3119 29.2638C34.0964 24.9947 34.2829 20.7111 33.9782 16.4502V16.4523Z" fill="#5A814C"/>
<path d="M27.6005 17.4056C27.7663 17.5523 27.9363 17.6969 28.1083 17.8436C28.4255 17.6246 28.7447 17.4056 29.0639 17.1886C28.6452 17.046 28.2244 16.9014 27.8098 16.7588C27.0822 17.0068 26.3712 17.294 25.7266 17.7114C25.7805 18.321 25.6561 18.9223 25.4053 19.4802C25.6022 19.505 26.0002 19.5546 26.2013 19.5794C26.7651 19.4058 27.3227 19.2116 27.8865 19.038C27.5859 18.5379 27.3683 17.98 27.6005 17.4056Z" fill="#C7CE86"/>
<path d="M38.9285 25.1292C39.37 22.4677 38.8 19.7545 39.2291 17.093C39.1296 17.0083 38.9285 16.8347 38.829 16.75C38.6321 19.5396 38.9099 22.3375 38.9285 25.1292Z" fill="#6D8C51"/>
<path d="M12.7626 18.7651C12.63 19.0028 12.5035 19.2425 12.3771 19.4842C12.6155 20.0008 12.7357 20.5649 12.3812 21.0629C12.1594 21.0857 11.9376 21.1063 11.7179 21.1332C11.7594 21.4597 11.8526 21.7779 12.089 22.0217C12.2962 21.8399 12.5056 21.6539 12.717 21.4742C12.8953 21.5299 13.0756 21.5857 13.2601 21.6477C13.3928 20.3872 14.8977 19.9616 15.5051 18.9594C15.5921 18.5936 15.6149 18.2175 15.6605 17.8497C16.0606 18.1969 16.413 18.8891 17.0494 18.6659C16.9291 18.5647 16.6887 18.3643 16.5684 18.2651C16.3715 17.9076 16.2098 17.5356 16.0461 17.1678C15.3765 17.3972 14.6821 17.5294 13.9815 17.6245C14.1245 17.4302 14.2717 17.2381 14.4189 17.0459C13.741 17.0624 13.0632 17.1265 12.3916 17.2133C12.6673 17.2939 12.9451 17.3786 13.2207 17.4716C12.2817 17.4984 11.3199 17.4054 10.4141 17.7071C11.2681 17.8043 12.1263 17.8539 12.9824 17.9551C12.4724 18.0936 11.9542 18.2072 11.4443 18.3415C11.2826 18.4076 10.9634 18.5378 10.8017 18.604C11.3945 19.0172 12.0972 18.8932 12.7585 18.7631L12.7626 18.7651ZM13.9338 18.6019C13.8115 18.9573 13.7493 19.7467 13.2021 19.5669C13.1337 19.4388 12.9989 19.1825 12.9305 19.0544C13.2622 18.9015 13.5959 18.7486 13.9338 18.6019Z" fill="#8EA555"/>
<path d="M52.0649 17.4923C51.5508 17.4531 51.0326 17.4489 50.5206 17.4386C49.8282 17.4097 49.1566 17.2237 48.5057 17.0088C48.4477 17.1576 48.3295 17.4572 48.2715 17.6039C49.8303 17.8705 51.3704 18.2858 52.9562 18.3767C52.836 18.0895 52.7075 17.8126 52.5624 17.5419C52.438 17.5295 52.1892 17.5027 52.0649 17.4903V17.4923Z" fill="#A8B967"/>
<path d="M32.8264 32.9067C32.36 31.1606 32.4678 29.3401 32.4657 27.5527C32.4678 26.3149 32.5113 25.0771 32.646 23.8435C32.76 21.7234 32.9342 19.6012 33.2223 17.4956C33.1891 17.4233 33.1145 17.2765 33.0793 17.2021C32.503 17.7001 31.848 18.1031 31.1059 18.2973C30.4405 21.3845 30.6187 24.5564 30.4695 27.689C30.198 27.9267 29.914 28.1457 29.6341 28.3751C30.0466 29.09 30.8986 29.772 30.5877 30.6874C30.8882 31.2597 31.2074 31.8239 31.4976 32.4025C31.1909 32.0946 30.8861 31.7825 30.6146 31.4437C30.5628 31.5635 30.4571 31.8053 30.4032 31.9251C29.3315 31.4623 28.5832 30.5427 27.8286 29.6976C27.7727 30.0055 27.7416 30.3195 27.7126 30.6336C27.5053 30.8527 27.298 31.0758 27.0928 31.2969C27.3146 31.2969 27.5426 31.2969 27.7685 31.299C27.6628 32.0388 27.953 32.7165 28.4132 33.2869C28.6329 33.291 28.8568 33.2993 29.0827 33.3096C28.9169 33.6258 28.749 33.9398 28.5832 34.2581C29.317 35.2148 30.2104 36.0269 31.0769 36.8596C32.1879 36.8968 33.2948 36.8679 34.4038 36.8617C34.1116 34.7891 33.8815 32.7104 33.5892 30.6378C33.5353 31.4457 33.5166 32.3508 32.8305 32.9067H32.8264Z" fill="#789F63"/>
<path d="M32.8383 28.7847C32.8673 26.801 32.9585 24.8152 33.3752 22.8687C33.4415 22.2508 33.5078 21.633 33.5244 21.0131C33.4166 19.8476 33.7545 18.5809 33.2218 17.4961C32.9336 19.6017 32.7616 21.7239 32.6455 23.844C32.7927 25.4889 32.6414 27.144 32.8383 28.7847Z" fill="#A3BF82"/>
<path d="M17.2068 19.3993C17.4638 19.5687 17.725 19.7382 17.9841 19.9076C17.8494 19.3704 17.5136 18.9509 17.0493 18.6678C16.4129 18.8889 16.0605 18.1987 15.6604 17.8516C15.6148 18.2194 15.592 18.5955 15.505 18.9612C14.8976 19.9634 13.3927 20.3891 13.26 21.6496C13.0756 21.5896 12.8931 21.5318 12.7169 21.476C12.5076 21.6558 12.2982 21.8417 12.0889 22.0236C12.2671 22.2571 12.4309 22.503 12.576 22.7572C12.6672 22.9369 12.7543 23.125 12.8434 23.3089C13.1087 22.815 13.316 22.1703 13.9234 22.0009C14.4001 22.1434 14.7214 22.5485 15.0821 22.8667C15.2728 22.4079 15.4532 21.9409 15.6522 21.4843C15.733 21.2611 16.0336 20.699 16.301 21.0462C16.7259 22.253 15.4283 22.9783 15.0137 23.9681C15.3454 24.2036 15.675 24.4454 16.0045 24.6872C15.2687 25.1583 14.8147 25.9063 14.4706 26.6895C14.879 26.7618 15.4469 27.1875 14.8292 27.4726C14.2861 27.1462 13.7223 27.0098 13.1896 27.4499C13.5606 27.4747 13.9358 27.4995 14.3089 27.5243C13.7306 27.8962 13.1149 28.2062 12.4848 28.4748C12.605 28.512 12.8434 28.5823 12.9636 28.6174C15.2044 28.2723 17.2047 26.6791 18.009 24.5673C18.123 23.842 17.7022 23.1477 17.7313 22.4121C17.5302 21.7694 17.2358 21.1392 17.2255 20.4573C17.213 20.1019 17.211 19.7485 17.2027 19.3972L17.2068 19.3993Z" fill="#B2C277"/>
<path d="M58.1898 20.6928C58.2126 20.4138 58.2354 20.1349 58.2602 19.86C58.0405 19.7216 57.8249 19.5852 57.6114 19.4488C57.3316 18.3123 55.922 19.0624 55.2587 18.3681C54.9125 18.3702 54.5684 18.3578 54.2264 18.3516C55.1053 18.769 56.1003 19.1265 56.6413 19.9902C55.7417 20.0357 55.1012 19.3951 54.4379 18.9033C54.3259 19.0128 54.1041 19.2318 53.9922 19.3414C54.2181 19.672 54.4482 20.0026 54.6783 20.3353C54.5684 20.3477 54.3487 20.3725 54.2409 20.3849C54.4254 20.9655 54.5954 21.5565 54.7882 22.1392C55.1302 21.4139 55.8909 21.0689 56.4962 20.6019C57.2673 21.0027 58.0032 21.4656 58.679 22.0111C58.679 22.2136 58.6831 22.4182 58.6914 22.6207C59.2283 22.6744 59.7672 22.7302 60.3083 22.7426L60.6772 22.5938C60.5218 22.2674 60.4306 21.9037 60.1963 21.6268C59.4895 21.3974 58.7536 21.2011 58.1877 20.6928H58.1898Z" fill="#BCC978"/>
<path d="M11.4633 19.8514C11.7079 20.37 11.0674 20.618 10.7792 20.9342C10.5574 20.7875 10.3356 20.6469 10.1159 20.5064C10.1905 20.7854 10.2693 21.0644 10.3502 21.3454C10.7689 21.2896 11.1897 21.2359 11.6167 21.1925C11.5151 21.8806 10.7378 21.9157 10.2548 22.2257C9.99154 22.5687 10.3481 22.8683 10.5284 23.1452C10.9223 22.9654 11.3161 22.7918 11.7183 22.6327C12.0043 22.6761 12.2883 22.7175 12.5764 22.7567C12.4293 22.5005 12.2676 22.2567 12.0893 22.0232C11.853 21.7793 11.7597 21.4611 11.7183 21.1346C11.938 21.1077 12.1598 21.085 12.3816 21.0644C12.736 20.5664 12.6158 20.0022 12.3774 19.4856C12.5039 19.2418 12.6303 19.0042 12.763 18.7665C12.1017 18.8988 11.399 19.0228 10.8062 18.6074C9.9646 18.9938 9.18105 19.5414 8.43066 20.0911C8.65039 20.182 8.87011 20.275 9.08984 20.3783C9.82986 20.0312 10.6238 19.6365 11.4633 19.8535V19.8514Z" fill="#A5B867"/>
<path d="M13.9339 18.6016C13.5981 18.7483 13.2623 18.9012 12.9307 19.0541C12.9991 19.1822 13.1338 19.4384 13.2022 19.5666C13.7495 19.7463 13.8116 18.957 13.9339 18.6016Z" fill="#AEBD73"/>
<path d="M17.7153 18.6244C17.6697 18.9798 18.2915 18.9426 18.4574 18.738C18.4885 18.3909 17.877 18.4115 17.7153 18.6244Z" fill="#B9C17F"/>
<path d="M52.058 19.7235C52.4995 19.6657 52.941 19.7463 53.3763 19.8331C53.8262 20.9179 54.4957 21.9036 54.8564 23.0256C54.9289 22.9533 55.0782 22.8086 55.1507 22.7363C55.0595 22.5875 54.8771 22.2921 54.788 22.1412C54.5952 21.5606 54.4273 20.9696 54.2407 20.3868C54.3485 20.3744 54.5683 20.3497 54.6781 20.3373C54.448 20.0046 54.22 19.6739 53.992 19.3433C54.1039 19.2338 54.3257 19.0148 54.4377 18.9052C53.9878 18.68 53.4904 18.6222 53.0012 18.585C53.0012 19.3537 52.3378 19.5851 51.6766 19.5686C51.6103 19.6636 51.4755 19.8537 51.4092 19.9446C51.5729 19.8909 51.8963 19.7793 52.058 19.7235Z" fill="#8CA44C"/>
<path d="M45.1374 21.8478C44.6171 22.9161 43.9538 23.9183 43.0541 24.7077C42.9152 24.7511 42.7784 24.8007 42.6458 24.8503C42.2892 25.1292 41.9099 25.3854 41.5845 25.7057C41.3875 26.0859 41.3627 26.5447 41.0745 26.8815C40.7677 27.2844 40.3386 27.6605 40.3946 28.2226C41.2175 27.5593 41.9327 26.7782 42.681 26.0343C44.0947 24.6767 45.6079 23.4327 47.0797 22.1371C47.9979 21.3725 48.8333 20.5046 49.8407 19.8537C49.4655 19.643 49.0924 19.4281 48.7276 19.2028C48.5307 19.1946 48.3358 19.1904 48.143 19.1904C48.1679 19.3247 48.2156 19.5934 48.2405 19.7298C47.146 20.3393 46.0764 21.0109 45.1374 21.8478Z" fill="#96B473"/>
<path d="M43.5322 22.3127C44.0961 22.7053 44.6454 22.0896 45.1346 21.8478C46.0736 21.0109 47.1432 20.3393 48.2377 19.7298C48.2128 19.5934 48.1651 19.3227 48.1402 19.1904C47.6428 19.2152 47.1743 19.3847 46.7348 19.5996C45.4393 20.2133 44.4733 21.2733 43.5322 22.3148V22.3127Z" fill="#537B43"/>
<path d="M42.6781 26.0343C41.9298 26.7782 41.2147 27.5593 40.3917 28.2226C40.3316 28.4747 40.2632 28.7227 40.1865 28.9727C42.2905 26.9146 44.3924 24.8337 46.799 23.1228C47.4312 22.6847 48.0137 22.0131 48.8512 22.0483C49.4336 21.5379 50.1053 21.1432 50.7251 20.6762C50.9614 20.4406 51.1852 20.1947 51.4091 19.9447C51.4775 19.8517 51.6122 19.6616 51.6765 19.5686C51.0464 19.519 50.3996 19.5314 49.8399 19.8558C48.8325 20.5067 47.9951 21.3767 47.0789 22.1392C45.6071 23.4327 44.0918 24.6788 42.6802 26.0364L42.6781 26.0343Z" fill="#628950"/>
<path d="M14.3136 27.5265C13.9405 27.4997 13.5653 27.4749 13.1942 27.4521C13.7269 27.012 14.2887 27.1484 14.8339 27.4749C15.4516 27.1897 14.8836 26.764 14.4753 26.6917C14.8194 25.9086 15.2733 25.1626 16.0092 24.6894C15.6796 24.4456 15.35 24.2059 15.0184 23.9703C15.4329 22.9805 16.7306 22.2552 16.3056 21.0484C16.0382 20.7013 15.7376 21.2633 15.6568 21.4865C15.4557 21.9411 15.2754 22.4081 15.0868 22.8689C14.7261 22.5507 14.4027 22.1457 13.928 22.0031C13.3207 22.1725 13.1134 22.8172 12.848 23.3111C12.7568 23.1272 12.6698 22.9392 12.5806 22.7594C12.2925 22.7201 12.0065 22.6788 11.7225 22.6354C11.3203 22.7966 10.9244 22.9681 10.5326 23.1479C10.3523 22.871 9.99576 22.5713 10.259 22.2283C10.742 21.9163 11.5173 21.8832 11.6209 21.1951C11.1939 21.2385 10.7752 21.2923 10.3544 21.348C10.2735 21.065 10.1948 20.7881 10.1201 20.5091C10.3399 20.6496 10.5617 20.7922 10.7835 20.9368C11.0716 20.6207 11.71 20.3727 11.4675 19.8541C10.628 19.6371 9.832 20.0318 9.09406 20.3789C8.87433 20.2777 8.65461 20.1826 8.43488 20.0917C6.57551 21.2261 4.93171 23.3235 5.22814 25.6296C5.35044 27.1876 6.88437 28.2043 8.30429 28.4895C9.83408 28.7643 11.4447 29.0639 12.9703 28.6217C12.8501 28.5845 12.6117 28.5143 12.4915 28.4791C13.1237 28.2084 13.7373 27.9005 14.3156 27.5286L14.3136 27.5265Z" fill="#C0CC83"/>
<path d="M39.7167 32.0661C39.6296 32.5104 39.5322 32.9547 39.4141 33.3948C40.7428 31.9917 42.399 30.94 43.7153 29.5204C46.3727 26.8237 49.254 24.3523 51.9405 21.6867C51.9654 21.3974 51.9944 21.1102 52.0275 20.8229C52.0441 20.4551 52.0462 20.0894 52.0566 19.7236C51.8949 19.7794 51.5715 19.891 51.4078 19.9447C51.186 20.1948 50.9621 20.4407 50.7237 20.6762C50.8605 20.6948 51.1362 20.7341 51.2751 20.7548C50.8481 21.6743 50.0542 22.2921 49.2644 22.8811C47.8963 24.3606 46.3872 25.7017 44.8492 27.0014C44.2542 27.5098 43.7588 28.233 42.9214 28.3342C43.4272 26.8878 44.8243 26.1129 45.8462 25.0756C46.8246 24.0424 48.0041 23.2034 48.8498 22.0504C48.0124 22.0173 47.4299 22.6868 46.7977 23.1249C44.391 24.8338 42.2891 26.9167 40.1852 28.9748C40.0173 29.1505 39.8431 29.3199 39.667 29.4852C39.7685 30.3324 39.2088 31.2995 39.7126 32.0682L39.7167 32.0661Z" fill="#A0BD78"/>
<path d="M52.0583 19.7236C52.048 20.0893 52.0459 20.4551 52.0293 20.8229C52.0936 20.9737 52.22 21.2754 52.2822 21.4283C52.3879 21.3994 52.5973 21.3415 52.7009 21.3147C52.8978 21.8664 52.96 22.5504 53.4948 22.9079C53.8638 23.2633 54.3882 23.2757 54.8691 23.3211C54.8671 23.2488 54.8588 23.1 54.8567 23.0277C54.496 21.9036 53.8244 20.92 53.3767 19.8351C52.9414 19.7484 52.4998 19.6678 52.0583 19.7256V19.7236Z" fill="#C9D389"/>
<path d="M25.165 23.1457C25.99 22.8296 26.7218 23.4247 27.3291 23.902C26.9788 24.1273 26.6264 24.3546 26.2782 24.5839C26.9705 25.7618 27.8308 26.828 28.6205 27.9439C29.2921 26.5015 27.6193 25.6894 26.9 24.7265C27.2607 24.6687 27.6255 24.6149 27.9904 24.5612C28.0878 24.2368 28.1873 23.9144 28.2909 23.5941C27.4742 22.3357 26.8005 20.9471 25.6667 19.9346C24.9142 20.3065 24.1099 20.5628 23.3057 20.7983C23.7223 21.7282 24.3815 22.5072 25.1671 23.1499L25.165 23.1457Z" fill="#90B272"/>
<path d="M25.2578 34.4586C24.7395 33.5246 23.7777 32.6567 23.8275 31.5326C23.4046 30.8507 22.8781 30.2432 22.2666 29.7287L22.0966 29.9188C21.0125 28.6169 20.43 27.0114 19.5988 25.5587C18.7116 24.0647 18.2514 22.3661 17.8534 20.6903C17.698 20.6345 17.385 20.5167 17.2295 20.4609C17.2399 21.1449 17.5342 21.7752 17.7353 22.4157C18.4504 24.9057 19.5221 27.2697 20.6829 29.582C21.4976 31.1669 22.6148 32.5658 23.699 33.9771C23.9643 34.3036 24.2483 34.6198 24.5115 34.9504C24.7002 34.8285 25.0733 34.5826 25.2598 34.4607L25.2578 34.4586Z" fill="#739C5B"/>
<path d="M58.6789 22.0108C58.0031 21.4653 57.2652 21.0045 56.4961 20.6016C55.8909 21.0686 55.1301 21.4137 54.7881 22.139C54.8793 22.2898 55.0617 22.5874 55.1508 22.7341C55.4369 22.4923 55.6276 22.1741 55.7851 21.8435C55.9116 22.4489 56.4194 22.6865 56.9812 22.8085C56.9543 23.0089 56.9294 23.2093 56.9086 23.4118C57.6818 23.7053 58.5089 23.728 59.3298 23.7032C59.6448 23.3705 59.9807 23.0585 60.3102 22.7403C59.7692 22.7279 59.2303 22.6721 58.6934 22.6184C58.6851 22.4138 58.681 22.2092 58.681 22.0088L58.6789 22.0108ZM56.2101 21.5314C56.3759 21.5273 56.7055 21.5211 56.8693 21.517C56.8962 21.8621 56.9232 22.2092 56.9501 22.5605C56.606 22.3167 55.98 22.0563 56.2101 21.5314Z" fill="#D1D894"/>
<path d="M30.4905 36.8557C30.6376 36.8578 30.9278 36.8578 31.0729 36.8599C30.2065 36.025 29.3131 35.2129 28.5793 34.2583C27.7646 33.2313 27.0723 32.1175 26.3053 31.0575C24.5123 28.5799 23.2271 25.7716 22.1824 22.9138C21.8942 22.3146 21.5626 21.7381 21.2205 21.1719L21.0713 21.2132C22.0642 24.2467 23.4033 27.185 25.0512 29.9209C26.6598 32.382 28.3595 34.81 30.4905 36.8557Z" fill="#3D5A32"/>
<path d="M22.0967 29.919L22.2667 29.7289C21.2489 28.2638 20.6851 26.5591 19.9554 24.9514C19.375 23.6765 19.1864 22.2775 19.0724 20.8972C18.948 20.8559 18.6993 20.7732 18.5728 20.7319C18.5583 20.8269 18.5272 21.015 18.5127 21.1059C18.293 20.9633 18.0732 20.8207 17.8535 20.6885C18.2515 22.3643 18.7096 24.0649 19.5989 25.5569C20.4301 27.0116 21.0147 28.6172 22.0967 29.9169V29.919Z" fill="#AEC581"/>
<path d="M24.3414 24.9727C25.5664 26.4666 26.6754 28.0495 27.8839 29.5559C28.0643 29.1385 28.2529 28.7211 28.4312 28.3016C26.6381 25.9211 25.042 23.396 23.1059 21.1209V20.8213C22.4716 20.8957 21.8394 21.0114 21.2217 21.1746C21.5637 21.7408 21.8954 22.3173 22.1835 22.9166C22.8883 23.6171 23.7154 24.1957 24.3434 24.9747L24.3414 24.9727Z" fill="#A5BF7F"/>
<path d="M45.8477 25.0732C44.8258 26.1125 43.4266 26.8854 42.9229 28.3318C43.7603 28.2306 44.2557 27.5074 44.8506 26.999C46.3908 25.6993 47.8978 24.3582 49.2659 22.8787C50.0556 22.2897 50.8495 21.6719 51.2766 20.7524C51.1377 20.7338 50.862 20.6945 50.7252 20.6738C50.1054 21.1408 49.4338 21.5355 48.8513 22.0459C48.0056 23.1989 46.8261 24.0379 45.8477 25.0711V25.0732Z" fill="#C4D395"/>
<path d="M22.2666 29.7291C22.8781 30.2457 23.4067 30.8532 23.8275 31.533C24.2379 32.1157 24.7001 32.6695 25.3033 33.0663C24.9468 32.2459 24.4037 31.5372 23.8959 30.8098C22.8325 29.2993 21.9349 27.6771 21.1617 26.0034C20.4466 24.4102 20.3533 22.598 19.5387 21.0544C19.4247 21.0151 19.1904 20.9387 19.0723 20.8994C19.1863 22.2818 19.3749 23.6787 19.9553 24.9537C20.685 26.5613 21.2488 28.2661 22.2666 29.7311V29.7291Z" fill="#698E58"/>
<path d="M23.8963 30.8101C24.2797 30.5125 24.6653 30.2191 25.0509 29.9215C23.4029 27.1856 22.0638 24.2472 21.0709 21.2138C20.5796 21.0071 20.0614 20.9348 19.5391 21.0526C20.3537 22.5962 20.447 24.4084 21.1621 26.0016C21.9353 27.6754 22.8329 29.2975 23.8963 30.808V30.8101Z" fill="#B0C584"/>
<path d="M51.9402 21.6869C51.9319 21.8067 51.9215 22.0444 51.9132 22.1663C51.6976 22.4101 51.4883 22.656 51.2686 22.8936C51.5836 23.2222 51.907 23.5384 52.2573 23.8359C52.247 23.0342 52.3029 22.2303 52.2822 21.4306C52.2179 21.2777 52.0915 20.976 52.0293 20.8252C51.9961 21.1124 51.965 21.3996 51.9422 21.6889L51.9402 21.6869Z" fill="#8AA967"/>
<path d="M56.9092 23.414C56.932 23.2115 56.9548 23.0111 56.9818 22.8106C56.42 22.6887 55.9122 22.4511 55.7857 21.8456C55.6261 22.1762 55.4375 22.4945 55.1514 22.7362C55.0789 22.8086 54.9296 22.9532 54.8571 23.0255C54.8591 23.0979 54.8674 23.2466 54.8695 23.319C54.3886 23.2735 53.8642 23.2611 53.4952 22.9057C52.9604 22.5482 52.9003 21.8642 52.7013 21.3125C52.5956 21.3394 52.3862 21.3972 52.2826 21.4262C52.3054 22.2258 52.2494 23.0297 52.2577 23.8314C52.2805 23.9575 52.3219 24.2116 52.3406 24.3377C52.4318 24.3645 52.6142 24.4183 52.7033 24.4451C52.7863 24.4575 52.95 24.4844 53.0329 24.4968C53.1138 24.5092 53.2713 24.5361 53.3522 24.5485C53.8041 25.344 54.797 25.5775 55.6427 25.6746C57.0315 25.499 58.5219 24.8997 59.3262 23.7074C58.5053 23.7322 57.6783 23.7095 56.9051 23.4161L56.9092 23.414Z" fill="#E0E3A9"/>
<path d="M56.2104 21.532C55.9783 22.0569 56.6063 22.3173 56.9504 22.5611C56.9235 22.2119 56.8965 21.8627 56.8696 21.5176C56.7058 21.5217 56.3763 21.5279 56.2104 21.532Z" fill="#8E9C54"/>
<path d="M43.417 32.8781C41.8706 33.8699 40.4528 35.0436 38.9396 36.0809C39.2567 35.4796 39.3832 34.8122 39.6112 34.1799C40.1377 33.2438 41.0477 32.6156 41.8312 31.911C43.2242 30.5761 44.5612 29.1813 45.9355 27.8257C47.6892 26.154 49.5734 24.6208 51.2711 22.8933C51.4909 22.6557 51.7002 22.4098 51.9158 22.1659C51.9241 22.044 51.9345 21.8064 51.9427 21.6865C49.2563 24.3522 46.375 26.8236 43.7176 29.5202C42.3992 30.9398 40.745 31.9916 39.4163 33.3946C39.2484 34.0022 39.0494 34.6076 38.697 35.1366C38.8484 33.9608 38.9333 32.7727 38.6162 31.6155C38.4732 33.0289 38.3301 34.4444 38.0627 35.8412C38.0441 36.1698 37.8409 36.4157 37.6108 36.6285C37.358 35.0663 37.6129 33.4876 37.4865 31.9213C37.474 33.56 37.2792 35.1883 37.1797 36.8228C37.7912 36.8269 38.4048 36.8682 39.0183 36.8641C41.0663 35.616 42.7101 33.8389 44.698 32.5185C46.0495 31.2125 47.4715 29.9727 48.6966 28.5469L48.3774 28.5283C46.8808 30.1401 45.3012 31.7209 43.417 32.8822V32.8781Z" fill="#5B884C"/>
<path d="M40.1871 28.9725C40.2617 28.7246 40.3302 28.4766 40.3923 28.2224C40.3364 27.6604 40.7655 27.2864 41.0722 26.8814C41.3604 26.5466 41.3853 26.0858 41.5822 25.7056C41.9076 25.3853 42.287 25.1291 42.6435 24.8501C42.7762 24.7985 42.9109 24.7509 43.0518 24.7075C43.9515 23.9161 44.6169 22.916 45.1351 21.8477C44.6438 22.0894 44.0966 22.7031 43.5328 22.3126C42.1916 23.6351 40.9562 25.0609 39.843 26.5817C39.9135 25.8378 39.9943 25.096 40.1208 24.3604C39.9819 24.317 39.6979 24.224 39.557 24.1806C39.0906 26.0817 39.018 28.0509 38.7568 29.9871C39.0615 29.8218 39.3663 29.6565 39.6689 29.4829C39.8451 29.3176 40.0171 29.1482 40.1871 28.9725Z" fill="#85A969"/>
<path d="M28.4108 33.2873C27.9527 32.719 27.6625 32.0392 27.7661 31.2994C27.5402 31.2974 27.3121 31.2974 27.0903 31.2974C27.2956 31.0763 27.5028 30.8531 27.7101 30.6341C27.7392 30.32 27.7702 30.0059 27.8262 29.698L27.8822 29.5554C26.6737 28.049 25.5647 26.4662 24.3396 24.9722C23.7136 24.1932 22.8845 23.6146 22.1797 22.9141C23.2244 25.7719 24.5096 28.578 26.3026 31.0577C27.0696 32.1177 27.762 33.2315 28.5766 34.2585C28.7424 33.9403 28.9103 33.6262 29.0762 33.31C28.8523 33.2997 28.6263 33.2935 28.4066 33.2873H28.4108Z" fill="#7DA268"/>
<path d="M25.165 23.1453C25.5838 23.5833 25.9507 24.0689 26.2782 24.5835C26.6264 24.3541 26.9788 24.1289 27.3291 23.9016C26.7218 23.4242 25.99 22.8291 25.165 23.1453Z" fill="#B3CC8C"/>
<path d="M32.6458 23.8463C32.511 25.0799 32.4675 26.3177 32.4654 27.5555C32.4675 29.3429 32.3597 31.1634 32.8261 32.9095C33.5122 32.3515 33.5309 31.4485 33.5848 30.6406C33.2925 28.0597 33.4189 25.4622 33.3754 22.873C32.9588 24.8196 32.8676 26.8033 32.8385 28.7891C32.6416 27.1505 32.7929 25.4932 32.6458 23.8484V23.8463Z" fill="#8DAD70"/>
<path d="M51.271 22.8918C49.5733 24.6193 47.689 26.1526 45.9354 27.8243C44.561 29.1819 43.224 30.5746 41.8311 31.9095C42.3928 32.172 42.9318 32.4881 43.4168 32.8766C45.3011 31.7173 46.8806 30.1345 48.3772 28.5227C48.7524 28.064 49.1794 27.6424 49.6831 27.318C50.7051 26.3737 51.6503 25.3488 52.7054 24.4437C52.6142 24.4168 52.4318 24.3631 52.3426 24.3362C52.324 24.2102 52.2825 23.956 52.2597 23.83C51.9115 23.5324 51.586 23.2163 51.271 22.8877V22.8918Z" fill="#9FBC7B"/>
<path d="M29.6344 28.3735C29.9122 28.1441 30.1982 27.9251 30.4698 27.6875C29.8603 26.2617 29.0934 24.9123 28.2932 23.5898C28.1917 23.9101 28.0901 24.2346 27.9927 24.5569C27.6258 24.6106 27.263 24.6644 26.9023 24.7222C27.6216 25.6852 29.2944 26.4972 28.6228 27.9396C29.253 28.8736 29.9578 29.7539 30.59 30.6858C30.8989 29.7683 30.049 29.0885 29.6365 28.3735H29.6344Z" fill="#82A56A"/>
<path d="M48.3766 28.5248L48.6959 28.5434C47.4708 29.9692 46.0488 31.209 44.6973 32.515C45.23 32.5191 45.7005 32.2794 46.1421 32.0108C46.3742 32.3042 46.625 32.579 46.9007 32.8435C47.7962 31.9364 48.7518 31.0933 49.6432 30.1779C49.6971 30.1593 49.809 30.12 49.865 30.0994L49.9665 30.0663C50.7376 28.624 51.6704 27.2643 52.34 25.7744C51.2911 26.01 50.6547 26.9419 49.6805 27.3221C49.1788 27.6466 48.7518 28.066 48.3746 28.5268L48.3766 28.5248Z" fill="#93B474"/>
<path d="M36.8353 27.9957C36.6694 28.4957 36.4725 28.9875 36.2839 29.4814C36.1719 28.6796 36.0393 27.8634 35.6351 27.1484C35.4568 27.9275 35.3759 28.7272 35.3822 29.5268C35.4361 31.9982 36.1554 34.389 36.2548 36.8542L36.4476 36.846C36.002 33.8869 36.7876 30.9506 36.8353 27.9936V27.9957Z" fill="#7D9F64"/>
<path d="M30.4007 31.9253C30.4546 31.8055 30.5624 31.5637 30.6121 31.4439C29.9136 30.3735 29.1818 29.3279 28.4294 28.2988C28.2511 28.7204 28.0625 29.1357 27.8821 29.5531L27.8262 29.6957C28.5807 30.5429 29.329 31.4625 30.4007 31.9233V31.9253Z" fill="#91B374"/>
<path d="M38.694 35.137C39.0485 34.6101 39.2454 34.0046 39.4133 33.3951C39.5294 32.9549 39.6289 32.5127 39.7159 32.0664C39.2102 31.2977 39.7719 30.3306 39.6703 29.4834C39.3677 29.657 39.063 29.8223 38.7583 29.9876C38.694 30.5269 38.6443 31.0704 38.6152 31.6138C38.9324 32.771 38.8474 33.9613 38.6961 35.135L38.694 35.137Z" fill="#6B9256"/>
<path d="M23.8966 30.8096C24.4044 31.5369 24.9475 32.2478 25.3041 33.066C24.7009 32.6693 24.2386 32.1176 23.8282 31.5328C23.7764 32.6569 24.7402 33.5248 25.2585 34.4588C25.9487 35.3143 26.8339 35.9941 27.5034 36.8765C28.4963 36.9075 29.4913 36.8847 30.4904 36.8537C28.3595 34.808 26.6597 32.38 25.0512 29.9189C24.6656 30.2165 24.2801 30.5099 23.8966 30.8075V30.8096Z" fill="#84A66A"/>
<path d="M39.6111 34.18C39.3851 34.8123 39.2566 35.4818 38.9395 36.0811C40.4527 35.0417 41.8705 33.8701 43.4169 32.8782C42.9318 32.4897 42.3929 32.1736 41.8311 31.9111C41.0476 32.6158 40.1376 33.244 39.6111 34.18Z" fill="#85A567"/>
<path d="M40.508 36.7633C43.1509 36.6125 45.1347 34.6039 46.9007 32.8454C46.6251 32.583 46.3742 32.3082 46.1421 32.0127C45.7006 32.2793 45.23 32.521 44.6973 32.5169C42.7094 33.8373 41.0635 35.6165 39.0176 36.8625C39.513 36.8439 40.0105 36.8026 40.508 36.7633Z" fill="#7BA169"/>
<path d="M46.1818 34.2528C46.4575 35.0815 45.6449 35.6807 45.3506 36.3812C46.3808 35.8646 46.9301 34.8149 47.6245 33.9553C48.974 33.8354 50.3255 33.978 51.6667 34.0338C51.6273 33.9904 51.5526 33.9057 51.5133 33.8602C50.2301 33.8995 48.945 33.9036 47.6598 33.8747C47.8961 33.2568 48.3397 32.7568 48.6361 32.1699C47.5789 32.5439 47.0379 33.5999 46.1818 34.2528Z" fill="#84B382"/>
<path d="M25.9714 36.8293C25.418 36.2527 24.9744 35.5915 24.5101 34.9489C24.2468 34.6182 23.9628 34.3021 23.6975 33.9756C17.8271 34.019 11.9546 34.3207 6.13189 35.0832C5.56392 35.1679 4.85292 35.1369 4.54199 35.7237C6.04898 35.7568 7.54974 35.9242 9.05258 36.0316C14.6722 36.5978 20.3228 36.9119 25.9714 36.8293Z" fill="#A64442"/>
<path d="M47.6242 33.9568C46.9298 34.8144 46.3805 35.8662 45.3503 36.3828C45.3067 36.4489 45.2155 36.5832 45.1699 36.6473C49.5665 36.6638 53.9527 36.2939 58.3431 36.0708C61.328 35.8786 64.2881 35.4405 67.271 35.2339C66.6388 34.8454 65.8822 34.8247 65.1732 34.7214C61.6949 34.2399 58.1752 34.2131 54.672 34.025C53.6708 34.0126 52.6613 33.8618 51.6684 34.0354C50.3272 33.9796 48.9757 33.8391 47.6263 33.9568H47.6242Z" fill="#A13D41"/>
<path d="M45.3502 36.3803C45.6446 35.6798 46.4571 35.0806 46.1814 34.252C45.1595 35.062 44.1085 35.8348 43.041 36.587C43.6795 36.618 44.3221 36.6407 44.9667 36.6448H45.1699C45.2155 36.5787 45.3067 36.4444 45.3502 36.3803Z" fill="#75A670"/>
<path d="M25.2581 34.459C25.0694 34.5809 24.6963 34.8268 24.5098 34.9487C24.9741 35.5914 25.4177 36.2526 25.9711 36.8291C26.1059 36.8333 26.3754 36.8436 26.5101 36.8477C26.7588 36.856 27.2543 36.8705 27.503 36.8767C26.8335 35.9943 25.9483 35.3145 25.2581 34.459Z" fill="#658C50"/>
<path d="M45.1701 36.6478H44.967C43.4787 36.656 41.9903 36.6519 40.5062 36.7635C40.0087 36.8028 39.5112 36.8441 39.0158 36.8627C38.4001 36.8668 37.7886 36.8255 37.1771 36.8214L36.8226 36.8358C36.7294 36.8379 36.5387 36.8462 36.4475 36.8482L36.2547 36.8565C36.1054 36.8606 35.8131 36.8689 35.666 36.8709C35.4919 36.8709 35.1457 36.873 34.9736 36.873C34.8306 36.871 34.5445 36.8648 34.3994 36.8627C33.2884 36.8668 32.1815 36.8957 31.0725 36.8606C30.9253 36.8586 30.6351 36.8586 30.49 36.8565C29.4929 36.8854 28.4959 36.9102 27.503 36.8792C27.2542 36.871 26.7588 36.8565 26.5101 36.8503C26.9785 36.9495 27.4387 37.0714 27.9051 37.1954C27.1298 37.9186 26.0416 37.5281 25.1129 37.4392C23.152 37.1685 21.1765 37.6438 19.2156 37.4123C18.4175 37.3318 17.6174 37.3421 16.8193 37.3586C17.0826 37.402 17.3458 37.4537 17.6132 37.5115C17.6008 40.5181 17.5531 43.5247 17.6506 46.5272C17.9138 50.726 18.1771 54.9787 19.4519 59.0143C20.449 61.963 21.7113 64.8477 23.5002 67.408C25.2601 69.838 27.3309 72.2991 30.264 73.3137C33.8356 74.7684 37.7596 74.3985 41.526 74.4894C45.0105 74.4605 48.522 74.7229 51.9816 74.1712C54.1022 73.8261 56.1979 73.3199 58.2521 72.6896C59.2574 72.4334 60.2213 71.9726 61.2744 71.9437C61.4962 71.9313 61.5397 71.6172 61.6889 71.4911C63.7784 68.2655 65.4802 64.7899 66.7094 61.1489C67.6443 58.2952 68.6352 55.3981 68.8569 52.3874C68.7637 51.2447 68.7657 50.0958 68.8963 48.9572C69.1285 46.9218 68.602 44.8906 68.8549 42.8552C68.6455 40.2722 68.1294 37.6872 67.2712 35.2344C64.2904 35.441 61.3282 35.8791 58.3433 36.0713C53.9529 36.2944 49.5667 36.6643 45.1701 36.6478ZM19.1762 48.1017C19.9162 47.269 20.7723 46.5127 21.7797 46.025C22.1777 45.7461 22.6255 46.0147 22.9406 46.2854C22.3622 46.9549 21.4812 47.2297 20.8469 47.8352C20.194 48.3311 19.6944 49.1453 18.8072 49.2259C18.8591 48.8312 18.8653 48.3931 19.1762 48.1017ZM22.4596 56.5181C21.4895 56.9686 20.2458 56.5202 19.7172 55.613C18.9026 54.2802 19.2778 52.342 20.6148 51.4947C21.4978 51.1414 22.6213 51.3274 23.2701 52.0485C24.5367 53.2987 24.1553 55.8321 22.4596 56.5161V56.5181ZM41.866 62.4238C39.4158 64.3414 36.0557 64.8725 33.0624 64.1637C31.2611 63.7195 29.5054 62.8185 28.3549 61.3328C27.7704 60.5786 27.1402 59.7024 27.2667 58.7002C27.6522 58.661 27.9839 58.7808 28.0937 59.1796C28.8918 60.9526 30.3926 62.397 32.2291 63.0685C34.9197 64.0356 38.0809 63.8186 40.529 62.304C42.123 61.339 43.1781 59.7065 43.8414 58.0059C44.0508 58.0472 44.2643 58.0906 44.4778 58.1402C44.2581 59.8574 43.1864 61.3555 41.8618 62.4238H41.866ZM51.111 55.1605C50.7856 56.8136 48.3458 57.2868 47.2948 56.0614C46.8409 55.4622 46.7269 54.6976 46.5237 53.9971C46.5134 53.5901 46.4947 53.1685 46.6833 52.7924C47.0648 52.1911 47.5249 51.4183 48.3396 51.4348C50.1948 51.3976 51.6189 53.4123 51.111 55.1605ZM48.6256 47.6802C48.0203 47.3971 46.9818 47.3392 47.0855 46.43C48.2546 46.4383 49.3511 46.9198 50.3772 47.4364C50.9431 47.7897 51.7101 48.1596 51.7267 48.9242C50.5824 48.8518 49.6994 47.9984 48.6256 47.6781V47.6802ZM58.6708 39.3093C59.2346 38.7162 60.1281 38.5943 60.8867 38.3732C62.5015 37.8793 64.1494 38.7266 65.2087 39.9168C66.8919 42.0224 67.607 44.8348 67.294 47.4963C67.0971 49.1205 65.816 50.5421 64.1826 50.8211C63.1627 50.9327 62.3916 50.0772 61.9232 49.2837C60.7541 47.2091 60.5862 44.7625 59.6098 42.6093C59.2554 41.5389 58.3682 40.4768 58.6708 39.3093Z" fill="#D87D76"/>
<path d="M16.8212 37.3561C17.6193 37.3395 18.4194 37.3292 19.2175 37.4098C21.1784 37.6412 23.1539 37.166 25.1148 37.4367C26.0414 37.5276 27.1297 37.9161 27.907 37.1928C27.4406 37.0688 26.9804 36.9469 26.512 36.8477C26.3772 36.8436 26.1077 36.8333 25.973 36.8291C20.3244 36.9118 14.6737 36.5977 9.05415 36.0315C7.55131 35.922 6.05054 35.7567 4.54356 35.7236C4.51039 35.8662 4.44613 36.1514 4.41504 36.296C5.10945 37.042 6.18113 36.9428 7.11393 36.9883C10.3497 37.1494 13.5875 37.2548 16.8254 37.3581L16.8212 37.3561Z" fill="#DC9286"/>
<path d="M51.98 74.1687C48.5203 74.7204 45.0089 74.458 41.5244 74.4869C37.7579 74.396 33.834 74.7659 30.2624 73.3111C27.3293 72.2965 25.2585 69.8355 23.4986 67.4054C21.7097 64.8452 20.4494 61.9605 19.4503 59.0118C18.1775 54.9761 17.9122 50.7235 17.6489 46.5246C17.5515 43.5201 17.5992 40.5156 17.6116 37.509C17.3463 37.4511 17.083 37.3995 16.8177 37.3561C13.5799 37.2548 10.342 37.1474 7.10625 36.9862C6.17345 36.9407 5.10384 37.0399 4.40735 36.2939C3.79171 38.35 3.51187 40.4846 3.27349 42.6129C2.91488 46.7519 2.93354 50.9549 3.69843 55.0505C4.47576 58.6873 5.6573 62.2394 7.25135 65.6056C9.58956 70.2198 12.4336 74.5737 15.7128 78.5763C16.0279 79.1714 16.7431 79.2313 17.338 79.3222C21.5501 79.8719 25.8016 79.9091 30.0406 79.969C34.4268 80.0331 38.8151 79.9814 43.1992 79.876C47.4383 79.7851 51.6898 79.6425 55.8956 79.1073C56.447 78.6796 56.8036 78.0535 57.27 77.5431C58.6837 75.7329 60.1285 73.9331 61.2706 71.937C60.2176 71.9659 59.2537 72.4288 58.2484 72.6829C56.1941 73.3132 54.0985 73.8195 51.9779 74.1645L51.98 74.1687Z" fill="#CE6860"/>
<path d="M61.9235 49.2855C62.392 50.079 63.1631 50.9345 64.1829 50.8229C65.8143 50.5439 67.0953 49.1223 67.2943 47.4981C67.6073 44.8366 66.8922 42.0263 65.209 39.9186C64.1498 38.7263 62.5039 37.8812 60.8871 38.375C60.1284 38.5961 59.235 38.718 58.6711 39.3111C58.3685 40.4786 59.2578 41.5407 59.6102 42.6111C60.5865 44.7643 60.7544 47.2109 61.9235 49.2855Z" fill="#DA9786"/>
<path d="M22.9409 46.2846C22.6259 46.0139 22.1781 45.7452 21.7801 46.0242C20.7727 46.5139 19.9166 47.2702 19.1766 48.1009C18.8677 48.3923 18.8594 48.8303 18.8076 49.225C19.6948 49.1444 20.1944 48.3303 20.8473 47.8343C21.4816 47.2289 22.3626 46.9541 22.9409 46.2846Z" fill="#2E2727"/>
<path d="M50.3773 47.436C49.3533 46.9174 48.2547 46.4359 47.0856 46.4297C46.9799 47.3389 48.0205 47.3968 48.6258 47.6798C49.6995 47.9981 50.5826 48.8515 51.7268 48.9259C51.7102 48.1593 50.9432 47.7894 50.3773 47.4381V47.436Z" fill="#2F2825"/>
<path d="M20.6146 51.4944C19.2776 52.3416 18.9024 54.2799 19.717 55.6127C20.2456 56.5199 21.4893 56.9683 22.4594 56.5178C24.1551 55.8338 24.5365 53.3004 23.2699 52.0503C22.6211 51.327 21.4976 51.1431 20.6146 51.4965V51.4944ZM21.6406 54.003C20.6809 54.5423 19.8787 52.8996 20.8053 52.4119C21.7505 51.9759 22.8201 53.6166 21.6406 54.003Z" fill="#2F282A"/>
<path d="M48.3393 51.4341C47.5246 51.4176 47.0624 52.1904 46.6831 52.7917C47.2863 52.6677 47.9517 52.6512 48.503 52.9653C48.8347 53.2649 48.6937 53.8662 48.3393 54.1018C47.7381 54.2754 47.1163 54.1039 46.5234 53.9964C46.7266 54.6969 46.8406 55.4635 47.2945 56.0607C48.3455 57.2861 50.7853 56.815 51.1107 55.1598C51.6186 53.4116 50.1924 51.3969 48.3393 51.4341Z" fill="#2E2829"/>
<path d="M20.8056 52.4114C19.8791 52.897 20.6813 54.5418 21.641 54.0025C22.8226 53.6161 21.7509 51.9775 20.8056 52.4114Z" fill="white"/>
<path d="M48.3395 54.1001C48.694 53.8645 48.8349 53.2632 48.5032 52.9635C47.9519 52.6495 47.2865 52.666 46.6833 52.79C46.4946 53.164 46.5154 53.5876 46.5236 53.9947C47.1165 54.1021 47.7384 54.2716 48.3395 54.1001Z" fill="#FDFCFD"/>
<path d="M40.5306 62.3039C38.0805 63.8165 34.9214 64.0356 32.2308 63.0685C30.3943 62.3969 28.8935 60.9525 28.0954 59.1796C27.9856 58.7808 27.6539 58.6609 27.2683 58.7002C27.1419 59.7024 27.77 60.5785 28.3566 61.3327C29.505 62.8185 31.2628 63.7194 33.0641 64.1637C36.0574 64.8745 39.4175 64.3414 41.8677 62.4238C43.1922 61.3555 44.2639 59.8573 44.4836 58.1402C44.268 58.0906 44.0566 58.0472 43.8473 58.0059C43.1839 59.7065 42.1268 61.3389 40.5348 62.3039H40.5306Z" fill="#272823"/>
</g>
<defs>
<clipPath id="clip0_7197_1975">
<rect width="69" height="80" fill="white"/>
</clipPath>
</defs>
</svg>
