<svg width="79" height="103" viewBox="0 0 79 103" fill="none" xmlns="http://www.w3.org/2000/svg">
<g clip-path="url(#clip0_7197_1714)">
<path d="M34.0979 17.1871C33.8961 21.1675 33.8353 25.1673 34.1609 29.1413C34.3606 33.5484 34.6601 37.9621 35.4566 42.3067C35.7821 44.4618 36.0968 46.6298 36.1446 48.8086C36.3095 48.5974 36.4723 48.3883 36.6351 48.175C37.0995 48.3474 37.5596 48.5198 38.0284 48.6922C37.87 48.0737 37.7354 47.453 37.603 46.8281C37.2645 45.8432 36.9715 44.8368 36.8608 43.8002C36.2574 38.7314 36.4224 33.6196 36.3204 28.5271C36.3616 25.6005 36.214 22.6588 36.5352 19.7451C36.9997 17.6741 37.2145 15.5664 37.5618 13.4782C37.8461 15.0428 37.4598 16.6117 37.5292 18.1827C37.7181 21.6308 37.6052 25.0833 37.7788 28.5314C37.7571 31.6175 38.1326 34.695 37.9915 37.781C38.2433 41.4598 38.0675 45.1859 38.6904 48.828C38.8271 49.2353 38.9725 49.6383 39.1157 50.0456C39.2199 49.9271 39.3284 49.8107 39.4348 49.6943C39.5889 49.9422 39.7451 50.19 39.8992 50.4378C40.3485 50.4033 40.8021 50.3408 41.2535 50.371C41.8829 51.4529 41.7614 52.7481 41.7961 53.9463H41.9632C42.0761 44.8475 42.1564 35.7445 42.8596 26.6694C43.1005 24.1437 43.1005 21.6007 43.4564 19.0857C43.4824 18.7193 43.6799 18.4047 43.8579 18.0922C43.9621 20.8421 43.9057 23.5963 43.8905 26.3483C43.6561 35.5419 43.4651 44.7376 43.0462 53.9248H43.6279C43.9143 52.3752 44.1987 50.8171 44.1292 49.2331C44.0098 48.3991 44.5915 47.7397 44.8454 47.0005C45.2469 44.5954 44.9583 42.0567 45.8242 39.7357C46.1411 41.4317 45.6853 43.1299 45.6246 44.826C45.5681 46.9423 44.8129 48.981 44.8606 51.1059C44.8671 52.0563 44.9322 53.0045 44.9865 53.9506C45.1449 53.9528 45.4574 53.9528 45.6115 53.9528C46.8269 52.4162 46.9571 50.4077 47.567 48.6211C48.7412 44.8863 49.5767 41.0611 50.6402 37.3004C51.9532 32.0507 53.5398 26.8742 55.1632 21.7149C55.8273 18.3487 56.244 14.8014 55.1306 11.4761C55.0004 13.4243 55.1241 15.3833 54.881 17.3228C54.6596 19.1051 53.5354 20.8485 51.797 21.4821C51.1394 21.717 50.4036 21.5188 50.2495 20.7796C49.1752 17.5146 49.3489 13.976 49.9934 10.6421C50.2105 9.65936 50.4167 8.65294 50.8941 7.75858C51.7492 7.24998 52.8301 7.48488 53.785 7.42023C53.7481 7.08188 53.7307 6.74354 53.7177 6.40303V6.31252C51.0764 1.98727 45.809 -0.592365 40.7348 0.116657L40.7218 0.179154C40.7023 0.280443 40.6654 0.476556 40.6437 0.577845C36.2097 4.88154 34.3866 11.1765 34.0979 17.1871Z" fill="#81A267"/>
<path d="M4.24476 23.4756C5.30605 26.5078 6.45198 29.5163 7.90176 32.3891C8.95654 34.4148 10.3499 36.238 11.5653 38.169C13.3015 40.8952 15.3655 43.3908 17.2581 46.0135C18.4431 47.5264 19.4371 49.2935 21.1712 50.2676C22.4951 51.0241 23.7104 51.9486 25.0365 52.6986C24.329 51.5477 23.4196 50.5435 22.6231 49.4552C21.6595 48.1341 20.3616 47.0932 19.4262 45.7484C18.4322 44.3498 17.2255 43.1171 16.1924 41.7421C13.9722 38.6927 11.8214 35.5937 9.67492 32.4882C8.78726 31.0572 7.99508 29.5206 7.72596 27.8418C10.2913 31.1628 12.683 34.6131 15.244 37.9449C17.2407 40.7702 19.5716 43.3714 21.1994 46.438C22.7859 48.828 24.7913 50.9616 26.1369 53.4981C26.7945 53.6296 27.4673 53.6791 28.114 53.4636C27.5237 51.9637 26.3886 50.7223 25.9871 49.147C27.4087 50.3862 28.2334 52.1081 29.273 53.6425C29.4119 53.6683 29.6962 53.7136 29.8351 53.7373C24.9388 46.1277 20.2423 38.3845 15.0335 30.9753C14.4301 30.1715 13.842 29.3439 13.5207 28.3849C14.7774 29.109 15.448 30.4495 16.3899 31.4925C21.4273 38.0354 25.9177 44.9769 30.267 51.9874C30.5383 51.1469 29.9393 50.4508 29.6311 49.7202C29.1515 48.7095 29.1949 47.563 29.0299 46.4811C28.2812 44.923 27.6821 43.2981 26.929 41.7378C26.3105 40.3586 25.4814 39.0655 25.0691 37.6C27.1374 41.1538 28.4656 45.0717 30.5079 48.6319C31.5128 50.5478 32.611 52.5218 34.4492 53.7718C34.4297 53.5929 34.3885 53.2352 34.3711 53.0563C34.2387 51.774 34.3212 50.4724 34.0607 49.2009C33.6701 46.9639 32.7564 44.8605 32.3635 42.6192C31.6907 38.7897 30.7684 34.9902 30.5209 31.1025C30.4732 31.1111 30.3842 31.1348 30.3408 31.1456C29.5009 28.8116 28.164 26.6975 26.7207 24.6933C23.5498 20.2322 18.8619 16.6311 13.3753 15.6031C10.1307 15.004 6.4064 14.8402 3.64357 16.9393V17.0147C3.53072 19.1784 3.58932 21.3874 4.24041 23.4692L4.24476 23.4756ZM21.195 20.8184C22.7403 21.4175 23.4609 23.0619 24.1445 24.4454C25.336 26.5596 25.2058 29.0616 25.3078 31.402C23.6974 30.5809 22.584 29.0724 21.4468 27.719C20.2271 26.0574 18.7491 24.3765 18.4865 22.258C18.8901 21.2193 20.188 20.9219 21.1929 20.8184H21.195Z" fill="#81A267"/>
<path d="M34.0633 49.2047C34.3216 50.474 34.2391 51.7757 34.3737 53.0601C34.5039 52.1722 34.8316 51.3317 35.2809 50.5581C35.5283 50.6831 35.7735 50.8059 36.0231 50.9309C35.9124 50.4029 35.7931 49.8792 35.6759 49.3598C35.7931 49.2219 36.0296 48.9461 36.1468 48.8081C36.0991 46.6272 35.7844 44.4613 35.4588 42.3063C34.6623 37.9616 34.3628 33.548 34.1631 29.1409C33.8376 25.1669 33.8984 21.1671 34.1002 17.1866C34.3867 11.1761 36.2098 4.8811 40.6459 0.577401C40.6676 0.476112 40.7067 0.28 40.724 0.178711C37.4317 0.626968 34.5668 2.7605 32.7264 5.43496C30.402 8.99515 29.6836 13.3527 29.8073 17.5293C29.9614 22.0593 30.1979 26.5871 30.5278 31.1041C30.7753 34.9941 31.6976 38.7913 32.3704 42.6209C32.7611 44.86 33.6748 46.9655 34.0676 49.2025L34.0633 49.2047Z" fill="#6A8958"/>
<path d="M55.1353 11.4785C56.2465 14.8038 55.8298 18.3511 55.1678 21.7173C53.5444 26.8766 51.9579 32.0531 50.6449 37.3029C49.5792 41.0635 48.7458 44.8866 47.5717 48.6235C46.9618 50.4122 46.8316 52.4186 45.6162 53.9552C46.6645 53.9552 47.7127 53.9897 48.7632 53.9746C48.8674 53.438 48.9759 52.9057 49.0801 52.369C48.9737 52.2397 48.7545 51.9833 48.6482 51.854C48.7263 51.6277 48.8088 51.4057 48.8912 51.1837C48.9889 51.3238 49.1886 51.6061 49.2862 51.7484C49.3275 50.6601 49.4794 49.5502 50.1327 48.6407C50.6514 48.0222 50.2499 47.2636 50.1045 46.5934C50.4517 46.4124 50.799 46.2335 51.1462 46.0546C51.1332 45.3392 51.029 44.5892 51.3524 43.9254C52.3985 41.4966 53.501 39.0765 54.9313 36.846C56.0685 34.8288 56.8129 32.5918 58.1889 30.7083C58.8205 29.8872 58.929 28.7644 59.706 28.0425C60.5589 27.1934 61.0451 26.0749 61.757 25.1223C62.5079 24.0707 63.4542 23.1806 64.255 22.1699C62.7618 22.5686 62.1693 24.1655 61.2187 25.2215C60.5047 26.4175 58.8596 26.8076 58.5557 28.2709C58.2237 28.5037 57.8916 28.7342 57.5639 28.9713C57.336 30.1437 56.1814 30.6178 55.3219 31.2837C55.7603 29.8527 56.6762 28.6459 57.3425 27.3184C59.1612 24.2387 61.1992 21.1764 64.1096 19.0062C65.2208 18.0192 66.6597 17.5106 67.8057 16.5753C67.632 15.8447 66.4861 16.1335 65.9804 15.6594C63.4411 15.9288 60.9257 16.6809 58.7467 18.0213C57.6724 18.6636 56.8195 19.5859 55.8602 20.3747C56.6762 15.7003 56.4635 10.4764 53.7311 6.41406C53.7441 6.75241 53.7593 7.09076 53.7984 7.43126C54.5189 8.68336 54.8748 10.082 55.144 11.4871L55.1353 11.4785Z" fill="#6A8958"/>
<path d="M50.901 7.7612C50.4235 8.65556 50.2195 9.66198 50.0003 10.6447C49.3557 13.9786 49.1821 17.5173 50.2564 20.7822C50.4105 21.5214 51.1462 21.7197 51.8039 21.4848C53.5401 20.8512 54.6665 19.1077 54.8879 17.3255C55.131 15.388 55.0073 13.4269 55.1375 11.4787C54.8684 10.0736 54.5124 8.67495 53.7919 7.42285C52.8369 7.48966 51.7583 7.2526 50.901 7.7612Z" fill="#97B573"/>
<path d="M37.664 39.5098C37.6509 38.9171 37.8354 38.346 37.9895 37.7814C38.1306 34.6953 37.7551 31.6178 37.7768 28.5318C37.6032 25.0836 37.7161 21.6312 37.5272 18.1831C37.4578 16.612 37.8441 15.0431 37.5598 13.4785C37.2125 15.5668 36.9977 17.6745 36.5332 19.7455C36.212 22.6592 36.3596 25.6009 36.3184 28.5275C36.4204 33.6178 36.2554 38.7318 36.8588 43.8005C36.9695 44.835 37.2625 45.8414 37.601 46.8284C37.8094 44.3953 37.6726 41.9472 37.664 39.5098Z" fill="#6D8D5A"/>
<path d="M67.7991 16.569C66.6532 17.5043 65.2142 18.0129 64.103 19C61.1948 21.1701 59.1568 24.2325 57.3359 27.3121C56.6697 28.6396 55.7538 29.8465 55.3154 31.2775C56.1748 30.6115 57.3316 30.1396 57.5573 28.9651C57.885 28.7302 58.2171 28.4974 58.5492 28.2647C58.853 26.8035 60.4981 26.4113 61.2122 25.2152C62.1628 24.1592 62.7531 22.5623 64.2484 22.1636C63.4454 23.1744 62.5013 24.0644 61.7504 25.1161C61.0407 26.0686 60.5524 27.1871 59.6994 28.0362C58.9225 28.7582 58.8139 29.881 58.1824 30.7021C56.8085 32.5878 56.062 34.8226 54.9247 36.8397C53.4945 39.0702 52.3919 41.4904 51.3458 43.9192C51.0246 44.5851 51.1288 45.3329 51.1397 46.0484C50.7924 46.2273 50.4451 46.4061 50.0979 46.5872C50.2433 47.2574 50.6448 48.0181 50.1261 48.6345C49.4728 49.5439 49.3209 50.6538 49.2797 51.7421C49.182 51.602 48.9823 51.3197 48.8847 51.1775C48.8022 51.3995 48.7197 51.6236 48.6416 51.8477C48.7479 51.977 48.9672 52.2335 49.0735 52.3628C48.9693 52.8994 48.8608 53.4317 48.7566 53.9683L48.9932 53.9597C52.0599 47.3479 55.4847 40.8827 59.439 34.7471C61.1015 32.2796 62.7401 29.715 64.9668 27.7173C64.7237 28.7862 63.9554 29.5987 63.3781 30.4973C58.6685 37.9087 54.6512 45.7187 50.4907 53.4382C51.1223 53.4662 51.7582 53.4856 52.3919 53.4877C53.4684 52.3434 55.0115 51.671 55.8189 50.2767C57.2144 47.9233 58.649 45.5915 60.2138 43.3416C61.0689 42.1218 61.733 40.7103 62.9831 39.8159C62.6967 40.3396 62.3885 40.8546 62.0759 41.3632C62.2279 41.5637 62.382 41.7641 62.5361 41.9688C61.1753 44.208 59.4086 46.1712 58.0782 48.4362C57.2057 50.0698 55.7039 51.309 55.0614 53.0718C56.5199 52.783 57.1233 51.2551 58.0153 50.2465C58.5426 49.3112 59.6712 48.9944 60.2355 48.1043C61.1036 46.8285 62.1845 45.7144 63.198 44.5528C62.6641 47.5979 60.0923 49.6969 58.725 52.3542C61.0429 51.7615 62.4297 49.6409 64.268 48.2854C64.0596 49.0634 63.6625 49.7681 63.2501 50.4599C64.4351 49.7767 65.0927 48.2207 66.5425 48.0634L66.6901 48.0354C69.9477 44.2942 72.856 40.2663 75.8597 36.3333L75.8532 36.2622C75.7903 35.6846 75.736 35.107 75.6926 34.5273C74.8614 34.8937 74.0084 35.3075 73.086 35.3484C72.1984 35.3053 72.0312 34.2105 71.914 33.5166C71.7209 30.6676 72.6628 27.7819 71.9206 24.9609C71.608 23.5343 70.8376 22.239 70.6162 20.793C71.76 19.5387 73.7632 19.265 75.2498 20.043C76.029 20.5753 76.5585 21.3878 77.1728 22.0903C76.9926 21.5257 76.819 20.9611 76.7018 20.3814C76.717 20.2521 76.7452 19.9978 76.7626 19.8728L76.7712 19.7887C75.9096 18.6853 74.9764 17.5905 73.7545 16.8664C71.4453 15.4613 68.5826 15.3083 65.9608 15.6531C66.4665 16.1272 67.6125 15.8385 67.7861 16.569H67.7991Z" fill="#82A268"/>
<path d="M7.78269 41.6106C10.6041 44.5673 13.5883 47.3689 16.6398 50.093C17.6403 51.024 18.6864 51.9119 19.5654 52.9635C17.9984 52.9614 16.4032 52.6812 14.8623 53.0734C18.63 53.0928 22.3738 53.5433 26.1393 53.5023C24.7937 50.9658 22.7883 48.8322 21.2018 46.4423C19.5741 43.3756 17.2432 40.7744 15.2465 37.9491C12.6855 34.6173 10.2938 31.167 7.72843 27.8461C7.99755 29.5249 8.78972 31.0614 9.67739 32.4924C11.8217 35.5979 13.9725 38.6969 16.1949 41.7463C17.228 43.1191 18.4347 44.3518 19.4287 45.7526C20.3641 47.0974 21.6619 48.1405 22.6256 49.4594C23.4221 50.5477 24.3314 51.552 25.039 52.7028C23.7129 51.9528 22.4953 51.0283 21.1736 50.2718C19.4395 49.2999 18.4433 47.5306 17.2605 46.0177C15.368 43.395 13.3062 40.8994 11.5677 38.1732C10.3524 36.2401 8.95901 34.4191 7.90423 32.3933C6.45445 29.5206 5.30851 26.5121 4.24722 23.4799C3.59612 21.3981 3.53752 19.1891 3.64604 17.0254C1.76436 18.5383 0.664007 20.8205 0.193045 23.1415C-0.360389 26.3073 0.344968 29.5464 1.50609 32.4989C2.86689 35.9686 5.28681 38.8887 7.78269 41.617V41.6106Z" fill="#6B8A59"/>
<path d="M43.8597 18.092C43.6817 18.4066 43.4842 18.7191 43.4582 19.0855C43.1022 21.6005 43.1022 24.1456 42.8613 26.6692C43.1196 26.5873 43.6318 26.4279 43.8901 26.346C43.9053 23.5961 43.9617 20.8419 43.8575 18.0898L43.8597 18.092Z" fill="#1A2617"/>
<path d="M77.88 26.6565C77.6586 25.135 77.6933 23.5596 77.1855 22.092C76.5691 21.3895 76.0417 20.577 75.2626 20.0447C73.7737 19.2667 71.7727 19.5404 70.6289 20.7946C70.8503 22.2407 71.6207 23.5359 71.9333 24.9626C72.6755 27.7857 71.7336 30.6714 71.9268 33.5183C72.044 34.2122 72.2111 35.307 73.0987 35.3501C74.0211 35.3091 74.8741 34.8954 75.7053 34.529C77.8084 32.5161 78.1947 29.4064 77.8822 26.6565H77.88Z" fill="#98B673"/>
<path d="M77.1855 22.0924C77.6933 23.56 77.6586 25.1354 77.88 26.6568C78.1925 29.4067 77.8083 32.5165 75.7031 34.5294C75.7465 35.1091 75.8008 35.6866 75.8637 36.2642C77.396 34.1587 78.4985 31.717 78.8935 29.1417C79.282 25.9414 78.607 22.5579 76.7731 19.877C76.7579 20.0019 76.7297 20.2562 76.7123 20.3856C76.8295 20.9653 77.0032 21.5299 77.1833 22.0945L77.1855 22.0924Z" fill="#7C9A5B"/>
<path d="M25.3084 31.402C25.2064 29.0616 25.3366 26.5595 24.1451 24.4454C23.4593 23.0618 22.7388 21.4196 21.1957 20.8184C20.1908 20.9218 18.8929 21.2192 18.4893 22.258C18.7519 24.3742 20.2299 26.0574 21.4496 27.7189C22.5868 29.0702 23.698 30.5787 25.3106 31.402H25.3084Z" fill="#9AB773"/>
<path d="M43.8899 26.3486C43.6317 26.4305 43.1195 26.59 42.8612 26.6719C42.1558 35.7469 42.0777 44.8479 41.9648 53.9445C42.2361 53.9423 42.7765 53.9315 43.0478 53.9251C43.4645 44.7379 43.6577 35.5422 43.8921 26.3486H43.8899Z" fill="#2B3026"/>
<path d="M50.4946 53.4416C54.6551 45.7221 58.6724 37.9121 63.382 30.5008C63.9593 29.6042 64.7276 28.7918 64.9707 27.7207C62.7439 29.7185 61.1053 32.2809 59.4429 34.7506C55.4885 40.8861 52.0637 47.3513 48.9971 53.9631C49.4051 53.9437 49.8088 53.9287 50.219 53.9157C50.2862 53.7972 50.4251 53.5623 50.4946 53.4416Z" fill="#2C3127"/>
<path d="M30.2668 51.9892C25.9174 44.9787 21.4292 38.0372 16.3897 31.4943C15.4478 30.4491 14.7793 29.1108 13.5205 28.3867C13.8417 29.3457 14.4299 30.1754 15.0332 30.9771C20.242 38.3863 24.9386 46.1295 29.8349 53.7391C30.2928 53.8059 30.7551 53.849 31.2195 53.89C30.894 53.2585 30.5663 52.6292 30.2646 51.9892H30.2668Z" fill="#2A2D27"/>
<path d="M30.5101 48.6344C28.4657 45.0742 27.1396 41.1563 25.0713 37.6025C25.4858 39.068 26.3127 40.3589 26.9313 41.7403C27.6822 43.2984 28.2834 44.9234 29.0321 46.4836C29.5161 47.2121 29.9697 47.9577 30.343 48.7508L30.5101 48.6344Z" fill="#405935"/>
<path d="M39.5821 53.953C39.2261 52.2526 38.6271 50.5911 38.6879 48.8282C38.065 45.1861 38.243 41.46 37.989 37.7812C37.8349 38.3459 37.6505 38.917 37.6635 39.5096C37.6722 41.947 37.8089 44.393 37.6005 46.8283C37.7329 47.4533 37.8697 48.0739 38.0259 48.6924C38.2885 49.5071 38.4296 50.4962 37.7047 51.132C37.1838 51.6083 36.5262 51.1988 36.0205 50.9316C35.771 50.8066 35.5235 50.6837 35.2783 50.5587C34.829 51.3324 34.5013 52.175 34.3711 53.0608C34.3906 53.2397 34.4319 53.5974 34.4492 53.7763L34.5664 53.8926C36.2376 53.9077 37.9087 53.9336 39.5799 53.9551L39.5821 53.953Z" fill="#668554"/>
<path d="M44.8626 51.1056C44.8149 48.9828 45.5702 46.9441 45.6266 44.8257C45.6874 43.1296 46.141 41.4314 45.8263 39.7354C44.9603 42.0564 45.2489 44.5929 44.8474 47.0001C44.5913 47.7393 44.0097 48.3988 44.1312 49.2328C44.2007 50.8168 43.9164 52.3749 43.6299 53.9244C44.0813 53.933 44.5371 53.9395 44.9907 53.9503C44.9364 53.002 44.8713 52.056 44.8648 51.1056H44.8626Z" fill="#718F57"/>
<path d="M63.2606 50.4633C63.6708 49.7737 64.0701 49.0668 64.2785 48.2888C62.4402 49.6444 61.0534 51.765 58.7355 52.3576C60.1028 49.7004 62.6746 47.6035 63.2085 44.5562C62.195 45.7178 61.1141 46.8298 60.246 48.1078C59.6795 48.9978 58.5531 49.3146 58.0257 50.2499C57.1359 51.2607 56.5326 52.7865 55.0719 53.0752C55.7122 51.3124 57.2162 50.0732 58.0887 48.4397C59.4191 46.1747 61.1836 44.2114 62.5465 41.9723C62.3925 41.7675 62.2362 41.5671 62.0864 41.3667C62.399 40.8581 62.705 40.3452 62.9936 39.8193C61.7435 40.7137 61.0794 42.1253 60.2243 43.3451C58.6617 45.595 57.2271 47.9268 55.8294 50.2801C55.0198 51.6766 53.4789 52.3468 52.4024 53.4912C51.7665 53.489 51.1328 53.4696 50.5012 53.4416C50.4318 53.5601 50.2929 53.795 50.2256 53.9157C51.6797 53.8618 53.1338 53.8748 54.5901 53.8834C56.1007 53.8511 57.609 53.8295 59.1196 53.78C60.0962 53.6442 61.2226 53.6291 61.9128 52.8145C63.432 51.2046 65.1596 49.7887 66.5573 48.0647C65.1075 48.222 64.4499 49.778 63.2649 50.4611L63.2606 50.4633Z" fill="#6F905C"/>
<path d="M34.5687 53.8904L34.4515 53.774C32.6133 52.5219 31.5129 50.55 30.5102 48.6342L30.3431 48.7505C29.9698 47.9575 29.5162 47.2097 29.0322 46.4834C29.1972 47.5652 29.1516 48.7139 29.6334 49.7225C29.9394 50.4531 30.5406 51.1492 30.2693 51.9896C30.5688 52.6297 30.8987 53.259 31.2243 53.8904C32.3398 53.9529 33.4575 53.8926 34.5731 53.8904H34.5687Z" fill="#72935E"/>
<path d="M37.7055 51.1316C38.4325 50.4958 38.2893 49.5066 38.0267 48.692C37.5601 48.5196 37.0978 48.3472 36.6333 48.1748C36.4727 48.3882 36.3078 48.5972 36.1428 48.8084C36.0256 48.9463 35.7891 49.2222 35.6719 49.3601C35.7891 49.8816 35.9084 50.4053 36.0191 50.9312C36.5248 51.1984 37.1824 51.6079 37.7033 51.1316H37.7055Z" fill="#8BA968"/>
<path d="M41.7966 53.9484C41.7618 52.7502 41.8812 51.455 41.254 50.3731C40.8026 50.3408 40.3468 50.4054 39.8997 50.4399C39.7456 50.1921 39.5893 49.9443 39.4352 49.6964C39.3289 49.8128 39.2204 49.9292 39.1162 50.0477C38.9708 49.6404 38.8254 49.2395 38.6908 48.8301C38.6301 50.5929 39.2269 52.2545 39.585 53.9549C40.3251 53.9635 41.063 53.9635 41.7987 53.9484H41.7966Z" fill="#76965F"/>
<path d="M25.9893 49.1514C26.3908 50.7267 27.5237 51.9681 28.1162 53.468C28.5047 53.5219 28.8866 53.5801 29.2751 53.6469C28.2355 52.1124 27.4108 50.3905 25.9893 49.1514Z" fill="#6A8853"/>
<path d="M59.1158 53.7799C60.1423 53.7519 61.1732 53.7713 62.1933 53.9028C60.5634 54.6786 58.6361 54.4329 56.876 54.6872C57.2363 54.7842 57.5965 54.8855 57.959 54.9846C61.1494 54.6118 64.318 54.0558 67.5084 53.6679C67.4303 53.5429 67.2784 53.2886 67.1981 53.1636C65.4379 52.8532 63.5997 53.1011 61.8156 53.1506L61.9068 52.8145C61.2188 53.6291 60.0902 53.6463 59.1136 53.7799H59.1158Z" fill="#557B75"/>
<path d="M22.862 54.1292C26.4669 54.3232 30.0935 54.1508 33.6724 54.7283C33.4836 54.7908 33.1059 54.9158 32.9215 54.9783C33.9502 55.0796 34.9746 55.3038 35.9057 55.7692C37.7483 56.0731 39.6169 55.9826 41.4747 55.9395C46.9744 55.7886 52.5109 55.8511 57.9606 54.987C57.5981 54.8857 57.2378 54.7865 56.8776 54.6896C56.0376 54.6702 54.9308 54.9051 54.5879 53.8857C53.1316 53.8771 51.6753 53.8642 50.2233 53.918C49.8131 53.931 49.4095 53.9461 49.0014 53.9654L48.7649 53.9741C47.7166 53.9892 46.6683 53.9547 45.6179 53.9547C45.4638 53.9547 45.1513 53.9547 44.9928 53.9525C44.5371 53.9439 44.0835 53.9374 43.632 53.9267H43.0504C42.7791 53.9331 42.2387 53.9417 41.9674 53.9461H41.8003C41.0645 53.9654 40.3245 53.9654 39.5865 53.9547C37.9154 53.9331 36.2442 53.9073 34.5731 53.8922C33.4575 53.8943 32.3398 53.9547 31.2243 53.8922C30.7598 53.8512 30.2997 53.8081 29.8396 53.7413C29.7007 53.7198 29.4164 53.6724 29.2775 53.6465C28.889 53.5797 28.507 53.5215 28.1185 53.4676C27.4718 53.6831 26.799 53.6336 26.1414 53.5021C22.3758 53.543 18.632 53.0905 14.8643 53.0732C14.5192 53.1336 14.2675 53.3426 14.1025 53.7004C15.9061 54.4654 17.9093 54.4719 19.8365 54.5279C20.7242 53.8728 21.8463 54.1271 22.8663 54.1292H22.862Z" fill="#6F9A9A"/>
<path d="M22.8618 54.1294C21.8418 54.1273 20.7197 53.873 19.832 54.5281C24.1944 54.651 28.5698 54.5777 32.9191 54.9807C33.1058 54.9182 33.4812 54.7932 33.6701 54.7307C30.0912 54.1532 26.4646 54.3256 22.8596 54.1316L22.8618 54.1294Z" fill="#5D898B"/>
<path d="M56.8756 54.687C58.6358 54.4327 60.5609 54.6783 62.1929 53.9025C61.1729 53.771 60.142 53.7517 59.1154 53.7797C57.6049 53.8292 56.0965 53.8508 54.5859 53.8831C54.931 54.9025 56.0357 54.6676 56.8756 54.687Z" fill="#74A2AB"/>
<path d="M56.6904 71.7339C57.5846 72.0701 58.0621 70.887 57.4413 70.3008C56.7707 70.3719 56.061 71.1499 56.6904 71.7339Z" fill="#F7F3E1"/>
<path d="M59.8073 94.302C55.1259 95.108 50.3555 95.3213 45.6112 95.3364C42.7312 95.3903 39.8555 94.8946 37.1209 94.0218C35.046 93.3667 33.6657 91.6103 32.0423 90.2806C30.4601 88.9574 29.2078 87.2312 28.5481 85.2743C28.0684 83.7679 27.3414 82.3133 27.2372 80.7142C27.5692 80.5763 27.9013 80.4383 28.229 80.2939C27.3435 80.5008 26.3712 80.8672 25.4814 80.4728C24.8628 80.2681 24.7326 79.5504 24.6675 78.9944C24.7565 78.0311 25.7353 77.6152 26.5036 77.2704C26.5188 76.251 26.4407 75.1347 25.4488 74.5765C24.7391 74.0313 23.9708 73.3934 23.8341 72.4559C23.5476 71.0249 24.7847 69.7513 26.1281 69.4927C26.4971 69.3332 26.8682 69.178 27.2393 69.0315C27.0787 68.6134 27.2741 67.8074 26.6143 67.8527C25.8786 67.8742 25.1862 68.1479 24.4722 68.2944C24.3702 68.2169 24.1683 68.0617 24.0685 67.9841C23.9101 67.8462 23.5954 67.566 23.4391 67.4259C24.4092 66.7837 25.464 66.2083 26.6512 66.0963C27.1243 63.7731 27.4347 61.1094 29.3988 59.4931C31.1416 57.894 34.3298 58.3617 35.3 55.8855C35.4519 55.8532 35.7557 55.7971 35.9055 55.7691C34.9744 55.3058 33.95 55.0795 32.9213 54.9782C28.5719 54.5773 24.1965 54.6485 19.8342 54.5256C17.9069 54.4696 15.9037 54.4631 14.1002 53.6981L14.0676 53.6895C11.3742 60.6504 10.7036 68.2212 11.244 75.6153C11.9863 84.5739 15.0855 93.2654 19.7539 100.94C20.0447 101.478 20.7479 101.476 21.2731 101.61C29.2968 102.948 37.4616 103.054 45.5808 102.983C51.4429 102.847 57.3483 102.629 63.1062 101.446C63.4665 101.418 63.7009 101.235 63.8116 100.901C64.9684 97.9785 66.3487 95.1425 67.4252 92.1878L67.4686 91.7762C64.9163 92.621 62.4833 93.8645 59.8095 94.302H59.8073Z" fill="#8CB0A3"/>
<path d="M41.4744 55.9395C39.6166 55.9826 37.7479 56.0752 35.9053 55.7692C35.7534 55.7972 35.4496 55.8533 35.2998 55.8856C34.3297 58.3596 31.1436 57.892 29.3987 59.4932C27.4345 61.1095 27.1242 63.771 26.6511 66.0964C27.1654 66.3636 27.5539 66.7795 27.6559 67.3635C26.3928 66.883 25.1926 67.4325 24.0684 67.9842C24.1704 68.0618 24.3722 68.217 24.472 68.2945C25.1861 68.148 25.8784 67.8743 26.6142 67.8528C27.2739 67.8097 27.0786 68.6157 27.2392 69.0316C26.8659 69.1781 26.497 69.3333 26.128 69.4928C26.8637 69.7428 27.682 69.9949 28.1616 70.65C28.8821 71.6328 28.676 73.0896 27.8903 73.9775C27.2609 74.624 26.2973 74.7059 25.4487 74.5766C26.4405 75.1348 26.5187 76.2511 26.5035 77.2705C27.5582 77.2834 29.6787 77.1067 29.4573 78.7165C29.5484 79.501 28.9082 80.0527 28.2311 80.294C27.9033 80.4384 27.5713 80.5764 27.2392 80.7143C27.3434 82.3134 28.0704 83.7702 28.5501 85.2744C29.2099 87.2313 30.4621 88.9575 32.0443 90.2807C33.6677 91.6104 35.0481 93.3668 37.1229 94.0219C39.8575 94.8947 42.7332 95.3904 45.6132 95.3365C50.3576 95.3214 55.1279 95.1081 59.8093 94.3021C62.4854 93.8667 64.9161 92.6211 67.4684 91.7763L67.425 92.1879C69.7343 86.9468 71.0603 81.2789 71.5118 75.5787C71.961 68.1329 71.3251 60.2906 67.5987 53.6572L67.5097 53.6658C64.3193 54.0538 61.1506 54.6098 57.9602 54.9826C52.5105 55.8489 46.974 55.7864 41.4744 55.9351V55.9395ZM49.6891 81.1927C47.0304 83.6797 43.0088 84.3111 39.5645 83.3543C36.7604 82.5267 34.6813 80.2488 33.3443 77.7554C33.0731 77.1843 32.6281 76.6239 32.7193 75.9602C33.4941 75.6434 33.7524 76.5097 34.0562 77.0119C35.3736 79.4708 37.4398 81.7293 40.2091 82.5289C43.2193 83.3564 46.6745 82.6172 48.9707 80.4772C50.0689 79.5333 50.8915 78.32 51.5078 77.0205C51.6098 76.5119 52.1177 76.5938 52.5149 76.5464C52.3326 78.4127 50.987 79.9298 49.6869 81.1927H49.6891ZM60.5842 80.0721C59.4946 81.016 57.9125 80.9513 56.5799 80.6906C55.957 80.5397 55.677 79.932 55.753 79.3393C55.6119 78.3135 56.5517 77.5894 57.4111 77.2726C58.5484 76.8157 59.8679 77.0334 60.9054 77.6454C61.4458 78.376 61.3503 79.5311 60.5863 80.0742L60.5842 80.0721ZM58.6417 58.476C59.5554 58.31 60.48 58.1721 61.4067 58.0751C62.0426 58.2131 62.1685 58.9846 62.5027 59.4522C62.57 59.2583 62.7089 58.8682 62.774 58.6743C63.2754 59.4328 64.0003 60.1677 63.9807 61.1397C64.0502 62.8077 64.5211 64.4262 64.723 66.0791C64.8141 66.0791 64.9943 66.0727 65.0832 66.0705C65.1614 65.049 64.8966 64.0318 64.953 63.006C66.2639 65.5382 65.5499 68.4195 65.0659 71.0681C64.9769 71.1306 64.8033 71.2535 64.7186 71.316C64.8141 71.441 65.0051 71.6953 65.1006 71.8203C65.0659 73.2986 64.6492 74.7382 64.3453 76.18C64.0958 75.0356 64.7143 73.5357 63.4512 72.8525C63.5488 72.7706 63.7485 72.6069 63.8483 72.5271C63.1126 72.1263 62.3443 71.775 61.5326 71.5552C61.3156 71.3397 61.1007 71.122 60.8858 70.9065C60.6623 71.4517 60.582 72.1414 59.996 72.4431C59.8028 73.7167 58.531 74.6477 57.2484 74.3245C55.3276 73.9818 54.5637 71.2061 56.1046 69.9841L55.8073 69.8742C55.9093 69.0747 56.912 69.0812 57.5066 68.8635C58.0839 68.7967 58.3031 68.1933 58.6526 67.8183C58.0861 67.5489 57.142 67.3161 57.4176 66.4907C57.7975 64.2947 57.4611 62.0534 57.8257 59.8596C57.945 59.351 58.021 58.6139 58.6395 58.476H58.6417Z" fill="#B3CBC4"/>
<path d="M57.42 66.491C58.5225 66.9112 60.1589 67.0535 60.5496 68.3595C59.905 68.2129 59.2712 68.0362 58.6549 67.8164C58.3033 68.1892 58.0862 68.7948 57.5089 68.8616C56.9143 69.0771 55.9116 69.0728 55.8096 69.8723L56.1069 69.9822C56.8817 69.5943 57.841 69.3616 58.6267 69.8594C59.6098 70.3206 60.0439 71.411 59.9983 72.4412C60.5865 72.1395 60.6646 71.4498 60.8881 70.9046C61.103 71.1201 61.3179 71.3378 61.5349 71.5533C62.3466 71.7731 63.1149 72.1244 63.8506 72.5252C63.7486 72.6071 63.5511 72.7709 63.4535 72.8506C64.7166 73.5338 64.0981 75.0337 64.3476 76.1781C64.6515 74.7363 65.0682 73.2946 65.1029 71.8184C65.0074 71.6934 64.8164 71.4391 64.7209 71.3141C64.8056 71.2516 64.9792 71.1287 65.0682 71.0662C65.5522 68.4198 66.2662 65.5363 64.9553 63.0041C64.8989 64.0299 65.1637 65.0471 65.0856 66.0686C64.9966 66.0708 64.8164 66.0772 64.7253 66.0772C64.5234 64.4243 64.0525 62.8058 63.983 61.1378C64.0026 60.1658 63.2777 59.4309 62.7763 58.6724C62.709 58.8663 62.5701 59.2564 62.505 59.4503C62.1708 58.9827 62.0428 58.2112 61.409 58.0732C60.4845 58.1702 59.5577 58.3081 58.644 58.4741C58.0255 58.612 57.9495 59.3491 57.8301 59.8576C57.4677 62.0494 57.8019 64.2928 57.4221 66.4888L57.42 66.491Z" fill="#C8D7CB"/>
<path d="M24.0659 67.9845C25.1902 67.4328 26.3903 66.8833 27.6535 67.3639C27.5515 66.7798 27.163 66.3639 26.6486 66.0967C25.4614 66.2087 24.4067 66.7841 23.4365 67.4264C23.5906 67.5664 23.9075 67.8466 24.0659 67.9845Z" fill="#141A1D"/>
<path d="M57.4203 66.4912C57.1447 67.3166 58.091 67.5472 58.6552 67.8187C59.2716 68.0386 59.9054 68.2131 60.5499 68.3618C60.1593 67.0537 58.5229 66.9136 57.4203 66.4934V66.4912Z" fill="#101514"/>
<path d="M23.8317 72.4564C23.9684 73.3939 24.7346 74.0318 25.4464 74.577C26.2972 74.7063 27.2587 74.6244 27.888 73.9779C28.6737 73.09 28.8799 71.631 28.1593 70.6504C27.6797 69.9953 26.8615 69.7432 26.1257 69.4932C24.7823 69.7539 23.5452 71.0276 23.8317 72.4564ZM26.1561 70.7431C26.779 70.8121 26.9591 71.5146 26.9331 72.0426C26.3493 72.2474 25.7524 72.2624 25.1925 71.9823C25.2468 71.4327 25.5246 70.7819 26.1561 70.7431Z" fill="#242422"/>
<path d="M58.6269 69.8594C57.8412 69.3616 56.8798 69.5922 56.1072 69.9823C54.5662 71.2063 55.3302 73.9821 57.2509 74.3226C58.5336 74.6458 59.8054 73.7149 59.9986 72.4412C60.0463 71.4132 59.6101 70.3206 58.6269 69.8594ZM56.691 71.7343C56.0616 71.1503 56.7734 70.3723 57.4419 70.3012C58.0605 70.8874 57.583 72.0705 56.691 71.7343Z" fill="#272523"/>
<path d="M26.933 72.0427C26.959 71.5147 26.7789 70.8121 26.156 70.7432C25.5244 70.7798 25.2466 71.4328 25.1924 71.9823C25.7523 72.2625 26.3492 72.2453 26.933 72.0427Z" fill="#FBFDFD"/>
<path d="M51.5106 77.0208C50.8942 78.3203 50.0738 79.5336 48.9735 80.4776C46.6773 82.6176 43.2221 83.3568 40.2119 82.5292C37.4425 81.7297 35.3764 79.4711 34.059 77.0122C33.7551 76.5101 33.4969 75.6437 32.7221 75.9605C32.6309 76.6221 33.0758 77.1846 33.3471 77.7557C34.684 80.2491 36.761 82.527 39.5673 83.3546C43.0094 84.3114 47.031 83.68 49.6919 81.193C50.9897 79.9323 52.3353 78.413 52.5198 76.5467C52.1226 76.5941 51.6126 76.5122 51.5128 77.0208H51.5106Z" fill="#191A17"/>
<path d="M24.6653 78.9968C24.7325 79.5529 24.8606 80.2705 25.4791 80.4752C26.369 80.8696 27.3434 80.5032 28.2268 80.2964C28.9017 80.055 29.5442 79.5033 29.453 78.7188C29.6744 77.109 27.554 77.2857 26.4992 77.2728C25.7309 77.6176 24.7521 78.0357 24.6631 78.9968H24.6653Z" fill="#DD8C77"/>
<path d="M57.409 77.2709C56.5495 77.5876 55.6076 78.3118 55.7509 79.3376C55.6749 79.9302 55.957 80.538 56.5778 80.6888C57.9103 80.9496 59.4925 81.0142 60.582 80.0703C61.346 79.5272 61.4415 78.3743 60.9011 77.6415C59.8658 77.0295 58.5441 76.8097 57.4068 77.2687L57.409 77.2709Z" fill="#D58273"/>
</g>
<defs>
<clipPath id="clip0_7197_1714">
<rect width="79" height="103" fill="white"/>
</clipPath>
</defs>
</svg>
