<svg width="73" height="92" viewBox="0 0 73 92" fill="none" xmlns="http://www.w3.org/2000/svg">
<g clip-path="url(#clip0_7197_2208)">
<path d="M54.0596 15.3591C55.3537 14.5627 56.7688 13.9966 58.1223 13.3164C54.2293 14.3071 50.8838 16.7955 48.1704 19.6767C46.4563 21.3033 45.1282 23.2657 43.8044 25.2048C43.552 25.5935 43.325 25.9991 43.1064 26.4046C44.6636 24.3556 46.1805 22.2686 47.954 20.3971C49.7742 18.4811 51.866 16.8314 54.0596 15.3591Z" fill="#F7F3E1"/>
<path d="M38.5109 34.1888C38.7315 33.9776 38.9564 33.7705 39.1834 33.5635C39.2661 26.3646 38.5915 19.172 37.3292 12.085C37.272 12.2497 37.151 12.5835 37.0938 12.7525C37.6814 16.2865 38.0039 19.8585 38.3539 23.422C38.6148 26.9983 38.9267 30.6125 38.5109 34.1888Z" fill="#C8D7CB"/>
<path d="M17.8907 14.9576C16.4778 14.0916 15.0755 13.0692 13.4102 12.7734C16.3102 14.3281 19.1106 16.1575 21.3317 18.6078C23.536 20.9483 25.3201 23.631 27.2719 26.1764C26.8285 25.4117 26.4106 24.6386 25.9948 23.8655C23.7778 20.5132 21.3296 17.1629 17.8907 14.9576Z" fill="#C8D7CB"/>
<path d="M18.0605 21.3073C17.1165 19.4886 16.3018 17.5325 14.8613 16.0391C15.0501 16.4531 15.2623 16.8587 15.4978 17.2516C17.9184 21.4446 19.641 26.096 20.0038 30.9482C20.2817 27.636 19.3673 24.3259 18.0605 21.3073Z" fill="#C8D7CB"/>
<path d="M52.4726 24.5989C53.6224 21.6797 55.2454 18.9568 57.0295 16.3818C55.6442 17.5225 54.8614 19.2018 53.9173 20.689C52.8226 22.5521 51.9465 24.5377 51.2761 26.5888C50.7054 28.642 50.1793 30.7375 50.0859 32.8752C50.8051 30.0996 51.4458 27.2838 52.4726 24.5989Z" fill="#C8D7CB"/>
<path d="M39.1835 33.5633C39.402 34.9363 38.9926 36.2946 39.1114 37.6718C39.1899 37.4986 39.349 37.1543 39.4296 36.979C39.6842 34.668 39.7033 32.3296 39.9982 30.0251C40.1318 29.7166 40.2824 29.4167 40.4394 29.1188C40.4182 27.1396 40.2846 25.1624 39.9515 23.2084C39.5993 19.0471 39.1623 14.8963 38.6341 10.7539C38.0973 7.18401 37.8915 3.57397 37.3888 0.00195312C36.8817 0.253325 36.4617 0.768743 36.5699 1.36021C36.6908 4.94067 36.8266 8.53381 37.3315 12.0847C38.5937 19.1696 39.2705 26.3643 39.1856 33.5633H39.1835Z" fill="#648156"/>
<path d="M31.2425 22.089C31.9405 19.8647 32.1781 17.5369 32.7106 15.2724C32.98 13.9902 33.4552 12.7587 33.6207 11.4575C33.4871 8.80435 34.9636 6.40892 35.5067 3.86352C35.5958 4.16136 35.687 4.4592 35.7761 4.76339C35.9034 4.42329 36.0456 4.09165 36.1771 3.75367C36.2513 3.0587 36.1835 2.35317 36.1516 1.6582C35.4813 2.54962 35.1652 3.63961 34.7557 4.65988C32.4624 11.373 31.3465 18.3987 29.8105 25.3019C29.9081 25.4815 30.0948 25.8343 30.1903 26.0138C30.8267 24.795 30.8225 23.3776 31.2425 22.0869V22.089Z" fill="#749466"/>
<path d="M33.621 11.4592C34.4844 9.2729 35.0424 6.98943 35.7743 4.7651C35.6852 4.46092 35.594 4.16308 35.5049 3.86523C34.9618 6.41064 33.4852 8.80607 33.6189 11.4592H33.621Z" fill="#80A274"/>
<path d="M29.9003 28.046C29.7263 28.5889 29.5396 29.1317 29.3593 29.6746C29.3148 30.6315 29.3763 31.599 29.6839 32.5179C30.0551 32.1714 30.437 31.8229 30.7637 31.4258C30.8571 31.2843 31.0438 31.0075 31.1371 30.8681C30.3649 29.6366 30.681 28.0312 31.171 26.7574C31.3514 26.1765 32.0069 26.2948 32.4779 26.242C32.4991 26.5779 32.5161 26.9201 32.5309 27.2602C32.5818 27.1778 32.6773 27.0088 32.7282 26.9243C32.7982 26.768 32.9361 26.4533 33.0082 26.2948C33.5407 26.7131 34.0753 27.1334 34.6121 27.5517C34.7097 27.6299 34.9006 27.7777 34.9961 27.8559C35.1127 27.4461 35.2761 27.0511 35.467 26.6666C35.5222 26.8356 35.6304 27.1715 35.6855 27.3362C35.7662 26.6497 35.8341 25.9611 35.9401 25.2788C36.5384 26.2061 36.5405 27.3489 36.7293 28.403C36.9712 29.8542 36.9096 31.3286 36.9181 32.7925C36.9181 33.4177 36.7802 34.0388 36.5108 34.607C36.6954 34.8351 36.8842 35.0654 37.0751 35.2956C37.2236 35.1034 37.3827 34.9154 37.5482 34.7337C37.4846 35.5533 37.3912 36.3708 37.3 37.1883C37.2151 37.2813 37.0433 37.4693 36.9563 37.5664C37.2257 38.0713 37.0009 38.5867 36.7866 39.0683C36.9118 39.138 37.1663 39.2775 37.2915 39.3472C37.457 39.438 37.7922 39.6175 37.9598 39.7084C38.0977 39.0324 38.225 38.3544 38.3204 37.6742C38.4138 36.5145 38.3501 35.3442 38.5135 34.1888C38.9293 30.6125 38.6153 26.9983 38.3565 23.422C38.0086 19.8563 37.684 16.2864 37.0963 12.7524C36.6614 9.76555 36.3708 6.76387 36.1798 3.75586C36.0462 4.09173 35.9062 4.42548 35.7789 4.76557C35.0449 6.9899 34.489 9.27337 33.6256 11.4597C33.4601 12.7609 32.9828 13.9924 32.7155 15.2746C32.183 17.5391 31.9454 19.8648 31.2474 22.0912C30.8274 23.3819 30.8316 24.7993 30.1952 26.0181C30.1018 25.8386 29.913 25.4858 29.8154 25.3062C29.6966 26.2843 29.5333 27.2813 29.0156 28.1432C29.0411 28.3607 29.0644 28.5825 29.0941 28.8022C29.3572 28.5424 29.6287 28.2931 29.9045 28.046H29.9003Z" fill="#587957"/>
<path d="M12.9704 12.6828C13.0808 12.704 13.2993 12.7525 13.4117 12.7737C15.075 13.0694 16.4794 14.0918 17.8923 14.9579C21.3312 17.1632 23.7794 20.5134 25.9963 23.8657C26.7685 23.8953 27.1292 24.7255 27.7465 25.0867C27.2098 23.8192 26.4249 22.6743 25.676 21.5273C23.9703 18.9587 22.0652 16.4344 19.5237 14.6283C17.3492 13.0187 14.8798 11.8907 12.544 10.5515C12.0794 10.2832 11.5851 10.0719 11.0908 9.88184C11.5618 11.4196 12.3361 12.8455 12.9429 14.3347L12.9895 14.3284C13.2505 14.2988 13.5093 14.2587 13.7724 14.2122C13.9209 13.5827 13.2568 13.1729 12.9726 12.6828H12.9704Z" fill="#506E43"/>
<path d="M48.1704 19.677C50.8838 16.7957 54.2293 14.3052 58.1222 13.3166C58.6187 13.1244 59.113 12.9195 59.6115 12.7209C59.6561 12.9216 59.7473 13.3293 59.7919 13.5342C60.4177 12.3808 60.9162 11.1641 61.5696 10.0234C56.8536 12.1907 51.9657 14.3496 48.2213 18.0378C46.1805 20.0509 44.2754 22.2372 42.7988 24.7023C43.1319 24.8671 43.4671 25.036 43.8044 25.205C45.1282 23.2659 46.4563 21.3035 48.1704 19.677Z" fill="#52703C"/>
<path d="M19.8846 32.2178L19.927 32.4079C20.3513 32.8684 20.6738 33.4028 20.9453 33.969C21.1023 33.9943 21.2636 34.0239 21.4269 34.0535C22.1864 35.2829 23.088 36.4172 23.8369 37.6572C24.7534 38.9056 25.1055 40.437 25.6359 41.8671C25.8502 42.129 26.0772 42.3889 26.2999 42.6466C26.5269 42.3783 26.7603 42.1121 26.9958 41.8439C27.1867 37.4332 28.0968 33.0923 29.0897 28.8C29.0621 28.5803 29.0366 28.3585 29.0112 28.1409C28.8457 27.0404 28.3238 26.018 27.7468 25.0864C27.1294 24.7252 26.7688 23.8951 25.9966 23.8655C26.4124 24.6365 26.8303 25.4118 27.2737 26.1764C25.3219 23.631 23.5378 20.9483 21.3336 18.6078C19.1124 16.1575 16.3099 14.3282 13.412 12.7734C13.3017 12.7523 13.0831 12.7037 12.9707 12.6826C13.255 13.1727 13.9211 13.5846 13.7705 14.212C13.5074 14.2584 13.2465 14.2965 12.9877 14.3282C15.2004 18.8359 17.2731 23.4684 18.3614 28.3902C18.4696 28.9711 18.6584 29.5435 19.036 30.0083C19.0848 30.0822 19.1845 30.228 19.2333 30.2998C19.49 30.9229 19.7064 31.563 19.8846 32.2157V32.2178ZM15.4974 17.2517C15.2619 16.8567 15.0498 16.4511 14.8609 16.0392C16.3014 17.5326 17.1139 19.4887 18.0601 21.3074C19.367 24.326 20.2813 27.6382 20.0034 30.9483C19.6406 26.0962 17.918 21.4447 15.4974 17.2517Z" fill="#406036"/>
<path d="M58.1223 13.3164C56.7688 13.9966 55.3538 14.5627 54.0597 15.3591C51.8661 16.8314 49.7743 18.4811 47.9541 20.3971C49.1994 20.4393 49.838 19.2352 50.6823 18.5339C50.8181 18.8022 50.956 19.0684 51.0981 19.3388C51.5055 19.0346 51.9128 18.7304 52.3243 18.4283C52.4983 19.1001 52.6511 19.7824 52.7592 20.471C52.8929 20.2238 53.0329 19.9767 53.1772 19.7317C53.4233 20.0506 53.6672 20.3696 53.9197 20.6886C54.8638 19.2015 55.6466 17.5242 57.0319 16.3814C57.9399 15.7604 58.3621 14.6979 59.147 13.9522C59.2573 13.9522 59.4822 13.9501 59.5925 13.9501H59.6944C59.7198 13.8445 59.7665 13.6354 59.7919 13.534C59.7474 13.3291 59.6562 12.9214 59.6116 12.7207C59.1131 12.9193 58.6166 13.1242 58.1223 13.3164Z" fill="#4B6F40"/>
<path d="M57.0297 16.3833C55.2434 18.9583 53.6205 21.679 52.4728 24.6004C52.738 25.1391 52.6001 25.7094 52.4346 26.2502C52.4643 26.3685 52.4982 26.491 52.5364 26.6135C51.7621 27.1818 51.8406 28.1387 52.3031 28.8864L52.3964 28.9223C53.9387 23.559 56.9173 18.802 59.5903 13.9541C59.48 13.9541 59.2551 13.9562 59.1448 13.9562C58.3578 14.6998 57.9377 15.7644 57.0297 16.3854V16.3833Z" fill="#486837"/>
<path d="M40.507 29.8841C40.577 30.4502 40.6343 31.0205 40.7701 31.5761C41.0798 31.612 41.1901 31.2614 41.3874 31.0902C42.2509 29.9728 43.3562 29.0666 44.4869 28.228C44.6651 28.5808 44.8476 28.9356 45.03 29.2926C46.4069 28.0717 47.6691 26.7345 48.9654 25.4291C49.4554 24.9792 49.6824 24.3433 49.9158 23.7392C50.5756 23.6188 51.0232 24.1215 51.456 24.5313C51.2375 24.9749 51.0211 25.4228 50.811 25.8685C50.9277 26.0501 51.159 26.4092 51.2799 26.5888C51.9503 24.5377 52.8286 22.5521 53.9211 20.6889C53.6687 20.37 53.4247 20.051 53.1786 19.732C53.0343 19.9771 52.8943 20.2221 52.7607 20.4714C52.6525 19.7827 52.4997 19.1004 52.3258 18.4287C51.9142 18.7287 51.5069 19.035 51.0996 19.3391C50.9574 19.0688 50.8195 18.8005 50.6838 18.5343C49.8394 19.2377 49.203 20.4397 47.9555 20.3974C46.1799 22.269 44.663 24.356 43.108 26.405C43.3265 25.9994 43.5535 25.5939 43.8059 25.2052C43.4686 25.0362 43.1334 24.8693 42.8003 24.7024C41.9114 26.1177 41.2368 27.6492 40.4413 29.1173C40.2864 29.4151 40.1337 29.7151 40 30.0235C40.1273 29.9876 40.3819 29.9179 40.5092 29.882L40.507 29.8841Z" fill="#44653B"/>
<path d="M2.86827 24.2102C4.18146 24.8967 5.78954 25.184 6.76967 26.3711C6.98606 26.5908 7.21518 26.8169 7.46763 27.0133C7.87283 27.1063 8.29501 27.1738 8.69384 27.3217C9.67609 27.6724 9.91581 28.9863 11.0317 29.1172C11.0508 28.3462 10.5883 27.7548 10.024 27.2943C9.17118 27.2013 8.43715 26.7493 7.74979 26.2803C7.74979 26.1008 7.75615 25.7396 7.75827 25.5579C7.01576 25.1967 6.24566 24.8988 5.45435 24.6707C6.13747 24.677 6.82694 24.6791 7.5143 24.6559C6.94363 24.0708 6.14171 23.8553 5.4098 23.5554C5.55406 23.5026 5.8447 23.4012 5.98896 23.3483C4.06903 22.7759 2.12363 22.0894 0.110352 22.0049C1.42779 24.3813 3.53017 26.2085 5.04703 28.4603C5.34828 28.1688 5.6474 27.8752 5.9529 27.5837C4.78821 26.5929 3.5132 25.6403 2.86827 24.2081V24.2102Z" fill="#6E8E61"/>
<path d="M50.714 34.3179C49.0932 36.7049 47.6188 39.1848 46.085 41.6267C46.3268 41.4493 46.5771 41.2866 46.8317 41.124C46.9251 41.2782 47.116 41.5866 47.2115 41.7408C47.6867 41.0796 48.2255 40.448 48.5162 39.6728L48.4546 39.5671C48.0176 39.0369 48.425 38.3568 48.7389 37.8857C49.5769 36.7746 50.4531 35.6825 51.1532 34.4742C51.1871 34.4193 51.2508 34.3095 51.2826 34.2545C52.2139 32.5287 53.7668 31.2888 55.2816 30.0974C55.6592 29.7826 56.1005 29.5651 56.5587 29.3771C56.6287 29.6052 56.7645 30.0615 56.8324 30.2896C56.8663 30.4037 56.9257 30.6297 56.9596 30.7417C57.2248 30.072 57.4497 29.375 57.8295 28.756C58.2177 28.342 58.8096 28.2132 59.306 27.9597C59.8979 26.914 61.0902 26.0015 62.3482 26.0881C62.223 25.974 62.1042 25.86 61.9918 25.748C62.7619 25.3509 63.5617 25.0129 64.3869 24.7277C64.2215 25.3171 64.0539 25.9043 63.899 26.4979C64.7433 26.0649 65.4689 25.4417 66.2963 24.9791C66.6399 24.7383 67.0324 24.9601 67.3994 25.0256C68.6893 24.544 69.9749 24.0201 71.1544 23.2977C71.3157 23.3441 71.636 23.435 71.7973 23.4814L71.8524 23.4983C72.194 23.0188 72.5164 22.5288 72.8071 22.0176C70.6092 22.1464 68.4793 22.8562 66.3917 23.5174C63.218 24.7742 59.9891 25.9445 57.0233 27.647C55.1564 28.6399 53.6395 30.1206 51.936 31.3395L51.8639 30.8621C51.6199 31.6394 51.272 32.3809 50.9092 33.1096C51.011 33.5321 51.0068 33.9672 50.7119 34.3137L50.714 34.3179Z" fill="#6E9060"/>
<path d="M67.4013 25.0298C66.3236 25.6783 65.2629 26.3733 64.3273 27.2182C63.5402 27.9343 63.1202 28.9419 62.4031 29.7172C61.7837 30.1904 61.0051 30.4523 60.498 31.0712L60.7696 31.236C61.9216 30.56 63.0438 29.8017 64.3443 29.4299C65.7338 29.0412 66.837 28.0949 67.9975 27.2922C67.0449 28.6842 65.4644 29.3158 63.9688 29.9411C64.9234 30.0488 65.8081 29.6538 66.6779 29.3243C66.2536 30.541 64.8089 30.786 64.2573 31.8929C63.937 32.2541 63.5593 32.5583 63.1584 32.8202C63.9539 33.2596 64.7198 32.7041 65.4687 32.44L65.5132 32.4231C66.33 30.9064 67.1531 29.3898 68.1799 27.9977C69.2322 26.3712 70.732 25.0974 71.8013 23.4836C71.64 23.4371 71.3197 23.3463 71.1585 23.2998C69.9789 24.0222 68.6933 24.5461 67.4035 25.0277L67.4013 25.0298Z" fill="#537551"/>
<path d="M7.51466 24.6581C6.8273 24.6793 6.13782 24.6772 5.45471 24.6729C6.24602 24.9011 7.01611 25.1989 7.75863 25.5601C8.61359 25.9636 9.54279 26.1643 10.4423 26.4452C11.45 26.9226 11.764 28.0654 12.1458 29.0181C11.8488 28.9462 11.554 28.8765 11.2633 28.8089C11.3779 29.1195 11.4903 29.4342 11.6112 29.749C11.6812 29.6243 11.8191 29.3729 11.8891 29.2462C12.1586 29.4279 12.4301 29.6053 12.7059 29.787L12.6805 29.4638C12.481 28.7942 12.2625 28.1351 12.0567 27.4676C12.6995 27.4782 13.4208 27.4507 13.9321 27.9218C15.0035 28.8639 16.236 29.6222 17.2268 30.6573C17.3923 30.5876 17.7253 30.4481 17.8908 30.3784C18.2175 30.5031 18.5527 30.6256 18.8879 30.7566C18.9728 30.6425 19.1488 30.4165 19.2337 30.3024C19.187 30.2306 19.0873 30.0848 19.0364 30.0109C18.1751 29.28 17.0952 28.8533 16.1873 28.1795C13.9045 26.6163 11.2612 25.7397 8.81088 24.4955C7.8838 24.0857 6.98429 23.5829 5.98932 23.3506C5.84506 23.4034 5.55442 23.5048 5.41016 23.5576C6.14207 23.8576 6.94398 24.073 7.51466 24.6581Z" fill="#608560"/>
<path d="M52.5363 26.6116C52.4981 26.487 52.4642 26.3666 52.4345 26.2483C52.6 25.7075 52.74 25.1372 52.4727 24.5985C51.4459 27.2834 50.8052 30.0991 50.086 32.8748C50.1794 30.7371 50.7055 28.6416 51.2762 26.5884C51.1574 26.4088 50.924 26.0497 50.8073 25.8681C51.0173 25.4224 51.2337 24.9745 51.4522 24.5309C51.0195 24.1232 50.5718 23.6184 49.9121 23.7388C49.6787 24.3429 49.4517 24.9788 48.9616 25.4287C47.6654 26.732 46.4031 28.0692 45.0263 29.2922C44.8438 28.9373 44.6614 28.5803 44.4832 28.2276C43.3524 29.0662 42.2493 29.9724 41.3837 31.0898C41.1864 31.2609 41.0761 31.6116 40.7664 31.5757C40.6306 31.018 40.5733 30.4477 40.5033 29.8837C40.376 29.9196 40.1214 29.9893 39.9942 30.0252C39.7014 32.3298 39.6823 34.6682 39.4256 36.9791C39.345 37.1523 39.1837 37.4967 39.1074 37.672C39.1074 37.7565 39.1137 37.9276 39.1137 38.0142C39.2134 39.8393 38.8677 41.6475 38.6025 43.4451C38.4285 44.5139 38.1909 45.5701 37.9512 46.6263C37.9978 46.7552 38.0954 47.0171 38.1421 47.1502C39.6908 47.3023 41.2543 47.2769 42.8072 47.2347C43.187 47.298 43.3609 46.9073 43.5604 46.6665C44.7017 41.5524 47.8118 37.2284 50.907 33.1114C51.2698 32.3826 51.6177 31.6412 51.8617 30.8638C52.006 30.2956 52.2733 29.7548 52.3327 29.1676L52.2987 28.8803C51.8362 28.1325 51.7556 27.1756 52.5321 26.6074L52.5363 26.6116Z" fill="#3D5A32"/>
<path d="M2.86816 24.21C3.51309 25.64 4.7881 26.5948 5.95279 27.5855C6.18615 27.6785 6.428 27.7651 6.67197 27.8538C6.69743 27.3595 6.72501 26.8673 6.76956 26.373C5.78944 25.1838 4.18136 24.8986 2.86816 24.2121V24.21Z" fill="#4D7050"/>
<path d="M59.6831 30.6419C59.8019 30.6419 60.0395 30.6397 60.1562 30.6397C60.0735 30.9946 59.9865 31.3537 59.9101 31.7149C60.188 31.5459 60.4808 31.3917 60.7693 31.2354L60.4978 31.0707C61.0048 30.4539 61.7834 30.1919 62.4029 29.7166C63.1199 28.9414 63.54 27.9359 64.327 27.2177C65.2626 26.3706 66.3233 25.6757 67.401 25.0293C67.0362 24.9638 66.6416 24.742 66.2979 24.9828C65.4705 25.4454 64.745 26.0686 63.9006 26.5016C64.0555 25.908 64.221 25.3208 64.3886 24.7314C63.5633 25.0145 62.7635 25.3546 61.9934 25.7517C62.108 25.8616 62.2268 25.9777 62.3498 26.0918C61.0897 26.0073 59.8995 26.9199 59.3076 27.9634C59.9992 27.9253 60.6951 27.9106 61.393 27.9021C61.2042 29.0132 60.2665 29.7356 59.6852 30.6419H59.6831Z" fill="#7B9A6C"/>
<path d="M35.7997 29.5841C35.5833 31.0037 35.4836 32.5816 34.5629 33.754C34.4102 33.9335 34.2574 34.1088 34.1025 34.2799C34.145 34.77 34.1662 35.2622 34.2107 35.7544C34.3168 35.879 34.529 36.124 34.635 36.2487C34.7453 35.6551 34.8154 35.0488 35.0445 34.4933C35.5812 33.8363 36.2983 33.3674 36.9156 32.7949C36.9071 31.3311 36.9687 29.8566 36.7268 28.4054C36.538 27.3514 36.5359 26.2086 35.9376 25.2812C35.8315 25.9614 35.7637 26.6522 35.683 27.3387C35.6173 27.9534 35.5048 28.566 35.4009 29.1743C35.5006 29.2757 35.7 29.4828 35.7997 29.5841Z" fill="#7D984C"/>
<path d="M7.75849 25.5576C7.75636 25.7393 7.75 26.1005 7.75 26.28C8.43736 26.749 9.17139 27.201 10.0242 27.294C10.1579 27.0067 10.2979 26.7236 10.4422 26.4427C9.54265 26.1618 8.61556 25.9611 7.75849 25.5576Z" fill="#ACBD70"/>
<path d="M34.1029 34.2797C34.2578 34.1086 34.4105 33.9333 34.5633 33.7538C34.5717 33.5975 34.5887 33.2764 34.5972 33.1158C34.4423 33.1581 34.1284 33.2426 33.9735 33.2869C33.9014 33.0989 33.8356 32.9152 33.7719 32.7335C33.3837 31.6921 32.9212 30.6845 32.4397 29.6832C32.0663 28.9228 31.9687 27.9553 32.5309 27.2603C32.516 26.9203 32.5012 26.5802 32.4778 26.2422C32.0069 26.295 31.3513 26.1767 31.171 26.7576C30.681 28.0314 30.3649 29.6368 31.1371 30.8683C31.8711 32.2223 33.3328 32.9553 34.1029 34.2797Z" fill="#9EAF5D"/>
<path d="M32.439 29.6832C32.9206 30.6844 33.3831 31.6899 33.7713 32.7334C34.2592 31.8272 34.0726 30.7795 34.0238 29.7993C33.4191 29.3304 32.77 28.8614 32.4708 28.1306C33.0352 28.0883 33.6037 28.0609 34.1744 28.0376C34.2847 27.9172 34.5011 27.6743 34.6114 27.5518C34.0747 27.1335 33.5401 26.7132 33.0076 26.2949C32.9354 26.4512 32.7976 26.766 32.7275 26.9244C32.6787 27.0089 32.5812 27.1779 32.5302 27.2603C31.9681 27.9552 32.0656 28.9227 32.439 29.6832Z" fill="#527D61"/>
<path d="M6.5572 29.3114C7.02817 29.5986 7.50338 29.8775 7.98919 30.1521C7.50125 29.5838 6.99846 29.0304 6.5084 28.4706C7.67309 28.5256 8.70625 29.0917 9.65667 29.7254C10.4395 30.2197 11.2541 30.6675 11.9882 31.2421C13.0829 32.0828 13.9378 33.2108 15.1513 33.9058C14.5255 32.6109 14.0821 31.2083 13.0829 30.1288C12.7668 30.6781 13.0913 31.2653 13.2314 31.8124C11.95 30.6464 10.4819 29.6916 9.26632 28.4516C8.70625 27.9256 8.06557 27.4947 7.46943 27.0152C7.21698 26.8188 6.98786 26.5927 6.77147 26.373C6.72692 26.8673 6.69934 27.3595 6.67388 27.8538C6.42991 27.7651 6.18594 27.6806 5.9547 27.5855C5.64921 27.8771 5.35008 28.1707 5.04883 28.4622C5.53889 29.2036 5.98228 29.9789 6.52113 30.6907C6.5869 30.5576 6.72267 30.2999 6.79056 30.1669C6.70994 29.8796 6.63357 29.5965 6.5572 29.3114Z" fill="#5E815B"/>
<path d="M12.7037 29.7842C12.4258 29.6025 12.1564 29.425 11.887 29.2434C11.817 29.3701 11.6791 29.6215 11.6091 29.7461C11.4881 29.4314 11.3736 29.1166 11.2611 28.8061C11.5518 28.8758 11.8488 28.9434 12.1437 29.0152C11.7618 28.0647 11.4478 26.9198 10.4401 26.4424C10.2959 26.7233 10.1559 27.0085 10.0222 27.2937C10.5865 27.7542 11.049 28.3435 11.0299 29.1166C9.914 28.9878 9.6764 27.6718 8.69203 27.3211C8.2932 27.1733 7.8689 27.1057 7.46582 27.0127C8.06196 27.4922 8.70264 27.9232 9.26271 28.4491C10.4783 29.6891 11.9464 30.6439 13.2277 31.8099C13.0856 31.2607 12.7631 30.6735 13.0792 30.1264C12.935 29.9067 12.7992 29.6849 12.6783 29.461L12.7037 29.7842Z" fill="#8CA260"/>
<path d="M34.5974 33.1159C34.5889 33.2764 34.572 33.5954 34.5635 33.7538C35.4863 32.5815 35.586 31.0056 35.8003 29.584C35.7006 29.4826 35.5012 29.2756 35.4015 29.1742C35.5075 28.5659 35.6178 27.9533 35.6836 27.3386C35.6285 27.1738 35.5203 26.8358 35.4651 26.6689C35.2742 27.0513 35.1108 27.4463 34.9941 27.8582C35.1872 29.6305 34.7226 31.3626 34.5953 33.118L34.5974 33.1159Z" fill="#4A7049"/>
<path d="M58.4338 33.2403C59.0087 32.9762 59.5603 32.6699 60.0779 32.3003C61.2829 31.3772 62.6152 30.6357 63.9666 29.9429C65.4622 29.3176 67.0427 28.686 67.9953 27.2939C66.8348 28.0966 65.7338 29.043 64.3421 29.4317C63.0416 29.8034 61.9193 30.5618 60.7674 31.2377C60.4789 31.3941 60.1861 31.5483 59.9082 31.7172C59.3163 32.1207 58.8729 32.6868 58.4316 33.2424L58.4338 33.2403Z" fill="#A8C37B"/>
<path d="M15.4425 29.2519C16.4651 29.93 16.0174 31.2291 16.0599 32.2515C16.1129 31.8522 16.1702 31.4509 16.2317 31.058C16.7006 31.2565 17.3455 31.265 17.6573 31.717C17.8292 33.1091 17.6319 34.5138 17.5194 35.8995C17.4643 36.5121 17.3646 37.1184 17.2712 37.7267C17.3052 37.9253 17.3731 38.3203 17.407 38.5189C17.5237 38.4808 17.7592 38.4027 17.8759 38.3647C18.6841 36.7403 19.8425 35.2003 19.9061 33.3161C19.9125 33.088 19.9231 32.6317 19.9273 32.4057L19.8849 32.2156C18.822 32.0339 17.8313 31.5818 17.2267 30.6545C16.2359 29.6216 15.0034 28.8632 13.932 27.919C13.4229 27.4479 12.6994 27.4754 12.0566 27.4648C12.2624 28.1324 12.4809 28.7914 12.6804 29.461C12.8013 29.6849 12.9371 29.9046 13.0813 30.1264C14.0805 31.208 14.5239 32.6085 15.1498 33.9033L15.3513 34.0385C15.3364 32.4416 15.4043 30.8467 15.4425 29.2519Z" fill="#BAC87A"/>
<path d="M32.4688 28.1305C32.7679 28.8614 33.4192 29.3304 34.0217 29.7993C34.0705 30.7773 34.2572 31.8251 33.7692 32.7334C33.8329 32.9151 33.8986 33.101 33.9708 33.2868C34.1256 33.2425 34.4396 33.158 34.5945 33.1157C34.7218 31.3604 35.1864 29.6282 34.9933 27.8559C34.8957 27.7778 34.7048 27.6299 34.6093 27.5518C34.499 27.6722 34.2826 27.9151 34.1723 28.0376C33.6016 28.063 33.0352 28.0904 32.4688 28.1305Z" fill="#849F4B"/>
<path d="M57.1373 33.9076C57.9647 32.8029 58.8132 31.7129 59.6809 30.644C60.2622 29.7378 61.202 29.0154 61.3887 27.9043C60.6908 27.9127 59.9949 27.9254 59.3033 27.9656C58.8069 28.219 58.215 28.3479 57.8268 28.7619C57.447 29.3787 57.2221 30.0779 56.957 30.7475C56.6027 32.0192 56.5157 33.35 56.1211 34.6111C56.4499 34.3681 56.7915 34.14 57.1352 33.9098L57.1373 33.9076Z" fill="#C3CD84"/>
<path d="M27.9232 41.9136C27.7344 39.7083 27.868 37.4797 28.2223 35.2955C28.5193 33.4092 28.7018 31.4806 29.3594 29.6745C29.5397 29.1317 29.7243 28.5888 29.9004 28.0459C29.6225 28.2909 29.3531 28.5423 29.09 28.8021C28.0993 33.0945 27.187 37.4354 26.9961 41.846C27.0406 43.7133 26.9749 45.5955 27.2698 47.4459C27.4077 47.4396 27.6877 47.4248 27.8256 47.4184C28.1438 45.6018 28.0314 43.745 27.9232 41.9157V41.9136Z" fill="#8DA873"/>
<path d="M8.16795 31.7091C8.44799 31.9182 8.73014 32.1316 9.02079 32.3344C9.58298 31.5739 9.65298 30.6339 9.65511 29.7235C8.70468 29.0898 7.67153 28.5237 6.50684 28.4688C6.9969 29.0285 7.50181 29.582 7.98763 30.1502C7.50393 29.8735 7.0266 29.5968 6.55563 29.3095C6.62988 29.5925 6.70838 29.8777 6.78899 30.165C6.92689 30.5072 7.08176 30.8452 7.2345 31.1874C7.52727 31.0902 7.82427 30.9951 8.1234 30.898C8.13401 31.1029 8.15734 31.5042 8.16795 31.7091Z" fill="#7B9662"/>
<path d="M62.1444 32.4567C62.8318 32.2053 63.4746 31.6012 64.2553 31.8948C64.8069 30.7858 66.2516 30.5408 66.6759 29.3262C65.8061 29.6578 64.9236 30.0507 63.9668 29.943C62.6154 30.6358 61.2831 31.3773 60.0781 32.3004C60.7421 32.4609 61.4634 32.7038 62.1444 32.4567Z" fill="#84A05F"/>
<path d="M17.6568 31.7171C17.3449 31.265 16.6979 31.2566 16.2311 31.058C16.1696 31.453 16.1123 31.8523 16.0593 32.2515C16.0169 31.2291 16.4645 29.93 15.4419 29.252C15.4038 30.8447 15.3359 32.4416 15.3507 34.0386C15.4207 34.2836 15.4929 34.5287 15.5671 34.7779C15.6053 34.6216 15.6859 34.3069 15.7283 34.1484C16.0657 34.554 16.3796 34.9786 16.6788 35.4158C16.8633 35.2912 17.05 35.1708 17.2388 35.0525C17.311 35.2659 17.4531 35.6905 17.521 35.8996C17.6356 34.5118 17.8307 33.1091 17.6589 31.7171H17.6568Z" fill="#698D6B"/>
<path d="M56.834 30.2934C56.764 30.0653 56.6282 29.609 56.5603 29.3809C56.1042 29.5689 55.6608 29.7864 55.2832 30.1012C55.3108 30.3842 55.3384 30.6673 55.3659 30.9525C55.9621 31.0222 56.4203 30.6757 56.834 30.2934Z" fill="#91A879"/>
<path d="M14.3157 35.274C15.3404 36.0323 15.6947 37.342 16.609 38.208C16.3629 37.0251 15.5504 36.0302 15.5674 34.7776C15.4931 34.5304 15.421 34.2833 15.351 34.0382L15.1495 33.903C13.936 33.2081 13.081 32.0801 11.9863 31.2393C11.2523 30.6669 10.4377 30.217 9.65483 29.7227C9.65271 30.6331 9.5827 31.5731 9.02051 32.3335C10.7325 33.4066 12.6843 34.0615 14.3157 35.2718V35.274Z" fill="#97AB61"/>
<path d="M36.9329 47.1356C36.9901 45.4795 37.1238 43.8235 37.4229 42.1927C37.5757 41.3604 37.7687 40.5366 37.9575 39.7086C37.7921 39.6177 37.4569 39.4382 37.2893 39.3473C36.4746 40.5789 35.4118 41.6034 34.4232 42.6891C33.9522 43.1517 34.0434 43.8467 33.9904 44.4487C34.5908 43.7474 35.0214 42.8518 35.8806 42.423C35.4797 43.9312 34.4486 45.1437 33.6637 46.4618C32.8957 45.8006 32.1129 45.169 31.3216 44.5459C30.1484 43.6587 29.3549 42.3849 28.6655 41.1112C28.3112 40.5049 28.3303 39.7909 28.3812 39.1171C29.5883 39.7952 30.1335 41.1027 30.8951 42.1821C31.6928 43.3207 32.4756 44.4741 33.4176 45.5007C33.5088 44.491 33.6276 43.3989 32.9975 42.5265C31.8562 41.3963 30.596 40.3317 29.8408 38.8868C29.1767 37.6469 27.9696 36.1978 28.8628 34.7614C29.8429 35.5937 30.5981 36.6477 31.2028 37.7757C31.8286 38.9671 32.5838 40.0909 33.11 41.3351C33.2309 41.2928 33.4727 41.2083 33.5915 41.1661C33.861 40.2789 33.9161 39.3304 33.7082 38.4264C32.9636 37.4694 32.1192 36.5907 31.4764 35.562C30.876 34.5417 29.8174 33.7622 29.6817 32.5181C29.374 31.5992 29.3125 30.6317 29.3571 29.6748C28.6973 31.4809 28.5148 33.4116 28.22 35.2958C27.8657 37.48 27.732 39.7064 27.9208 41.9139C28.029 43.7453 28.1415 45.6 27.8232 47.4166C27.9399 47.4081 28.169 47.3955 28.2857 47.387C31.137 46.9244 34.054 47.2624 36.9307 47.1356H36.9329Z" fill="#4C7352"/>
<path d="M13.9952 46.1555C13.8042 45.5429 13.4796 44.9895 13.0978 44.4825C12.0031 43.0208 11.6764 41.1788 10.8045 39.6051C10.308 38.7094 9.83494 37.799 9.53157 36.821C9.82009 36.7829 10.1129 36.7428 10.4056 36.7069C9.4552 35.8767 9.26215 34.5628 8.51539 33.589C7.97229 32.856 7.58406 32.028 7.23614 31.1894C7.08339 30.8472 6.92852 30.5092 6.79063 30.167C6.72486 30.3001 6.58909 30.5578 6.5212 30.6909C7.29554 32.1991 7.93834 33.7728 8.7339 35.2726C6.41724 34.3262 4.00725 33.513 1.50391 33.2553C1.94729 33.9904 2.44796 34.7107 3.13744 35.243C3.40899 35.4521 3.69327 35.657 3.97967 35.8641C4.04968 35.7352 4.1897 35.4733 4.26183 35.3402C4.64157 35.9992 4.7731 36.7914 5.32044 37.3512C5.9187 38.0461 6.51483 38.7517 7.17249 39.3917C7.97017 40.0508 8.62358 40.9422 8.36688 42.0364C9.66098 43.8868 10.9827 45.7288 12.3765 47.5095C12.858 46.9941 13.4033 46.5421 13.9973 46.1576L13.9952 46.1555Z" fill="#45663D"/>
<path d="M19.8848 32.2177C19.7066 31.565 19.4923 30.9249 19.2335 30.3018C19.1486 30.4179 18.9725 30.644 18.8877 30.7559C18.5525 30.6271 18.2173 30.5024 17.8906 30.3778C17.7251 30.4475 17.392 30.5869 17.2266 30.6566C17.8312 31.584 18.8219 32.036 19.8848 32.2177Z" fill="#7C9C6E"/>
<path d="M53.8392 35.5599C53.8392 35.4142 53.8456 35.1206 53.8477 34.9748C53.782 33.5004 54.1744 31.9203 55.3688 30.9528C55.3412 30.6656 55.3137 30.3846 55.2861 30.1016C53.7714 31.2929 52.2184 32.5329 51.2871 34.2587C51.7835 35.0741 52.2906 35.9 52.5833 36.8168C53.3449 36.8442 53.7289 36.2464 53.8414 35.5599H53.8392Z" fill="#CAD186"/>
<path d="M55.3659 30.9502C54.1716 31.9177 53.7791 33.4978 53.8448 34.9722C54.0082 35.1264 54.1779 35.2869 54.3519 35.4454C54.7359 34.987 55.1686 34.5434 55.7648 34.3596L55.8836 34.7842L56.1254 34.6046C56.5222 33.3457 56.607 32.0128 56.9613 30.7411C56.9274 30.627 56.868 30.401 56.834 30.2891C56.4224 30.6714 55.9621 31.0178 55.3659 30.9481V30.9502Z" fill="#6B8F6D"/>
<path d="M59.9103 31.7148C59.9888 31.3536 60.0737 30.9945 60.1564 30.6396C60.0397 30.6396 59.8021 30.6418 59.6833 30.6418C58.8135 31.7106 57.967 32.8006 57.1396 33.9054C57.5639 33.6688 58.001 33.4554 58.4359 33.2379C58.8771 32.6844 59.3184 32.1162 59.9124 31.7127L59.9103 31.7148Z" fill="#4A6F4F"/>
<path d="M27.2699 47.444C26.9729 45.5936 27.0408 43.7115 26.9962 41.8442C26.7607 42.1124 26.5274 42.3786 26.3004 42.6469C26.0755 42.387 25.8485 42.1293 25.6364 41.8674L25.5663 42.1906C25.1399 41.5928 24.7581 40.9696 24.3932 40.338C24.3041 40.4394 24.1237 40.6443 24.0368 40.7457C23.7652 40.4289 23.5021 40.1078 23.2264 39.8057L23.0779 39.7128C22.6599 40.8746 22.0999 41.9772 21.4804 43.044C21.264 43.5235 20.7909 44.0347 21.0285 44.5902C21.4167 45.4331 22.0277 46.1555 22.3863 47.0195C21.0985 46.1724 20.5894 44.6494 19.5774 43.5573C17.8887 42.7166 15.973 42.3321 14.3734 41.297C13.877 41.014 13.6352 40.4922 13.44 39.9874C15.3663 40.5535 16.9404 41.8927 18.8497 42.5053C18.3979 41.5674 17.8039 40.714 17.2289 39.8522C14.7192 39.379 12.619 37.8813 10.4063 36.709C10.1135 36.7449 9.81863 36.7829 9.53223 36.8231C9.83772 37.8011 10.3108 38.7115 10.8051 39.6072C11.677 41.1809 12.0037 43.0229 13.0984 44.4846C13.4803 44.9916 13.8049 45.5471 13.9958 46.1576C13.4039 46.5399 12.8587 46.992 12.375 47.5095L12.8354 47.82C14.4159 47.7715 16.0006 47.7039 17.5875 47.6574C20.8142 47.5159 24.041 47.48 27.2699 47.4483V47.444Z" fill="#4A6F4F"/>
<path d="M9.64683 34.1248C10.2027 34.6381 10.9367 34.8811 11.5986 35.2275C13.4846 36.1929 14.9972 37.6969 16.705 38.9199C16.8938 38.5228 17.089 38.1278 17.2693 37.7285C17.3626 37.1202 17.4623 36.5118 17.5175 35.9013C17.4475 35.6922 17.3075 35.2676 17.2353 35.0543C17.0465 35.1726 16.862 35.2951 16.6753 35.4176C16.3762 34.9782 16.0643 34.5537 15.7249 34.1502C15.6824 34.3065 15.6039 34.6212 15.5636 34.7797C15.5467 36.0323 16.3592 37.0272 16.6053 38.2102C15.6909 37.3441 15.3366 36.0344 14.312 35.2761C12.6805 34.0657 10.7288 33.4087 9.01675 32.3378C8.72611 32.1329 8.44395 31.9216 8.16392 31.7125C8.15331 31.5076 8.12997 31.1063 8.11937 30.9014C7.82024 30.9985 7.52323 31.0936 7.23047 31.1908C7.57839 32.0294 7.96662 32.8553 8.50972 33.5904C9.0019 33.4214 9.30103 33.8671 9.64259 34.1291L9.64683 34.1248Z" fill="#50795E"/>
<path d="M33.8865 37.3278C34.0053 36.8039 34.122 36.2801 34.2111 35.7541C34.1665 35.2598 34.1453 34.7697 34.1029 34.2796C33.3328 32.9552 31.8711 32.2222 31.1371 30.8682C31.0437 31.0055 30.857 31.2843 30.7637 31.4258C31.5168 32.8327 32.516 34.1106 33.0803 35.6168C33.3052 36.204 33.5704 36.7807 33.8865 37.3299V37.3278Z" fill="#4E7959"/>
<path d="M33.7102 38.4263C33.8353 38.4517 34.0835 38.5066 34.2087 38.5341L34.2787 38.3608C34.4209 37.6595 34.5354 36.954 34.6351 36.2485C34.529 36.1239 34.3169 35.8788 34.2108 35.7542C34.1217 36.2802 34.005 36.804 33.8862 37.3279C33.5701 36.7787 33.305 36.202 33.0801 35.6148C32.5158 34.1087 31.5165 32.8307 30.7634 31.4238C30.4367 31.821 30.0549 32.1674 29.6836 32.5159C29.8194 33.7601 30.878 34.5396 31.4784 35.5598C32.1212 36.5886 32.9655 37.4673 33.7102 38.4242V38.4263Z" fill="#A0AB5C"/>
<path d="M62.1446 32.4564C61.4636 32.7014 60.7444 32.4585 60.0783 32.3001C59.5606 32.6697 59.0091 32.976 58.4341 33.2401C57.9992 33.4577 57.5622 33.671 57.1379 33.9076C56.7942 34.1357 56.4548 34.366 56.1239 34.6089L55.882 34.7884C55.3283 36.1699 55.0037 37.6486 54.2379 38.9371C54.0766 38.4133 53.9324 37.8831 53.8369 37.3508C53.332 37.6549 53.0032 38.1387 52.8377 38.6942C53.0286 39.9595 52.3561 41.0791 51.6369 42.055C51.5266 42.0487 51.3039 42.0381 51.1935 42.0296C51.1575 42.1205 51.0875 42.3021 51.0556 42.3909C50.8308 42.1458 50.6144 41.9008 50.4001 41.6579C50.2898 42.1268 50.1837 42.5958 50.0819 43.0668C50.224 43.3942 50.3916 43.7174 50.4659 44.0723C50.1774 44.744 49.7764 45.363 49.4561 46.0178L49.6555 46.0833C50.9262 45.2975 50.8138 43.1746 52.4834 42.9506C53.8772 42.6317 55.2965 42.3803 56.6309 41.848C57.6534 41.4234 58.8415 41.1615 59.5373 40.2299C57.14 40.7242 54.9931 42.0487 52.5534 42.4099C53.2959 41.6241 53.9387 40.739 54.7661 40.0419C55.9308 39.3575 57.2695 39.0322 58.5148 38.5231C60.4983 37.7711 62.7153 36.8353 63.5617 34.7272C60.6129 35.7306 57.9717 37.3909 55.2859 38.9245C55.7293 38.1091 56.2596 37.3339 56.9661 36.7192C58.8096 35.1116 60.8823 33.7534 63.1544 32.8197C63.5554 32.5578 63.933 32.2536 64.2534 31.8924C63.4726 31.6009 62.8298 32.2029 62.1425 32.4543L62.1446 32.4564Z" fill="#8FA552"/>
<path d="M63.1559 32.8198C60.8816 33.7514 58.8111 35.1118 56.9675 36.7193C56.2611 37.334 55.7307 38.1092 55.2873 38.9246C57.9731 37.391 60.6143 35.7328 63.5632 34.7273C62.7167 36.8355 60.4977 37.7712 58.5162 38.5232C57.2709 39.0323 55.9322 39.3576 54.7676 40.042C53.9402 40.7391 53.2974 41.6242 52.5549 42.41C54.9945 42.0488 57.1394 40.7222 59.5387 40.23C58.8408 41.1616 57.6528 41.4235 56.6323 41.8481C55.2979 42.3804 53.8765 42.6318 52.4848 42.9508C50.8152 43.1747 50.9277 45.2976 49.6569 46.0834C49.4914 46.5228 49.2029 46.9051 48.7871 47.1333C50.1449 47.0783 51.5005 47.1628 52.8455 47.3593H52.9176C54.2223 46.8544 55.6331 47.2051 56.9887 47.0255C57.186 45.8172 57.7885 44.7336 58.5586 43.7999C59.7021 42.3973 60.5252 40.7771 61.5245 39.2774C62.32 38.0649 63.385 37.0298 63.9938 35.699C64.2654 34.5224 65.0546 33.5592 65.4662 32.4375C64.7194 32.7015 63.9514 33.2571 63.1559 32.8177V32.8198Z" fill="#4D7350"/>
<path d="M21.4273 34.0537C21.264 34.0242 21.1028 33.9925 20.9458 33.9692C20.6742 33.4031 20.3496 32.8687 19.9275 32.4082C19.9211 32.6342 19.9105 33.0884 19.9062 33.3186C20.4621 34.3854 21.3128 35.2599 21.9747 36.2612C22.435 36.8822 23.1054 37.3892 23.3197 38.1602C23.4979 38.7009 23.307 39.265 23.2264 39.8057C23.5043 40.1099 23.7673 40.4289 24.0368 40.7457C24.1259 40.6443 24.3062 40.4394 24.3932 40.338C24.7581 40.9696 25.1399 41.5928 25.5663 42.1906L25.6364 41.8674C25.1039 40.4373 24.7538 38.9059 23.8373 37.6574C23.0906 36.4175 22.1868 35.2831 21.4273 34.0537Z" fill="#8AA771"/>
<path d="M35.0451 34.4903C34.816 35.048 34.746 35.6543 34.6357 36.2457C34.536 36.9512 34.4193 37.6568 34.2793 38.3581C34.8882 37.0315 35.514 35.6965 36.5111 34.6065C36.7805 34.0383 36.9184 33.4173 36.9184 32.792C36.3011 33.3644 35.584 33.8334 35.0473 34.4903H35.0451Z" fill="#497455"/>
<path d="M1.50413 33.2524L1.44048 33.1532C0.958907 33.1109 0.477332 33.0729 0 33.0518C0.453996 34.1439 1.50837 34.7712 2.31241 35.5866C2.58396 35.4704 2.85975 35.3542 3.13766 35.2423C2.44818 34.71 1.94752 33.9896 1.50413 33.2545V33.2524Z" fill="#5E7C4C"/>
<path d="M20.1394 42.1457C19.2674 40.9564 18.5504 39.67 17.8736 38.3667C17.7569 38.4047 17.5215 38.4828 17.4048 38.5209C17.3708 38.3223 17.3029 37.9273 17.269 37.7287C17.0887 38.128 16.8914 38.523 16.7047 38.9201C14.9969 37.6992 13.4843 36.193 11.5983 35.2277C10.9364 34.8813 10.2024 34.6383 9.64654 34.125C9.30498 33.8631 9.00585 33.4195 8.51367 33.5864C9.26043 34.5602 9.45561 35.8741 10.4039 36.7042C12.6166 37.8766 14.719 39.3721 17.2266 39.8474C17.7994 40.7072 18.3955 41.5627 18.8474 42.5006C16.9359 41.888 15.3639 40.5487 13.4376 39.9826C13.6307 40.4875 13.8746 41.0092 14.3711 41.2923C15.9685 42.3295 17.8842 42.7118 19.575 43.5525C20.5849 44.6446 21.0961 46.1698 22.3839 47.0147C22.0275 46.1507 21.4144 45.4283 21.0261 44.5855C20.7885 44.0278 21.2616 43.5187 21.478 43.0392C21.2171 42.6611 20.9604 42.2893 20.6973 41.9197C20.5594 41.9746 20.2794 42.0887 20.1415 42.1436L20.1394 42.1457Z" fill="#829D4A"/>
<path d="M20.1388 42.1461C20.2767 42.0912 20.5567 41.9771 20.6946 41.9222C20.7795 41.1575 20.9301 40.4034 21.0659 39.6472C21.191 38.4811 21.1444 37.1989 21.9717 36.2589C21.3098 35.2577 20.4591 34.3832 19.9033 33.3164C19.8397 35.1985 18.6813 36.7406 17.873 38.365C18.5477 39.6683 19.2669 40.9568 20.1388 42.144V42.1461ZM20.3552 34.3177C20.51 35.1394 20.9598 35.8555 21.2016 36.6476C20.9937 36.9349 20.5737 37.0828 20.3064 36.7891C19.723 36.1364 19.653 34.9112 20.3531 34.3198L20.3552 34.3177Z" fill="#4B715B"/>
<path d="M44.9307 44.18C45.1916 43.278 45.5629 42.4077 46.0848 41.6261C47.6186 39.1842 49.0951 36.7043 50.7138 34.3173C51.0066 33.9709 51.013 33.5336 50.9111 33.1133C47.8159 37.2303 44.7058 41.5522 43.5645 46.6684C43.6281 46.7866 43.7575 47.0275 43.8211 47.1457C44.1479 46.1424 44.5552 45.1686 44.9286 44.1821L44.9307 44.18Z" fill="#88A576"/>
<path d="M68.3459 34.0201C68.4647 34.0835 68.7023 34.2081 68.8211 34.2715C68.4837 34.5038 68.1528 34.7404 67.8219 34.9749C67.7052 35.2579 67.6012 35.5473 67.4951 35.8388C67.1854 36.1113 66.6593 36.2381 66.5596 36.6775C66.7335 37.0873 66.986 37.4633 67.2236 37.8435C67.5057 37.5287 67.7879 37.2182 68.0764 36.9056C68.348 37.0049 68.6216 37.1063 68.8996 37.2119C70.2318 35.8388 71.9736 34.8186 73.0004 33.1836C71.4029 33.2892 69.8266 33.5871 68.2843 33.9884L68.3459 34.0222V34.0201Z" fill="#567548"/>
<path d="M39.1118 37.6701C38.993 36.2949 39.4024 34.9346 39.1839 33.5615C38.9569 33.7685 38.732 33.9755 38.5114 34.1868C38.3481 35.3422 38.4117 36.5104 38.3184 37.6722C38.5814 37.782 38.8509 37.8961 39.1182 38.0123C39.1182 37.9278 39.1118 37.7567 39.1118 37.6701Z" fill="#AABD8E"/>
<path d="M51.1023 37.4886C51.0004 39.0032 51.1998 40.5156 51.1935 42.0302C51.3038 42.0386 51.5265 42.0492 51.6369 42.0555C52.356 41.0796 53.0307 39.9601 52.8376 38.6948C52.7676 38.0632 52.6997 37.4379 52.5809 36.8169C52.2882 35.898 51.7811 35.0742 51.2847 34.2588C51.2508 34.3137 51.1871 34.4236 51.1553 34.4785C51.6432 35.4417 51.8639 36.5993 51.1023 37.4886Z" fill="#487059"/>
<path d="M67.2233 37.841C66.9856 37.4607 66.7332 37.0847 66.5592 36.6749C66.6589 36.2356 67.1851 36.1088 67.4948 35.8363C67.6009 35.5469 67.7048 35.2575 67.8215 34.9724C68.1546 34.7379 68.4834 34.5013 68.8207 34.269C68.7019 34.2056 68.4643 34.0809 68.3455 34.0176C66.8775 34.1739 65.5685 34.9365 64.1705 35.3632L63.9922 35.699C63.3834 37.0298 62.3163 38.0649 61.5228 39.2774C60.5236 40.7772 59.7005 42.3952 58.557 43.8C57.7869 44.7336 57.1844 45.8173 56.9871 47.0255C55.6336 47.2051 54.2207 46.8544 52.916 47.3593C55.4575 47.5367 58.016 47.5198 60.547 47.8578C62.1826 45.4349 63.7419 42.9508 65.6152 40.6948C65.5155 39.4865 66.538 38.6838 67.2233 37.8389V37.841Z" fill="#45673C"/>
<path d="M20.3092 36.7889C20.5744 37.0846 20.9966 36.9346 21.2045 36.6473C20.9605 35.8552 20.5129 35.1391 20.358 34.3174C19.6579 34.911 19.7258 36.134 20.3113 36.7867L20.3092 36.7889Z" fill="#74966E"/>
<path d="M53.8385 37.3512C53.9361 37.8835 54.0803 38.4137 54.2395 38.9375C55.0074 37.6469 55.3299 36.1703 55.8836 34.7888L55.7648 34.3643C55.1687 34.548 54.738 34.9937 54.3519 35.45C54.1779 35.2895 54.0082 35.131 53.8449 34.9768C53.8427 35.1226 53.8364 35.4162 53.8364 35.562C53.83 36.1577 53.8215 36.7555 53.8364 37.3533L53.8385 37.3512Z" fill="#4C7359"/>
<path d="M34.2093 38.5343C34.0841 38.5069 33.8359 38.4519 33.7107 38.4266C33.9186 39.3307 33.8635 40.2791 33.594 41.1663C33.4752 41.2086 33.2334 41.2931 33.1125 41.3353C32.9682 41.7155 32.9491 42.1232 32.9979 42.5267C33.6301 43.4012 33.5092 44.4933 33.418 45.5009C32.476 44.4722 31.6932 43.3209 30.8955 42.1824C30.1339 41.1008 29.5887 39.7954 28.3816 39.1173C28.3328 39.7891 28.3116 40.5052 28.6658 41.1114C29.3553 42.3852 30.1466 43.6589 31.3219 44.5461C32.1132 45.1693 32.8982 45.8009 33.664 46.462C34.4511 45.1439 35.48 43.9314 35.881 42.4232C35.0197 42.8541 34.5911 43.7498 33.9908 44.4489C34.0438 43.8469 33.9526 43.1541 34.4235 42.6893C35.4121 41.6036 36.475 40.5812 37.2897 39.3476C37.1645 39.2779 36.9099 39.1385 36.7847 39.0687C35.7707 39.6475 34.9921 40.5347 34.012 41.1642C34.2856 38.8638 36.2544 37.3704 37.0711 35.2961C36.8802 35.0637 36.6914 34.8356 36.5068 34.6074C35.5097 35.6995 34.8839 37.0345 34.275 38.359L34.205 38.5322L34.2093 38.5343Z" fill="#7A9447"/>
<path d="M36.7863 39.068C37.0005 38.5864 37.2233 38.0709 36.956 37.5661C37.0409 37.4689 37.2127 37.283 37.2997 37.188C37.3909 36.3726 37.4842 35.553 37.5479 34.7334C37.3824 34.9151 37.2233 35.1031 37.0748 35.2953C36.258 37.3696 34.2893 38.8631 34.0156 41.1634C34.9957 40.534 35.7743 39.6468 36.7884 39.068H36.7863Z" fill="#4C7454"/>
<path d="M51.1555 34.4785C50.4554 35.6868 49.5792 36.7789 48.7413 37.89C48.4252 38.361 48.0178 39.0433 48.457 39.5714C49.4435 39.018 50.2963 38.2723 51.1046 37.4908C51.8662 36.5993 51.6456 35.4418 51.1576 34.4806L51.1555 34.4785Z" fill="#BFC986"/>
<path d="M33.1124 41.3344C32.5862 40.0902 31.831 38.9665 31.2052 37.7751C30.6005 36.6471 29.8453 35.5951 28.8652 34.7607C27.9699 36.1972 29.1791 37.6441 29.8432 38.8862C30.5984 40.3311 31.8586 41.3957 32.9999 42.5258C32.9511 42.1223 32.9702 41.7147 33.1145 41.3344H33.1124Z" fill="#92A04F"/>
<path d="M5.3188 37.3484C4.77358 36.7886 4.63993 35.9965 4.26018 35.3374C4.18805 35.4705 4.04591 35.7324 3.97803 35.8613C3.69375 35.6543 3.40735 35.4515 3.1358 35.2402C2.85789 35.3543 2.5821 35.4684 2.31055 35.5846C3.82528 37.0041 5.27001 38.4933 6.6723 40.0226C6.79747 39.8663 7.04568 39.5452 7.17085 39.3847C6.51107 38.7447 5.91706 38.0391 5.3188 37.3442V37.3484Z" fill="#729065"/>
<path d="M53.8391 37.3509C53.8242 36.7531 53.8327 36.1553 53.8391 35.5596C53.7288 36.2461 53.3427 36.8439 52.5811 36.8164C52.6999 37.4375 52.7699 38.0627 52.8378 38.6943C53.0032 38.1409 53.3342 37.655 53.837 37.3509H53.8391Z" fill="#9DB468"/>
<path d="M23.3173 38.1578C23.1009 37.3868 22.4305 36.8777 21.9723 36.2588C21.1449 37.1988 21.1916 38.481 21.0664 39.647C21.1131 39.7928 21.2128 40.0885 21.2595 40.2343C21.5056 39.8731 21.7495 39.5118 21.9977 39.1527C22.3541 39.3344 22.7127 39.514 23.0712 39.7104L23.2197 39.8033C23.3003 39.2626 23.4913 38.6986 23.313 38.1578H23.3173Z" fill="#B8C474"/>
<path d="M67.2233 37.8412C66.5359 38.6883 65.5155 39.491 65.6152 40.6971C66.7056 39.5311 67.8173 38.382 68.8992 37.2096C68.6213 37.104 68.3477 37.0026 68.0761 36.9033C67.7876 37.2138 67.5054 37.5265 67.2233 37.8412Z" fill="#688859"/>
<path d="M50.0793 43.067C50.1812 42.596 50.2872 42.127 50.3975 41.6581C50.6139 41.901 50.8303 42.1461 51.0531 42.3911C51.087 42.3024 51.1549 42.1207 51.191 42.0299C51.1973 40.5153 50.9979 39.0028 51.0998 37.4883C50.2915 38.272 49.4386 39.0155 48.4521 39.569L48.5137 39.6746C48.5582 39.7443 48.6473 39.8753 48.6919 39.9429C49.271 40.9293 49.5744 42.0447 50.0793 43.067Z" fill="#A9B866"/>
<path d="M37.6946 42.7078C37.7518 42.5071 37.8664 42.11 37.9237 41.9072C38.1337 42.4226 38.3586 42.938 38.6047 43.4429C38.8699 41.6452 39.2157 39.8371 39.116 38.012C38.8465 37.8958 38.5792 37.7838 38.3162 37.6719C38.2228 38.3521 38.0955 39.0301 37.9555 39.7061C37.7667 40.5341 37.5736 41.358 37.4209 42.1902C37.4867 42.3191 37.6267 42.5768 37.6924 42.7057L37.6946 42.7078Z" fill="#7F9970"/>
<path d="M21.2616 40.2339C21.2149 40.0881 21.1152 39.7924 21.0685 39.6466C20.9327 40.4029 20.7842 41.157 20.6973 41.9217C20.9603 42.2913 21.217 42.6631 21.478 43.0412C22.0974 41.9745 22.6575 40.8718 23.0754 39.71C22.7148 39.5136 22.3584 39.334 22.002 39.1523C21.7538 39.5114 21.5098 39.8727 21.2637 40.2339H21.2616Z" fill="#A4B565"/>
<path d="M7.17238 39.3877C7.04721 39.5482 6.799 39.8672 6.67383 40.0256C7.26148 40.6762 7.77487 41.3818 8.36464 42.0324C8.62134 40.9382 7.96793 40.0468 7.17025 39.3877H7.17238Z" fill="#618054"/>
<path d="M44.9306 44.1803C44.5573 45.1668 44.1499 46.1406 43.8232 47.144C45.4228 47.2411 47.033 47.2876 48.6326 47.1419C48.586 46.6096 48.9975 46.2124 49.4558 46.0202C49.7761 45.3633 50.1792 44.7464 50.4656 44.0747C50.3913 43.7198 50.2216 43.3966 50.0816 43.0692C49.5767 42.0468 49.2733 40.9315 48.6941 39.945C48.6496 39.8795 48.5605 39.7465 48.5159 39.6768C48.2253 40.452 47.6886 41.0836 47.2112 41.7448C46.6024 42.6848 45.9681 43.667 44.9285 44.1824L44.9306 44.1803ZM49.2776 42.7566C49.4685 42.9256 49.6615 43.0967 49.861 43.2657C49.7867 43.9163 49.7506 44.6641 49.163 45.0908C49.1885 44.3113 49.2457 43.5339 49.2776 42.7545V42.7566Z" fill="#3E5E3B"/>
<path d="M47.2113 41.7428C47.1179 41.5886 46.927 41.2802 46.8315 41.126C46.5769 41.2886 46.3245 41.4513 46.0847 41.6287C45.5607 42.4082 45.1895 43.2806 44.9307 44.1826C45.9681 43.6672 46.6024 42.6849 47.2134 41.7449L47.2113 41.7428Z" fill="#5E8054"/>
<path d="M37.6942 42.7077C37.6285 42.5788 37.4884 42.3211 37.4227 42.1922C37.1235 43.8251 36.9899 45.4791 36.9326 47.1352C37.1533 47.1267 37.6009 47.1077 37.8215 47.0993C37.8555 46.981 37.9212 46.7444 37.9552 46.6261C38.1928 45.5699 38.4304 44.5137 38.6065 43.4449C38.3604 42.94 38.1355 42.4246 37.9255 41.9092C37.8682 42.1099 37.7536 42.507 37.6963 42.7098L37.6942 42.7077Z" fill="#6C8A69"/>
<path d="M49.8611 43.2679C49.6616 43.0968 49.4686 42.9257 49.2776 42.7588C49.2479 43.5361 49.1885 44.3135 49.1631 45.0951C49.7507 44.6684 49.7868 43.9206 49.8611 43.27V43.2679Z" fill="#5D8054"/>
<path d="M48.6325 47.1422L48.7853 47.1358C49.2011 46.9077 49.4896 46.5233 49.6551 46.086L49.4556 46.0205C48.9995 46.2127 48.5858 46.6099 48.6325 47.1422Z" fill="#8FB070"/>
<path d="M48.7856 47.1351L48.6329 47.1414C47.0333 47.2871 45.4231 47.2407 43.8235 47.1435C43.7598 47.0252 43.6304 46.7844 43.5668 46.6661C43.3674 46.9069 43.1934 47.2977 42.8137 47.2343C41.2607 47.2766 39.6951 47.2998 38.1485 47.1498C38.1019 47.0168 38.0043 46.7548 37.9576 46.626C37.9237 46.7443 37.8579 46.9809 37.824 47.0991C37.6033 47.1076 37.1557 47.1266 36.9351 47.1351C34.0583 47.2618 31.1413 46.9217 28.29 47.3864C31.5592 47.5343 34.8327 47.3146 38.104 47.4202C43.0194 47.4942 47.9349 47.4202 52.8461 47.3632C51.5011 47.1667 50.1434 47.0822 48.7877 47.1372L48.7856 47.1351Z" fill="#5D6745"/>
<path d="M52.8436 47.3618C47.9324 47.4188 43.0169 47.4949 38.1015 47.4188C34.8323 47.3132 31.5588 47.535 28.2875 47.385C28.1708 47.3935 27.9417 47.4062 27.825 47.4146C27.6871 47.421 27.4071 47.4357 27.2692 47.4421C24.0403 47.4759 20.8114 47.5118 17.5868 47.6512C17.9241 47.9828 18.5966 48.2004 18.5054 48.7877C18.2614 50.7775 17.2622 52.592 17.0097 54.5861C16.176 59.9579 15.9002 65.469 16.6936 70.8619C16.7679 71.6139 16.874 72.3786 17.1922 73.0778L17.3768 72.6912C17.2473 70.8112 19.1567 69.7043 20.7435 69.2945C22.3028 68.7517 24.3267 69.6579 24.6555 71.3372C24.874 72.7398 24.2673 74.4424 22.848 74.9684C21.0851 75.3296 19.1567 74.9303 17.7247 73.8298C17.8414 74.2121 17.9877 74.5945 18.2232 74.9261C19.2585 76.3815 20.0625 77.9996 21.2697 79.3346C24.1973 83.0799 28.6566 85.2345 33.1478 86.5188C39.6544 88.4812 46.5386 88.7938 53.2933 88.4622C53.9637 89.6176 55.3809 89.888 56.571 90.2344C57.6572 90.3126 58.7752 89.9387 59.8211 90.3992C60.8946 90.5091 61.9278 90.0317 62.963 89.7972C64.4481 86.2357 65.8185 82.6088 66.7011 78.8488C68.3282 72.6532 68.9435 66.2274 68.8713 59.8332C68.8565 56.1683 68.7441 52.4695 67.993 48.8743C65.5279 48.3884 63.0203 48.2215 60.5424 47.854C58.0115 47.5139 55.453 47.5308 52.9115 47.3555H52.8393L52.8436 47.3618ZM19.6107 59.1742C19.1927 59.0538 19.4112 58.4792 19.5958 58.2468C20.3235 57.404 21.1933 56.6668 22.1437 56.0817C22.4598 55.8747 22.7759 55.8852 23.0878 56.1091C23.0581 56.7133 22.4322 56.9879 22.0567 57.3765C21.2654 57.9934 20.6078 58.8827 19.6085 59.1721L19.6107 59.1742ZM22.7059 66.5949C20.8793 65.5451 21.1424 62.4927 23.2023 61.8674C24.7149 61.2253 26.5352 62.6004 26.3145 64.2354C26.55 66.0774 24.3076 67.6786 22.7059 66.5949ZM49.4895 62.1146C50.2363 61.9097 51.104 62.0428 51.6937 62.573C52.8478 63.8087 52.5678 66.1218 50.9788 66.8695C49.7781 67.4842 48.3376 66.578 48.0575 65.3486C47.6566 64.1171 48.1594 62.5223 49.4895 62.1167V62.1146ZM42.7729 73.0313C39.9599 75.2894 35.8697 75.6295 32.6026 74.2037C30.5235 73.3186 28.9006 71.5294 28.0647 69.4551C27.7571 68.9734 27.9226 68.1454 28.6269 68.6207C29.2464 70.4796 30.5257 72.1505 32.2907 73.0651C34.8662 74.5121 38.1333 74.548 40.7788 73.2552C42.5417 72.442 43.8994 70.9189 44.7417 69.1995C44.8838 68.7474 45.1851 68.6207 45.6475 68.8193C45.2742 70.5176 44.0967 71.9477 42.7751 73.0313H42.7729ZM54.1759 72.7947C54.038 73.589 53.2573 73.9671 52.5975 74.267C51.2249 74.8965 49.5871 75.1711 48.1509 74.5945C46.6149 73.458 47.0265 70.6084 48.8213 69.9177C49.1395 69.7825 49.4768 69.6853 49.8226 69.6114C50.9958 69.3283 52.2899 69.4382 53.3591 70.0254C54.2841 70.5746 54.3329 71.8484 54.1759 72.7926V72.7947ZM50.9831 58.0356C50.3848 57.3596 49.3601 56.9224 49.1968 55.9613C49.6486 55.4796 50.2405 56.2147 50.6542 56.4577C51.6068 57.3406 53.0006 58.1476 53.0748 59.5861C52.1223 59.5481 51.6683 58.5553 50.9852 58.0335L50.9831 58.0356Z" fill="#EBC5A6"/>
<path d="M56.5739 90.2405C55.3837 89.894 53.9644 89.6237 53.2962 88.4682C46.5435 88.7998 39.6593 88.4872 33.1506 86.5248C28.6595 85.2405 24.198 83.0838 21.2725 79.3406C20.0654 78.0056 19.2613 76.3876 18.2261 74.9321C17.9906 74.5984 17.8442 74.2182 17.7275 73.8358C17.6108 73.4535 17.4899 73.0754 17.3796 72.6972L17.195 73.0838C16.8768 72.3825 16.7707 71.6199 16.6965 70.8679C15.9009 65.4751 16.1788 59.9639 17.0126 54.5921C17.265 52.5981 18.2642 50.7835 18.5082 48.7937C18.5994 48.2064 17.9269 47.9889 17.5896 47.6572C16.0027 47.7037 14.4201 47.7713 12.8375 47.8199C12.7123 47.8896 12.4599 48.029 12.3368 48.0987C9.85047 48.3247 7.26863 48.3437 4.87985 49.0852C4.61466 50.6061 4.61042 52.1629 4.49162 53.7007C4.10339 62.71 4.66346 71.8692 7.33227 80.5363C8.29118 83.5506 9.19917 86.603 10.5951 89.4504C10.7669 89.9637 11.3737 89.9807 11.8192 90.1074C18.5506 91.4593 25.4327 91.9261 32.2914 91.979C40.3276 92.0698 48.385 91.9578 56.3766 91.0453C57.537 90.9016 58.7293 90.8404 59.8303 90.4116C58.7844 89.9511 57.6643 90.3229 56.5802 90.2468L56.5739 90.2405Z" fill="#E9BB91"/>
<path d="M23.0876 56.1112C22.7757 55.8873 22.4596 55.8767 22.1435 56.0837C21.1931 56.6689 20.3233 57.404 19.5956 58.2489C19.4111 58.4813 19.1904 59.0537 19.6105 59.1762C20.6097 58.8868 21.2673 57.9996 22.0587 57.3807C22.432 56.992 23.0579 56.7153 23.0897 56.1133L23.0876 56.1112Z" fill="#2B2928"/>
<path d="M50.6547 56.4573C50.2432 56.2144 49.6491 55.4793 49.1973 55.9609C49.3606 56.92 50.3853 57.3593 50.9836 58.0353C51.6667 58.557 52.1207 59.5498 53.0732 59.5879C52.999 58.1493 51.6051 57.3403 50.6526 56.4595L50.6547 56.4573Z" fill="#23221E"/>
<path d="M24.3054 62.668C23.7729 62.7461 23.1322 63.0207 23.2531 63.6692C23.3083 64.4339 24.2142 64.3198 24.7509 64.1677C24.8252 63.6059 24.8358 63.0102 24.3054 62.668Z" fill="white"/>
<path d="M23.2029 61.8673C21.143 62.4926 20.8799 65.5449 22.7065 66.5948C24.3061 67.6784 26.5506 66.0773 26.3152 64.2353C26.5358 62.6003 24.7156 61.2252 23.2029 61.8673ZM24.7516 64.1677C24.2149 64.3198 23.309 64.4317 23.2539 63.6692C23.1329 63.0207 23.7736 62.7461 24.3061 62.6679C24.8386 63.0101 24.8259 63.6058 24.7516 64.1677Z" fill="#282526"/>
<path d="M50.9813 66.869C52.5703 66.1213 52.8503 63.8082 51.6963 62.5725C51.1065 62.0423 50.2388 61.9113 49.492 62.1141C48.1619 62.5197 47.6591 64.1124 48.06 65.346C48.3401 66.5754 49.7806 67.4837 50.9813 66.8669V66.869ZM50.2027 63.7174C50.2324 63.1238 50.9283 63.1555 51.3674 63.1766C51.4226 63.4935 51.5371 63.8103 51.5117 64.142C51.238 64.8285 49.9588 64.4926 50.2027 63.7174Z" fill="#2B2728"/>
<path d="M51.5116 64.1422C51.537 63.8105 51.4225 63.4937 51.3673 63.1768C50.9261 63.1557 50.2323 63.124 50.2026 63.7176C49.9587 64.4928 51.2379 64.8287 51.5116 64.1422Z" fill="#FFFDFD"/>
<path d="M44.7398 69.1987C43.8976 70.9182 42.5419 72.4412 40.7769 73.2545C38.1314 74.5473 34.8643 74.5114 32.2888 73.0644C30.5259 72.1497 29.2466 70.4788 28.6251 68.62C27.9207 68.1468 27.7553 68.9727 28.0629 69.4543C28.8987 71.5287 30.5217 73.3179 32.6007 74.203C35.8678 75.6288 39.958 75.2887 42.7711 73.0306C44.0927 71.9469 45.268 70.5169 45.6435 68.8185C45.1811 68.62 44.8798 68.7467 44.7377 69.1987H44.7398Z" fill="#25221B"/>
<path d="M22.8506 74.9717C24.272 74.4458 24.8766 72.7432 24.6581 71.3406C24.3292 69.6613 22.3054 68.755 20.7461 69.2979C19.1592 69.7077 17.2499 70.8146 17.3793 72.6946C17.4896 73.0727 17.6126 73.4508 17.7272 73.8332C19.1592 74.9337 21.0855 75.333 22.8506 74.9717Z" fill="#E39E81"/>
<path d="M49.8233 69.611C49.4775 69.6849 49.1402 69.7821 48.8219 69.9173C47.0272 70.6059 46.6156 73.4576 48.1516 74.594C49.5878 75.1707 51.2256 74.894 52.5982 74.2666C53.2579 73.9667 54.0387 73.5885 54.1765 72.7943C54.3335 71.848 54.2847 70.5742 53.3598 70.0271C52.2906 69.4399 50.9986 69.33 49.8233 69.6131V69.611Z" fill="#E4A082"/>
</g>
<defs>
<clipPath id="clip0_7197_2208">
<rect width="73" height="92" fill="white"/>
</clipPath>
</defs>
</svg>
