<svg width="66" height="91" viewBox="0 0 66 91" fill="none" xmlns="http://www.w3.org/2000/svg">
<g clip-path="url(#clip0_7197_2084)">
<path d="M59.29 53.4188C59.0566 53.7606 58.7969 54.1504 58.3302 54.1634C55.3144 54.6729 52.2479 54.8014 49.2211 55.1976C46.65 55.1236 44.081 55.1976 41.5143 55.1889C39.7136 55.2738 37.9107 55.1475 36.1145 55.2956C35.3484 55.3348 34.5845 55.2716 33.8207 55.215C33.0128 55.165 32.2049 55.1976 31.3992 55.2063C30.2281 55.1976 29.0614 55.1824 27.8925 55.1562C27.3246 55.1083 26.7699 55.0234 26.2085 54.9581C25.022 54.8536 23.8333 54.8101 22.649 54.7426C22.5873 54.7404 22.5257 54.7382 22.4619 54.736C22.1845 54.7513 21.9159 54.736 21.654 54.7034C18.8429 54.5945 16.0252 54.5031 13.2559 53.9784C12.972 54.1003 12.6924 54.2287 12.415 54.3594C13.1987 58.0324 13.3176 61.7947 13.7622 65.5156C14.5503 71.4681 15.9305 77.4534 18.8297 82.7767C19.6552 84.4162 21.1873 85.7291 21.381 87.6407C23.5295 88.9884 25.8827 90.0661 28.4164 90.4493C32.1917 91.0307 36.0396 91.1308 39.8457 90.8347C40.2309 90.7041 40.6162 90.5647 40.9992 90.4276C38.9828 90.0923 36.9466 89.7461 35.016 89.069C32.9666 88.0979 31.4675 86.3039 30.2215 84.4793C28.8611 82.4676 28.1611 80.1074 27.8221 77.7299C26.8293 71.2047 25.973 64.6447 25.7462 58.0433C25.7815 57.4554 25.6032 56.3037 26.5277 56.3995C30.1511 56.3559 33.7833 56.3276 37.411 56.48C40.0064 56.6847 42.6106 56.7674 45.2169 56.726C48.6598 56.6542 52.0872 57.0461 55.5301 57.0156C57.311 57.0766 58.6824 55.485 60.5029 55.731C61.1237 55.7615 61.0576 56.5214 61.1963 56.959C61.2381 55.6875 61.4362 54.4116 61.291 53.1423C60.8551 52.7656 60.2629 52.6698 59.7324 52.5109C57.7534 52.0058 55.7678 51.4832 53.725 51.333C53.408 51.6095 53.0954 51.8882 52.7873 52.1712C54.9776 52.3672 57.2493 52.5261 59.29 53.4166V53.4188ZM17.39 72.154C17.8215 71.8187 18.1759 72.5894 17.7995 72.8507C17.3636 73.1751 17.0048 72.4044 17.39 72.154ZM17.8897 74.0503C18.5061 73.8 18.8297 74.4031 19.0344 74.8581C18.5215 74.9169 17.5309 74.7971 17.8897 74.0503ZM18.2794 71.7642C18.0724 71.4246 18.5105 71.0915 18.8231 71.0523C19.7168 70.9935 18.746 72.1736 18.2794 71.7642ZM20.408 74.0155C19.948 74.157 19.7917 74.0046 19.9436 73.5605C20.3948 73.4124 20.5511 73.5626 20.408 74.0155ZM19.5759 71.037C20.3464 70.4993 21.2908 70.656 22.1625 70.7801C21.5175 71.4747 20.2671 71.9101 19.5759 71.037ZM22.277 73.4821C21.687 73.702 21.5901 72.7745 22.1383 72.6961C22.704 72.498 22.7855 73.3819 22.277 73.4821ZM20.8857 75.3828C21.731 75.1346 22.5433 74.3247 23.4525 74.8058C22.7789 75.5135 21.7883 75.5701 20.8857 75.3828ZM23.6286 71.5313C23.36 71.7795 22.8185 71.3963 23.0254 71.0784C23.2852 70.8258 23.8245 71.2025 23.6286 71.5313ZM21.8367 68.8903C19.6794 68.5071 19.5671 65.1868 21.3568 64.2484C22.6204 63.5843 24.6324 64.2462 24.8525 65.7703C25.3786 67.499 23.6044 69.341 21.8367 68.8903Z" fill="#E38F92"/>
<path d="M53.1175 8.0622C52.8776 8.16453 52.6398 8.26686 52.4131 8.37573C53.3905 8.29952 54.4097 8.51289 55.1097 9.23791C56.7255 8.13188 58.4359 7.14994 60.2982 6.5033C60.0781 6.52725 59.6356 6.57297 59.4155 6.59692C59.869 4.91173 60.4237 3.01536 59.574 1.36065C58.9796 0.141397 57.3661 -0.320178 56.1509 0.224132C54.3613 0.846823 53.3795 2.58208 52.4967 4.11704C52.8974 5.40814 51.9772 7.04979 53.1219 8.06003L53.1175 8.0622Z" fill="#E7A4A1"/>
<path d="M46.8155 6.36166C48.09 7.44158 49.2655 8.71526 50.8791 9.31183C51.097 9.12894 51.326 8.96129 51.5659 8.80453C51.654 6.61205 51.6782 4.42392 51.5329 2.23797V2.12475C50.8241 1.20596 49.7785 0.42868 48.5677 0.439566C47.3262 0.448275 46.3774 1.53907 46.0318 2.6364C45.6312 3.72067 45.9966 4.87025 45.946 5.98718C45.9283 6.23974 45.9107 6.50101 45.8931 6.7601C46.1991 6.62511 46.5073 6.4923 46.8177 6.36384L46.8155 6.36166Z" fill="#E8A4A1"/>
<path d="M51.5655 8.80484C51.8385 8.6459 52.1202 8.50438 52.413 8.3781C52.6419 8.26706 52.8775 8.16473 53.1174 8.06458C51.9749 7.05652 52.8951 5.4127 52.4923 4.1216C52.2941 3.43576 51.9397 2.8109 51.5303 2.23828C51.6756 4.42423 51.6535 6.61454 51.5633 8.80484H51.5655Z" fill="#E3918F"/>
<path d="M7.1296 19.136C6.43619 18.7963 5.73837 18.4719 5.04495 18.1432C6.15221 18.1127 7.26388 18.0844 8.35574 17.871C7.70635 17.2919 6.9667 16.8325 6.22706 16.3905C4.90407 15.6023 4.01913 14.3069 3.17163 13.0658C4.28109 13.4599 4.86664 14.5246 5.70755 15.2692C6.4604 15.9942 7.38055 16.5146 8.33152 16.9544C8.40417 16.8107 8.54945 16.5211 8.61769 16.3774C8.18844 15.8092 7.47521 15.2453 7.78119 14.4527C8.21265 14.9252 8.6221 15.4151 9.04695 15.8984C9.14821 15.4107 9.27589 14.8925 9.02274 14.4288C8.55386 13.3924 8.11359 12.3103 8.25228 11.1542C8.88405 12.6413 9.25608 14.2916 10.4162 15.4956C11.1272 14.3286 11.1514 12.9461 11.3605 11.6376C11.9813 12.3278 11.9395 13.3119 12.1112 14.1653C12.5955 13.0136 13.6301 12.2298 14.2289 11.152C13.9295 9.64104 14.4556 8.00157 13.6609 6.57766C13.2757 5.57613 11.9263 5.09931 11.048 5.77861C9.49602 6.93908 8.81802 8.87029 8.44819 10.6926C7.86044 9.79344 7.21325 8.84852 6.17643 8.42178C5.35974 8.01681 4.34713 8.49363 3.92668 9.24696C3.19364 10.316 3.44459 11.668 3.65592 12.859C2.65872 12.8568 1.61089 12.9722 0.785395 13.5731C-0.0841267 14.1087 -0.242622 15.4042 0.369345 16.1858C1.15302 17.1699 2.32632 17.7295 3.43578 18.2803C2.44519 18.8377 1.24987 19.4256 0.987916 20.6383C0.796402 21.372 1.24987 22.0078 1.72316 22.526L1.86624 22.4824C3.9619 22.0143 5.86604 20.8756 7.1296 19.1382V19.136Z" fill="#E8A3A0"/>
<path d="M14.9665 27.816C16.0539 28.3756 16.7429 27.239 17.2977 26.5184C17.498 26.0437 17.6939 25.5669 17.8612 25.0814C17.8326 24.1735 17.3791 23.3548 17.0665 22.5231C17.4408 22.4469 17.8194 22.3751 18.2002 22.3054C16.2631 22.6298 14.4426 21.3757 13.54 19.7559C13.2847 19.9866 13.0161 20.2109 12.7409 20.4265C12.523 21.2037 12.2192 21.9679 12.1114 22.7757C12.1334 23.8077 12.8158 24.7221 12.7497 25.7759C11.2462 24.5131 10.6981 22.5972 9.61947 21.0383C8.78077 22.1443 8.25685 23.431 7.56784 24.6242C7.18921 24.3651 6.81059 24.1082 6.43416 23.8513C6.56624 23.2525 6.70272 22.6538 6.84361 22.0594C7.65809 21.6893 8.45937 21.2494 9.03172 20.5462C7.99269 20.6572 7.19362 21.3823 6.22283 21.674C5.14859 21.9984 4.11177 22.423 3.05073 22.7779C2.89223 23.4093 2.69191 24.1147 3.14098 24.6895C3.95107 26.022 5.75615 25.8413 7.07474 25.5386C7.0087 26.5772 7.15839 27.6984 7.98609 28.4343C9.08675 29.7146 11.4224 29.2704 11.9969 27.6919C12.2897 27.054 12.6111 26.4313 12.9413 25.8173C13.7183 26.3834 14.2422 27.202 14.9709 27.8182L14.9665 27.816Z" fill="#E8A3A0"/>
<path d="M65.8324 7.87913C65.3393 6.81446 64.0912 6.58585 63.0478 6.41167L63.0125 6.45957C62.6361 7.0017 62.2047 7.5373 61.5795 7.80946C59.7964 8.69777 57.8438 9.25515 56.2061 10.42C56.1312 10.7705 56.0608 11.1232 55.9903 11.4825C55.8517 11.1798 55.7152 10.8815 55.5963 10.5811C55.6073 11.0601 55.6051 11.5434 55.5787 12.0268C56.3976 12.3033 57.2253 12.5515 58.0596 12.7823C57.0778 12.8324 56.0982 12.8737 55.1164 12.9042C54.6431 13.5596 54.0069 14.0864 53.2937 14.4784C53.3884 14.4871 53.5799 14.5023 53.6745 14.511C53.6812 14.7592 53.6878 15.0096 53.6944 15.2643C54.3393 15.9153 54.9733 16.5794 55.5281 17.3109C54.3217 16.7906 53.5315 15.7063 52.4792 14.9704C52.1975 16.0656 52.0786 17.1999 52.1402 18.3321C52.1622 19.5862 52.4748 20.9012 51.9245 22.0987C51.6912 20.7336 51.5723 19.3423 51.0836 18.0381C50.5993 16.7928 51.0286 15.4581 51.0242 14.1735C50.5201 14.6068 50.071 15.1054 49.7782 15.7063C49.0166 17.1629 47.9819 18.4475 46.9957 19.756C47.1322 18.4583 46.9671 17.1302 47.3303 15.8631C46.3772 16.4292 45.4086 17.004 44.3189 17.2543C45.8819 15.7847 48.0017 15.1925 49.7188 13.9623C49.0166 13.5138 48.3385 13.0196 47.8631 12.3338C48.4838 12.5493 49.0958 12.7975 49.7056 13.0479C49.6395 12.5754 49.6109 12.0986 49.4766 11.6479C48.5014 9.27692 45.2545 8.63246 44.724 6.01977C44.9353 5.98711 45.3558 5.91961 45.5693 5.88913C43.9909 5.14016 41.5167 5.74543 41.0874 7.59827C40.843 9.76898 43.128 11.0884 44.9419 11.6262C43.5881 12.079 42.0031 12.7562 41.5475 14.2258C41.1799 15.6758 42.4962 16.8864 43.795 17.2587C42.6437 18.7153 43.2117 20.7227 44.2309 22.09C44.4752 22.4144 44.7504 22.7279 45.041 23.0218C45.3976 23.1155 45.7608 23.1873 46.1284 23.2679C46.5159 22.7475 46.9143 22.2315 47.3193 21.722C47.5285 22.0987 47.7376 22.4819 47.9753 22.8542C48.2747 23.2091 48.5961 23.5553 48.9263 23.8927C49.1134 23.8601 49.492 23.7904 49.6791 23.7556C50.7996 23.4965 51.6339 22.6713 52.499 21.9789C52.4902 21.2953 52.5012 20.616 52.5387 19.9389C53.1418 20.6443 53.4368 21.6284 54.2931 22.1009C55.2353 22.6887 56.5979 23.0632 57.5357 22.2598C58.8961 21.0885 59.2615 19.142 59.1052 17.4372C57.5555 17.2282 56.3095 16.0743 55.3696 14.9116C56.1026 15.2643 56.7586 15.752 57.4718 16.1461C60.2367 17.1803 64.0472 16.4444 65.3195 13.54C65.3283 12.7453 63.684 12.238 64.5359 11.5238C65.4956 10.6137 66.385 9.21813 65.8368 7.87913H65.8324Z" fill="#E7A29F"/>
<path d="M49.477 11.644C49.6113 12.0969 49.6377 12.5737 49.706 13.044C49.0962 12.7936 48.4842 12.5454 47.8635 12.3299C48.3411 13.0157 49.017 13.5099 49.7192 13.9584C48.0021 15.1886 45.8845 15.7808 44.3193 17.2504C45.409 17 46.3776 16.4231 47.3307 15.8592C46.9675 17.1285 47.1326 18.4544 46.9961 19.7521C47.9823 18.4414 49.017 17.1568 49.7786 15.7024C50.0714 15.1015 50.5205 14.6029 51.0246 14.1696C51.0268 15.4542 50.5975 16.7888 51.084 18.0342C51.5749 19.3384 51.6916 20.7296 51.9249 22.0948C52.473 20.8973 52.1626 19.5822 52.1406 18.3282C52.079 17.1982 52.2001 16.0616 52.4796 14.9665C53.5341 15.7024 54.3221 16.7867 55.5285 17.307C54.9737 16.5755 54.3375 15.9114 53.6948 15.2604C53.6882 15.0057 53.6816 14.7553 53.6749 14.5071C53.5803 14.4984 53.3888 14.4831 53.2941 14.4744C51.5243 14.6791 50.0516 13.1267 49.9481 11.4633C49.8865 10.636 50.3642 9.90876 50.8793 9.30784C49.2657 8.71127 48.088 7.43759 46.8156 6.35768C46.503 6.48831 46.1971 6.61894 45.8911 6.75393C45.9087 6.49484 45.9263 6.23575 45.9439 5.98101L45.5697 5.88086C45.3584 5.91134 44.9379 5.97666 44.7244 6.01149C45.2549 8.62201 48.5018 9.26865 49.477 11.6397V11.644Z" fill="#E49393"/>
<path d="M55.5968 10.5818C55.7135 10.8822 55.85 11.1805 55.9909 11.4831C56.0613 11.1239 56.1296 10.7712 56.2066 10.4206C57.8466 9.25364 59.797 8.69844 61.58 7.81013C62.2052 7.53797 62.6367 7.00237 63.0131 6.46024C62.1304 6.2055 61.1596 6.16849 60.2989 6.50378C58.4365 7.1526 56.7283 8.13236 55.1104 9.2384C55.2821 9.68038 55.4383 10.1311 55.599 10.5818H55.5968Z" fill="#E39494"/>
<path d="M52.4132 8.37578C52.1205 8.50206 51.8387 8.64358 51.5657 8.80251C51.3258 8.95928 51.0969 9.12692 50.8789 9.30981C50.3638 9.91073 49.8861 10.6379 49.9478 11.4653C50.0512 13.1287 51.5217 14.6811 53.2938 14.4764C54.007 14.0845 54.6432 13.5576 55.1165 12.9023C55.2772 12.6105 55.4313 12.3188 55.5787 12.0248C55.603 11.5415 55.6074 11.0603 55.5964 10.5791C55.4379 10.1306 55.2816 9.67777 55.1077 9.23579C54.4076 8.51076 53.3906 8.29522 52.411 8.3736L52.4132 8.37578Z" fill="#FDFFFF"/>
<path d="M13.4214 15.5714C14.3349 14.6896 15.1582 13.6031 16.5164 13.3941C15.5192 14.3477 14.3877 15.199 13.745 16.4553C13.9255 16.7906 14.0972 17.1368 14.2601 17.4873C14.6695 18.2929 14.9997 19.1464 15.528 19.8888C16.4878 20.9274 17.8504 21.4717 19.1712 21.905L19.2351 21.9267C20.4414 20.8795 21.9075 19.584 21.6037 17.8096C21.6059 17.0345 20.8508 16.6622 20.3401 16.2245C20.6197 15.3057 21.0445 14.2563 20.4568 13.3658C20.0209 12.5058 19.0149 12.3273 18.141 12.299C18.5835 11.8026 19.409 11.3867 19.2439 10.6094C19.2042 9.80384 18.2709 9.53169 17.6237 9.32703C16.7828 9.02439 15.9265 9.35751 15.1978 9.76901V9.86045C15.2066 11.9245 13.8682 13.6902 13.166 15.5648L13.417 15.5757L13.4214 15.5714Z" fill="#E8A3A1"/>
<path d="M9.02956 20.5467C8.45721 21.25 7.65593 21.6919 6.84144 22.0599C6.69836 22.6565 6.56188 23.253 6.432 23.8518C6.80842 24.1087 7.18705 24.3656 7.56568 24.6247C8.25469 23.4315 8.77861 22.1426 9.61731 21.0388C10.696 22.5955 11.2463 24.5136 12.7476 25.7764C12.8136 24.7227 12.1312 23.8082 12.1092 22.7762C12.2171 21.9684 12.5209 21.2042 12.7388 20.427C11.724 21.1019 10.2887 20.9038 9.53366 19.9523C8.65533 18.5959 9.2607 16.6538 10.5815 15.8112C11.5875 15.1471 13.0866 15.4476 13.7426 16.4557C14.3832 15.2016 15.5146 14.3503 16.514 13.3945C15.1558 13.6035 14.3347 14.6899 13.419 15.5717L13.168 15.5608C13.8703 13.6862 15.2087 11.9205 15.2021 9.85645C14.7816 10.2113 14.4514 10.6511 14.2269 11.1497C13.6281 12.2275 12.5935 13.0113 12.1092 14.163C11.9397 13.3074 11.9815 12.3233 11.3586 11.6353C11.1494 12.9416 11.1252 14.3263 10.4142 15.4933C9.25409 14.2893 8.88427 12.6368 8.25029 11.1519C8.11161 12.3102 8.55187 13.3901 9.02075 14.4265C9.2739 14.8902 9.14623 15.4084 9.04497 15.8961C8.62231 15.4128 8.21067 14.9229 7.77921 14.4504C7.47322 15.2408 8.18645 15.8068 8.61571 16.3751C8.54527 16.5188 8.39998 16.8084 8.32954 16.9521C7.37857 16.5145 6.45841 15.9919 5.70556 15.2669C4.86466 14.5223 4.27911 13.4576 3.16964 13.0635C4.01715 14.3046 4.89988 15.6 6.22507 16.3882C6.96692 16.8302 7.70436 17.2895 8.35375 17.8687C7.2619 18.0842 6.14803 18.1104 5.04296 18.1409C5.73638 18.4696 6.4342 18.794 7.12762 19.1337C5.86406 20.8711 3.95992 22.0098 1.86426 22.4779C2.24949 22.5628 2.62812 22.9003 3.04637 22.7762C4.1074 22.4235 5.14643 21.9989 6.21847 21.6723C7.19145 21.3806 7.98833 20.6556 9.02736 20.5445L9.02956 20.5467Z" fill="#E39291"/>
<path d="M58.0594 12.7828C57.2251 12.5521 56.3974 12.3039 55.5785 12.0273C55.431 12.3191 55.2769 12.6108 55.1162 12.9048C56.098 12.8743 57.0776 12.8329 58.0594 12.7828Z" fill="#D6898D"/>
<path d="M57.4675 16.1462C56.7543 15.7521 56.0983 15.2644 55.3652 14.9117C56.3052 16.0743 57.5511 17.2283 59.1009 17.4373C60.6792 17.3785 62.3941 17.4896 63.7897 16.6317C64.8595 16.0199 65.5199 14.7593 65.3152 13.54C64.045 16.4423 60.2324 17.1804 57.4675 16.1462Z" fill="#DC8D8D"/>
<path d="M13.7446 16.4557C13.0886 15.4476 11.5895 15.145 10.5835 15.8112C9.2627 16.656 8.65733 18.5959 9.53566 19.9523C10.2907 20.9038 11.726 21.1019 12.7408 20.4269C13.0159 20.2114 13.2845 19.9893 13.5399 19.7564C13.9075 19.0444 14.1386 18.2736 14.2597 17.4877C14.0946 17.1371 13.9251 16.7931 13.7446 16.4557Z" fill="#FDFDFD"/>
<path d="M14.2599 17.4856C14.141 18.2716 13.9077 19.0423 13.54 19.7543C14.4426 21.3763 16.2631 22.6304 18.2002 22.3038C18.5436 22.2276 18.8672 22.0948 19.171 21.901C17.8502 21.4677 16.4876 20.9256 15.5278 19.8849C14.9973 19.1425 14.6693 18.289 14.2599 17.4834V17.4856Z" fill="#E39290"/>
<path d="M46.5953 23.8251C47.1214 24.5741 47.2667 25.4842 47.2314 26.3856C47.6057 25.236 47.7245 24.0276 47.9733 22.8519C47.7355 22.4796 47.5264 22.0964 47.3173 21.7197C46.9123 22.2292 46.5138 22.7452 46.1264 23.2656C45.7588 23.185 45.3955 23.1132 45.0389 23.0195C45.0103 23.7925 45.0037 24.5654 44.9795 25.3405C45.433 24.7526 46.0163 24.2845 46.5931 23.8251H46.5953Z" fill="#91C4C0"/>
<path d="M49.4287 26.3797C49.9086 26.4276 50.3951 26.5234 50.8838 26.4711C51.236 26.1075 51.5024 25.6808 51.7907 25.2693C51.8238 26.0226 51.892 26.7781 51.9448 27.5358C52.2926 26.0335 51.8017 24.4027 52.4489 22.9788C52.515 22.8308 52.6492 22.5347 52.7197 22.3866C52.7131 22.2451 52.7021 21.9599 52.6977 21.8184L52.4996 21.9773C51.6322 22.6697 50.8001 23.4927 49.6797 23.7539C49.5784 24.627 49.4904 25.5023 49.4309 26.3819L49.4287 26.3797Z" fill="#AED5D4"/>
<path d="M43.3768 26.6337C43.39 28.0381 43.1171 29.4271 43.1325 30.8336C43.3526 30.0716 43.5419 29.303 43.707 28.5323C43.9051 27.3849 44.6492 26.4422 44.9838 25.3426C45.0058 24.5675 45.0146 23.7924 45.0432 23.0217C44.7504 22.7278 44.4775 22.4143 44.2331 22.0898C43.9822 22.2836 43.7334 22.4796 43.4891 22.6777C43.663 22.8737 43.8369 23.074 44.0152 23.2764C43.7334 24.3803 43.346 25.482 43.379 26.6381L43.3768 26.6337Z" fill="#86B4B4"/>
<path d="M52.4027 30.227C52.3168 32.5044 52.242 34.8688 51.1963 36.959C50.6812 37.856 50.6812 38.8924 50.5403 39.8852C49.8888 41.0544 49.4067 42.2976 48.995 43.5691C48.251 45.7768 47.1415 47.8452 46.3975 50.0529C46.5427 49.8679 46.8289 49.4934 46.972 49.3061C47.4519 48.481 47.8966 47.6384 48.3368 46.7936C48.7793 45.2586 49.6224 43.8826 50.2234 42.413C50.591 41.2242 50.8529 40.0006 51.3416 38.851C52.3674 36.3428 52.7483 33.6474 53.6442 31.1044L53.6508 31.0609C53.5892 28.176 54.0669 25.0538 52.7175 22.3867C52.647 22.5348 52.5149 22.8309 52.4467 22.9789C52.5964 25.3891 52.7813 27.8255 52.4027 30.227Z" fill="#CEE9E7"/>
<path d="M40.1278 36.3534C40.1587 35.5653 40.1256 34.7401 40.4096 33.9933C40.7046 33.5818 41.2263 33.4642 41.6776 33.2966C41.8647 32.8894 42.0562 32.4888 42.2719 32.0991C42.1993 31.6571 42.2521 31.2195 42.3336 30.7928C42.5229 30.8581 42.8993 30.9909 43.0886 31.0584C43.0996 31.004 43.1194 30.8907 43.1304 30.8341C43.1172 29.4276 43.3902 28.0386 43.3748 26.6342C43.3418 25.4781 43.7292 24.3764 44.011 23.2726C43.8327 23.0723 43.6566 22.8698 43.4849 22.6738C41.6181 25.5434 40.0442 28.7614 39.6436 32.1797C39.736 32.2428 39.9187 32.3756 40.0112 32.4388C39.8769 33.7408 39.7712 35.0754 40.1278 36.3513V36.3534Z" fill="#A6CECD"/>
<path d="M45.9045 29.0056C46.2325 28.8707 46.5649 28.7357 46.8907 28.5833C47.014 28.2436 47.1395 27.904 47.2672 27.5708C47.6546 26.2667 48.588 25.2107 48.9226 23.8891C48.5946 23.5495 48.271 23.2055 47.9716 22.8506C47.7228 24.0285 47.604 25.2347 47.2297 26.3843C46.9194 27.3161 46.4439 28.1848 45.9023 29.0035L45.9045 29.0056Z" fill="#7FABAB"/>
<path d="M50.04 38.3215C50.2073 38.8397 50.3746 39.3601 50.5397 39.8848C50.6784 38.892 50.6784 37.8556 51.1957 36.9586C52.2414 34.8684 52.3162 32.504 52.4021 30.2266C52.7807 27.8251 52.598 25.3887 52.4461 22.9785C51.7989 24.4046 52.2898 26.0332 51.942 27.5355C51.7108 29.5407 51.5567 31.5634 51.0637 33.5273C50.6564 35.1101 50.5838 36.7692 50.04 38.3215Z" fill="#A7CEC9"/>
<path d="M40.6891 48.1167C40.284 46.7189 41.3671 45.5214 41.6445 44.2151C42.1265 40.971 42.3313 37.6398 43.4473 34.5242C44.1165 32.6278 44.7329 30.6704 45.904 29.0049C46.4455 28.1862 46.921 27.3175 47.2314 26.3856C47.2666 25.4843 47.1235 24.5742 46.5952 23.8252C46.0185 24.2846 45.4351 24.7549 44.9817 25.3406C44.6471 26.4401 43.903 27.3828 43.7049 28.5302C43.5398 29.3031 43.3505 30.0717 43.1303 30.8316C43.1193 30.886 43.0995 30.9992 43.0885 31.0558C43.0159 31.3976 42.9542 31.746 42.8794 32.09C42.7935 32.7432 42.3995 33.2635 41.6775 33.294C41.2262 33.4617 40.7045 33.5814 40.4095 33.9907C40.1255 34.7375 40.1586 35.5627 40.1277 36.3509C40.4139 37.3829 40.7221 38.4236 40.6605 39.5079C40.601 40.2917 41.2812 40.8403 41.497 41.5479C41.6136 42.2381 41.4353 42.9348 41.3209 43.6185C41.0413 43.6098 40.7661 43.6054 40.4954 43.6054C40.4227 44.792 40.2796 45.9743 40.0947 47.15C40.1476 47.4309 40.2092 47.7161 40.284 47.9991C40.3853 48.0296 40.5878 48.084 40.6891 48.1145V48.1167Z" fill="#B0D6D4"/>
<path d="M47.6626 28.755C47.9554 28.4241 48.2503 28.0953 48.5497 27.7709C48.7082 28.5264 48.8887 29.2797 49.0406 30.0396C49.1947 28.8203 49.3576 27.6054 49.428 26.3818C49.4875 25.5022 49.5755 24.6292 49.6768 23.7539C49.4897 23.7887 49.1111 23.8584 48.9239 23.8911C48.5893 25.2127 47.656 26.2686 47.2686 27.5728C47.4006 27.9647 47.5327 28.3588 47.6648 28.755H47.6626Z" fill="#9DC6C5"/>
<path d="M17.3424 27.9558C17.4239 28.2257 17.5119 28.5023 17.6066 28.7766C18.6654 30.5489 18.9384 32.6238 19.6913 34.5202C20.3913 36.3186 20.7567 38.2171 21.3555 40.0482C21.5161 39.9567 21.8441 39.776 22.0048 39.6846C21.7231 38.7723 21.3731 37.749 21.7847 36.8237C22.0907 36.3077 22.5992 35.9571 23.0108 35.5326C23.0218 35.4738 23.0417 35.3584 23.0527 35.3018C21.93 33.6384 22.0026 31.546 21.1353 29.7759C20.7545 28.6786 19.9136 27.5595 20.2856 26.3577C19.5306 25.8395 18.7381 25.3605 17.8598 25.084C17.6925 25.5695 17.4965 26.0463 17.2962 26.521C17.283 26.9956 17.294 27.4768 17.3402 27.9579L17.3424 27.9558Z" fill="#CCE8E2"/>
<path d="M48.1733 35.0715C47.8497 36.5651 47.2091 37.9824 47.0308 39.513C47.6339 39.6176 48.5783 39.3476 48.6642 40.2185C48.0984 40.0965 47.5371 39.9659 46.989 39.807C46.5619 41.527 46.1326 43.2862 46.311 45.0759C46.5905 44.4445 46.7644 43.7804 46.8965 43.1099C47.0836 43.1316 47.4578 43.1795 47.6428 43.2035C47.6207 43.6259 47.6009 44.0461 47.5921 44.475C49.1617 42.7898 49.0142 40.2947 50.04 38.3221C50.5837 36.7697 50.6564 35.1107 51.0636 33.5278C51.5567 31.5639 51.7108 29.5413 51.9419 27.536C51.8891 26.7784 51.8231 26.0229 51.7878 25.2695C51.5017 25.681 51.2331 26.1078 50.8809 26.4714C50.3922 26.5236 49.9057 26.4278 49.4258 26.3799C49.3554 27.6035 49.1925 28.8206 49.0384 30.0377C48.9261 31.7381 48.5343 33.4059 48.1711 35.0693L48.1733 35.0715ZM49.7692 34.1222C50.0488 33.7913 50.6586 34.2398 50.379 34.5947C50.0928 34.9191 49.4809 34.4706 49.7692 34.1222Z" fill="#BDDCDA"/>
<path d="M32.5576 37.4526C32.8614 37.2283 33.174 37.0171 33.4888 36.8103C34.6731 35.8349 36.3813 36.1048 37.5634 36.9365C38.3713 37.6594 38.171 39.129 37.264 39.6929C36.7181 40.0413 36.1105 40.2743 35.5228 40.5334C36.0445 40.9405 36.9448 41.2475 36.7643 42.0748C36.782 42.6431 36.203 42.9261 35.8838 43.3159C35.1838 43.8428 35.3577 44.8051 35.0429 45.5388C34.7281 46.044 34.0897 46.1724 33.5526 46.3118C33.7419 47.7749 34.0765 49.238 34.8624 50.5117C36.3901 50.4703 37.2552 51.7832 38.0895 52.8326C38.4417 52.5038 38.7764 52.1511 38.9921 51.7178C39.3817 49.7888 39.56 47.8271 39.8264 45.8785C40.194 42.5212 39.2496 39.251 38.4065 36.0417C38.0389 34.0365 36.6895 32.2947 36.7753 30.2023C37.2817 30.0804 37.7902 29.9563 38.3053 29.8431C37.909 28.4388 37.4754 26.9648 36.4738 25.8587C36.0511 25.3297 35.23 25.6062 34.9439 26.1353C33.6451 28.1013 33.3039 30.481 33.0925 32.7737C33.797 34.2956 33.4249 36.0722 32.5576 37.4526Z" fill="#C6E2DD"/>
<path d="M13.5224 33.3729C13.6478 33.3075 13.8988 33.1726 14.0243 33.1051C13.8393 32.9635 13.6588 32.8264 13.4805 32.6936C13.5003 32.5803 13.5356 32.3604 13.5554 32.2472C13.2274 31.4264 13.3969 30.549 13.573 29.7173C13.7117 29.739 13.9912 29.7804 14.1277 29.8022C14.1453 29.8871 14.1717 30.0569 14.1894 30.1418C14.4909 29.9415 14.7881 29.7303 15.1205 29.5758C15.6026 29.4995 15.924 29.9154 16.2476 30.1984C16.2674 29.9851 16.307 29.5605 16.3246 29.3493C16.5646 29.7151 16.7979 30.0852 17.0401 30.4575C17.0159 29.8044 16.8816 29.1643 16.6416 28.5612C16.8706 28.3543 17.1017 28.1497 17.3416 27.9537C17.2932 27.4747 17.2822 26.9914 17.2976 26.5167C16.7429 27.2396 16.0539 28.3739 14.9664 27.8144C14.2378 27.196 13.7139 26.3774 12.9368 25.8135C12.6044 26.4275 12.2852 27.0523 11.9924 27.6881C11.4399 31.5462 12.2016 35.6372 14.1894 39.0141C14.3875 38.7223 14.59 38.4349 14.7969 38.1519C14.2972 36.5778 13.9362 34.9666 13.5224 33.3707V33.3729Z" fill="#9FCCCB"/>
<path d="M21.1373 29.7737C22.0046 31.5438 21.932 33.6362 23.0547 35.2996C23.1493 34.764 23.2088 34.2218 23.3937 33.7124C23.8295 33.0396 24.7057 33.1332 25.4057 33.0744C24.8642 32.4452 24.4393 31.7398 24.0145 31.0344C22.9798 29.323 21.6767 27.7924 20.2854 26.3555C19.9156 27.5573 20.7543 28.6764 21.1351 29.7737H21.1373Z" fill="#AFD6D2"/>
<path d="M53.3775 34.3065C53.5844 35.2514 54.2426 36.6187 55.46 36.2247C56.3603 35.2079 56.5628 33.8014 57.111 32.5974C57.5688 31.7896 56.915 30.7053 57.7185 30.0631C58.1676 31.9681 57.4852 33.8449 57.2254 35.7239C57.0053 37.2458 56.5892 38.7481 55.8474 40.1067C54.8722 38.9963 53.8024 37.9752 52.6841 37.0128C52.2857 37.7988 51.9312 38.6087 51.6473 39.4448C51.447 40.1197 51.1278 40.7773 51.0859 41.4914C51.5746 42.5561 52.3077 43.4901 52.8866 44.5112C53.3511 44.25 53.8354 44.0127 54.3439 43.845C54.5002 43.8211 54.5552 43.734 54.5156 43.5881C54.5068 43.4618 54.4914 43.2071 54.4826 43.0808C54.8172 42.5604 55.2486 42.1141 55.6779 41.6721C56.8952 40.4442 57.7713 38.9484 58.7575 37.5441C59.6469 36.2726 60.2875 34.8138 61.4674 33.7644C62.6297 32.0487 63.2636 29.9019 63.1976 27.8314C62.7375 26.5403 61.0711 26.9061 60.0783 27.2958C57.7978 28.2886 55.6405 29.5841 53.6483 31.0602L53.6417 31.1038C54.0951 32.1902 53.3995 33.2288 53.3731 34.3065H53.3775Z" fill="#C5E2DF"/>
<path d="M44.7176 38.7764C44.3632 40.4419 43.4232 41.9747 43.4805 43.7209C43.4937 46.3401 43.027 48.9397 42.2433 51.437C41.9109 52.5431 41.4398 53.6796 41.7084 54.8531C42.2961 54.2239 42.9015 53.6012 43.3594 52.8675C43.7644 52.0575 44.1959 51.2563 44.5591 50.4246C44.9972 48.5957 45.6025 46.8126 46.3158 45.0751C46.1375 43.2854 46.5667 41.5262 46.9938 39.8062L47.0356 39.5123C47.2139 37.9817 47.8545 36.5643 48.1781 35.0707C48.5413 33.4073 48.9331 31.7395 49.0454 30.0391C48.8957 29.277 48.713 28.5259 48.5545 27.7704C48.2551 28.0948 47.9601 28.4236 47.6674 28.7545C47.5353 28.3583 47.4032 27.9642 47.2711 27.5723C47.1435 27.9054 47.018 28.245 46.8947 28.5847C46.3994 30.0892 46.0142 31.6372 45.9239 33.2222C45.7368 35.1142 45.1403 36.9301 44.7198 38.7785L44.7176 38.7764Z" fill="#ACD1D1"/>
<path d="M28.5204 53.8583C27.9723 53.2856 27.4616 52.6695 27.0829 51.9728C26.3939 50.7296 25.5728 49.5299 25.2272 48.1386C25.6015 47.9753 25.9801 47.8186 26.3565 47.6531C25.432 47.7293 23.9923 47.9144 23.6577 46.78C23.4464 45.6958 23.7546 44.6072 23.9329 43.5468C23.158 43.1854 22.3303 42.9546 21.5576 42.6041C20.8158 42.1991 20.4416 41.3522 20.523 40.5401C20.6265 38.783 19.6161 37.2655 19.145 35.6347C18.4956 33.3856 17.7119 31.1387 17.6063 28.7808C17.5116 28.5043 17.4214 28.2299 17.3421 27.96C17.1022 28.1559 16.871 28.3606 16.6421 28.5674C16.882 29.1705 17.0163 29.8106 17.0405 30.4638C16.7984 30.0915 16.5628 29.7214 16.3251 29.3556C16.3053 29.5689 16.2657 29.9935 16.248 30.2047C16.7521 33.2071 17.5006 36.1986 18.8082 38.9659C19.8846 40.9973 20.8422 43.1049 22.2444 44.949C23.3869 46.4186 22.7904 48.5088 23.8052 50.0198C25.3923 51.5482 26.6317 53.3749 27.8908 55.1646C29.0597 55.1885 30.2264 55.206 31.3975 55.2147C31.3029 54.5201 31.217 53.8343 31.1048 53.1463C30.1692 53.0723 29.238 53.2225 28.5204 53.8626V53.8583Z" fill="#9BC5C4"/>
<path d="M41.6444 44.2156C41.5629 45.5698 41.4661 46.9241 41.2855 48.2718C41.1909 49.2472 41.1579 50.2291 41.0742 51.2111C41.4594 51.2829 41.8491 51.3591 42.2431 51.4375C43.0268 48.9402 43.4957 46.3406 43.4803 43.7214C43.4252 41.9752 44.363 40.4424 44.7174 38.7769C45.1379 36.9306 45.7344 35.1126 45.9215 33.2205C46.0096 31.6355 46.3948 30.0875 46.8923 28.583C46.5665 28.7354 46.2341 28.8704 45.9061 29.0054C44.735 30.671 44.1186 32.6283 43.4494 34.5247C42.3312 37.6403 42.1287 40.9715 41.6466 44.2156H41.6444Z" fill="#91BCBC"/>
<path d="M20.5229 40.5356C20.7959 40.368 21.0755 40.2047 21.3572 40.0479C20.7585 38.2169 20.3931 36.3183 19.693 34.5199C18.9402 32.6236 18.6672 30.5486 17.6084 28.7764C17.7141 31.1343 18.4977 33.3812 19.1471 35.6303C19.6182 37.2589 20.6264 38.7786 20.5251 40.5356H20.5229Z" fill="#B6DAD8"/>
<path d="M14.1895 30.1414C14.1719 30.0564 14.1455 29.8888 14.1279 29.8017C13.9914 29.7799 13.7118 29.7386 13.5731 29.7168C13.397 30.5485 13.2275 31.4259 13.5555 32.2468C13.7206 32.1335 14.0464 31.9049 14.2115 31.7895C14.2137 31.2387 14.2203 30.6857 14.1895 30.1414Z" fill="#8ABAB6"/>
<path d="M22.2439 44.945C20.8417 43.1008 19.8819 40.9933 18.8077 38.9619C17.5001 36.1946 16.7538 33.2031 16.2475 30.2007C15.9239 29.9176 15.6047 29.4996 15.1205 29.578C14.7881 29.7326 14.4909 29.9416 14.1893 30.1441C14.2201 30.6905 14.2135 31.2414 14.2113 31.7922C14.0462 31.9076 13.7204 32.1362 13.5553 32.2495C13.5355 32.3627 13.5003 32.5826 13.4805 32.6958C13.6588 32.8286 13.8393 32.9658 14.0242 33.1073C14.1255 33.1835 14.3258 33.3381 14.4248 33.4165C14.7925 34.8338 14.6516 36.3688 15.3054 37.7143C15.7214 38.5635 16.0296 39.4605 16.1859 40.3967C16.5645 42.4977 18.1429 44.0937 19.7102 45.4414C21.0178 46.5169 21.6474 48.1411 22.7656 49.3843C23.3864 50.0179 23.2279 50.9977 23.7562 51.6813C24.5377 52.7983 25.3874 53.8673 26.2063 54.9624C26.7676 55.0278 27.3224 55.1149 27.8903 55.1606C26.6312 53.3709 25.3896 51.5442 23.8047 50.0157C22.7899 48.5047 23.3864 46.4146 22.2439 44.945Z" fill="#B6D8D5"/>
<path d="M38.4066 36.0421C38.4946 35.8658 38.6685 35.5174 38.7544 35.3454C39.1726 34.4157 38.9129 33.3859 38.7874 32.4257C38.6553 31.557 38.4814 30.6992 38.3053 29.8457C37.7902 29.9589 37.2817 30.083 36.7754 30.2049C36.6896 32.2973 38.039 34.0391 38.4066 36.0443V36.0421Z" fill="#B1D3D2"/>
<path d="M52.6844 37.0152C53.8026 37.9775 54.8725 38.9965 55.8477 40.109C56.5895 38.7504 57.0055 37.2482 57.2257 35.7263C57.4854 33.8495 58.1678 31.9705 57.7188 30.0654C56.9153 30.7077 57.5691 31.792 57.1112 32.5997C56.5653 33.8038 56.3606 35.2103 55.4602 36.227C54.2429 36.6211 53.5847 35.2538 53.3778 34.3089C53.402 33.2311 54.0998 32.1904 53.6463 31.1062C52.7526 33.6513 52.3696 36.3446 51.3438 38.8528C51.4208 39.0008 51.5727 39.2991 51.6475 39.4493C51.9315 38.6133 52.2859 37.8033 52.6844 37.0174V37.0152Z" fill="#B9DAD7"/>
<path d="M43.0884 31.0566C42.8991 30.9913 42.5227 30.8585 42.3333 30.791C42.2519 31.2178 42.1991 31.6576 42.2717 32.0974L42.8793 32.0887C42.9541 31.7446 43.0158 31.3963 43.0884 31.0545V31.0566Z" fill="#D6EBE8"/>
<path d="M30.0763 36.7453C29.7857 38.0582 32.1521 38.9073 32.5572 37.4529C33.4245 36.0726 33.7965 34.2959 33.0921 32.7741C32.3635 31.9663 31.1021 31.3893 30.0917 32.0599C29.4291 32.3734 29.2662 33.1572 29.4555 33.8104C29.6756 34.2981 29.9926 34.7423 30.226 35.2322C30.2546 35.7373 30.1137 36.2359 30.0763 36.7432V36.7453Z" fill="#E6A19D"/>
<path d="M23.3952 33.7124C23.2081 34.2219 23.1508 34.7662 23.0562 35.2996C23.0452 35.3584 23.0254 35.4738 23.0143 35.5304C22.6027 35.955 22.0942 36.3055 21.7882 36.8215C21.3766 37.7469 21.7266 38.7702 22.0083 39.6824C21.8476 39.7739 21.5197 39.9546 21.359 40.046C21.0772 40.2028 20.7976 40.3661 20.5247 40.5337C20.4432 41.348 20.8174 42.1928 21.5593 42.5978C22.3319 42.9483 23.1596 43.1791 23.9345 43.5405C23.7562 44.603 23.4458 45.6916 23.6593 46.7737C23.9939 47.9102 25.4314 47.7252 26.3582 47.6468C26.7742 47.4617 27.1308 47.1787 27.4852 46.9C27.8639 46.4863 28.3724 46.3274 28.9227 46.4058C29.1076 45.1016 28.9359 43.7931 28.4714 42.5651C27.2277 43.1486 26.827 44.5355 25.9509 45.4913C25.766 44.5246 26.4704 43.682 26.6135 42.7502C26.3273 42.7698 26.039 42.7894 25.7572 42.8133C26.017 42.4584 26.2767 42.1013 26.5409 41.7486C25.6207 41.274 24.5509 41.1194 23.7386 40.451C24.7754 40.6361 25.8078 40.856 26.8601 40.9365C26.2921 40.2964 25.7 39.6803 25.077 39.0968C25.4314 38.9552 25.788 38.8181 26.1468 38.6831C25.2157 37.9864 24.432 37.1002 24.0027 36.0138C24.9339 36.7627 25.7814 37.638 26.8997 38.1279C27.2893 37.1307 26.75 36.1401 26.5144 35.1777C26.9657 35.7394 27.4214 36.299 27.8881 36.8542C28.4142 35.5261 28.2887 34.0368 28.8963 32.7436L28.9249 32.6826C28.4714 32.4061 27.9761 32.0098 27.4148 32.2058C26.7368 32.4518 26.5959 33.2509 26.3075 33.8213C26.0059 33.5687 25.7044 33.314 25.4072 33.068C24.7072 33.1268 23.8288 33.0331 23.3952 33.7059V33.7124Z" fill="#E7A29F"/>
<path d="M38.7539 35.343C38.9762 36.2683 39.192 37.2263 39.7599 38.021C39.553 36.0767 39.4957 34.1281 39.6432 32.1816C39.4407 32.3689 39.291 32.5997 39.1942 32.8762C39.0555 32.7216 38.919 32.5692 38.7869 32.4233C38.9124 33.3835 39.1722 34.4133 38.7539 35.343Z" fill="#C5E2E3"/>
<path d="M39.7601 38.0212C39.1921 37.2265 38.9764 36.2707 38.7541 35.3432C38.6682 35.5174 38.4943 35.8636 38.4062 36.0399C39.2472 39.2492 40.1937 42.5194 39.8261 45.8767C39.9009 46.2991 40.0022 46.7237 40.0969 47.1504C40.284 45.9725 40.4249 44.7903 40.4975 43.6059C40.7683 43.6059 41.0434 43.6124 41.323 43.6189C41.4375 42.9353 41.6158 42.2385 41.4991 41.5484C41.2834 40.8408 40.6054 40.2921 40.6626 39.5083C40.7242 38.424 40.4183 37.3833 40.1299 36.3513C39.7733 35.0754 39.8789 33.7408 40.0132 32.4388C39.9208 32.3756 39.7381 32.2428 39.6456 32.1797C39.4981 34.1261 39.5553 36.0748 39.7623 38.019L39.7601 38.0212Z" fill="#97C2C1"/>
<path d="M42.8797 32.0908L42.2721 32.0995C42.0564 32.4893 41.8648 32.8877 41.6777 33.297C42.3998 33.2665 42.7938 32.7462 42.8797 32.093V32.0908Z" fill="#95BFBC"/>
<path d="M26.5151 35.1839C26.7485 36.1463 27.29 37.1369 26.9004 38.1341C25.7821 37.6442 24.9346 36.769 24.0034 36.02C24.4327 37.1064 25.2163 37.9904 26.1475 38.6893C25.7887 38.8243 25.4321 38.9615 25.0777 39.103C25.7028 39.6843 26.2928 40.3026 26.8607 40.9427C25.8063 40.8622 24.7761 40.6423 23.7393 40.4572C24.5493 41.1278 25.6214 41.2824 26.5415 41.7548C26.2774 42.1076 26.0176 42.4625 25.7579 42.8195C26.0396 42.7956 26.3258 42.776 26.6142 42.7564C26.4689 43.6882 25.7667 44.5287 25.9516 45.4975C26.8277 44.5439 27.2284 43.157 28.4721 42.5713C28.9366 43.7993 29.1083 45.1078 28.9234 46.412C28.9938 46.7364 29.0819 47.063 29.1919 47.3874C29.8589 47.0521 30.5832 46.8496 31.3338 46.8169C31.1027 46.3031 30.7505 45.8633 30.3388 45.4845C30.3058 44.5613 30.2992 43.6403 30.2794 42.7194C29.7687 42.6279 29.2624 42.5517 28.7627 42.4385C28.3752 42.1446 28.0406 41.7897 27.7435 41.4152C26.4997 40.1611 27.9218 37.7291 29.6256 38.0078C30.4247 38.0971 31.0631 38.7394 31.4329 39.4121C31.5804 40.0152 31.4967 40.6466 31.5077 41.2671C32.2298 40.8818 33.0552 40.5878 33.6078 39.9608C33.6892 38.9114 33.5175 37.8598 33.4955 36.8125C33.1807 37.0193 32.8681 37.2305 32.5644 37.4548C32.1593 38.907 29.7929 38.0579 30.0835 36.7472C30.1231 36.2399 30.2618 35.7413 30.2332 35.2362C30.002 34.7463 29.685 34.3022 29.4627 33.8144C29.2866 33.4508 29.0995 33.0981 28.9014 32.752C28.2938 34.0452 28.4193 35.5345 27.8932 36.8626C27.4243 36.3074 26.9708 35.7478 26.5195 35.1861L26.5151 35.1839Z" fill="#E29591"/>
<path d="M13.9694 42.0007C13.5929 41.9528 13.2165 41.9114 12.8467 41.8744C12.9832 42.5145 13.1395 43.1503 13.331 43.7817C15.8977 44.7854 17.6103 46.9996 19.8733 48.4628C19.9856 48.0817 20.0956 47.7029 20.2101 47.3262C19.9393 46.7253 19.7302 46.0961 19.7104 45.4386C18.1431 44.0909 16.5669 42.4949 16.1861 40.3939C16.0298 39.4555 15.7216 38.5607 15.3056 37.7115C14.6496 36.366 14.7926 34.831 14.425 33.4137C14.3238 33.3375 14.1234 33.1829 14.0244 33.1045C13.8989 33.1698 13.648 33.3048 13.5225 33.3723C13.9341 34.9682 14.2974 36.5794 14.797 38.1535C14.5901 38.4366 14.3876 38.724 14.1895 39.0157C14.5065 39.499 14.7442 40.0303 14.8697 40.6007C14.4647 40.4048 14.0706 40.2045 13.6788 39.9976C13.5643 40.0891 13.3354 40.2676 13.2209 40.3591C13.4719 40.9012 13.7206 41.4499 13.9672 42.0029L13.9694 42.0007Z" fill="#98C1C2"/>
<path d="M58.7603 37.5443C57.7741 38.9487 56.898 40.4444 55.6807 41.6724C55.2514 42.1144 54.82 42.5607 54.4854 43.0811C54.4942 43.2073 54.5096 43.4621 54.5184 43.5884C57.3581 40.7384 59.8368 37.4398 61.4701 33.7646C60.2902 34.8141 59.6496 36.2728 58.7603 37.5443Z" fill="#ABCAC4"/>
<path d="M50.3816 34.5938C50.6612 34.2411 50.0492 33.7926 49.7718 34.1213C49.4857 34.4697 50.0954 34.9182 50.3816 34.5938Z" fill="#9DC5BC"/>
<path d="M30.977 47.9381C31.4415 47.4373 31.8883 46.9148 32.3968 46.451C32.7777 46.3988 33.1629 46.3509 33.5503 46.3095C34.0875 46.1723 34.7258 46.0417 35.0406 45.5366C35.3554 44.8029 35.1837 43.8405 35.8815 43.3136C36.2029 42.9239 36.7797 42.6409 36.7621 42.0726C36.9426 41.2452 36.0422 40.9404 35.5205 40.5311C36.1083 40.272 36.7158 40.0369 37.2618 39.6907C38.1687 39.1246 38.369 37.655 37.5611 36.9343C36.379 36.1026 34.6708 35.8304 33.4865 36.808C33.5085 37.8553 33.678 38.9069 33.5988 39.9563C33.0462 40.5855 32.2207 40.8773 31.4987 41.2627C31.1509 41.6045 30.8713 42.0465 30.4289 42.2751C29.8829 42.4188 29.3128 42.4297 28.7559 42.434C29.2556 42.5472 29.7619 42.6234 30.2726 42.7149C30.2924 43.6359 30.2968 44.5568 30.332 45.48C30.7436 45.8566 31.0959 46.2986 31.327 46.8125C30.5764 46.8451 29.8521 47.0476 29.1851 47.3829C29.3964 47.6028 29.6144 47.8249 29.8411 48.0448C30.2175 48.0034 30.594 47.9686 30.9748 47.9337L30.977 47.9381Z" fill="#E5A49F"/>
<path d="M31.5004 41.2648C31.4894 40.6443 31.5731 40.0129 31.4256 39.4098C31.058 38.737 30.4196 38.0947 29.6183 38.0054C27.9145 37.7268 26.4924 40.1587 27.7362 41.4128C28.0334 41.7873 28.368 42.14 28.7554 42.4361C29.3123 42.4296 29.8825 42.4187 30.4284 42.2772C30.8709 42.0486 31.1504 41.6066 31.4982 41.2648H31.5004Z" fill="#FDFDFF"/>
<path d="M47.5925 44.4742C47.6013 44.0474 47.6211 43.6251 47.6431 43.2027C47.456 43.1787 47.0818 43.1308 46.8969 43.109C46.7648 43.7796 46.5909 44.4437 46.3113 45.0751C45.5981 46.8125 44.9927 48.5957 44.5547 50.4246C45.127 50.1786 45.6752 49.8868 46.2101 49.5667C45.9987 50.2591 45.739 50.9406 45.3978 51.5829C44.8739 52.5213 44.766 53.6012 44.5723 54.6375C44.0352 54.7116 43.5024 54.7921 42.9697 54.877C43.8282 54.9728 44.6934 55.049 45.5629 55.0186C45.8336 54.7769 46.1771 54.6571 46.5227 54.5592C46.3201 54.4002 46.122 54.2413 45.9261 54.0867C46.2167 53.9103 46.5161 53.7471 46.7978 53.5511C46.8683 53.0917 46.7956 52.6301 46.7736 52.1751C46.6723 51.2106 47.0158 50.2678 46.9717 49.3055C46.8286 49.4927 46.5425 49.8672 46.3972 50.0523C47.1412 47.8445 48.2507 45.7762 48.9947 43.5684C49.4042 42.2969 49.8863 41.0537 50.5401 39.8846C50.375 39.3598 50.2077 38.8395 50.0404 38.3213C49.0146 40.296 49.162 42.7912 47.5925 44.4742Z" fill="#94BEBE"/>
<path d="M51.0857 41.4918C51.1275 40.7777 51.4445 40.1223 51.647 39.4452C51.5721 39.2971 51.4203 38.9989 51.3432 38.8486C50.8545 39.9982 50.5926 41.2218 50.2249 42.4106C49.6218 43.8802 48.7809 45.2563 48.3384 46.7912C48.4551 47.6077 48.1689 48.3937 48.0566 49.1927C48.367 49.9417 48.9438 50.5404 49.3994 51.2045C52.0036 49.9743 52.3712 46.9044 53.648 44.6706C53.8197 44.4637 54.1719 44.0479 54.3458 43.8411C53.8351 44.0087 53.353 44.246 52.8885 44.5073C52.3096 43.4862 51.5766 42.5521 51.0879 41.4875L51.0857 41.4918Z" fill="#ACD1CF"/>
<path d="M16.9279 52.2799C16.9367 50.9953 18.1606 50.1745 18.5612 49.0118C18.4182 48.559 18.2817 48.1083 18.1562 47.662C20.1374 48.5699 20.9519 50.6469 22.1582 52.2929C21.9689 52.4606 21.784 52.637 21.6035 52.8133C21.8192 53.0593 22.0393 53.3075 22.2617 53.5601C22.2925 53.0963 22.3277 52.6348 22.3563 52.1797C21.8016 50.7907 20.8352 49.5953 19.8732 48.4632C17.6103 47.0001 15.8976 44.7858 13.3309 43.7821C12.1488 42.9526 10.9447 42.1361 9.89465 41.1433C10.7201 40.943 11.845 42.012 12.3315 40.9582C12.1246 40.4531 11.8054 40.0089 11.506 39.5604C11.8824 39.5365 12.2611 39.5169 12.6441 39.5082C11.4796 39.1664 10.2116 39.0553 9.03393 39.3863C8.35152 39.58 7.62068 40.1853 7.83201 40.9691C8.08736 42.5759 8.94148 44.0194 9.86163 45.341C11.528 47.7708 13.747 49.7543 15.9747 51.6681C15.5873 51.7421 15.2108 51.827 14.8322 51.9054C15.5476 51.8553 16.2983 51.8771 16.9279 52.2777V52.2799Z" fill="#C4E2DF"/>
<path d="M12.3314 40.9608C11.8471 42.0146 10.72 40.9434 9.89453 41.1458C10.9446 42.1387 12.1487 42.9551 13.3308 43.7847C13.1393 43.1533 12.983 42.5153 12.8465 41.8774C13.2163 41.9166 13.5927 41.958 13.9692 42.0037C13.7204 41.4528 13.4739 40.9042 13.2229 40.3599C13.3374 40.2684 13.5663 40.0899 13.6808 39.9984C13.3418 39.8199 13.0006 39.637 12.644 39.5107C12.2632 39.5195 11.8823 39.539 11.5059 39.563C11.8031 40.0115 12.1245 40.4557 12.3314 40.9608Z" fill="#AACFCF"/>
<path d="M48.6645 40.2181C48.5786 39.3472 47.632 39.6172 47.0311 39.5127L46.9893 39.8066C47.5374 39.9634 48.0987 40.0962 48.6645 40.2181Z" fill="#94BAB8"/>
<path d="M55.7773 50.042C57.0519 48.7096 57.7981 46.9961 58.628 45.3806C59.0374 44.6338 59.2003 43.7934 59.1211 42.9486C58.0358 42.8005 57.0607 43.2708 56.1471 43.7738C55.7707 44.035 55.1521 44.1265 55.0068 44.5989C54.5864 46.6695 53.8621 48.6769 53.8203 50.8041C54.4939 50.6364 55.282 50.5951 55.7773 50.042Z" fill="#CCE7E3"/>
<path d="M40.6894 48.1174C40.8391 48.1566 41.1384 48.2328 41.2859 48.272C41.4664 46.9243 41.5655 45.5701 41.6447 44.2158C41.3652 45.5222 40.2843 46.7196 40.6894 48.1174Z" fill="#C3E3E4"/>
<path d="M49.3998 51.2087C49.314 51.5527 49.2215 51.9033 49.1885 52.2647C49.3602 52.9505 50.1857 52.9549 50.7448 53.1487C50.5115 53.6473 50.2869 54.1524 50.1042 54.6771C51.1388 53.9934 51.8719 52.9832 52.7876 52.1733C53.0936 51.8902 53.4062 51.6115 53.7254 51.335C53.7584 51.1565 53.7892 50.9801 53.8223 50.8038C53.8641 48.6744 54.5883 46.6692 55.0088 44.5986C54.5509 44.6291 54.0996 44.6596 53.6484 44.6748C52.3716 46.9087 52.004 49.9786 49.3998 51.2087Z" fill="#B6D8D5"/>
<path d="M22.7683 49.3824C21.6501 48.1392 21.0205 46.515 19.7129 45.4395C19.7327 46.0992 19.9418 46.7262 20.2126 47.3271C20.0981 47.7016 19.9859 48.0826 19.8758 48.4636C20.8378 49.5958 21.8041 50.7911 22.3589 52.1802C22.6098 53.0075 22.5438 53.8806 22.5064 54.7363L22.6495 54.745C23.8338 54.8103 25.0225 54.856 26.209 54.9605C25.3901 53.8654 24.5404 52.7964 23.7589 51.6794C23.2328 50.9958 23.3913 50.016 22.7683 49.3824Z" fill="#83AEAF"/>
<path d="M41.0749 51.211C41.1585 50.229 41.1916 49.2471 41.2862 48.2717C41.1387 48.2325 40.8393 48.1563 40.6897 48.1171C40.5884 48.0866 40.3859 48.0322 40.2846 48.0017C40.2098 47.7187 40.1481 47.4335 40.0953 47.1526C40.0006 46.7259 39.8994 46.3013 39.8245 45.8789C39.5604 47.8275 39.3821 49.7892 38.9902 51.7183C39.0717 52.1102 39.1773 52.5021 39.2852 52.8918C39.9632 52.428 40.8944 52.108 41.0727 51.211H41.0749Z" fill="#A6CBCA"/>
<path d="M29.9626 49.1748C29.8679 48.8526 29.7887 48.5369 29.7138 48.2212C30.0484 48.2103 30.3874 48.1973 30.7308 48.182C30.7925 48.1211 30.9158 47.9969 30.9752 47.936C30.5944 47.9686 30.2179 48.0057 29.8415 48.047C29.6148 47.8271 29.399 47.605 29.1855 47.3851C29.0777 47.0607 28.9874 46.7341 28.917 46.4097C28.3644 46.3292 27.8581 46.4903 27.4795 46.904C27.5411 47.5267 27.605 48.1559 27.6688 48.7851C28.4327 48.9092 29.1943 49.042 29.9604 49.177L29.9626 49.1748Z" fill="#9FCAC4"/>
<path d="M32.3942 46.4512C31.8879 46.9149 31.4411 47.4353 30.9744 47.9382C30.9127 47.9992 30.7895 48.1233 30.73 48.1843C30.7278 49.016 30.7014 49.852 30.6992 50.6903C30.8181 51.5089 30.959 52.3232 31.1043 53.1418C31.2165 53.8277 31.3024 54.5157 31.397 55.2102C32.2027 55.2015 33.0106 55.1688 33.8185 55.2189C32.4559 52.5279 32.1323 49.4188 32.3942 46.4533V46.4512Z" fill="#7CA7AA"/>
<path d="M37.9882 54.0997C37.341 53.6621 36.6586 53.2615 36.1237 52.6911C35.5668 52.0488 35.2542 51.2497 34.8601 50.5095C34.0743 49.2358 33.7397 47.7749 33.5504 46.3096C33.1629 46.3509 32.7777 46.3988 32.3969 46.4511C32.1349 49.4143 32.4585 52.5256 33.8211 55.2167C34.585 55.2711 35.3488 55.3342 36.1149 55.2972C36.1479 54.9619 36.1853 54.6266 36.2206 54.2957C36.8083 54.2369 37.4005 54.1912 37.9882 54.0997Z" fill="#A1C8C9"/>
<path d="M27.0828 51.971C27.4614 52.6677 27.9721 53.2838 28.5202 53.8565C29.2357 53.2163 30.1668 53.0661 31.1046 53.1401C30.9593 52.3215 30.8206 51.5072 30.6995 50.6886C30.4552 50.1791 30.18 49.687 29.9599 49.1754C29.1938 49.0404 28.4322 48.9076 27.6683 48.7835C27.6045 48.1543 27.5406 47.5272 27.479 46.9023C27.1246 47.181 26.768 47.4641 26.3519 47.6491C25.9755 47.8146 25.5969 47.9714 25.2227 48.1347C25.5683 49.5259 26.3916 50.7256 27.0784 51.9688L27.0828 51.971Z" fill="#B2D6D5"/>
<path d="M46.7732 52.1759C46.7952 52.6309 46.8679 53.0903 46.7974 53.5519C46.5157 53.7478 46.2141 53.9111 45.9257 54.0875C46.1216 54.2421 46.3198 54.3988 46.5223 54.5599C46.1767 54.6601 45.8333 54.7777 45.5625 55.0193C46.7908 54.9845 48.0346 54.904 49.2541 55.1543C49.5381 55.0019 49.8221 54.8452 50.1016 54.6775C50.2865 54.1528 50.5089 53.6499 50.7422 53.1491C50.1853 52.9531 49.3598 52.951 49.1859 52.2651C49.2189 51.9037 49.3113 51.5532 49.3972 51.2092C48.9393 50.5451 48.3626 49.9464 48.0544 49.1974C48.1667 48.3984 48.4528 47.6124 48.3362 46.7959C47.8959 47.6385 47.449 48.4833 46.9713 49.3084C47.0154 50.2708 46.672 51.2135 46.7732 52.178V52.1759Z" fill="#9BC3C4"/>
<path d="M22.3562 52.1818C22.3276 52.6369 22.2924 53.1006 22.2615 53.5622C22.0392 53.3075 21.8191 53.0614 21.6033 52.8154C21.7838 52.6391 21.9688 52.4627 22.1581 52.2951C20.9517 50.6491 20.1373 48.5698 18.1561 47.6641C18.2815 48.1104 18.418 48.5633 18.5611 49.014C18.1605 50.1744 16.9365 50.9952 16.9277 52.282L17.0334 52.5846C18.5501 53.3314 19.9546 54.4854 21.654 54.7074C21.9225 54.7183 22.1933 54.7292 22.4619 54.7401C22.4773 54.7401 22.4905 54.7401 22.5059 54.7401C22.5411 53.8844 22.6093 53.0114 22.3584 52.184L22.3562 52.1818Z" fill="#A3CAC9"/>
<path d="M29.9624 49.1754C30.1825 49.6893 30.4555 50.1791 30.702 50.6886C30.7042 49.8504 30.7306 49.0143 30.7328 48.1826C30.3894 48.1957 30.0504 48.2109 29.7158 48.2218C29.7907 48.5397 29.8699 48.8532 29.9646 49.1754H29.9624Z" fill="#84B5AB"/>
<path d="M45.5651 55.0192C44.6956 55.0497 43.8304 54.9757 42.9719 54.8777C43.5046 54.7928 44.0374 54.7122 44.5745 54.6382C44.766 53.6018 44.8761 52.5197 45.4 51.5835C45.739 50.9412 45.9987 50.2597 46.2123 49.5674C45.6773 49.8874 45.127 50.1792 44.5569 50.4252C44.1937 51.2569 43.7622 52.0581 43.3572 52.8681C43.8304 53.9023 42.6219 54.8232 41.7348 55.1215C41.6797 55.1389 41.5675 55.1738 41.5146 55.1912C44.0814 55.1999 46.6525 55.1259 49.2215 55.1999L49.2545 55.1564C48.0372 54.906 46.7934 54.9844 45.5629 55.0214L45.5651 55.0192Z" fill="#7EA8AB"/>
<path d="M37.9882 54.0998C38.4262 53.7035 38.8357 53.2724 39.287 52.8914C39.1791 52.4995 39.0712 52.1076 38.992 51.7179C38.7741 52.1512 38.4395 52.5039 38.0894 52.8326C37.2529 51.7832 36.39 50.4703 34.8623 50.5117C35.2563 51.2498 35.5667 52.051 36.1259 52.6933C36.6608 53.2637 37.3432 53.6643 37.9904 54.102L37.9882 54.0998Z" fill="#B3D5D2"/>
<path d="M41.7059 54.8535C41.4373 53.6799 41.9084 52.5434 42.2408 51.4374C41.8467 51.3612 41.4571 51.2828 41.0719 51.2109C40.8936 52.1101 39.9624 52.4302 39.2844 52.8918C38.8331 53.2728 38.4237 53.7017 37.9856 54.1001C37.3979 54.1916 36.8057 54.2373 36.218 54.2961C36.1827 54.627 36.1453 54.9601 36.1123 55.2976C37.9086 55.1496 39.7115 55.2758 41.5121 55.1909C41.565 55.1735 41.6772 55.1387 41.7323 55.1213L41.7037 54.8535H41.7059Z" fill="#85B0B3"/>
<path d="M16.0723 52.7681C16.3937 52.7093 16.7129 52.6505 17.0343 52.583L16.9286 52.2804C16.299 51.8798 15.5484 51.858 14.833 51.9081C13.9612 51.9516 13.1049 52.1323 12.2552 52.3131C12.2112 52.4568 12.1165 52.7441 12.0703 52.8857C13.3955 52.7006 14.7405 52.5373 16.0723 52.7681Z" fill="#C57276"/>
<path d="M13.7602 65.5175C13.3177 61.7987 13.1967 58.0343 12.413 54.3613C12.6926 54.2306 12.9699 54.1022 13.2539 53.9803C12.6662 53.8888 12.1026 53.7081 11.5897 53.4185C13.08 53.1921 14.5857 53.0462 16.0694 52.7675C14.7376 52.5389 13.3904 52.7022 12.0674 52.8851C12.1114 52.7414 12.2061 52.454 12.2523 52.3125C11.3167 52.5585 10.0312 52.4671 9.46543 53.3663C9.28052 55.5784 9.78022 57.7774 9.89469 59.9851C10.6057 66.4058 11.1781 73.042 14.0486 78.9489C15.6379 82.4259 18.099 85.5851 21.379 87.6426C21.1875 85.731 19.6531 84.4203 18.8276 82.7786C15.9285 77.4553 14.5483 71.4701 13.7602 65.5175Z" fill="#E7A1A0"/>
<path d="M49.2217 55.197C52.2485 54.8008 55.3149 54.6723 58.3307 54.1629C58.7952 54.1498 59.055 53.7601 59.2905 53.4182C57.2499 52.5277 54.9781 52.3688 52.7878 52.1729C51.8699 52.9828 51.1368 53.993 50.1044 54.6767C49.8248 54.8443 49.5409 55.0011 49.2569 55.1535L49.2239 55.197H49.2217Z" fill="#39384A"/>
<path d="M16.0715 52.7681C14.5878 53.0468 13.0843 53.1926 11.5918 53.4191C12.1047 53.7086 12.6682 53.8915 13.256 53.9808C16.0231 54.5033 18.8429 54.597 21.654 54.7058C19.9546 54.4837 18.5502 53.332 17.0335 52.583C16.7121 52.6483 16.3929 52.7093 16.0715 52.7681Z" fill="#45404F"/>
<path d="M22.4619 54.7385C22.5236 54.7407 22.5852 54.7429 22.649 54.745L22.5059 54.7363C22.4905 54.7363 22.4773 54.7363 22.4619 54.7363V54.7385Z" fill="#45404F"/>
<path d="M22.4622 54.7377C22.1936 54.7269 21.9229 54.716 21.6543 54.7051C21.9163 54.7399 22.1848 54.753 22.4622 54.7377Z" fill="#45404F"/>
<path d="M41.7347 55.1216C42.6218 54.8233 43.8303 53.9024 43.357 52.8682C42.8992 53.6019 42.296 54.2246 41.7061 54.8538L41.7347 55.1216Z" fill="#638B8D"/>
<path d="M60.5008 55.7329C58.6803 55.4869 57.3089 57.0784 55.528 57.0175C52.0851 57.048 48.6577 56.656 45.2148 56.7279C42.6085 56.7693 40.0043 56.6865 37.4089 56.4819C33.7834 56.3295 30.149 56.3578 26.5256 56.4013C25.6033 56.3055 25.7816 57.4573 25.7441 58.0451C25.9731 64.6465 26.8294 71.2044 27.82 77.7318C28.1612 80.1093 28.859 82.4694 30.2194 84.4812C31.4654 86.3057 32.9645 88.102 35.0139 89.0708C36.9423 89.7501 38.9807 90.0941 40.9971 90.4294C40.6119 90.5666 40.2266 90.7081 39.8436 90.8366C43.4582 90.7952 47.1938 89.9461 50.0907 87.7079C54.7994 84.2744 57.3463 78.7812 59.0127 73.3925C60.4656 68.0387 60.8684 62.4693 61.192 56.9565C61.0533 56.5211 61.1194 55.759 60.4986 55.7285L60.5008 55.7329ZM40.5194 72.3714C39.9361 73.8388 38.3533 74.6684 36.8542 74.9318C34.8664 75.2257 32.5396 74.9188 31.1792 73.3076C30.5078 72.5456 29.8584 71.322 30.7411 70.4641C31.5776 71.4461 32.183 72.7851 33.517 73.1987C35.0887 73.7082 36.9224 73.6625 38.3445 72.7546C39.148 72.3278 39.5728 71.4983 40.1826 70.8626C40.8342 71.028 40.6669 71.8902 40.5194 72.367V72.3714ZM47.4382 68.5547C45.567 67.8427 45.7497 64.9383 47.535 64.2416C48.8294 63.5862 50.5927 64.3439 50.8722 65.7852C51.4027 67.625 49.1794 69.5606 47.4382 68.5525V68.5547ZM50.1876 72.1776C50.1678 71.4352 50.7335 71.2806 51.3675 71.2958C51.2398 71.9142 50.8656 72.3017 50.1876 72.1776ZM52.3823 73.9738C51.9597 74.3048 51.5546 73.5602 51.9597 73.3011C52.3779 72.9658 52.7764 73.706 52.3823 73.9738Z" fill="#E6A5A3"/>
<path d="M21.3569 64.2465C19.5672 65.1871 19.6795 68.5052 21.8368 68.8884C23.6045 69.3369 25.3809 67.4971 24.8526 65.7684C24.6325 64.2443 22.6205 63.5824 21.3569 64.2465Z" fill="#29304B"/>
<path d="M50.8729 65.7874C50.5933 64.3461 48.83 63.5863 47.5357 64.2438C45.7482 64.9383 45.5677 67.8449 47.4388 68.5569C49.18 69.5628 51.4034 67.6272 50.8729 65.7896V65.7874Z" fill="#2A324E"/>
<path d="M22.1627 70.7804C21.291 70.6563 20.3444 70.4995 19.5762 71.0373C20.2674 71.9104 21.5199 71.4749 22.1627 70.7804Z" fill="#EFCCCC"/>
<path d="M40.1806 70.8672C39.573 71.5008 39.146 72.3303 38.3425 72.7592C36.9204 73.6671 35.0867 73.7128 33.515 73.2034C32.1788 72.7897 31.5756 71.4507 30.7391 70.4688C29.8564 71.3266 30.5058 72.5502 31.1772 73.3122C32.5376 74.9234 34.8644 75.2304 36.8522 74.9364C38.3513 74.6708 39.9362 73.8413 40.5174 72.376C40.6649 71.8992 40.8322 71.037 40.1806 70.8715V70.8672Z" fill="#282D46"/>
<path d="M18.8238 71.0547C18.5112 71.0939 18.0732 71.427 18.2801 71.7667C18.7446 72.1782 19.7176 70.9981 18.8238 71.0547Z" fill="#EBB8BC"/>
<path d="M23.0253 71.0778C22.8162 71.3956 23.3599 71.7788 23.6285 71.5306C23.8266 71.2019 23.2851 70.8252 23.0253 71.0778Z" fill="#EFC8C4"/>
<path d="M50.188 72.1774C50.866 72.3016 51.238 71.9118 51.3679 71.2957C50.7361 71.2826 50.1682 71.4372 50.188 72.1774Z" fill="#EEC1C8"/>
<path d="M17.39 72.1542C17.0047 72.4045 17.3658 73.1775 17.7994 72.8509C18.1758 72.5896 17.8214 71.8167 17.39 72.1542Z" fill="#EDBFC8"/>
<path d="M22.2771 73.4818C22.7834 73.3817 22.7042 72.4977 22.1384 72.6958C21.5925 72.772 21.6872 73.7017 22.2771 73.4818Z" fill="#ECBFC6"/>
<path d="M51.9603 73.3014C51.5553 73.5605 51.9603 74.3051 52.383 73.9741C52.777 73.7063 52.3764 72.9661 51.9603 73.3014Z" fill="#F1CBD1"/>
<path d="M19.9437 73.5599C19.794 74.0041 19.9503 74.1565 20.4081 74.015C20.5512 73.5621 20.3949 73.4119 19.9437 73.5599Z" fill="#F0CAD3"/>
<path d="M17.8903 74.05C17.5337 74.7968 18.5221 74.9165 19.035 74.8577C18.8281 74.4027 18.5045 73.7996 17.8903 74.05Z" fill="#EFC7C8"/>
<path d="M20.8857 75.383C21.7883 75.5702 22.7789 75.5158 23.4525 74.806C22.5433 74.3226 21.7288 75.1348 20.8857 75.383Z" fill="#E9ADAF"/>
</g>
<defs>
<clipPath id="clip0_7197_2084">
<rect width="66" height="91" fill="white"/>
</clipPath>
</defs>
</svg>
