<svg width="40" height="40" viewBox="0 0 40 40" fill="none" xmlns="http://www.w3.org/2000/svg">
<rect width="40" height="40" rx="20" fill="#6A5AE0"/>
<path fill-rule="evenodd" clip-rule="evenodd" d="M28.7726 8.0242C30.5425 7.79272 31.9991 9.24937 31.7676 11.0193C31.4167 13.7028 30.4549 18.2368 27.7511 21.1521C26.8683 22.1038 25.7969 22.9823 24.6973 23.7602L24.7231 23.7565L25.0452 26.0109C25.1292 26.5994 24.9313 27.1931 24.511 27.6134L20.8879 31.2365C19.7874 32.337 17.9028 31.7088 17.6827 30.1682L17.1997 26.7866L17.2901 26.7737C16.936 26.6254 16.608 26.4072 16.3279 26.127L13.6648 23.4639C13.3847 23.1838 13.1664 22.8558 13.0181 22.5017L13.0052 22.5922L9.62364 22.1091C8.08296 21.889 7.45478 20.0045 8.55527 18.904L12.1784 15.2809C12.5987 14.8605 13.1925 14.6626 13.7809 14.7467L16.0353 15.0687L16.0316 15.0946C16.8096 13.995 17.688 12.9235 18.6398 12.0408C21.5551 9.33696 26.089 8.37518 28.7726 8.0242ZM11.2262 23.7348C11.5191 24.0277 11.5191 24.5026 11.2262 24.7955L9.61595 26.4057C9.32306 26.6986 8.84818 26.6986 8.55529 26.4057C8.2624 26.1128 8.2624 25.638 8.55529 25.3451L10.1656 23.7348C10.4585 23.4419 10.9333 23.4419 11.2262 23.7348ZM13.6416 26.1502C13.9345 26.4431 13.9345 26.918 13.6416 27.2109L10.4211 30.4314C10.1282 30.7243 9.65332 30.7243 9.36043 30.4314C9.06753 30.1385 9.06753 29.6636 9.36043 29.3707L12.581 26.1502C12.8739 25.8573 13.3487 25.8573 13.6416 26.1502ZM16.057 28.5656C16.3499 28.8585 16.3499 29.3334 16.057 29.6263L14.4468 31.2365C14.1539 31.5294 13.679 31.5294 13.3861 31.2365C13.0932 30.9437 13.0932 30.4688 13.3861 30.1759L14.9964 28.5656C15.2893 28.2727 15.7641 28.2727 16.057 28.5656ZM21.9675 17.824C21.0782 16.9347 21.0782 15.4928 21.9675 14.6034C22.8569 13.7141 24.2988 13.7141 25.1881 14.6034C26.0774 15.4928 26.0774 16.9347 25.1881 17.824C24.2988 18.7133 22.8569 18.7133 21.9675 17.824Z" fill="white"/>
</svg>
