<svg width="40" height="40" viewBox="0 0 40 40" fill="none" xmlns="http://www.w3.org/2000/svg">
<rect width="40" height="40" rx="20" fill="#6A5AE0"/>
<g clip-path="url(#clip0_3404_19258)">
<path d="M29.2624 16.0455C27.1373 11.1271 23.7096 7.38484 21.9762 8.08469C19.0383 9.27055 23.7292 14.9763 9.28418 20.7986C8.03064 21.3041 7.71726 23.3162 8.24609 24.5214C8.77493 25.7267 10.479 26.9223 11.7227 26.4169C11.9382 26.3294 12.7314 26.0767 12.7314 26.0767C13.6226 27.2625 14.553 26.5627 14.8859 27.3111C15.2874 28.2151 16.1493 30.1883 16.4431 30.859C16.7368 31.5297 17.4028 32.1518 17.8827 31.9671C18.3625 31.7824 20.0078 31.1603 20.6346 30.927C21.2613 30.6937 21.4082 30.13 21.2222 29.6926C21.0165 29.2163 20.1645 29.0802 19.9197 28.5261C19.6748 27.9721 18.8914 26.2128 18.6563 25.649C18.3527 24.8908 19.0089 24.2784 19.9588 24.1812C26.5399 23.5008 27.7641 27.5347 30.0067 26.6307C31.7401 25.9309 31.3876 20.9542 29.2624 16.0455ZM28.5279 24.016C28.146 24.1715 25.5508 22.1497 23.9055 18.3297C22.2602 14.5097 22.4561 11.0202 22.8478 10.8647C23.2396 10.7091 25.7564 13.1586 27.4115 16.9689C29.047 20.7889 28.9099 23.8605 28.5279 24.016Z" fill="white"/>
</g>
<defs>
<clipPath id="clip0_3404_19258">
<rect width="23.1111" height="24" fill="white" transform="translate(8 8)"/>
</clipPath>
</defs>
</svg>
