<svg width="20" height="20" viewBox="0 0 20 20" fill="none" xmlns="http://www.w3.org/2000/svg">
<path d="M17.7189 6.70438C15.9479 2.60567 13.0915 -0.51291 11.647 0.0703057C9.19867 1.05853 13.1079 5.81336 1.07016 10.6654C0.0255358 11.0866 -0.235621 12.7633 0.205081 13.7678C0.645783 14.7722 2.06582 15.7685 3.10229 15.3473C3.28183 15.2744 3.94289 15.0638 3.94289 15.0638C4.68555 16.052 5.46086 15.4688 5.73834 16.0925C6.07295 16.8459 6.79113 18.4902 7.03596 19.0491C7.2808 19.608 7.83576 20.1264 8.23565 19.9725C8.63555 19.8186 10.0066 19.3002 10.5289 19.1058C11.0512 18.9114 11.1737 18.4416 11.0186 18.0771C10.8472 17.6802 10.1372 17.5668 9.93317 17.1051C9.72914 16.6434 9.07625 15.1772 8.88038 14.7074C8.62739 14.0756 9.17419 13.5653 9.96582 13.4843C15.4501 12.9173 16.4703 16.2788 18.3392 15.5255C19.7837 14.9423 19.4899 10.795 17.7189 6.70438ZM17.1068 13.3466C16.7885 13.4762 14.6258 11.7913 13.2548 8.60794C11.8837 5.42455 12.0469 2.51657 12.3734 2.38697C12.6998 2.25736 14.7972 4.29862 16.1765 7.47391C17.5394 10.6573 17.4251 13.217 17.1068 13.3466Z" fill="#6A5AE0"/>
</svg>
