<svg width="24" height="23" viewBox="0 0 24 23" fill="none" xmlns="http://www.w3.org/2000/svg">
<path fill-rule="evenodd" clip-rule="evenodd" d="M0 6.41861C0 2.87371 2.87371 0 6.4186 0H17.5814C21.1263 0 24 2.87371 24 6.41861V13.1163C24 16.6612 21.1263 19.5349 17.5814 19.5349H7.20174C6.8849 19.5349 6.57749 19.6427 6.33008 19.8407L3.17382 22.3657C1.89475 23.3889 0 22.4782 0 20.8402V6.41861ZM17.5 9.75C17.5 10.3023 17.0523 10.75 16.5 10.75H13V14.25C13 14.8023 12.5523 15.25 12 15.25C11.4477 15.25 11 14.8023 11 14.25V10.75H7.5C6.94771 10.75 6.5 10.3023 6.5 9.75C6.5 9.19771 6.94771 8.75 7.5 8.75H11V5.25C11 4.69771 11.4477 4.25 12 4.25C12.5523 4.25 13 4.69771 13 5.25V8.75H16.5C17.0523 8.75 17.5 9.19771 17.5 9.75Z" fill="#FB9730"/>
</svg>
