<svg width="12" height="12" viewBox="0 0 12 12" fill="none" xmlns="http://www.w3.org/2000/svg">
<path fill-rule="evenodd" clip-rule="evenodd" d="M4.53016 10.5572H7.2297C7.36509 10.5572 7.47598 10.6696 7.47598 10.8069V11.2503C7.47598 11.3876 7.3651 11.5 7.2297 11.5H4.53016C4.39477 11.5 4.28388 11.3876 4.28388 11.2503V10.8069C4.28388 10.6696 4.39476 10.5572 4.53016 10.5572ZM4.94302 6.2016C5.16031 6.2016 5.33861 6.38179 5.33861 6.60264C5.33861 6.38235 5.51635 6.2016 5.7342 6.2016C5.95205 6.2016 6.12979 6.38179 6.12979 6.60264C6.12979 6.38179 6.30808 6.2016 6.52537 6.2016C6.74267 6.2016 6.92096 6.38179 6.92096 6.60264C6.92096 6.38235 7.0987 6.2016 7.31655 6.2016C7.53384 6.2016 7.71214 6.38179 7.71214 6.60264V8.47571C7.71214 8.68188 7.64249 8.85868 7.50263 9.00837L7.1583 9.3761C7.01844 9.5258 6.94879 9.70259 6.94879 9.90877V10.1607C6.94879 10.1743 6.93765 10.1856 6.92427 10.1856H4.83593C4.82256 10.1856 4.81142 10.1743 4.81142 10.1607V9.37272C4.81142 9.15976 4.73675 8.97618 4.58799 8.82536L4.04865 8.27858C3.87649 8.10404 3.80795 7.78094 4.00408 7.63408L4.56515 7.21383C4.57184 7.20875 4.57518 7.2014 4.57518 7.19293C4.56794 7.03194 4.55902 6.86757 4.54788 6.71845V6.71676V6.60379C4.54732 6.38179 4.72573 6.2016 4.94302 6.2016ZM9.81161 1.09575L11.1616 3.46596C11.2296 3.58515 11.3806 3.62582 11.4982 3.55747L11.877 3.33605C11.9946 3.26714 12.0347 3.11405 11.9673 2.99487L10.6173 0.624655C10.5493 0.505469 10.3983 0.464794 10.2807 0.533148L9.90187 0.754566C9.78431 0.823479 9.74419 0.976563 9.81161 1.09575ZM6.33484 3.68229C6.44349 3.87321 6.68698 3.9393 6.8753 3.82915C6.68698 3.9393 6.6218 4.18615 6.73044 4.37707C6.83909 4.568 7.08258 4.63408 7.27091 4.52393C7.08258 4.63408 7.0174 4.88094 7.12605 5.07186C7.23469 5.26278 7.47819 5.32886 7.66651 5.21872C7.47819 5.32887 7.413 5.57572 7.52165 5.76664C7.6303 5.95756 7.87379 6.02364 8.06211 5.9135C8.59533 5.60112 9.12855 5.28933 9.66235 4.97695C9.83842 4.87415 9.95487 4.72389 10.0128 4.52675L10.1549 4.04041C10.2128 3.8427 10.3293 3.69302 10.5053 3.59021L10.7204 3.46424C10.7321 3.45747 10.736 3.44221 10.7293 3.43035L9.68408 1.59561C9.67739 1.58374 9.66235 1.57979 9.65064 1.58657L8.97757 1.98085C8.79538 2.08761 8.60148 2.11359 8.39811 2.05823L7.66096 1.85828C7.42528 1.79445 7.11549 1.89612 7.08819 2.14183L7.00963 2.84452C7.00851 2.853 7.00406 2.85977 6.99681 2.86373C6.85529 2.93829 6.71098 3.01228 6.57782 3.07725C6.57726 3.07782 6.5767 3.07782 6.57615 3.07838L6.47976 3.13487C6.29143 3.24445 6.22619 3.49079 6.33484 3.68229ZM2.18839 1.09575L0.838367 3.46596C0.770392 3.58515 0.619391 3.62582 0.50183 3.55747L0.122958 3.33605C0.00539445 3.26714 -0.0347265 3.11405 0.0326964 2.99487L1.38272 0.624655C1.4507 0.505469 1.6017 0.464794 1.71926 0.533148L2.09813 0.754566C2.2157 0.823479 2.25582 0.976563 2.18839 1.09575ZM5.70253 3.63587C5.59388 3.8268 5.35039 3.89288 5.16207 3.78273C5.35039 3.89288 5.41558 4.13973 5.30693 4.33066C5.19828 4.52158 4.95479 4.58766 4.76646 4.47752C4.95479 4.58766 5.01997 4.83452 4.91133 5.02544C4.80268 5.21636 4.55919 5.28244 4.37086 5.1723C4.55919 5.28245 4.62437 5.5293 4.51572 5.72022C4.40707 5.91114 4.16358 5.97723 3.97526 5.86708C3.44204 5.55471 2.90882 5.24291 2.37502 4.93053C2.19895 4.82773 2.0825 4.67748 2.02456 4.48034L1.88248 3.99399C1.82454 3.79628 1.70808 3.6466 1.53202 3.54379L1.31696 3.41783C1.30526 3.41105 1.30136 3.3958 1.30804 3.38393L2.35218 1.55034C2.35887 1.53848 2.37391 1.53453 2.38562 1.54131L3.05869 1.93559C3.24088 2.04235 3.43478 2.06833 3.63815 2.01297L4.3753 1.81301C4.61097 1.74918 4.92077 1.85086 4.94807 2.09657L5.02663 2.79926C5.02774 2.80773 5.0322 2.81451 5.03944 2.81847C5.18097 2.89303 5.32527 2.96702 5.45844 3.03199C5.459 3.03255 5.45955 3.03255 5.46011 3.03312L5.5565 3.08961C5.74649 3.19862 5.81175 3.44495 5.70253 3.63587Z" fill="#FB9730"/>
</svg>
